<svg width="2250" height="1485" viewBox="0 0 2250 1485" fill="none" xmlns="http://www.w3.org/2000/svg">
<g filter="url(#filter0_d)">
<rect x="342" y="200" width="1565.86" height="1086" rx="30" fill="#241E29"/>
</g>
<g filter="url(#filter1_d)">
<path d="M1592.16 695.646C1663.65 695.646 1721.6 637.695 1721.6 566.209C1721.6 494.724 1663.65 436.773 1592.16 436.773C1520.68 436.773 1462.73 494.724 1462.73 566.209C1462.73 637.695 1520.68 695.646 1592.16 695.646Z" fill="url(#paint0_linear)"/>
</g>
<g filter="url(#filter2_d)">
<path fill-rule="evenodd" clip-rule="evenodd" d="M1658.1 567.606C1658.1 603.248 1629.2 632.142 1593.56 632.142C1557.92 632.142 1529.02 603.248 1529.02 567.606C1529.02 531.964 1557.92 503.07 1593.56 503.07C1629.2 503.07 1658.1 531.964 1658.1 567.606ZM1623.73 567.788C1623.73 584.351 1610.3 597.779 1593.74 597.779C1577.18 597.779 1563.75 584.351 1563.75 567.788C1563.75 551.224 1577.18 537.796 1593.74 537.796C1610.3 537.796 1623.73 551.224 1623.73 567.788ZM878.192 618.415C880.194 609.388 885.702 586.319 913.24 586.319C931.765 586.319 936.271 602.868 933.267 618.916C926.258 656.027 888.205 656.027 879.694 656.027H863.672L850.654 725.736H884.2C897.718 725.736 933.768 728.243 927.259 763.348C922.753 786.919 906.23 804.972 878.692 804.972C844.645 804.471 843.143 778.895 842.643 770.369H747.011C746.984 770.746 746.955 771.135 746.925 771.534L746.924 771.548L746.924 771.549L746.923 771.553C745.88 785.495 743.847 812.674 755.523 836.065C773.047 871.672 818.109 888.221 861.168 888.221C914.486 888.221 966.526 861.837 996.267 823.164C998.497 828.411 1001.2 833.418 1004.45 838.071C1023.47 871.17 1063.03 888.221 1109.59 888.221C1150.81 888.221 1191.46 872.442 1223.03 845.083C1246.95 875.985 1286.69 888.221 1318.46 888.221C1376.54 888.221 1462.16 850.609 1481.18 747.3L1500.71 643.991C1520.74 534.163 1437.62 503.07 1390.06 503.07C1339.46 503.07 1252.45 533.614 1227.53 629.472C1214.53 623.766 1200.33 620.922 1186.2 620.922C1182.64 620.922 1177.92 621.31 1174.07 621.626C1170.34 621.933 1167.42 622.172 1167.17 621.925C1170.12 618.483 1173.18 615.161 1176.19 611.9L1176.19 611.899L1176.19 611.898L1176.19 611.898L1176.19 611.897C1179.32 608.509 1182.39 605.187 1185.19 601.865L1269.31 510.091H1159.66L1042.5 645.496C1027.79 663.367 1013.66 683.003 1003.43 704.403C995.247 695.826 983.644 688.019 967.314 682.105C967.498 682.01 967.686 681.913 967.878 681.814L968.37 681.56C983.641 673.676 1021.11 654.332 1030.4 604.373C1040.41 552.217 1005.37 503.07 933.267 503.07C908.233 503.07 875.187 509.59 847.149 527.644C818.61 545.196 794.577 573.781 785.064 618.415H878.192ZM1081.55 753.318C1086.56 727.24 1110.59 704.171 1140.63 704.171C1174.68 704.171 1188.2 730.751 1183.69 754.823C1178.19 784.411 1150.15 804.972 1122.11 804.972C1099.08 804.972 1075.04 787.922 1081.55 753.82V753.318ZM1373.03 586.319C1335.48 586.319 1322.97 621.424 1319.46 641.484L1299.43 749.808C1294.93 771.874 1295.93 804.972 1332.48 804.972C1374.38 804.972 1383.39 764.145 1386.24 751.211C1386.35 750.698 1386.46 750.229 1386.55 749.808L1406.58 641.484L1406.64 641.145C1408.73 629.12 1416.18 586.319 1373.03 586.319Z" fill="url(#paint1_linear)"/>
</g>
<g filter="url(#filter3_d)">
<path d="M673.27 878.75L641.913 1049.39H659.079L671.668 980.901H686.546C705.772 980.901 718.589 977.903 730.949 969.141C742.393 961.07 751.778 946.313 754.753 929.71C757.729 913.569 753.838 898.581 745.598 890.51C736.442 881.748 724.769 878.75 705.314 878.75H673.27ZM687.461 894.661H702.339C717.903 894.661 725.685 896.275 731.865 902.501C737.129 907.574 739.418 918.181 737.358 929.941C735.298 941.47 729.118 952.077 722.023 956.92C712.867 963.607 704.856 964.99 689.521 964.99H674.644L687.461 894.661Z" fill="url(#paint2_linear)"/>
<path d="M844.306 923.945H830.115C828.284 933.4 826.911 940.548 825.766 948.157C822.791 928.096 811.804 920.948 797.842 920.948C771.749 920.948 751.15 948.157 744.054 986.896C736.959 1026.1 749.09 1052.38 773.809 1052.38C789.602 1052.38 803.107 1042.47 811.575 1025.4C810.202 1031.4 809.058 1038.32 806.998 1049.39H821.189L844.306 923.945ZM759.39 986.666C764.654 958.073 778.845 936.167 797.842 936.167C807.684 936.167 813.635 941.47 817.069 950.002C820.731 958.534 820.502 970.063 817.297 986.666C814.322 1003.04 810.431 1014.57 803.564 1023.33C796.927 1031.86 789.145 1037.16 779.303 1037.16C760.305 1037.16 754.125 1015.26 759.39 986.896V986.666Z" fill="url(#paint3_linear)"/>
<path d="M833.144 1049.39H848.479L862.212 975.136C867.019 948.849 880.981 936.167 899.063 936.167C921.036 936.167 919.205 955.997 916.916 968.68L902.038 1049.39H917.374L933.167 963.837C938.66 933.4 926.529 920.948 905.243 920.948C890.823 920.948 875.259 927.635 865.646 945.39C867.477 937.55 868.621 931.094 869.995 923.945H856.261L833.144 1049.39Z" fill="url(#paint4_linear)"/>
<path d="M940.278 986.666C933.64 1022.64 943.025 1052.38 976.442 1052.38C1009.63 1052.38 1029.54 1022.64 1036.18 986.666C1042.82 950.694 1033.66 920.948 1000.47 920.948C967.058 920.948 946.916 950.694 940.507 986.435L940.278 986.666ZM956.3 986.666C962.48 953.23 976.671 935.475 997.728 935.475C1019.01 935.475 1026.34 953.23 1020.16 986.666C1014.21 1020.1 1000.02 1037.86 979.188 1037.86C957.673 1037.86 950.349 1020.1 956.3 986.896V986.666Z" fill="url(#paint5_linear)"/>
<path d="M1036.9 1049.39H1052.24L1064.6 982.054C1070.55 950.463 1088.17 937.32 1098.7 937.32C1100.76 937.32 1102.59 937.781 1104.2 938.934L1107.4 920.948C1096.41 921.409 1079.48 925.79 1068.95 950.233C1070.78 942.623 1072.15 935.475 1074.21 923.945H1060.02L1036.9 1049.39Z" fill="url(#paint6_linear)"/>
<path d="M1194 923.945H1179.81C1177.98 933.4 1176.6 940.548 1175.46 948.157C1172.48 928.096 1161.5 920.948 1147.53 920.948C1121.44 920.948 1100.84 948.157 1093.75 986.896C1086.65 1026.1 1098.78 1052.38 1123.5 1052.38C1139.29 1052.38 1152.8 1042.47 1161.27 1025.4C1159.89 1031.4 1158.75 1038.32 1156.69 1049.39H1170.88L1194 923.945ZM1109.08 986.666C1114.35 958.073 1128.54 936.167 1147.53 936.167C1157.38 936.167 1163.33 941.47 1166.76 950.002C1170.42 958.534 1170.19 970.063 1166.99 986.666C1164.01 1003.04 1160.12 1014.57 1153.26 1023.33C1146.62 1031.86 1138.84 1037.16 1128.99 1037.16C1110 1037.16 1103.82 1015.26 1109.08 986.896V986.666Z" fill="url(#paint7_linear)"/>
<path d="M1183.29 1049.39H1198.63L1212.36 974.214C1214.19 964.299 1217.4 953.692 1224.26 945.851C1231.36 938.473 1238.46 936.167 1246.24 936.167C1254.94 936.167 1261.57 941.009 1262.49 949.31C1263.63 956.459 1262.49 963.376 1260.66 973.292L1246.7 1049.39H1262.03L1275.99 973.753C1277.59 964.529 1281.03 953.922 1287.67 946.313C1295.22 938.011 1302.54 936.167 1309.64 936.167C1318.34 936.167 1324.97 940.779 1326.12 949.31C1327.26 955.075 1326.12 963.607 1324.52 972.6L1310.33 1049.39H1325.66L1340.08 971.447C1342.37 958.764 1343.74 944.699 1340.54 937.089C1337.1 928.327 1329.09 920.948 1314.44 920.948C1305.52 920.948 1297.28 923.945 1290.18 928.557C1284.92 932.477 1280.57 937.55 1276.91 944.468C1277.14 938.703 1275.53 933.169 1272.79 929.48C1268.21 923.715 1261.34 920.948 1252.65 920.948C1241.43 920.948 1226.78 924.868 1216.71 944.468C1218.54 937.089 1219.92 930.402 1221.06 923.945H1206.41L1183.29 1049.39Z" fill="url(#paint8_linear)"/>
<path d="M1446.94 923.945H1432.75C1430.92 933.4 1429.55 940.548 1428.4 948.157C1425.43 928.096 1414.44 920.948 1400.48 920.948C1374.39 920.948 1353.79 948.157 1346.69 986.896C1339.6 1026.1 1351.73 1052.38 1376.45 1052.38C1392.24 1052.38 1405.74 1042.47 1414.21 1025.4C1412.84 1031.4 1411.69 1038.32 1409.63 1049.39H1423.82L1446.94 923.945ZM1362.03 986.666C1367.29 958.073 1381.48 936.167 1400.48 936.167C1410.32 936.167 1416.27 941.47 1419.7 950.002C1423.37 958.534 1423.14 970.063 1419.93 986.666C1416.96 1003.04 1413.07 1014.57 1406.2 1023.33C1399.56 1031.86 1391.78 1037.16 1381.94 1037.16C1362.94 1037.16 1356.76 1015.26 1362.03 986.896V986.666Z" fill="url(#paint9_linear)"/>
</g>
<defs>
<filter id="filter0_d" x="302" y="190" width="1645.86" height="1166" filterUnits="userSpaceOnUse" color-interpolation-filters="sRGB">
<feFlood flood-opacity="0" result="BackgroundImageFix"/>
<feColorMatrix in="SourceAlpha" type="matrix" values="0 0 0 0 0 0 0 0 0 0 0 0 0 0 0 0 0 0 127 0"/>
<feOffset dy="30"/>
<feGaussianBlur stdDeviation="20"/>
<feColorMatrix type="matrix" values="0 0 0 0 0 0 0 0 0 0 0 0 0 0 0 0 0 0 0.25 0"/>
<feBlend mode="normal" in2="BackgroundImageFix" result="effect1_dropShadow"/>
<feBlend mode="normal" in="SourceGraphic" in2="effect1_dropShadow" result="shape"/>
</filter>
<filter id="filter1_d" x="1458.73" y="436.773" width="266.872" height="266.872" filterUnits="userSpaceOnUse" color-interpolation-filters="sRGB">
<feFlood flood-opacity="0" result="BackgroundImageFix"/>
<feColorMatrix in="SourceAlpha" type="matrix" values="0 0 0 0 0 0 0 0 0 0 0 0 0 0 0 0 0 0 127 0"/>
<feOffset dy="4"/>
<feGaussianBlur stdDeviation="2"/>
<feColorMatrix type="matrix" values="0 0 0 0 0 0 0 0 0 0 0 0 0 0 0 0 0 0 0.25 0"/>
<feBlend mode="normal" in2="BackgroundImageFix" result="effect1_dropShadow"/>
<feBlend mode="normal" in="SourceGraphic" in2="effect1_dropShadow" result="shape"/>
</filter>
<filter id="filter2_d" x="742.094" y="503.07" width="920.002" height="393.151" filterUnits="userSpaceOnUse" color-interpolation-filters="sRGB">
<feFlood flood-opacity="0" result="BackgroundImageFix"/>
<feColorMatrix in="SourceAlpha" type="matrix" values="0 0 0 0 0 0 0 0 0 0 0 0 0 0 0 0 0 0 127 0"/>
<feOffset dy="4"/>
<feGaussianBlur stdDeviation="2"/>
<feColorMatrix type="matrix" values="0 0 0 0 0 0 0 0 0 0 0 0 0 0 0 0 0 0 0.25 0"/>
<feBlend mode="normal" in2="BackgroundImageFix" result="effect1_dropShadow"/>
<feBlend mode="normal" in="SourceGraphic" in2="effect1_dropShadow" result="shape"/>
</filter>
<filter id="filter3_d" x="637.913" y="878.75" width="813.029" height="181.634" filterUnits="userSpaceOnUse" color-interpolation-filters="sRGB">
<feFlood flood-opacity="0" result="BackgroundImageFix"/>
<feColorMatrix in="SourceAlpha" type="matrix" values="0 0 0 0 0 0 0 0 0 0 0 0 0 0 0 0 0 0 127 0"/>
<feOffset dy="4"/>
<feGaussianBlur stdDeviation="2"/>
<feColorMatrix type="matrix" values="0 0 0 0 0 0 0 0 0 0 0 0 0 0 0 0 0 0 0.25 0"/>
<feBlend mode="normal" in2="BackgroundImageFix" result="effect1_dropShadow"/>
<feBlend mode="normal" in="SourceGraphic" in2="effect1_dropShadow" result="shape"/>
</filter>
<linearGradient id="paint0_linear" x1="1480.03" y1="630.928" x2="1704.27" y2="501.466" gradientUnits="userSpaceOnUse">
<stop stop-color="#522B78"/>
<stop offset="1" stop-color="#B260A1"/>
</linearGradient>
<linearGradient id="paint1_linear" x1="1202.09" y1="503.07" x2="1202.09" y2="888.221" gradientUnits="userSpaceOnUse">
<stop stop-color="white"/>
<stop offset="1" stop-color="#E0E0E0"/>
</linearGradient>
<linearGradient id="paint2_linear" x1="1044.43" y1="878.75" x2="1044.43" y2="1052.38" gradientUnits="userSpaceOnUse">
<stop stop-color="white"/>
<stop offset="1" stop-color="#E0E0E0"/>
</linearGradient>
<linearGradient id="paint3_linear" x1="1044.43" y1="878.75" x2="1044.43" y2="1052.38" gradientUnits="userSpaceOnUse">
<stop stop-color="white"/>
<stop offset="1" stop-color="#E0E0E0"/>
</linearGradient>
<linearGradient id="paint4_linear" x1="1044.43" y1="878.75" x2="1044.43" y2="1052.38" gradientUnits="userSpaceOnUse">
<stop stop-color="white"/>
<stop offset="1" stop-color="#E0E0E0"/>
</linearGradient>
<linearGradient id="paint5_linear" x1="1044.43" y1="878.75" x2="1044.43" y2="1052.38" gradientUnits="userSpaceOnUse">
<stop stop-color="white"/>
<stop offset="1" stop-color="#E0E0E0"/>
</linearGradient>
<linearGradient id="paint6_linear" x1="1044.43" y1="878.75" x2="1044.43" y2="1052.38" gradientUnits="userSpaceOnUse">
<stop stop-color="white"/>
<stop offset="1" stop-color="#E0E0E0"/>
</linearGradient>
<linearGradient id="paint7_linear" x1="1044.43" y1="878.75" x2="1044.43" y2="1052.38" gradientUnits="userSpaceOnUse">
<stop stop-color="white"/>
<stop offset="1" stop-color="#E0E0E0"/>
</linearGradient>
<linearGradient id="paint8_linear" x1="1044.43" y1="878.75" x2="1044.43" y2="1052.38" gradientUnits="userSpaceOnUse">
<stop stop-color="white"/>
<stop offset="1" stop-color="#E0E0E0"/>
</linearGradient>
<linearGradient id="paint9_linear" x1="1044.43" y1="878.75" x2="1044.43" y2="1052.38" gradientUnits="userSpaceOnUse">
<stop stop-color="white"/>
<stop offset="1" stop-color="#E0E0E0"/>
</linearGradient>
</defs>
</svg>
