<svg width="2250" height="1485" viewBox="0 0 2250 1485" fill="none" xmlns="http://www.w3.org/2000/svg">
<g filter="url(#filter0_d)">
<path d="M1702.37 684.482C1790.71 684.482 1862.32 612.871 1862.32 524.535C1862.32 436.198 1790.71 364.587 1702.37 364.587C1614.03 364.587 1542.42 436.198 1542.42 524.535C1542.42 612.871 1614.03 684.482 1702.37 684.482Z" fill="url(#paint0_linear)"/>
</g>
<g filter="url(#filter1_d)">
<path fill-rule="evenodd" clip-rule="evenodd" d="M820.097 589.046C822.572 577.891 829.378 549.384 863.407 549.384C886.299 549.384 891.868 569.835 888.155 589.666C879.493 635.525 832.471 635.525 821.953 635.525H802.154L786.068 721.665H827.522C844.227 721.665 888.774 724.764 880.731 768.144C875.162 797.27 854.745 819.58 820.716 819.58C778.643 818.961 776.787 787.355 776.168 776.82H657.994C657.959 777.291 657.923 777.776 657.886 778.276L657.885 778.282C656.596 795.512 654.083 829.098 668.512 858.003C690.167 902.002 745.851 922.453 799.061 922.453C864.948 922.453 929.254 889.849 966.006 842.06C968.762 848.544 972.106 854.731 976.114 860.481C999.625 901.383 1048.5 922.453 1106.04 922.453C1156.98 922.453 1207.22 902.954 1246.23 869.146C1275.78 907.333 1324.89 922.453 1364.15 922.453C1435.92 922.453 1541.72 875.974 1565.23 748.313L1589.36 620.651C1614.11 484.934 1511.4 446.511 1452.62 446.511C1390.1 446.511 1282.57 484.255 1251.78 602.71C1235.72 595.659 1218.17 592.144 1200.71 592.144C1196.31 592.144 1190.48 592.623 1185.73 593.014C1181.11 593.393 1177.5 593.689 1177.2 593.384C1180.84 589.131 1184.62 585.026 1188.34 580.998L1188.35 580.995L1188.35 580.994L1188.35 580.992C1192.21 576.805 1196 572.7 1199.47 568.595L1303.41 455.187H1167.92L1023.14 622.511C1004.96 644.595 987.501 668.86 974.854 695.304C964.745 684.705 950.408 675.057 930.228 667.75C930.5 667.609 930.78 667.464 931.066 667.316L931.533 667.075C950.403 657.333 996.705 633.43 1008.19 571.694C1020.56 507.243 977.25 446.511 888.155 446.511C857.22 446.511 816.385 454.568 781.737 476.877C746.47 498.567 716.772 533.891 705.016 589.046H820.097ZM1071.4 755.749C1077.58 723.524 1107.28 695.017 1144.4 695.017C1186.48 695.017 1203.18 727.862 1197.61 757.609C1190.81 794.172 1156.16 819.58 1121.51 819.58C1093.05 819.58 1063.35 798.51 1071.4 756.369V755.749ZM1431.59 549.384C1385.18 549.384 1369.72 592.764 1365.39 617.553L1340.64 751.411C1335.07 778.679 1336.31 819.58 1381.47 819.58C1433.25 819.58 1444.38 769.128 1447.91 753.146C1448.05 752.512 1448.18 751.932 1448.29 751.411L1473.04 617.553L1473.11 617.134C1475.7 602.274 1484.9 549.384 1431.59 549.384ZM1783.85 526.26C1783.85 570.305 1748.14 606.01 1704.1 606.01C1660.05 606.01 1624.35 570.305 1624.35 526.26C1624.35 482.216 1660.05 446.511 1704.1 446.511C1748.14 446.511 1783.85 482.216 1783.85 526.26ZM1741.38 526.485C1741.38 546.953 1724.79 563.546 1704.32 563.546C1683.85 563.546 1667.26 546.953 1667.26 526.485C1667.26 506.017 1683.85 489.424 1704.32 489.424C1724.79 489.424 1741.38 506.017 1741.38 526.485Z" fill="url(#paint1_linear)"/>
</g>
<g filter="url(#filter2_d)">
<path d="M566.87 910.75L528.121 1121.61H549.334L564.89 1036.98H583.275C607.033 1036.98 622.872 1033.28 638.146 1022.45C652.288 1012.48 663.884 994.239 667.561 973.722C671.238 953.776 666.43 935.255 656.247 925.282C644.934 914.454 630.509 910.75 606.468 910.75H566.87ZM584.406 930.411H602.791C622.024 930.411 631.64 932.405 639.277 940.099C645.782 946.368 648.611 959.475 646.065 974.007C643.52 988.255 635.883 1001.36 627.115 1007.35C615.801 1015.61 605.902 1017.32 586.952 1017.32H568.567L584.406 930.411Z" fill="#39244E"/>
<path d="M778.224 966.599H760.688C758.425 978.282 756.728 987.115 755.314 996.518C751.637 971.728 738.061 962.895 720.807 962.895C688.564 962.895 663.108 996.518 654.34 1044.39C645.572 1092.83 660.563 1125.31 691.109 1125.31C710.625 1125.31 727.313 1113.06 737.778 1091.97C736.081 1099.38 734.667 1107.93 732.121 1121.61H749.657L778.224 966.599ZM673.291 1044.1C679.796 1008.77 697.332 981.701 720.807 981.701C732.97 981.701 740.323 988.255 744.566 998.798C749.091 1009.34 748.809 1023.59 744.849 1044.1C741.172 1064.34 736.364 1078.58 727.878 1089.41C719.676 1099.95 710.06 1106.51 697.898 1106.51C674.422 1106.51 666.785 1079.44 673.291 1044.39V1044.1Z" fill="#39244E"/>
<path d="M764.431 1121.61H783.381L800.351 1029.86C806.291 997.373 823.544 981.701 845.888 981.701C873.041 981.701 870.778 1006.21 867.95 1021.88L849.565 1121.61H868.516L888.031 1015.89C894.82 978.282 879.829 962.895 853.525 962.895C835.706 962.895 816.473 971.158 804.594 993.099C806.857 983.411 808.271 975.432 809.968 966.599H792.998L764.431 1121.61Z" fill="#39244E"/>
<path d="M896.819 1044.1C888.617 1088.56 900.213 1125.31 941.508 1125.31C982.519 1125.31 1007.13 1088.56 1015.33 1044.1C1023.53 999.652 1012.22 962.895 971.206 962.895C929.911 962.895 905.022 999.652 897.102 1043.82L896.819 1044.1ZM916.618 1044.1C924.255 1002.79 941.791 980.846 967.812 980.846C994.116 980.846 1003.17 1002.79 995.53 1044.1C988.176 1085.42 970.64 1107.36 944.902 1107.36C918.315 1107.36 909.264 1085.42 916.618 1044.39V1044.1Z" fill="#39244E"/>
<path d="M1016.22 1121.61H1035.17L1050.45 1038.41C1057.8 999.368 1079.58 983.126 1092.59 983.126C1095.14 983.126 1097.4 983.696 1099.38 985.12L1103.34 962.895C1089.76 963.464 1068.83 968.878 1055.82 999.083C1058.08 989.679 1059.78 980.846 1062.33 966.599H1044.79L1016.22 1121.61Z" fill="#39244E"/>
<path d="M1210.35 966.599H1192.81C1190.55 978.282 1188.85 987.115 1187.44 996.518C1183.76 971.728 1170.18 962.895 1152.93 962.895C1120.69 962.895 1095.23 996.518 1086.46 1044.39C1077.7 1092.83 1092.69 1125.31 1123.23 1125.31C1142.75 1125.31 1159.44 1113.06 1169.9 1091.97C1168.21 1099.38 1166.79 1107.93 1164.25 1121.61H1181.78L1210.35 966.599ZM1105.41 1044.1C1111.92 1008.77 1129.46 981.701 1152.93 981.701C1165.09 981.701 1172.45 988.255 1176.69 998.798C1181.22 1009.34 1180.93 1023.59 1176.97 1044.1C1173.3 1064.34 1168.49 1078.58 1160 1089.41C1151.8 1099.95 1142.18 1106.51 1130.02 1106.51C1106.55 1106.51 1098.91 1079.44 1105.41 1044.39V1044.1Z" fill="#39244E"/>
<path d="M1197.12 1121.61H1216.07L1233.04 1028.72C1235.3 1016.46 1239.26 1003.36 1247.75 993.669C1256.52 984.55 1265.29 981.701 1274.9 981.701C1285.65 981.701 1293.85 987.685 1294.98 997.943C1296.4 1006.78 1294.98 1015.32 1292.72 1027.58L1275.47 1121.61H1294.42L1311.67 1028.15C1313.65 1016.75 1317.89 1003.64 1326.1 994.239C1335.43 983.98 1344.48 981.701 1353.25 981.701C1364 981.701 1372.2 987.4 1373.61 997.943C1375.03 1005.07 1373.61 1015.61 1371.63 1026.72L1354.1 1121.61H1373.05L1390.87 1025.3C1393.69 1009.63 1395.39 992.244 1391.43 982.841C1387.19 972.013 1377.29 962.895 1359.19 962.895C1348.16 962.895 1337.97 966.599 1329.21 972.298C1322.7 977.142 1317.33 983.411 1312.8 991.959C1313.08 984.835 1311.1 977.997 1307.71 973.438C1302.05 966.314 1293.57 962.895 1282.82 962.895C1268.96 962.895 1250.86 967.739 1238.42 991.959C1240.68 982.841 1242.38 974.577 1243.79 966.599H1225.69L1197.12 1121.61Z" fill="#39244E"/>
<path d="M1522.92 966.599H1505.38C1503.12 978.282 1501.42 987.115 1500.01 996.518C1496.33 971.728 1482.75 962.895 1465.5 962.895C1433.26 962.895 1407.8 996.518 1399.03 1044.39C1390.27 1092.83 1405.26 1125.31 1435.8 1125.31C1455.32 1125.31 1472.01 1113.06 1482.47 1091.97C1480.78 1099.38 1479.36 1107.93 1476.82 1121.61H1494.35L1522.92 966.599ZM1417.98 1044.1C1424.49 1008.77 1442.03 981.701 1465.5 981.701C1477.66 981.701 1485.02 988.255 1489.26 998.798C1493.79 1009.34 1493.5 1023.59 1489.54 1044.1C1485.87 1064.34 1481.06 1078.58 1472.57 1089.41C1464.37 1099.95 1454.75 1106.51 1442.59 1106.51C1419.12 1106.51 1411.48 1079.44 1417.98 1044.39V1044.1Z" fill="#39244E"/>
</g>
<defs>
<filter id="filter0_d" x="1538.42" y="364.587" width="327.895" height="327.895" filterUnits="userSpaceOnUse" color-interpolation-filters="sRGB">
<feFlood flood-opacity="0" result="BackgroundImageFix"/>
<feColorMatrix in="SourceAlpha" type="matrix" values="0 0 0 0 0 0 0 0 0 0 0 0 0 0 0 0 0 0 127 0"/>
<feOffset dy="4"/>
<feGaussianBlur stdDeviation="2"/>
<feColorMatrix type="matrix" values="0 0 0 0 0 0 0 0 0 0 0 0 0 0 0 0 0 0 0.25 0"/>
<feBlend mode="normal" in2="BackgroundImageFix" result="effect1_dropShadow"/>
<feBlend mode="normal" in="SourceGraphic" in2="effect1_dropShadow" result="shape"/>
</filter>
<filter id="filter1_d" x="652.86" y="446.511" width="1134.99" height="483.942" filterUnits="userSpaceOnUse" color-interpolation-filters="sRGB">
<feFlood flood-opacity="0" result="BackgroundImageFix"/>
<feColorMatrix in="SourceAlpha" type="matrix" values="0 0 0 0 0 0 0 0 0 0 0 0 0 0 0 0 0 0 127 0"/>
<feOffset dy="4"/>
<feGaussianBlur stdDeviation="2"/>
<feColorMatrix type="matrix" values="0 0 0 0 0 0 0 0 0 0 0 0 0 0 0 0 0 0 0.25 0"/>
<feBlend mode="normal" in2="BackgroundImageFix" result="effect1_dropShadow"/>
<feBlend mode="normal" in="SourceGraphic" in2="effect1_dropShadow" result="shape"/>
</filter>
<filter id="filter2_d" x="524.121" y="910.75" width="1002.8" height="222.564" filterUnits="userSpaceOnUse" color-interpolation-filters="sRGB">
<feFlood flood-opacity="0" result="BackgroundImageFix"/>
<feColorMatrix in="SourceAlpha" type="matrix" values="0 0 0 0 0 0 0 0 0 0 0 0 0 0 0 0 0 0 127 0"/>
<feOffset dy="4"/>
<feGaussianBlur stdDeviation="2"/>
<feColorMatrix type="matrix" values="0 0 0 0 0 0 0 0 0 0 0 0 0 0 0 0 0 0 0.25 0"/>
<feBlend mode="normal" in2="BackgroundImageFix" result="effect1_dropShadow"/>
<feBlend mode="normal" in="SourceGraphic" in2="effect1_dropShadow" result="shape"/>
</filter>
<linearGradient id="paint0_linear" x1="1702.37" y1="364.587" x2="1702.37" y2="684.482" gradientUnits="userSpaceOnUse">
<stop stop-color="white"/>
<stop offset="1" stop-color="#E0E0E0"/>
</linearGradient>
<linearGradient id="paint1_linear" x1="732.183" y1="803.468" x2="1185.89" y2="183.224" gradientUnits="userSpaceOnUse">
<stop stop-color="#522B78"/>
<stop offset="1" stop-color="#B260A1"/>
</linearGradient>
</defs>
</svg>
