<svg width="2250" height="1485" viewBox="0 0 2250 1485" fill="none" xmlns="http://www.w3.org/2000/svg">
<g filter="url(#filter0_d)">
<path d="M1959.48 527.493V502.28C1935.29 503.971 1917.25 510.113 1907.1 533.969H1906.41V507.042H1882.6V693.488H1906.41V584.42C1906.32 551.016 1926.79 530.231 1959.48 527.493ZM534.935 513.208C524.758 490.165 508.069 470.598 486.919 456.915C465.77 443.231 441.083 436.026 415.893 436.187C344.754 436.14 285.447 495.114 285.447 566.278C285.447 638.204 344.754 698.535 417.012 698.535C466.081 698.535 514.15 668.869 533.673 623.181H479.366C461.653 642.632 443.249 654.894 415.964 654.894C369.276 654.894 332.112 612.3 332.112 566.968C332.112 522.303 367.824 479.709 414.25 479.709C442.201 479.709 464.057 492.328 481.771 513.042L534.935 513.208ZM595.051 482.947V441.258H549.815V482.947H595.051ZM595.051 693.583V504.375H549.815V693.559L595.051 693.583ZM675.999 504.399V441.258H630.763V504.375H608.598V544.517H630.763V693.488H675.999V544.517H694.379L747.376 675.798L712.592 756.557H761.352L870.084 504.375H818.611L772.923 625.799L730.068 504.375L675.999 504.399ZM1024.05 516.684C1024.05 537.469 1013.46 553.826 994.721 562.683C980.436 569.516 967.103 569.159 951.414 569.159H907.821V464.091H951.437C967.127 464.091 980.412 463.758 994.745 470.591C1013.48 479.448 1024.08 495.78 1024.08 516.589L1024.05 516.684ZM1049.24 516.684C1049.46 504.764 1046.71 492.976 1041.24 482.385C1035.77 471.793 1027.74 462.732 1017.89 456.02C998.84 443.068 975.293 441.354 952.795 441.354H882.56V693.488H907.797V591.92H952.795C975.293 591.92 998.816 590.182 1017.89 577.254C1027.74 570.542 1035.77 561.482 1041.25 550.891C1046.73 540.3 1049.48 528.511 1049.27 516.589L1049.24 516.684ZM1088.72 693.583V441.258H1064.91V693.488L1088.72 693.583ZM1279.9 600.515C1279.9 642.108 1247.54 676.56 1205.26 676.56C1161.62 676.56 1128.9 644.513 1128.9 600.872C1128.9 557.231 1160.93 523.827 1205.26 523.827C1247.54 523.827 1279.9 558.945 1279.9 600.515ZM1302.37 693.488V507.042H1278.56V539.755H1277.9C1261.85 514.542 1234.59 502.28 1205.28 502.28C1150.4 502.28 1105.1 543.874 1105.1 599.729C1105.1 655.989 1149.38 697.916 1205.28 697.916C1234.23 697.916 1261.52 685.321 1277.9 660.751H1278.56V693.488H1302.37ZM1481.41 693.488V590.872C1481.41 539.445 1452.84 502.28 1399.27 502.28C1377.11 502.28 1354.27 511.804 1341.99 530.851H1341.32V507.042H1317.51V693.488H1341.32V589.206C1341.32 572.135 1345.75 552.04 1358.7 539.755C1369.7 529.458 1384.2 523.728 1399.26 523.728C1414.32 523.728 1428.82 529.458 1439.82 539.755C1453.1 552.374 1457.53 573.087 1457.53 590.872V693.488H1481.41ZM1661.14 693.488V590.872C1661.14 539.445 1632.57 502.28 1579 502.28C1556.84 502.28 1534 511.804 1521.74 530.851H1521.05V507.042H1497.24V693.488H1521.05V589.206C1521.05 572.135 1525.48 552.04 1538.43 539.755C1549.43 529.461 1563.94 523.734 1579 523.734C1594.07 523.734 1608.57 529.461 1619.57 539.755C1632.88 552.374 1637.31 573.087 1637.31 590.872V693.488H1661.14ZM1845.89 587.468H1700.4C1706.19 551.016 1735.85 523.732 1772.99 523.732C1810.49 523.732 1839.82 551.016 1845.96 587.468H1845.89ZM1870.41 602.134C1870.41 548.302 1827.13 502.28 1772.61 502.28C1719.07 502.28 1675.81 547.255 1675.81 600.419C1675.71 623.414 1683.79 645.694 1698.59 663.29C1713.39 680.887 1733.96 692.657 1756.63 696.505C1779.3 700.352 1802.6 696.027 1822.38 684.299C1842.16 672.571 1857.13 654.203 1864.63 632.466H1839.39C1829.16 660.084 1801.3 676.464 1772.61 676.464C1736.14 676.464 1702.04 645.751 1700.33 608.943H1870.06C1870.13 606.562 1870.49 604.515 1870.49 602.134H1870.41Z" fill="black"/>
<path d="M1205.62 737.819C1234.78 737.819 1244.78 742.295 1252.02 749.319C1262.45 759.533 1265.85 775.056 1262.85 791.008C1259.85 806.96 1250.09 823.792 1238.61 832.292C1226.04 841.435 1214.57 845.911 1190.09 845.911H1174.36L1165.19 895.266H1124.98L1154.14 737.819H1205.62ZM1180.95 810.579H1195.62C1201.04 810.808 1206.47 810 1211.59 808.198C1217.33 805.817 1222.42 801.055 1224.14 791.532C1225.85 782.008 1222.21 777.699 1217.11 775.366C1212.02 773.032 1205.4 772.985 1200.95 772.985H1187.76L1180.95 810.579Z" fill="black"/>
<path d="M1247.76 818.245C1257.28 766.747 1302.87 734.915 1346.27 734.915C1394.8 734.915 1422.46 772.795 1414.37 816.626C1406.27 860.458 1364.58 898.314 1315.63 898.314C1266.06 898.314 1240.3 858.958 1247.76 818.531V818.245ZM1288.4 816.341C1283.92 840.387 1296.06 862.934 1323.08 862.934C1351.65 862.934 1370.32 836.983 1373.94 816.769C1377.56 796.556 1368.82 770.152 1339.89 770.152C1312.01 770.152 1292.44 793.961 1288.4 816.126V816.341Z" fill="black"/>
<path d="M1565.03 836.34C1549.07 873.577 1512.03 898.243 1473.96 898.243C1424.58 898.243 1398.42 858.887 1406.3 816.341C1413.75 776.128 1452.46 734.844 1503.91 734.844C1553.26 734.844 1572.64 772.938 1572.22 797.603H1530.08C1527.69 785.913 1518.79 770.152 1497.1 770.152C1470.08 770.152 1450.51 793.77 1446.46 816.127C1441.98 839.935 1453.91 862.934 1480.08 862.934C1505.17 862.934 1519.43 841.864 1522.93 836.34H1565.03Z" fill="black"/>
<path d="M1590.45 737.819H1630.66L1617.47 808.674L1675.57 737.819H1717.59L1651.21 816.126L1693.76 895.266H1644.83L1613.88 827.173L1601.31 895.266H1561.19L1590.45 737.819Z" fill="black"/>
<path d="M1721.21 737.819H1810.37L1803.78 773.128H1754.73L1750.28 797.603H1797.82L1791.23 832.935H1743.78L1738.87 859.958H1787.82L1781.21 895.266H1692.07L1721.21 737.819Z" fill="black"/>
<path d="M1824.63 773.128H1793.56L1800.16 737.819H1902.34L1895.75 773.128H1864.8L1842.25 895.266H1802.08L1824.63 773.128Z" fill="black"/>
<path d="M1024.24 732.938C1038.95 748.783 1048.41 768.786 1051.32 790.21C1054.22 811.634 1050.44 833.434 1040.48 852.625L1038.1 856.744L953.676 1004.05V850.482C964.785 848.883 974.946 843.332 982.296 834.849C989.645 826.366 993.691 815.517 993.691 804.293C993.691 793.069 989.645 782.221 982.296 773.737C974.946 765.254 964.785 759.704 953.676 758.104V732.938H938.819V758.319C928.064 760.27 918.335 765.936 911.33 774.327C904.325 782.718 900.487 793.303 900.487 804.234C900.487 815.165 904.325 825.749 911.33 834.14C918.335 842.531 928.064 848.197 938.819 850.149V908.932C919.166 907.374 900.348 900.316 884.519 888.564C868.689 876.813 856.487 860.842 849.308 842.481C842.13 824.119 840.265 804.108 843.926 784.736C847.588 765.363 856.628 747.413 870.013 732.938H815.683V958.645L947.128 1040.07L1078.57 958.645V732.938H1024.24Z" fill="url(#paint0_linear)"/>
</g>
<defs>
<filter id="filter0_d" x="276.447" y="431.185" width="1692.03" height="621.886" filterUnits="userSpaceOnUse" color-interpolation-filters="sRGB">
<feFlood flood-opacity="0" result="BackgroundImageFix"/>
<feColorMatrix in="SourceAlpha" type="matrix" values="0 0 0 0 0 0 0 0 0 0 0 0 0 0 0 0 0 0 127 0"/>
<feOffset dy="4"/>
<feGaussianBlur stdDeviation="4.5"/>
<feColorMatrix type="matrix" values="0 0 0 0 0 0 0 0 0 0 0 0 0 0 0 0 0 0 0.12 0"/>
<feBlend mode="normal" in2="BackgroundImageFix" result="effect1_dropShadow"/>
<feBlend mode="normal" in="SourceGraphic" in2="effect1_dropShadow" result="shape"/>
</filter>
<linearGradient id="paint0_linear" x1="1095.76" y1="762.747" x2="800.872" y2="932.999" gradientUnits="userSpaceOnUse">
<stop stop-color="#FFD62A"/>
<stop offset="0.23" stop-color="#FFD42D"/>
<stop offset="0.38" stop-color="#FFCD35"/>
<stop offset="0.5" stop-color="#FFC144"/>
<stop offset="0.61" stop-color="#FFB058"/>
<stop offset="0.71" stop-color="#FF9973"/>
<stop offset="0.8" stop-color="#FF7E94"/>
<stop offset="0.89" stop-color="#FF5EBB"/>
<stop offset="0.97" stop-color="#FF39E8"/>
<stop offset="1" stop-color="#FF2AFA"/>
</linearGradient>
</defs>
</svg>
