<svg width="2250" height="1485" viewBox="0 0 2250 1485" fill="none" xmlns="http://www.w3.org/2000/svg">
<g filter="url(#filter0_d)">
<rect x="619" y="237" width="1012" height="1012" rx="208" fill="url(#paint0_linear)"/>
</g>
<g filter="url(#filter1_d)">
<path d="M806.746 466.51C838.437 466.51 849.303 471.327 857.167 478.885C868.498 489.877 872.198 506.582 868.938 523.749C865.679 540.915 855.072 559.03 842.602 568.177C828.942 578.016 816.473 582.833 789.878 582.833H772.778L762.817 635.947H719.122L750.813 466.51H806.746ZM779.944 544.81H795.88C801.778 545.057 807.67 544.187 813.239 542.248C819.474 539.686 825.01 534.561 826.873 524.313C828.736 514.064 824.777 509.426 819.241 506.915C813.705 504.404 806.513 504.353 801.675 504.353H787.343L779.944 544.81Z" fill="white"/>
<path d="M852.965 556.847C863.278 501.019 912.648 466.51 959.647 466.51C1012.19 466.51 1042.15 507.574 1033.38 555.092C1024.61 602.609 979.472 643.648 926.467 643.648C872.791 643.648 844.896 600.983 852.965 557.157V556.847ZM896.973 554.782C892.127 580.851 905.275 605.294 934.536 605.294C965.473 605.294 985.686 577.16 989.604 555.247C993.523 533.334 984.061 504.71 952.738 504.71C922.548 504.71 901.356 530.52 896.973 554.55V554.782Z" fill="white"/>
<path d="M1196.44 576.541C1178.97 616.908 1138.38 643.648 1096.67 643.648C1042.58 643.648 1013.91 600.983 1022.55 554.86C1030.71 511.265 1073.12 466.51 1129.49 466.51C1183.56 466.51 1204.79 507.807 1204.32 534.547H1158.15C1155.54 521.874 1145.79 504.787 1122.03 504.787C1092.42 504.787 1070.98 530.391 1066.55 554.627C1061.64 580.438 1074.71 605.371 1103.38 605.371C1130.87 605.371 1146.49 582.529 1150.33 576.541H1196.44Z" fill="white"/>
<path d="M1223.71 466.51H1267.27L1252.98 542.76L1315.92 466.51H1361.44L1289.53 550.78L1335.62 635.947H1282.62L1249.09 562.668L1235.47 635.947H1192.01L1223.71 466.51Z" fill="white"/>
<path d="M1361.75 466.51H1456.94L1449.9 504.507H1397.54L1392.78 530.846H1443.55L1436.5 568.869H1385.84L1380.61 597.95H1432.87L1425.8 635.947H1330.63L1361.75 466.51Z" fill="white"/>
<path d="M1475.64 504.507H1443.08L1449.99 466.51H1557.06L1550.15 504.507H1517.72L1494.1 635.947H1452.01L1475.64 504.507Z" fill="white"/>
<path d="M1218.15 685.238C1234.01 702.481 1244.2 724.251 1247.34 747.567C1250.47 770.883 1246.39 794.607 1235.66 815.493L1233.09 819.975L1142.07 980.287V813.161C1154.05 811.42 1165 805.38 1172.93 796.147C1180.85 786.915 1185.21 775.109 1185.21 762.893C1185.21 750.678 1180.85 738.872 1172.93 729.639C1165 720.407 1154.05 714.366 1142.07 712.626V685.238H1126.06V712.859C1114.46 714.983 1103.97 721.149 1096.42 730.281C1088.87 739.413 1084.73 750.932 1084.73 762.828C1084.73 774.725 1088.87 786.244 1096.42 795.376C1103.97 804.508 1114.46 810.674 1126.06 812.798V876.772C1104.87 875.077 1084.58 867.395 1067.51 854.606C1050.45 841.817 1037.29 824.436 1029.55 804.453C1021.82 784.47 1019.8 762.691 1023.75 741.609C1027.7 720.526 1037.45 700.991 1051.88 685.238H993.303V930.875L1135.01 1019.49L1276.72 930.875V685.238H1218.15Z" fill="white"/>
</g>
<defs>
<filter id="filter0_d" x="615" y="237" width="1020" height="1020" filterUnits="userSpaceOnUse" color-interpolation-filters="sRGB">
<feFlood flood-opacity="0" result="BackgroundImageFix"/>
<feColorMatrix in="SourceAlpha" type="matrix" values="0 0 0 0 0 0 0 0 0 0 0 0 0 0 0 0 0 0 127 0"/>
<feOffset dy="4"/>
<feGaussianBlur stdDeviation="2"/>
<feColorMatrix type="matrix" values="0 0 0 0 0 0 0 0 0 0 0 0 0 0 0 0 0 0 0.25 0"/>
<feBlend mode="normal" in2="BackgroundImageFix" result="effect1_dropShadow"/>
<feBlend mode="normal" in="SourceGraphic" in2="effect1_dropShadow" result="shape"/>
</filter>
<filter id="filter1_d" x="715.122" y="466.51" width="845.942" height="560.981" filterUnits="userSpaceOnUse" color-interpolation-filters="sRGB">
<feFlood flood-opacity="0" result="BackgroundImageFix"/>
<feColorMatrix in="SourceAlpha" type="matrix" values="0 0 0 0 0 0 0 0 0 0 0 0 0 0 0 0 0 0 127 0"/>
<feOffset dy="4"/>
<feGaussianBlur stdDeviation="2"/>
<feColorMatrix type="matrix" values="0 0 0 0 0 0 0 0 0 0 0 0 0 0 0 0 0 0 0.25 0"/>
<feBlend mode="normal" in2="BackgroundImageFix" result="effect1_dropShadow"/>
<feBlend mode="normal" in="SourceGraphic" in2="effect1_dropShadow" result="shape"/>
</filter>
<linearGradient id="paint0_linear" x1="619" y1="237" x2="787.547" y2="1302.39" gradientUnits="userSpaceOnUse">
<stop stop-color="#EC68F6"/>
<stop offset="1" stop-color="#EA9430"/>
</linearGradient>
</defs>
</svg>
