<svg width="2250" height="1485" viewBox="0 0 2250 1485" fill="none" xmlns="http://www.w3.org/2000/svg">
<path fill-rule="evenodd" clip-rule="evenodd" d="M484.634 425.484L515.246 425.509L459.209 328.455L443.912 354.949L403.153 284.355L321.743 425.369L484.641 425.495L484.634 425.484Z" fill="black"/>
<path fill-rule="evenodd" clip-rule="evenodd" d="M484.634 425.484L515.246 425.509L459.209 328.455L443.912 354.949L403.153 284.355L321.743 425.369L484.641 425.495L484.634 425.484ZM515.246 441.198L510.023 441.194L510.03 441.205L484.641 441.185L321.743 441.056L294.59 441.036L308.147 417.555L389.556 276.543L403.171 252.961L416.752 276.48L443.912 323.523L445.613 320.58L459.209 297.032L472.806 320.58L528.842 417.634L542.459 441.218L515.246 441.198Z" fill="black"/>
<path fill-rule="evenodd" clip-rule="evenodd" d="M484.634 425.484L515.246 425.509L459.209 328.455L443.912 354.949L403.153 284.355L321.743 425.369L484.641 425.495L484.634 425.484ZM384.359 333.187L398.556 326.972L407.162 335.187L416.063 333.639L425.637 339.579L403.151 300.631L384.359 333.187ZM448.9 364.174L459.666 361.847L479.842 382.057L459.205 346.313L448.9 364.174Z" fill="white"/>
<path fill-rule="evenodd" clip-rule="evenodd" d="M990.403 402.523V409.93V425.918V447.887C990.403 453.402 985.932 457.877 980.413 457.877H958.457H839.869H817.906C812.394 457.877 807.921 453.402 807.921 447.887V425.918L807.919 366.314L803.918 359.39L792.936 340.364C790.184 335.59 791.813 329.479 796.588 326.72L815.609 315.74L918.308 256.448L937.325 245.464C942.1 242.705 948.213 244.35 950.971 249.125L961.954 268.146L965.954 275.069L849.132 342.518H990.398L990.403 402.523Z" fill="black"/>
<path fill-rule="evenodd" clip-rule="evenodd" d="M1006.15 402.523V409.93V425.918V447.887C1006.15 454.993 1003.27 461.43 998.613 466.088C993.955 470.745 987.52 473.628 980.413 473.628H958.457H839.869H817.906C810.841 473.628 804.404 470.723 799.711 466.027C795.055 461.365 792.171 454.95 792.171 447.887V425.918H792.234L792.229 370.566L790.321 367.265V367.205L779.339 348.179C775.791 342.018 775.057 335.032 776.743 328.723C778.441 322.376 782.563 316.674 788.713 313.124H788.773L807.795 302.144L910.449 242.879L910.433 242.852L929.45 231.867C935.62 228.301 942.626 227.574 948.962 229.273C955.314 230.974 961.02 235.105 964.568 241.247L975.55 260.271L979.551 267.194L987.421 280.818L973.829 288.666L907.837 326.768H990.398H1006.09L1006.09 342.518L1006.09 402.523H1006.15ZM990.403 402.523V409.93V425.918V447.887C990.403 453.402 985.932 457.878 980.413 457.878H958.457H839.869H817.906C812.394 457.878 807.921 453.402 807.921 447.887V425.918L807.919 366.314L803.918 359.39L792.936 340.364C790.184 335.59 791.813 329.479 796.588 326.72L815.609 315.74L918.308 256.448L937.325 245.464C942.1 242.705 948.213 244.35 950.971 249.125L961.954 268.146L965.954 275.069L849.132 342.518H990.398L990.403 402.523Z" fill="black"/>
<path fill-rule="evenodd" clip-rule="evenodd" d="M990.403 402.523V409.93V425.918V447.887C990.403 453.402 985.932 457.877 980.413 457.877H958.457H839.869H817.906C812.394 457.877 807.921 453.402 807.921 447.887V425.918L807.919 366.314L803.918 359.39L792.936 340.364C790.184 335.59 791.813 329.479 796.588 326.72L815.609 315.74L918.308 256.448L937.325 245.464C942.1 242.705 948.213 244.35 950.971 249.125L961.954 268.146L965.954 275.069L849.132 342.518H990.398L990.403 402.523ZM816.388 342.518V349.889L833.688 339.901V316.836L816.388 326.824V342.518ZM920.203 266.886L937.503 256.901V279.961L920.198 289.953L920.203 266.886ZM885.598 286.864L902.893 276.878V299.939L885.598 309.933V286.864ZM850.993 306.846L868.291 296.856L868.293 319.921L850.993 329.911V306.846ZM835.002 352.508H854.975L843.448 372.483H823.468L835.002 352.508ZM829.251 382.464H969.068V437.9H829.251V382.464ZM954.877 352.508H974.853L963.319 372.483H943.339L954.877 352.508ZM914.92 352.508H934.895L923.362 372.483H903.384L914.92 352.508ZM874.96 352.508H894.937L883.404 372.483H863.426L874.96 352.508Z" fill="white"/>
<path d="M1335.48 232.13L1395.76 266.459L1466.11 225.846V309.42L1405.96 344.151C1405.96 433.125 1405.96 373.577 1405.96 476.154L1325.54 429.732V321.118L1265.39 355.849V272.268C1273.83 267.374 1330.94 234.592 1335.48 232.13Z" fill="black"/>
<path fill-rule="evenodd" clip-rule="evenodd" d="M1390.21 401.673L1341.29 373.433V420.64L1390.21 448.875V401.673ZM1450.36 253.125L1401.44 281.36V328.568L1450.36 300.328V253.125ZM1390.21 281.36L1341.29 253.125V300.328L1390.21 328.568V281.36ZM1330.05 253.125L1281.14 281.36V328.568L1330.05 300.328V293.839V253.125ZM1390.21 341.519L1341.29 313.279V360.482L1390.21 388.721V348.008V341.519Z" fill="white"/>
<path d="M1818.52 431.863L1775.26 356.918L1771.84 351L1775.26 345.083L1818.52 270.137L1838.96 281.975L1805.93 339.174H1905.88V362.835H1805.93L1838.96 420.026L1818.52 431.863Z" fill="white"/>
<path fill-rule="evenodd" clip-rule="evenodd" d="M1804.93 439.675L1761.69 364.779L1761.66 364.793L1758.24 358.875L1753.7 351L1758.24 343.125L1761.66 337.208L1761.69 337.221L1804.93 262.325L1812.81 248.67L1826.4 256.541L1846.84 268.378L1860.41 276.242L1852.56 289.85L1833.17 323.424H1905.88H1921.63V339.174V362.835V378.585H1905.88H1833.17L1852.56 412.151L1860.41 425.759L1846.84 433.622L1826.4 445.46L1812.81 453.33L1804.93 439.675ZM1818.52 431.863L1775.26 356.918L1771.84 351L1775.26 345.083L1818.52 270.137L1838.96 281.975L1805.93 339.174H1905.88V362.835H1805.93L1838.96 420.026L1818.52 431.863Z" fill="black"/>
<path fill-rule="evenodd" clip-rule="evenodd" d="M648.738 759.566L558 707.182L648.812 654.75L739.55 707.135L648.738 759.566ZM648.738 823.502L558 771.118L574.006 761.877L648.709 805L723.514 761.816L739.55 771.075L648.738 823.502ZM648.738 791.536L558 739.154L574.006 729.911L648.709 773.037L723.514 729.846L739.55 739.105L648.738 791.536Z" fill="white"/>
<path fill-rule="evenodd" clip-rule="evenodd" d="M554.292 723.15L550.188 720.779L526.606 707.166L550.125 693.585L640.937 641.153L648.781 636.624L656.626 641.153L747.364 693.538L770.947 707.153L747.425 720.731L743.29 723.119L747.425 725.508L770.976 739.105L747.425 752.702L743.29 755.089L747.425 757.478L770.944 771.057L747.364 784.672L656.552 837.099L648.738 841.61L640.926 837.099L550.188 784.715L526.635 771.118L550.188 757.521L554.319 755.136L550.188 752.751L526.606 739.136L550.125 725.555L554.292 723.15ZM648.738 759.566L558 707.182L648.812 654.75L739.55 707.135L648.738 759.566ZM648.738 823.502L558 771.118L574.006 761.877L648.709 805.001L723.514 761.816L739.55 771.075L648.738 823.502ZM648.738 791.537L558 739.154L574.006 729.911L648.709 773.037L723.514 729.846L739.55 739.105L648.738 791.537Z" fill="black"/>
<path fill-rule="evenodd" clip-rule="evenodd" d="M1120.5 630.191C1161.51 630.191 1194.75 663.433 1194.75 704.441C1194.75 717.919 1191.16 730.557 1184.88 741.452L1184.84 741.524L1125.15 845.665V778.543C1123.61 778.637 1122.06 778.691 1120.5 778.691C1079.49 778.691 1046.25 745.45 1046.25 704.441C1046.25 663.433 1079.49 630.191 1120.5 630.191Z" fill="black"/>
<path fill-rule="evenodd" clip-rule="evenodd" d="M1120.5 614.441C1145.35 614.441 1167.85 624.515 1184.14 640.802C1200.42 657.09 1210.5 679.59 1210.5 704.441C1210.5 712.375 1209.44 720.149 1207.44 727.619C1205.45 735.104 1202.48 742.255 1198.67 748.928L1198.72 748.958L1198.69 749.03C1198.53 749.313 1198.37 749.59 1198.2 749.86L1138.81 853.477C1134.49 861.021 1124.88 863.638 1117.33 859.322C1112.26 856.42 1109.42 851.119 1109.41 845.665H1109.4V793.762C1088.98 791.251 1070.68 781.904 1056.86 768.08C1040.57 751.793 1030.5 729.293 1030.5 704.441C1030.5 679.59 1040.57 657.09 1056.86 640.802C1073.15 624.515 1095.65 614.441 1120.5 614.441ZM1120.5 630.191C1161.51 630.191 1194.75 663.433 1194.75 704.441C1194.75 717.919 1191.16 730.557 1184.88 741.452L1184.84 741.524L1125.15 845.665V778.543C1123.61 778.637 1122.06 778.691 1120.5 778.691C1079.49 778.691 1046.25 745.45 1046.25 704.441C1046.25 663.433 1079.49 630.191 1120.5 630.191Z" fill="black"/>
<path fill-rule="evenodd" clip-rule="evenodd" d="M1114.65 778.466C1096.48 777.049 1080.14 769.093 1068 756.947C1054.56 743.508 1046.25 724.945 1046.25 704.441C1046.25 683.939 1054.56 665.377 1068 651.942C1080.14 639.796 1096.48 631.838 1114.65 630.421V671.985C1107.88 673.195 1101.84 676.467 1097.18 681.124C1091.22 687.091 1087.52 695.338 1087.52 704.441C1087.52 713.549 1091.22 721.795 1097.18 727.762C1101.84 732.42 1107.88 735.691 1114.65 736.904V778.466ZM1192.24 723.658C1190.84 728.899 1188.88 733.916 1186.43 738.637L1184.84 741.523L1125.15 845.665V737.098C1132.4 736.074 1138.88 732.697 1143.82 727.762C1149.78 721.795 1153.48 713.549 1153.48 704.441C1153.48 695.338 1149.78 687.091 1143.82 681.124C1138.88 676.192 1132.39 672.813 1125.15 671.791V630.335C1143.8 631.487 1160.59 639.526 1173 651.942C1186.44 665.379 1194.75 683.944 1194.75 704.441C1194.75 711.088 1193.88 717.532 1192.24 723.658Z" fill="white"/>
<path fill-rule="evenodd" clip-rule="evenodd" d="M1689.47 718.011L1593 662.308L1496.5 718.018L1592.98 773.723L1689.47 718.011Z" fill="black"/>
<path fill-rule="evenodd" clip-rule="evenodd" d="M1702.81 767.102L1595.65 828.97C1594.07 829.886 1592.04 829.949 1590.34 828.97L1483.36 767.214C1481.66 766.314 1480.5 764.539 1480.5 762.489L1480.5 718.018C1480.57 716.936 1480.75 716.227 1481.1 715.561C1481.82 714.438 1482.04 714.157 1483.15 713.414L1590.34 651.53C1591.93 650.615 1593.95 650.552 1595.65 651.53L1702.52 713.221C1703.44 713.68 1704.23 714.386 1704.77 715.336C1705.32 716.276 1705.55 717.305 1705.49 718.308V762.482C1705.49 764.33 1704.53 766.121 1702.81 767.102ZM1496.5 718.018L1541.38 743.936L1586.28 718.018L1541.39 692.105L1496.5 718.018ZM1548.1 747.808L1592.98 773.723L1637.87 747.808L1593 721.892L1548.1 747.808ZM1689.47 718.011L1644.6 692.105L1599.71 718.018L1644.59 743.927L1689.47 718.011ZM1548.11 688.223L1593 714.139L1637.88 688.223L1593 662.308L1548.11 688.223Z" fill="white"/>
<path fill-rule="evenodd" clip-rule="evenodd" d="M1710.6 780.714L1603.51 842.54L1603.52 842.567C1600.29 844.443 1596.64 845.431 1592.99 845.431C1589.5 845.431 1585.89 844.508 1582.52 842.567L1476.05 781.101L1476.04 781.119C1472.63 779.315 1469.77 776.624 1467.8 773.361C1465.87 770.171 1464.75 766.454 1464.75 762.489H1464.82L1464.81 718.018V717.035C1464.91 715.534 1465.11 714.191 1465.44 712.881C1465.86 711.198 1466.41 709.751 1467.13 708.361L1467.51 707.63L1467.87 707.069C1468.63 705.879 1469.23 705.038 1470.53 703.64C1471.84 702.25 1472.9 701.386 1474.41 700.371L1475.33 699.818L1582.52 637.934C1585.78 636.057 1589.41 635.069 1593 635.069C1596.54 635.069 1600.17 635.992 1603.52 637.934L1603.51 637.961L1710.05 699.455C1711.71 700.344 1713.24 701.417 1714.58 702.673C1715.98 703.989 1717.25 705.591 1718.34 707.474L1718.37 707.459C1719.38 709.193 1720.12 711.108 1720.61 713.142C1721.03 714.897 1721.23 716.632 1721.21 718.308H1721.24V762.482C1721.24 766.145 1720.24 769.79 1718.37 773.033C1716.55 776.169 1713.93 778.867 1710.63 780.759L1710.6 780.714ZM1702.81 767.102L1595.65 828.97C1594.07 829.886 1592.04 829.949 1590.34 828.97L1483.36 767.214C1481.66 766.314 1480.5 764.539 1480.5 762.489L1480.5 718.018C1480.57 716.936 1480.75 716.227 1481.1 715.561C1481.82 714.438 1482.04 714.157 1483.15 713.414L1590.34 651.53C1591.93 650.615 1593.95 650.552 1595.65 651.53L1702.52 713.221C1703.44 713.68 1704.23 714.386 1704.77 715.336C1705.32 716.276 1705.55 717.305 1705.49 718.308V762.482C1705.49 764.33 1704.53 766.121 1702.81 767.102ZM1496.5 718.018L1541.38 743.936L1586.28 718.018L1541.39 692.105L1496.5 718.018ZM1548.1 747.808L1592.98 773.723L1637.87 747.808L1593 721.892L1548.1 747.808ZM1689.47 718.011L1644.6 692.105L1599.71 718.018L1644.59 743.927L1689.47 718.011ZM1548.11 688.223L1593 714.139L1637.88 688.223L1593 662.308L1548.11 688.223ZM1527.9 718.002L1541.41 725.81L1554.91 718.018L1541.39 710.213L1527.9 718.002ZM1579.5 747.792L1592.98 755.579L1606.45 747.806L1592.96 740.018L1579.5 747.792ZM1658.05 718.011L1644.57 710.231L1631.08 718.018L1644.56 725.801L1658.05 718.011ZM1579.47 688.223L1593 696.031L1606.52 688.223L1593 680.416L1579.47 688.223Z" fill="black"/>
<path fill-rule="evenodd" clip-rule="evenodd" d="M1722.38 1175.6V1083.4L1831.54 1020.37L1940.53 1083.4L1940.62 1175.66L1831.54 1238.63L1722.38 1175.6Z" fill="black"/>
<path fill-rule="evenodd" clip-rule="evenodd" d="M1706.62 1175.6V1083.4C1706.62 1077.17 1710.24 1071.79 1715.48 1069.24L1823.67 1006.77C1828.77 1003.82 1834.85 1004.06 1839.58 1006.87L1948.4 1069.8C1953.7 1072.87 1956.54 1078.57 1956.22 1084.29L1956.31 1175.66C1956.31 1181.65 1952.95 1186.86 1948.01 1189.5L1839.36 1252.22C1834.33 1255.12 1828.37 1254.91 1823.68 1252.2L1823.67 1252.22L1714.5 1189.19C1709.47 1186.29 1706.67 1181.02 1706.66 1175.6H1706.62ZM1722.38 1175.6V1083.4L1831.54 1020.37L1940.53 1083.4L1940.62 1175.66L1831.54 1238.63L1722.38 1175.6Z" fill="black"/>
<path fill-rule="evenodd" clip-rule="evenodd" d="M1722.38 1175.6L1831.54 1238.62L1940.62 1175.66L1940.52 1175.6H1722.38ZM1792.89 1165.76L1810.3 1093.25H1800.63L1787.9 1149.16L1775.88 1103.33H1766.41L1754.29 1149.16L1741.66 1093.25H1731.98L1749.4 1165.76H1758.77L1771.09 1117.79L1783.52 1165.76H1792.89ZM1873.85 1165.76V1093.25H1863.57L1845.24 1126.35L1826.91 1093.25H1816.62V1165.76H1825.99V1109.54L1842.8 1139.99H1847.68L1864.48 1109.54V1165.76H1873.85ZM1908.89 1134.49C1915.41 1137.04 1921.42 1139.28 1921.42 1146.51C1921.42 1154.35 1914.29 1157.4 1907.26 1157.4C1897.59 1157.4 1892.39 1151.7 1891.37 1142.33L1883.02 1144.17C1883.02 1158.02 1893.41 1166.37 1907.57 1166.37C1920.7 1166.37 1931.09 1159.14 1931.09 1145.79C1931.09 1135.1 1924.58 1130.62 1916.12 1127.26L1905.53 1123.09C1900.54 1121.15 1894.73 1118.71 1894.73 1111.98C1894.73 1105.16 1900.85 1101.6 1907.36 1101.6C1914.49 1101.6 1919.38 1105.88 1920.29 1115.04L1928.65 1113.21C1928.65 1100.27 1920.09 1092.63 1907.57 1092.63C1895.04 1092.63 1885.16 1100.17 1885.16 1112.9C1885.16 1122.37 1890.56 1127.26 1898.81 1130.52L1908.89 1134.49ZM1722.38 1083.4L1831.54 1020.38L1940.62 1083.34L1940.52 1083.4H1722.38Z" fill="white"/>
<path fill-rule="evenodd" clip-rule="evenodd" d="M1442.13 1026.43V1188.35L1359 1240.17L1275.87 1188.34V1026.42L1442.13 1026.43Z" fill="black"/>
<path fill-rule="evenodd" clip-rule="evenodd" d="M1457.88 1026.43V1188.35V1197.06L1450.44 1201.7L1367.3 1253.52L1359 1258.7L1350.69 1253.52L1267.56 1201.69L1260.12 1197.05V1188.34V1026.42V1010.73H1275.87L1442.13 1010.74H1457.88V1026.43ZM1442.13 1026.43V1188.35L1359 1240.17L1275.87 1188.34V1026.42L1442.13 1026.43Z" fill="black"/>
<path d="M1285.51 1026.42L1442.13 1026.43V1188.35L1359 1240.17L1275.87 1188.34V1026.42H1285.51ZM1422.85 1045.63L1295.15 1045.62V1177.69L1359 1217.5L1422.85 1177.69V1045.63Z" fill="white"/>
<path fill-rule="evenodd" clip-rule="evenodd" d="M783.169 1207.9L886.241 1028.77L989.807 1207.45L886.462 1242L783.169 1207.9Z" fill="white"/>
<path fill-rule="evenodd" clip-rule="evenodd" d="M770.263 1198.89L872.645 1020.95C876.96 1013.44 886.545 1010.85 894.056 1015.17C896.535 1016.6 898.477 1018.59 899.813 1020.9L899.838 1020.89L1003.4 1199.57C1007.75 1207.08 1005.19 1216.69 997.684 1221.04C996.539 1221.71 995.344 1222.21 994.127 1222.56L891.446 1256.89C888.107 1258.01 884.657 1257.94 881.552 1256.92L881.541 1256.95L778.246 1222.85C769.991 1220.14 765.502 1211.24 768.22 1202.98C768.71 1201.49 769.406 1200.12 770.263 1198.89ZM783.169 1207.9L886.241 1028.77L989.807 1207.45L886.462 1242L783.169 1207.9Z" fill="black"/>
<path fill-rule="evenodd" clip-rule="evenodd" d="M989.807 1207.45L886.241 1028.77L886.462 1242L989.807 1207.45Z" fill="#E0E0E0"/>
<path fill-rule="evenodd" clip-rule="evenodd" d="M471.254 1120.03L414 1220.02L356.747 1120.03C352.01 1110.91 349.571 1100.82 349.571 1090.55C349.571 1072.87 356.735 1056.86 368.323 1045.27C380.585 1033.01 396.7 1026.52 414 1026.52C431.3 1026.52 447.415 1033.01 459.677 1045.27C471.265 1056.86 478.429 1072.87 478.429 1090.55C478.429 1100.82 475.99 1110.91 471.254 1120.03Z" fill="white"/>
<path fill-rule="evenodd" clip-rule="evenodd" d="M484.911 1127.84L427.657 1227.83L414 1251.69L400.343 1227.83L343.089 1127.84L342.781 1127.23C339.865 1121.61 337.64 1115.64 336.13 1109.44C334.598 1103.14 333.821 1096.8 333.821 1090.55C333.821 1079.84 335.984 1069.55 339.901 1060.09C343.987 1050.23 349.898 1041.43 357.188 1034.14C364.725 1026.6 373.538 1020.79 383.204 1016.82C392.933 1012.82 403.339 1010.77 414 1010.77C424.66 1010.77 435.067 1012.82 444.796 1016.82C454.464 1020.79 463.275 1026.6 470.812 1034.14C478.102 1041.43 484.013 1050.23 488.099 1060.09C492.016 1069.55 494.179 1079.84 494.179 1090.55C494.179 1096.8 493.402 1103.14 491.87 1109.44C490.36 1115.64 488.135 1121.61 485.219 1127.23L484.911 1127.84ZM471.253 1120.03L414 1220.02L356.747 1120.03C352.01 1110.91 349.571 1100.82 349.571 1090.55C349.571 1072.87 356.735 1056.86 368.323 1045.27C380.585 1033.01 396.7 1026.52 414 1026.52C431.3 1026.52 447.415 1033.01 459.677 1045.27C471.265 1056.86 478.429 1072.87 478.429 1090.55C478.429 1100.82 475.99 1110.91 471.253 1120.03Z" fill="black"/>
<path d="M717.75 363.193L996.077 202.5" stroke="#EAD830" stroke-width="15" stroke-linecap="round" stroke-linejoin="round" stroke-dasharray="60 40"/>
<path d="M1163.25 339.75L1441.58 179.057" stroke="#EAD830" stroke-width="15" stroke-linecap="round" stroke-linejoin="round" stroke-dasharray="60 40"/>
<path d="M1668.83 882.943L1390.5 722.25" stroke="#EAD830" stroke-width="15" stroke-linecap="round" stroke-linejoin="round" stroke-dasharray="60 40"/>
<path d="M1429.88 1296L1163.25 1125" stroke="#EAD830" stroke-width="15" stroke-linecap="round" stroke-linejoin="round" stroke-dasharray="60 40"/>
<path d="M463.5 752.443L741.827 591.75" stroke="#EAD830" stroke-width="15" stroke-linecap="round" stroke-linejoin="round" stroke-dasharray="60 40"/>
<path d="M1633.5 1125.94L1911.83 965.25" stroke="#EAD830" stroke-width="15" stroke-linecap="round" stroke-linejoin="round" stroke-dasharray="60 40"/>
<path d="M270 498.827L430.693 220.5" stroke="#0DA829" stroke-width="15" stroke-linecap="round" stroke-linejoin="round" stroke-dasharray="60 40"/>
<path d="M1854.94 510.077L1694.25 231.75" stroke="#0DA829" stroke-width="15" stroke-linecap="round" stroke-linejoin="round" stroke-dasharray="60 40"/>
<path d="M1090.12 921.375L1250.82 643.048" stroke="#0DA829" stroke-width="15" stroke-linecap="round" stroke-linejoin="round" stroke-dasharray="60 40"/>
<path d="M369 1313.33L529.693 1035" stroke="#0DA829" stroke-width="15" stroke-linecap="round" stroke-linejoin="round" stroke-dasharray="60 40"/>
<path d="M1017.94 1241.33L857.25 963" stroke="#0DA829" stroke-width="15" stroke-linecap="round" stroke-linejoin="round" stroke-dasharray="60 40"/>
</svg>
