<svg width="2250" height="1485" viewBox="0 0 2250 1485" fill="none" xmlns="http://www.w3.org/2000/svg">
<g clip-path="url(#clip0)">
<g opacity="0.201">
<g opacity="0.201">
<g opacity="0.201">
<path opacity="0.201" d="M29.0303 5V1479.59" stroke="#06232B" stroke-opacity="0.5"/>
</g>
<g opacity="0.201">
<path opacity="0.201" d="M75.9492 5V1479.59" stroke="#06232B" stroke-opacity="0.5"/>
</g>
<g opacity="0.201">
<path opacity="0.201" d="M122.868 5V1479.59" stroke="#06232B" stroke-opacity="0.5"/>
</g>
<g opacity="0.201">
<path opacity="0.201" d="M169.787 5V1479.59" stroke="#06232B" stroke-opacity="0.5"/>
</g>
<g opacity="0.201">
<path opacity="0.201" d="M216.706 5V1479.59" stroke="#06232B" stroke-opacity="0.5"/>
</g>
<g opacity="0.201">
<path opacity="0.201" d="M263.625 5V1479.59" stroke="#06232B" stroke-opacity="0.5"/>
</g>
<g opacity="0.201">
<path opacity="0.201" d="M310.544 5V1479.59" stroke="#06232B" stroke-opacity="0.5"/>
</g>
<g opacity="0.201">
<path opacity="0.201" d="M357.462 5V1479.59" stroke="#06232B" stroke-opacity="0.5"/>
</g>
<g opacity="0.201">
<path opacity="0.201" d="M404.381 5V1479.59" stroke="#06232B" stroke-opacity="0.5"/>
</g>
<g opacity="0.201">
<path opacity="0.201" d="M451.3 5V1479.59" stroke="#06232B" stroke-opacity="0.5"/>
</g>
<g opacity="0.201">
<path opacity="0.201" d="M498.219 5V1479.59" stroke="#06232B" stroke-opacity="0.5"/>
</g>
<g opacity="0.201">
<path opacity="0.201" d="M545.138 5V1479.59" stroke="#06232B" stroke-opacity="0.5"/>
</g>
<g opacity="0.201">
<path opacity="0.201" d="M592.057 5V1479.59" stroke="#06232B" stroke-opacity="0.5"/>
</g>
<g opacity="0.201">
<path opacity="0.201" d="M638.976 5V1479.59" stroke="#06232B" stroke-opacity="0.5"/>
</g>
<g opacity="0.201">
<path opacity="0.201" d="M685.895 5V1479.59" stroke="#06232B" stroke-opacity="0.5"/>
</g>
<g opacity="0.201">
<path opacity="0.201" d="M732.813 5V1479.59" stroke="#06232B" stroke-opacity="0.5"/>
</g>
<g opacity="0.201">
<path opacity="0.201" d="M779.732 5V1479.59" stroke="#06232B" stroke-opacity="0.5"/>
</g>
<g opacity="0.201">
<path opacity="0.201" d="M826.65 5V1479.59" stroke="#06232B" stroke-opacity="0.5"/>
</g>
<g opacity="0.201">
<path opacity="0.201" d="M873.57 5V1479.59" stroke="#06232B" stroke-opacity="0.5"/>
</g>
<g opacity="0.201">
<path opacity="0.201" d="M920.488 5V1479.59" stroke="#06232B" stroke-opacity="0.5"/>
</g>
<g opacity="0.201">
<path opacity="0.201" d="M967.408 5V1479.59" stroke="#06232B" stroke-opacity="0.5"/>
</g>
<g opacity="0.201">
<path opacity="0.201" d="M1014.33 5V1479.59" stroke="#06232B" stroke-opacity="0.5"/>
</g>
<g opacity="0.201">
<path opacity="0.201" d="M1061.25 5V1479.59" stroke="#06232B" stroke-opacity="0.5"/>
</g>
<g opacity="0.201">
<path opacity="0.201" d="M1108.16 5V1479.59" stroke="#06232B" stroke-opacity="0.5"/>
</g>
<g opacity="0.201">
<path opacity="0.201" d="M1155.08 5V1479.59" stroke="#06232B" stroke-opacity="0.5"/>
</g>
<g opacity="0.201">
<path opacity="0.201" d="M1202 5V1479.59" stroke="#06232B" stroke-opacity="0.5"/>
</g>
<g opacity="0.201">
<path opacity="0.201" d="M1248.92 5V1479.59" stroke="#06232B" stroke-opacity="0.5"/>
</g>
<g opacity="0.201">
<path opacity="0.201" d="M1295.84 5V1479.59" stroke="#06232B" stroke-opacity="0.5"/>
</g>
<g opacity="0.201">
<path opacity="0.201" d="M1342.76 5V1479.59" stroke="#06232B" stroke-opacity="0.5"/>
</g>
<g opacity="0.201">
<path opacity="0.201" d="M1389.68 5V1479.59" stroke="#06232B" stroke-opacity="0.5"/>
</g>
<g opacity="0.201">
<path opacity="0.201" d="M1436.6 5V1479.59" stroke="#06232B" stroke-opacity="0.5"/>
</g>
<g opacity="0.201">
<path opacity="0.201" d="M1483.51 5V1479.59" stroke="#06232B" stroke-opacity="0.5"/>
</g>
<g opacity="0.201">
<path opacity="0.201" d="M1530.43 5V1479.59" stroke="#06232B" stroke-opacity="0.5"/>
</g>
<g opacity="0.201">
<path opacity="0.201" d="M1577.35 5V1479.59" stroke="#06232B" stroke-opacity="0.5"/>
</g>
<g opacity="0.201">
<path opacity="0.201" d="M1624.27 5V1479.59" stroke="#06232B" stroke-opacity="0.5"/>
</g>
<g opacity="0.201">
<path opacity="0.201" d="M1671.19 5V1479.59" stroke="#06232B" stroke-opacity="0.5"/>
</g>
<g opacity="0.201">
<path opacity="0.201" d="M1718.11 5V1479.59" stroke="#06232B" stroke-opacity="0.5"/>
</g>
<g opacity="0.201">
<path opacity="0.201" d="M1765.03 5V1479.59" stroke="#06232B" stroke-opacity="0.5"/>
</g>
<g opacity="0.201">
<path opacity="0.201" d="M1811.95 5V1479.59" stroke="#06232B" stroke-opacity="0.5"/>
</g>
<g opacity="0.201">
<path opacity="0.201" d="M1858.87 5V1479.59" stroke="#06232B" stroke-opacity="0.5"/>
</g>
<g opacity="0.201">
<path opacity="0.201" d="M1905.78 5V1479.59" stroke="#06232B" stroke-opacity="0.5"/>
</g>
<g opacity="0.201">
<path opacity="0.201" d="M1952.7 5V1479.59" stroke="#06232B" stroke-opacity="0.5"/>
</g>
<g opacity="0.201">
<path opacity="0.201" d="M1999.62 5V1479.59" stroke="#06232B" stroke-opacity="0.5"/>
</g>
<g opacity="0.201">
<path opacity="0.201" d="M2046.54 5V1479.59" stroke="#06232B" stroke-opacity="0.5"/>
</g>
<g opacity="0.201">
<path opacity="0.201" d="M2093.46 5V1479.59" stroke="#06232B" stroke-opacity="0.5"/>
</g>
<g opacity="0.201">
<path opacity="0.201" d="M2140.38 5V1479.59" stroke="#06232B" stroke-opacity="0.5"/>
</g>
<g opacity="0.201">
<path opacity="0.201" d="M2187.3 5V1479.59" stroke="#06232B" stroke-opacity="0.5"/>
</g>
</g>
<g opacity="0.201">
<g opacity="0.201">
<path opacity="0.201" d="M16.5903 37.6734H2250.82" stroke="#06232B" stroke-opacity="0.5"/>
</g>
<g opacity="0.201">
<path opacity="0.201" d="M16.5898 84.5923H2250.82" stroke="#06232B" stroke-opacity="0.5"/>
</g>
<g opacity="0.201">
<path opacity="0.201" d="M16.5898 131.511H2250.82" stroke="#06232B" stroke-opacity="0.5"/>
</g>
<g opacity="0.201">
<path opacity="0.201" d="M16.5898 178.43H2250.82" stroke="#06232B" stroke-opacity="0.5"/>
</g>
<g opacity="0.201">
<path opacity="0.201" d="M16.5898 225.349H2250.82" stroke="#06232B" stroke-opacity="0.5"/>
</g>
<g opacity="0.201">
<path opacity="0.201" d="M16.5898 272.268H2250.82" stroke="#06232B" stroke-opacity="0.5"/>
</g>
<g opacity="0.201">
<path opacity="0.201" d="M16.5898 319.187H2250.82" stroke="#06232B" stroke-opacity="0.5"/>
</g>
<g opacity="0.201">
<path opacity="0.201" d="M16.5898 366.105H2250.82" stroke="#06232B" stroke-opacity="0.5"/>
</g>
<g opacity="0.201">
<path opacity="0.201" d="M16.5898 413.024H2250.82" stroke="#06232B" stroke-opacity="0.5"/>
</g>
<g opacity="0.201">
<path opacity="0.201" d="M16.5898 459.943H2250.82" stroke="#06232B" stroke-opacity="0.5"/>
</g>
<g opacity="0.201">
<path opacity="0.201" d="M16.5898 506.862H2250.82" stroke="#06232B" stroke-opacity="0.5"/>
</g>
<g opacity="0.201">
<path opacity="0.201" d="M16.5898 553.781H2250.82" stroke="#06232B" stroke-opacity="0.5"/>
</g>
<g opacity="0.201">
<path opacity="0.201" d="M16.5898 600.7H2250.82" stroke="#06232B" stroke-opacity="0.5"/>
</g>
<g opacity="0.201">
<path opacity="0.201" d="M16.5898 647.619H2250.82" stroke="#06232B" stroke-opacity="0.5"/>
</g>
<g opacity="0.201">
<path opacity="0.201" d="M16.5898 694.537H2250.82" stroke="#06232B" stroke-opacity="0.5"/>
</g>
<g opacity="0.201">
<path opacity="0.201" d="M16.5898 741.456H2250.82" stroke="#06232B" stroke-opacity="0.5"/>
</g>
<g opacity="0.201">
<path opacity="0.201" d="M16.5898 788.375H2250.82" stroke="#06232B" stroke-opacity="0.5"/>
</g>
<g opacity="0.201">
<path opacity="0.201" d="M16.5898 835.294H2250.82" stroke="#06232B" stroke-opacity="0.5"/>
</g>
<g opacity="0.201">
<path opacity="0.201" d="M16.5898 882.213H2250.82" stroke="#06232B" stroke-opacity="0.5"/>
</g>
<g opacity="0.201">
<path opacity="0.201" d="M16.5898 929.132H2250.82" stroke="#06232B" stroke-opacity="0.5"/>
</g>
<g opacity="0.201">
<path opacity="0.201" d="M16.5898 976.051H2250.82" stroke="#06232B" stroke-opacity="0.5"/>
</g>
<g opacity="0.201">
<path opacity="0.201" d="M16.5898 1022.97H2250.82" stroke="#06232B" stroke-opacity="0.5"/>
</g>
<g opacity="0.201">
<path opacity="0.201" d="M16.5898 1069.89H2250.82" stroke="#06232B" stroke-opacity="0.5"/>
</g>
<g opacity="0.201">
<path opacity="0.201" d="M16.5898 1116.81H2250.82" stroke="#06232B" stroke-opacity="0.5"/>
</g>
<g opacity="0.201">
<path opacity="0.201" d="M16.5898 1163.73H2250.82" stroke="#06232B" stroke-opacity="0.5"/>
</g>
<g opacity="0.201">
<path opacity="0.201" d="M16.5898 1210.65H2250.82" stroke="#06232B" stroke-opacity="0.5"/>
</g>
<g opacity="0.201">
<path opacity="0.201" d="M16.5898 1257.56H2250.82" stroke="#06232B" stroke-opacity="0.5"/>
</g>
<g opacity="0.201">
<path opacity="0.201" d="M16.5898 1304.48H2250.82" stroke="#06232B" stroke-opacity="0.5"/>
</g>
<g opacity="0.201">
<path opacity="0.201" d="M16.5898 1351.4H2250.82" stroke="#06232B" stroke-opacity="0.5"/>
</g>
<g opacity="0.201">
<path opacity="0.201" d="M16.5898 1398.32H2250.82" stroke="#06232B" stroke-opacity="0.5"/>
</g>
<g opacity="0.201">
<path opacity="0.201" d="M16.5898 1445.24H2250.82" stroke="#06232B" stroke-opacity="0.5"/>
</g>
</g>
</g>
<path d="M557.902 1198.25L553.602 1190.75L460.823 1028.89L460.741 1028.95L458.126 1024.2L455.77 1019.91L453.181 1015.19L453.413 1015.09C449.034 1005.63 445.984 995.636 444.331 985.322C442.441 973.539 442.411 961.578 444.238 949.77C446.061 937.996 449.697 926.633 455.042 915.995C460.526 905.083 467.707 895.15 476.386 886.472C487.02 875.838 499.373 867.538 513.1 861.802C526.298 856.287 540.211 853.332 554.481 853.009V852.949L557.9 852.972L561.32 852.949V853.009C575.591 853.332 589.505 856.287 602.702 861.802C616.431 867.539 628.784 875.839 639.416 886.472C648.47 895.525 655.873 905.882 661.421 917.256C666.783 928.251 670.317 939.986 671.924 952.135C673.554 964.476 673.175 976.923 670.795 989.132C668.377 1001.53 663.959 1013.34 657.664 1024.24L657.346 1024.8L657.305 1024.84L562.202 1190.75L557.902 1198.25Z" fill="#85D478"/>
<path d="M557.902 1188.29L653.326 1021.81L653.373 1021.77C665.566 1000.65 670.121 976.317 667.011 952.785C663.981 929.87 653.623 907.686 635.913 889.976C625.893 879.956 613.983 871.886 600.793 866.375C588 861.029 574.031 858.035 559.438 857.937V857.98H558.672H557.902H557.133H556.364V857.937C541.773 858.035 527.804 861.029 515.011 866.375C501.82 871.886 489.911 879.956 479.89 889.976C462.988 906.877 452.593 928.209 449.136 950.528C445.664 972.961 449.181 996.457 460.127 1017.52L460.116 1017.53L462.471 1021.82L462.479 1021.81L557.902 1188.29ZM557.902 1208.22L549.304 1193.22L459.153 1035.94L458.988 1036.05L453.783 1026.59L451.427 1022.3L446.235 1012.84L446.894 1012.55C443.395 1004.06 440.897 995.203 439.438 986.107C437.467 973.812 437.434 961.331 439.341 949.012C441.244 936.727 445.037 924.87 450.614 913.77C456.337 902.384 463.829 892.02 472.882 882.967C483.976 871.875 496.865 863.215 511.19 857.23C523.464 852.1 536.331 849.093 549.526 848.262V847.96L557.901 848.016L566.276 847.96V848.262C579.473 849.093 592.34 852.1 604.615 857.23C618.941 863.216 631.83 871.876 642.922 882.967C652.364 892.41 660.087 903.215 665.876 915.084C671.473 926.559 675.161 938.806 676.836 951.486C678.539 964.359 678.142 977.344 675.659 990.08C673.136 1003.02 668.526 1015.35 661.956 1026.72L661.321 1027.82L661.286 1027.86L566.501 1193.22L557.902 1208.22Z" fill="#0DA829"/>
<path d="M478.301 1293.72V1244.88H470.777L452.957 1286.46L435.203 1244.88H427.679V1293.72H432.563V1250.23H432.695L450.845 1293.72H455.003L473.285 1250.23H473.417V1293.72H478.301ZM531.427 1293.72L510.439 1244.88H504.961L484.105 1293.72H489.187L496.315 1277.29H519.019L526.081 1293.72H531.427ZM517.105 1272.87H498.163L507.733 1250.43L517.105 1272.87ZM569.195 1293.72L555.401 1275.51C563.981 1274.85 569.921 1268.58 569.921 1260.66C569.921 1252.41 564.245 1244.88 551.507 1244.88H536.789V1293.72H541.673V1249.3H550.979C562.199 1249.3 565.037 1255.9 565.037 1260.52C565.037 1267.19 559.889 1271.61 551.243 1271.61H546.491L563.057 1293.72H569.195ZM611.265 1293.72L591.927 1268.71L611.265 1244.88H604.995L582.621 1272.93H582.489V1244.88H577.605V1293.72H582.489V1280.32L588.825 1272.54L605.127 1293.72H611.265ZM642.603 1293.72V1289.3H620.757V1271.28H641.877V1266.86H620.757V1249.3H642.603V1244.88H615.873V1293.72H642.603ZM683.664 1293.72L669.87 1275.51C678.45 1274.85 684.39 1268.58 684.39 1260.66C684.39 1252.41 678.714 1244.88 665.976 1244.88H651.258V1293.72H656.142V1249.3H665.448C676.668 1249.3 679.506 1255.9 679.506 1260.52C679.506 1267.19 674.358 1271.61 665.712 1271.61H660.96L677.526 1293.72H683.664Z" fill="#0DA829"/>
<path fill-rule="evenodd" clip-rule="evenodd" d="M1673.89 1195.71V1177.1V1082.98C1673.23 1083 1672.59 1083 1671.96 1083C1656.43 1083 1641.37 1079.96 1627.19 1073.96C1613.49 1068.17 1601.19 1059.88 1590.63 1049.32C1580.07 1038.76 1571.78 1026.46 1565.99 1012.76C1559.99 998.579 1556.95 983.516 1556.95 967.992C1556.95 967.955 1556.95 967.921 1556.95 967.888C1556.95 967.856 1556.95 967.822 1556.95 967.785C1556.95 952.257 1559.99 937.192 1565.99 923.009C1571.78 909.314 1580.08 897.015 1590.64 886.452C1600.16 876.945 1611.14 869.247 1623.27 863.569C1635.77 857.721 1649.1 854.211 1662.89 853.135L1668.23 852.719V853.054C1669.52 853.006 1670.76 852.982 1671.96 852.982C1672.59 852.982 1673.23 852.988 1673.89 853.002V852.667L1679.15 852.991C1707.08 854.713 1733.41 866.596 1753.29 886.451C1763.84 897.018 1772.13 909.319 1777.92 923.016C1783.92 937.204 1786.97 952.267 1786.97 967.785C1786.97 967.821 1786.97 967.857 1786.97 967.892C1786.97 967.925 1786.97 967.959 1786.97 967.992C1786.97 968.119 1786.96 968.245 1786.96 968.372L1786.96 968.408C1786.95 969.824 1786.91 971.27 1786.84 972.829C1786.82 973.496 1786.78 974.182 1786.75 974.855L1786.75 974.869L1786.74 974.884C1786.68 975.916 1786.6 976.937 1786.52 977.886C1786.4 979.267 1786.25 980.67 1786.07 982.178L1786.06 982.196L1786.06 982.213C1786.04 982.351 1786.03 982.489 1786.01 982.627C1785.98 982.883 1785.95 983.139 1785.91 983.394C1784.82 991.54 1782.85 999.574 1780.05 1007.27C1777.32 1014.78 1773.79 1022.03 1769.55 1028.83L1683.14 1179.56L1673.89 1195.71ZM1671.96 925.169C1660.52 925.169 1649.76 929.623 1641.68 937.711C1633.59 945.799 1629.13 956.553 1629.13 967.992C1629.13 979.43 1633.59 990.184 1641.68 998.272C1649.76 1006.36 1660.52 1010.82 1671.96 1010.82C1683.4 1010.82 1694.15 1006.36 1702.24 998.272C1710.32 990.184 1714.78 979.43 1714.78 967.992C1714.78 956.553 1710.32 945.799 1702.24 937.711C1694.15 929.623 1683.4 925.169 1671.96 925.169Z" fill="#85D478"/>
<path fill-rule="evenodd" clip-rule="evenodd" d="M1671.96 857.937C1669.03 857.937 1666.15 858.086 1663.28 858.31V858.076C1636.36 860.175 1612.15 871.968 1594.15 889.957C1574.23 909.874 1561.9 937.384 1561.9 967.785C1561.9 967.82 1561.91 967.853 1561.91 967.888C1561.91 967.923 1561.9 967.957 1561.9 967.992C1561.9 1028.77 1611.18 1078.05 1671.96 1078.05C1674.27 1078.05 1676.56 1077.95 1678.84 1077.81V1177.1L1765.3 1026.28C1773.41 1013.32 1778.88 998.559 1781 982.724C1781.05 982.342 1781.1 981.958 1781.15 981.576C1781.31 980.211 1781.46 978.842 1781.58 977.463C1781.66 976.504 1781.74 975.545 1781.8 974.58C1781.84 973.927 1781.87 973.272 1781.89 972.617C1781.95 971.207 1781.99 969.793 1782 968.372C1782 968.245 1782.01 968.119 1782.01 967.992C1782.01 967.965 1782.01 967.938 1782.01 967.911C1782.01 967.869 1782.01 967.828 1782.01 967.785C1782.01 937.401 1769.68 909.874 1749.78 889.957C1731.38 871.573 1706.49 859.642 1678.84 857.937V858.175C1676.56 858.033 1674.27 857.937 1671.96 857.937ZM1671.96 1015.77C1645.57 1015.77 1624.18 994.378 1624.18 967.992C1624.18 941.604 1645.57 920.213 1671.96 920.213C1698.34 920.213 1719.73 941.604 1719.73 967.992C1719.73 994.378 1698.34 1015.77 1671.96 1015.77ZM1673.19 847.362V847.659L1679.45 848.045C1708.59 849.841 1736.06 862.235 1756.79 882.945C1767.8 893.968 1776.45 906.798 1782.49 921.085C1788.75 935.888 1791.92 951.6 1791.92 967.785C1791.92 967.82 1791.92 967.855 1791.92 967.889C1791.92 967.922 1791.92 967.956 1791.92 967.992C1791.92 968.215 1791.92 968.401 1791.91 968.517C1791.9 969.965 1791.86 971.444 1791.8 973.033C1791.77 973.734 1791.73 974.44 1791.69 975.131L1791.69 975.159L1791.69 975.188C1791.62 976.274 1791.54 977.33 1791.45 978.31C1791.33 979.75 1791.18 981.212 1790.98 982.78L1790.98 982.815L1790.98 982.85C1790.96 982.977 1790.94 983.104 1790.93 983.231C1790.89 983.51 1790.86 983.789 1790.82 984.067C1789.68 992.56 1787.63 1000.94 1784.71 1008.96C1781.88 1016.77 1778.21 1024.31 1773.8 1031.37L1687.44 1182.03L1668.93 1214.32V1177.1V1087.92C1653.81 1087.55 1639.13 1084.39 1625.26 1078.53C1610.97 1072.48 1598.14 1063.84 1587.13 1052.82C1576.11 1041.81 1567.47 1028.98 1561.42 1014.69C1555.16 999.895 1551.99 984.183 1551.99 967.992C1551.99 967.956 1551.99 967.922 1551.99 967.888C1551.99 967.855 1551.99 967.821 1551.99 967.785C1551.99 951.59 1555.17 935.875 1561.43 921.077C1567.47 906.792 1576.12 893.964 1587.14 882.948C1597.06 873.032 1608.51 865.002 1621.17 859.08C1634.21 852.979 1648.12 849.317 1662.51 848.195L1668.93 847.694V847.396L1671.06 847.528L1673.19 847.362ZM1671.96 1005.86C1682.07 1005.86 1691.58 1001.92 1698.73 994.768C1705.88 987.616 1709.82 978.106 1709.82 967.992C1709.82 957.877 1705.88 948.367 1698.73 941.215C1691.58 934.063 1682.07 930.124 1671.96 930.124C1661.84 930.124 1652.33 934.063 1645.18 941.215C1638.03 948.367 1634.09 957.877 1634.09 967.992C1634.09 978.107 1638.03 987.616 1645.18 994.768C1652.33 1001.92 1661.84 1005.86 1671.96 1005.86Z" fill="#0DA829"/>
<path d="M1556.84 1293.72L1535.85 1244.88H1530.37L1509.52 1293.72H1514.6L1521.73 1277.29H1544.43L1551.49 1293.72H1556.84ZM1542.52 1272.87H1523.58L1533.15 1250.43L1542.52 1272.87ZM1606.36 1275.7C1604.11 1284.15 1595.47 1290.16 1586.62 1290.16C1575.01 1290.16 1565.11 1281.18 1565.11 1269.37C1565.11 1257.69 1574.94 1248.45 1586.42 1248.45C1593.42 1248.45 1600.42 1252.14 1603.78 1257.88H1609.46C1606.62 1251.02 1597.31 1244.02 1586.36 1244.02C1572.04 1244.02 1560.22 1255.31 1560.22 1269.3C1560.22 1283.89 1573.03 1294.58 1586.42 1294.58C1600.02 1294.58 1611.17 1284.42 1612.23 1271.28H1579.1V1275.7H1606.36ZM1646.49 1293.72V1289.3H1624.64V1271.28H1645.76V1266.86H1624.64V1249.3H1646.49V1244.88H1619.76V1293.72H1646.49ZM1694.35 1293.72V1244.88H1689.46V1285.41H1689.33L1662.07 1244.88H1655.47V1293.72H1660.36V1250.76H1660.49L1689.46 1293.72H1694.35ZM1744.79 1280.92C1740.36 1286.79 1734.36 1290.16 1727.69 1290.16C1716.74 1290.16 1707.1 1280.39 1707.1 1269.43C1707.1 1258.15 1716.74 1248.51 1727.63 1248.51C1734.23 1248.51 1740.83 1251.81 1744.59 1257.42H1750.07C1746.17 1249.3 1736.73 1244.09 1727.69 1244.09C1713.63 1244.09 1702.22 1255.05 1702.22 1269.37C1702.22 1283.56 1713.83 1294.58 1727.76 1294.58C1737 1294.58 1745.51 1289.43 1750.26 1280.92H1744.79ZM1774.98 1293.72V1277.42L1792.14 1244.88H1786.79L1772.47 1272.27L1758.55 1244.88H1753.13L1770.1 1277.42V1293.72H1774.98ZM1809.09 1293.72L1821.04 1276.1C1826.71 1267.78 1827.11 1264.75 1827.11 1261.45C1827.11 1251.68 1820.31 1244.09 1810.41 1244.09C1800.97 1244.09 1793.71 1251.55 1793.71 1261.18C1793.71 1270.62 1800.84 1278.15 1810.08 1278.15C1811.86 1278.15 1813.31 1277.82 1814.7 1277.09L1814.83 1277.16L1803.55 1293.72H1809.09ZM1810.41 1273.72C1803.68 1273.72 1798.6 1268.05 1798.6 1261.12C1798.6 1254.12 1803.68 1248.51 1810.34 1248.51C1817.14 1248.51 1822.22 1254.25 1822.22 1260.99C1822.22 1267.78 1817.47 1273.72 1810.41 1273.72Z" fill="#0DA829"/>
<path fill-rule="evenodd" clip-rule="evenodd" d="M559.832 459.887V441.276V280.354V276.048L564.095 275.447C568.834 274.778 573.405 273.344 577.68 271.186C581.851 269.081 585.649 266.333 588.969 263.021C597.265 254.725 601.836 243.693 601.836 231.962C601.836 220.232 597.265 209.2 588.964 200.898C585.648 197.581 581.85 194.83 577.679 192.722C573.406 190.564 568.836 189.13 564.095 188.461L559.832 187.859V183.554V122.114V116.844L565.092 117.168C593.028 118.89 619.359 130.773 639.233 150.628C649.789 161.194 658.077 173.495 663.87 187.193C669.869 201.381 672.912 216.444 672.912 231.962C672.912 242.061 671.604 252.072 669.026 261.716C666.876 269.727 663.844 277.533 660.012 284.923L659.986 284.974L659.959 285.025L657.618 289.294L657.595 289.336L657.572 289.376L569.087 443.741L559.832 459.887Z" fill="black"/>
<path fill-rule="evenodd" clip-rule="evenodd" d="M564.787 122.114V183.554C575.53 185.07 585.153 190.078 592.47 197.394C601.317 206.244 606.792 218.467 606.792 231.962C606.792 245.458 601.317 257.681 592.47 266.529C585.153 273.829 575.53 278.838 564.787 280.354V441.276L653.272 286.912L655.613 282.642C659.246 275.637 662.155 268.2 664.239 260.436C666.665 251.363 667.957 241.81 667.957 231.962C667.957 201.578 655.629 174.051 635.73 154.134C617.329 135.749 592.437 123.818 564.787 122.114ZM554.876 111.573L565.397 112.222C594.541 114.018 622.006 126.412 642.735 147.122C653.748 158.145 662.392 170.975 668.435 185.262C674.695 200.065 677.868 215.777 677.868 231.962C677.868 242.493 676.505 252.935 673.814 262.996C671.571 271.355 668.408 279.497 664.413 287.204L664.36 287.306L664.304 287.407L661.963 291.677L661.918 291.759L661.871 291.841L573.386 446.205L554.876 478.497V441.276V280.354V271.743L563.402 270.539C567.605 269.946 571.657 268.676 575.446 266.762C579.149 264.893 582.521 262.454 585.469 259.513C592.825 252.156 596.881 242.369 596.881 231.962C596.881 221.556 592.825 211.768 585.461 204.402C582.516 201.458 579.145 199.016 575.444 197.145C571.657 195.232 567.605 193.961 563.402 193.368L554.876 192.165V183.554V122.114V111.573Z" fill="#4D4D4D"/>
<path fill-rule="evenodd" clip-rule="evenodd" d="M554.181 347.03L548.84 346.613C535.042 345.536 521.709 342.025 509.213 336.176C497.077 330.496 486.1 322.792 476.586 313.278C466.024 302.716 457.73 290.417 451.936 276.725C445.934 262.542 442.891 247.482 442.891 231.962C442.891 216.434 445.934 201.369 451.936 187.185C457.729 173.492 466.023 161.193 476.586 150.63C486.102 141.122 497.079 133.424 509.215 127.746C521.711 121.899 535.043 118.389 548.84 117.312L554.181 116.896V122.253V183.847V187.996L550.097 188.725C541.27 190.302 533.227 194.512 526.838 200.899C518.551 209.203 513.985 220.236 513.985 231.962C513.985 243.689 518.551 254.722 526.841 263.028C533.208 269.394 541.254 273.604 550.105 275.201L554.181 275.937V280.078V341.672V347.03Z" fill="#85D478"/>
<path fill-rule="evenodd" clip-rule="evenodd" d="M549.226 341.672V280.078C539.207 278.271 530.239 273.433 523.334 266.529C514.503 257.681 509.03 245.459 509.03 231.962C509.03 218.467 514.503 206.244 523.334 197.395C530.239 190.493 539.207 185.637 549.226 183.847V122.253C522.303 124.354 498.097 136.145 480.09 154.134C460.173 174.051 447.847 201.561 447.847 231.962C447.847 262.347 460.173 289.856 480.09 309.774C498.097 327.781 522.303 339.572 549.226 341.672ZM559.137 352.387L548.455 351.554C534.06 350.431 520.151 346.767 507.113 340.665C494.453 334.739 483.004 326.704 473.081 316.782C462.067 305.766 453.416 292.939 447.371 278.656C441.11 263.859 437.936 248.149 437.936 231.962C437.936 215.768 441.11 200.053 447.371 185.254C453.416 170.97 462.065 158.142 473.081 147.125C483.009 137.209 494.458 129.18 507.114 123.258C520.153 117.157 534.062 113.495 548.455 112.372L559.137 111.538V122.253V183.847V192.145L550.969 193.604C543.147 195.001 536.017 198.734 530.348 204.398C522.992 211.77 518.941 221.56 518.941 231.962C518.941 242.367 522.993 252.157 530.349 259.528C535.994 265.172 543.133 268.908 550.985 270.324L559.137 271.795V280.078V341.672V352.387Z" fill="#0DA829"/>
<path d="M532.702 549.465C528.28 555.339 522.274 558.705 515.608 558.705C504.652 558.705 495.016 548.937 495.016 537.981C495.016 526.695 504.652 517.059 515.542 517.059C522.142 517.059 528.742 520.359 532.504 525.969H537.982C534.088 517.851 524.65 512.637 515.608 512.637C501.55 512.637 490.132 523.593 490.132 537.915C490.132 552.105 501.748 563.127 515.674 563.127C524.914 563.127 533.428 557.979 538.18 549.465H532.702ZM550.884 562.269V513.429H546V562.269H550.884ZM572.373 562.269V517.851H583.527V513.429H556.269V517.851H567.489V562.269H572.373ZM605.886 562.269V545.967L623.046 513.429H617.7L603.378 540.819L589.452 513.429H584.04L601.002 545.967V562.269H605.886Z" fill="#0DA829"/>
<path fill-rule="evenodd" clip-rule="evenodd" d="M1668.23 347.03L1662.89 346.613C1649.09 345.536 1635.76 342.025 1623.27 336.176C1611.13 330.496 1600.15 322.792 1590.64 313.278C1580.08 302.716 1571.78 290.417 1565.99 276.725C1559.99 262.543 1556.94 247.482 1556.94 231.962C1556.94 216.434 1559.99 201.369 1565.99 187.185C1571.78 173.492 1580.08 161.192 1590.64 150.629C1600.16 141.122 1611.13 133.424 1623.27 127.746C1635.76 121.899 1649.1 118.389 1662.89 117.312L1668.23 116.896V122.253V183.847V187.996L1664.15 188.725C1655.32 190.303 1647.28 194.512 1640.89 200.899C1632.6 209.205 1628.04 220.238 1628.04 231.962C1628.04 243.687 1632.6 254.72 1640.9 263.028C1647.26 269.394 1655.31 273.604 1664.16 275.201L1668.23 275.937V280.078V341.672V347.03Z" fill="black"/>
<path fill-rule="evenodd" clip-rule="evenodd" d="M1663.28 341.672V280.078C1653.26 278.271 1644.29 273.433 1637.39 266.529C1628.56 257.681 1623.08 245.459 1623.08 231.962C1623.08 218.467 1628.56 206.244 1637.39 197.395C1644.29 190.493 1653.26 185.637 1663.28 183.847V122.253C1636.35 124.354 1612.15 136.145 1594.14 154.134C1574.23 174.051 1561.9 201.561 1561.9 231.962C1561.9 262.347 1574.23 289.856 1594.14 309.774C1612.15 327.781 1636.35 339.572 1663.28 341.672ZM1673.19 352.387L1662.51 351.554C1648.11 350.431 1634.2 346.767 1621.17 340.665C1608.51 334.739 1597.06 326.704 1587.13 316.783C1576.12 305.767 1567.47 292.939 1561.42 278.656C1555.16 263.86 1551.99 248.149 1551.99 231.962C1551.99 215.767 1555.16 200.053 1561.42 185.254C1567.47 170.97 1576.12 158.142 1587.13 147.125C1597.06 137.209 1608.51 129.18 1621.17 123.258C1634.21 117.157 1648.11 113.495 1662.51 112.372L1673.19 111.538V122.253V183.847V192.145L1665.02 193.604C1657.19 195.002 1650.06 198.736 1644.4 204.403C1637.05 211.77 1632.99 221.56 1632.99 231.962C1632.99 242.365 1637.04 252.155 1644.4 259.528C1650.05 265.172 1657.18 268.908 1665.04 270.324L1673.19 271.795V280.078V341.672V352.387Z" fill="#4D4D4D"/>
<path fill-rule="evenodd" clip-rule="evenodd" d="M1673.88 459.887V441.276V280.354V276.048L1678.15 275.447C1682.89 274.778 1687.46 273.344 1691.73 271.186C1695.9 269.08 1699.7 266.333 1703.02 263.021C1711.32 254.724 1715.89 243.693 1715.89 231.962C1715.89 220.232 1711.32 209.2 1703.02 200.898C1699.7 197.581 1695.9 194.83 1691.73 192.722C1687.46 190.564 1682.89 189.13 1678.15 188.461L1673.88 187.859V183.554V122.114V116.844L1679.14 117.168C1707.08 118.89 1733.41 130.772 1753.28 150.627C1763.84 161.194 1772.13 173.495 1777.92 187.193C1783.92 201.381 1786.96 216.443 1786.96 231.962C1786.96 242.07 1785.65 252.082 1783.08 261.717C1780.93 269.726 1777.9 277.533 1774.06 284.924L1774.04 284.974L1774.01 285.025L1771.67 289.294L1771.64 289.335L1771.62 289.376L1683.14 443.741L1673.88 459.887Z" fill="#85D478"/>
<path fill-rule="evenodd" clip-rule="evenodd" d="M1678.84 122.114V183.554C1689.58 185.07 1699.2 190.078 1706.52 197.394C1715.37 206.244 1720.84 218.466 1720.84 231.962C1720.84 245.458 1715.37 257.681 1706.52 266.529C1699.2 273.829 1689.58 278.837 1678.84 280.354V441.276L1767.32 286.912L1769.66 282.642C1773.3 275.636 1776.21 268.199 1778.29 260.436C1780.72 251.363 1782.01 241.81 1782.01 231.962C1782.01 201.578 1769.68 174.051 1749.78 154.133C1731.38 135.749 1706.49 123.818 1678.84 122.114ZM1668.93 111.573L1679.45 112.222C1708.59 114.018 1736.06 126.412 1756.79 147.121C1767.8 158.145 1776.44 170.975 1782.48 185.263C1788.74 200.065 1791.92 215.777 1791.92 231.962C1791.92 242.503 1790.55 252.945 1787.86 262.998C1785.62 271.355 1782.46 279.498 1778.46 287.205L1778.41 287.307L1778.35 287.407L1776.01 291.677L1775.97 291.759L1775.92 291.841L1687.44 446.205L1668.93 478.498V441.276V280.354V271.743L1677.45 270.539C1681.66 269.946 1685.71 268.676 1689.5 266.762C1693.2 264.893 1696.57 262.454 1699.52 259.512C1706.88 252.156 1710.93 242.369 1710.93 231.962C1710.93 221.556 1706.88 211.768 1699.51 204.402C1696.57 201.458 1693.2 199.016 1689.49 197.145C1685.71 195.232 1681.66 193.961 1677.45 193.368L1668.93 192.164V183.554V122.114V111.573Z" fill="#0DA829"/>
<path d="M1533.92 562.267V542.599H1543.75C1557.09 542.599 1561.31 534.679 1561.31 528.145C1561.31 521.413 1557.28 513.427 1543.82 513.427H1529.04V562.267H1533.92ZM1533.92 538.177V517.849H1543.75C1553.32 517.849 1556.43 523.129 1556.43 528.013C1556.43 534.085 1551.61 538.177 1544.81 538.177H1533.92ZM1593.64 562.267V557.845H1573.44V513.427H1568.56V562.267H1593.64ZM1642.39 562.267L1621.4 513.427H1615.92L1595.07 562.267H1600.15L1607.28 545.833H1629.98L1637.04 562.267H1642.39ZM1628.07 541.411H1609.13L1618.7 518.971L1628.07 541.411ZM1686.96 562.267V513.427H1682.07V553.951H1681.94L1654.68 513.427H1648.08V562.267H1652.97V519.301H1653.1L1682.07 562.267H1686.96ZM1735.81 562.267V513.427H1730.93V553.951H1730.79L1703.54 513.427H1696.94V562.267H1701.82V519.301H1701.95L1730.93 562.267H1735.81ZM1772.19 562.267V557.845H1750.35V539.827H1771.47V535.405H1750.35V517.849H1772.19V513.427H1745.46V562.267H1772.19ZM1813.25 562.267L1799.46 544.051C1808.04 543.391 1813.98 537.121 1813.98 529.201C1813.98 520.951 1808.3 513.427 1795.57 513.427H1780.85V562.267H1785.73V517.849H1795.04C1806.26 517.849 1809.1 524.449 1809.1 529.069C1809.1 535.735 1803.95 540.157 1795.3 540.157H1790.55L1807.12 562.267H1813.25Z" fill="#0DA829"/>
<g filter="url(#filter0_d)">
<path d="M1113.06 960.26C1234.26 960.26 1332.51 862.008 1332.51 740.807C1332.51 619.607 1234.26 521.354 1113.06 521.354C991.857 521.354 893.604 619.607 893.604 740.807C893.604 862.008 991.857 960.26 1113.06 960.26Z" fill="url(#paint0_linear)"/>
</g>
<path d="M1213.29 720.761C1211.34 728.011 1208.61 735.029 1205.15 741.691L1202.95 745.718L1119.55 891.217V739.533C1130.52 737.955 1140.56 732.474 1147.82 724.095C1155.08 715.716 1159.07 705.001 1159.07 693.915C1159.07 682.829 1155.08 672.114 1147.82 663.735C1140.56 655.356 1130.52 649.875 1119.55 648.297V590.384C1134.88 591.357 1149.8 595.719 1163.24 603.156C1176.68 610.593 1188.3 620.92 1197.27 633.391C1206.24 645.863 1212.32 660.168 1215.09 675.277C1217.86 690.385 1217.25 705.92 1213.29 720.761" fill="white"/>
<path d="M1104.88 797.332C1078.87 795.273 1054.59 783.485 1036.88 764.319C1019.17 745.153 1009.33 720.017 1009.33 693.922C1009.33 667.828 1019.17 642.691 1036.88 623.525C1054.59 604.36 1078.87 592.572 1104.88 590.513V648.574C1094.26 650.505 1084.66 656.101 1077.74 664.388C1070.83 672.674 1067.04 683.125 1067.04 693.919C1067.04 704.712 1070.83 715.163 1077.74 723.449C1084.66 731.736 1094.26 737.333 1104.88 739.263V797.332Z" fill="white"/>
</g>
<defs>
<filter id="filter0_d" x="887.604" y="518.354" width="450.905" height="450.906" filterUnits="userSpaceOnUse" color-interpolation-filters="sRGB">
<feFlood flood-opacity="0" result="BackgroundImageFix"/>
<feColorMatrix in="SourceAlpha" type="matrix" values="0 0 0 0 0 0 0 0 0 0 0 0 0 0 0 0 0 0 127 0"/>
<feOffset dy="3"/>
<feGaussianBlur stdDeviation="3"/>
<feColorMatrix type="matrix" values="0 0 0 0 0 0 0 0 0 0 0 0 0 0 0 0 0 0 0.161 0"/>
<feBlend mode="normal" in2="BackgroundImageFix" result="effect1_dropShadow"/>
<feBlend mode="normal" in="SourceGraphic" in2="effect1_dropShadow" result="shape"/>
</filter>
<linearGradient id="paint0_linear" x1="893.604" y1="521.354" x2="1113.06" y2="960.26" gradientUnits="userSpaceOnUse">
<stop stop-color="#0DA829"/>
<stop offset="1" stop-color="#075415"/>
</linearGradient>
<clipPath id="clip0">
<rect width="2250" height="1485" fill="white"/>
</clipPath>
</defs>
</svg>
