<svg width="2250" height="1485" viewBox="0 0 2250 1485" fill="none" xmlns="http://www.w3.org/2000/svg">
<path fill-rule="evenodd" clip-rule="evenodd" d="M1472.51 673.272C1465.76 698.424 1456.31 722.772 1444.31 745.891L1436.66 759.849L1147.34 1264.57V738.396C1181.61 733.537 1213.38 717.675 1237.85 693.198C1258.84 672.198 1273.57 645.767 1280.38 616.867C1287.2 587.968 1285.83 557.741 1276.44 529.575C1267.04 501.409 1249.98 476.415 1227.18 457.396C1204.38 438.376 1176.74 426.082 1147.34 421.89V221C1234.85 226.398 1317.36 263.639 1379.3 325.695C1412.75 359.089 1439.28 398.758 1457.36 442.428C1475.44 486.098 1484.72 532.907 1484.66 580.172C1484.7 611.603 1480.61 642.902 1472.51 673.272V673.272Z" fill="#0DA829"/>
<path fill-rule="evenodd" clip-rule="evenodd" d="M1096.46 938.893C1006.21 931.761 921.968 890.875 860.527 824.388C799.087 757.901 764.965 670.699 764.965 580.171C764.965 489.642 799.087 402.44 860.527 335.953C921.968 269.467 1006.21 228.581 1096.46 221.449V422.846C1059.58 429.503 1026.21 448.903 1002.18 477.658C978.156 506.414 964.992 542.696 964.992 580.17C964.992 617.643 978.156 653.925 1002.18 682.681C1026.21 711.436 1059.58 730.836 1096.46 737.493V938.893Z" fill="#85D478"/>
</svg>
