<svg width="2250" height="1485" viewBox="0 0 2250 1485" fill="none" xmlns="http://www.w3.org/2000/svg">
<path fill-rule="evenodd" clip-rule="evenodd" d="M2076.15 630.608V608.645C2055.08 610.113 2039.33 615.47 2030.42 636.268H2029.82V612.787H2009.02V775.27H2029.82V680.222C2029.82 651.106 2047.65 633 2076.15 630.608ZM834.687 618.129C825.828 598.057 811.298 581.012 792.883 569.086C774.468 557.161 752.97 550.875 731.031 551.002C668.963 551.002 617.28 602.384 617.28 664.481C617.28 727.136 668.963 779.728 731.929 779.728C774.696 779.728 816.592 753.873 833.501 714.072H786.277C770.835 731.009 754.794 741.695 731.031 741.695C690.331 741.695 657.949 704.583 657.949 665.087C657.949 626.155 689.132 589.043 729.535 589.043C753.895 589.043 772.925 600.026 788.369 618.134L834.687 618.129ZM887.077 591.702V555.455H847.581V591.702H887.077ZM887.077 775.267V610.405H847.581V775.27L887.077 775.267ZM957.655 610.403V555.46H918.159V610.405H898.829V645.451H918.159V775.27H957.663V645.451H973.676L1019.84 759.828L989.526 830.217H1032.02L1126.78 610.405H1081.91L1042.11 716.164L1004.67 610.405L957.655 610.403ZM1260.96 621.114C1261.17 629.581 1258.86 637.92 1254.31 645.062C1249.76 652.204 1243.17 657.825 1235.41 661.203C1222.93 667.158 1211.35 666.857 1197.67 666.857H1159.66V575.362H1197.67C1211.35 575.362 1222.93 575.062 1235.41 581.017C1243.18 584.396 1249.76 590.018 1254.31 597.163C1258.87 604.308 1261.18 612.649 1260.96 621.119L1260.96 621.114ZM1282.92 621.114C1283.12 610.725 1280.72 600.452 1275.95 591.221C1271.18 581.991 1264.19 574.093 1255.6 568.24C1238.97 556.957 1218.46 555.463 1198.86 555.463H1137.67V775.275H1159.68V686.749H1198.88C1218.48 686.749 1238.98 685.253 1255.62 673.972C1264.2 668.121 1271.19 660.226 1275.96 650.999C1280.73 641.772 1283.12 631.503 1282.93 621.119L1282.92 621.114ZM1317.32 775.264V555.46H1296.52V775.272L1317.32 775.264ZM1483.92 694.164C1483.92 730.411 1455.73 760.419 1418.89 760.419C1380.85 760.419 1352.33 732.498 1352.33 694.462C1352.33 656.144 1380.25 627.338 1418.89 627.338C1455.73 627.338 1483.92 657.923 1483.92 694.164V694.164ZM1503.55 775.264V612.787H1482.75V641.267H1482.15C1468.19 619.325 1444.42 608.645 1418.89 608.645C1371.07 608.645 1331.57 644.892 1331.57 693.566C1331.57 742.585 1370.18 779.125 1418.89 779.125C1444.13 779.125 1467.89 768.142 1482.16 746.746H1482.76V775.27L1503.55 775.264ZM1659.58 775.264V685.851C1659.58 641.019 1634.62 608.64 1587.99 608.64C1568.69 608.64 1548.79 616.925 1538.08 633.57H1537.51V612.787H1516.71V775.27H1537.51V684.393C1537.51 669.522 1541.37 652.014 1552.65 641.301C1562.24 632.34 1574.87 627.356 1587.99 627.356C1601.11 627.356 1613.75 632.34 1623.33 641.301C1634.91 652.312 1638.77 670.417 1638.77 685.861V775.27L1659.58 775.264ZM1816.2 775.264V685.851C1816.2 641.019 1791.27 608.64 1744.62 608.64C1725.31 608.64 1705.41 616.925 1694.73 633.57H1694.13V612.787H1673.33V775.27H1694.13V684.393C1694.13 669.522 1697.99 652.014 1709.27 641.301C1718.87 632.336 1731.5 627.35 1744.63 627.35C1757.76 627.35 1770.4 632.336 1779.99 641.301C1791.57 652.312 1795.43 670.417 1795.43 685.861V775.27L1816.2 775.264ZM1977.21 682.881H1850.34C1855.4 651.1 1881.25 627.338 1913.61 627.338C1946.3 627.343 1971.86 651.106 1977.21 682.889L1977.21 682.881ZM1998.58 695.658C1998.58 648.734 1960.87 608.632 1913.35 608.632C1866.69 608.632 1828.98 647.836 1828.98 694.162C1828.89 714.207 1835.93 733.633 1848.83 748.975C1861.73 764.318 1879.66 774.581 1899.42 777.934C1919.18 781.287 1939.49 777.512 1956.73 767.283C1973.97 757.054 1987.02 741.035 1993.55 722.082H1971.54C1962.62 746.143 1938.26 760.416 1913.33 760.416C1881.55 760.416 1851.83 733.663 1850.34 701.582H1998.27C1998.28 699.521 1998.58 697.732 1998.58 695.666L1998.58 695.658Z" fill="black"/>
<path fill-rule="evenodd" clip-rule="evenodd" d="M514.782 709.45C511.52 721.598 506.954 733.357 501.163 744.522L497.466 751.253L357.724 995.04V740.905C376.129 738.283 392.97 729.109 405.153 715.067C417.337 701.025 424.044 683.058 424.044 664.468C424.044 645.877 417.337 627.91 405.153 613.869C392.97 599.827 376.129 590.652 357.724 588.031V491C383.406 492.635 408.406 499.948 430.922 512.41C453.438 524.873 472.909 542.175 487.932 563.07C502.955 583.964 513.155 607.932 517.798 633.244C522.441 658.557 521.411 684.584 514.782 709.45V709.45Z" fill="#0DA829"/>
<path fill-rule="evenodd" clip-rule="evenodd" d="M333.145 837.746C289.555 834.303 248.864 814.555 219.187 782.441C189.511 750.328 173.029 708.208 173.029 664.482C173.029 620.756 189.511 578.636 219.187 546.522C248.864 514.409 289.555 494.661 333.145 491.217V588.502C315.332 591.716 299.215 601.086 287.607 614.975C276 628.865 269.641 646.39 269.641 664.491C269.641 682.592 276 700.117 287.607 714.007C299.215 727.896 315.332 737.266 333.145 740.48V837.746Z" fill="#85D478"/>
</svg>
