<svg width="2250" height="1485" viewBox="0 0 2250 1485" fill="none" xmlns="http://www.w3.org/2000/svg">
<g filter="url(#filter0_d)">
<path d="M2117.64 318H1274.83V479.07H2117.64V318Z" fill="white"/>
</g>
<path d="M1516.23 396.999C1519.32 395.25 1521.92 392.759 1523.81 389.75C1525.69 386.742 1526.79 383.312 1527.02 379.769C1527.24 376.227 1526.58 372.685 1525.09 369.463C1523.6 366.241 1521.33 363.441 1518.49 361.316C1513.97 357.869 1507.31 356.085 1498.74 356.085H1469.84V373.409C1469.36 372.697 1468.84 371.995 1468.3 371.308C1457.83 357.152 1441.9 356.085 1430.95 356.085H1403V444.097H1432.26C1450.71 444.097 1462.85 437.686 1469.84 427.499V444.097H1496.96C1509.45 444.097 1515.04 443.264 1522.05 437.912C1525.11 435.632 1527.58 432.646 1529.23 429.208C1530.89 425.77 1531.69 421.983 1531.57 418.168C1531.76 413.431 1530.35 408.768 1527.56 404.928C1524.78 401.089 1520.79 398.296 1516.23 396.999V396.999ZM1433.21 428.518H1420.72V371.668H1433.33C1444.04 371.668 1449.98 375.712 1453.67 380.469C1457.71 386.247 1459.79 393.165 1459.61 400.212C1459.62 416.028 1452.24 428.518 1433.21 428.518ZM1487.56 371.668H1497.33C1500.01 371.535 1502.68 371.981 1505.18 372.976C1506.73 373.714 1508.03 374.903 1508.9 376.388C1509.77 377.873 1510.17 379.585 1510.05 381.302C1510.2 383.101 1509.81 384.904 1508.92 386.475C1508.03 388.045 1506.68 389.309 1505.06 390.102C1502.62 390.977 1500.03 391.381 1497.44 391.29H1487.57L1487.56 371.668ZM1508.26 427.213C1505.64 428.189 1502.85 428.634 1500.05 428.52H1487.57V406.16H1499.46C1502.48 405.953 1505.52 406.358 1508.38 407.351C1510.3 408.127 1511.93 409.484 1513.04 411.233C1514.15 412.982 1514.68 415.035 1514.57 417.103C1514.73 419.24 1514.2 421.373 1513.07 423.191C1511.94 425.009 1510.25 426.417 1508.26 427.211L1508.26 427.213Z" fill="#0DA829"/>
<path d="M1619.23 420.43C1613.52 433.987 1598.16 445.644 1578.8 445.644C1570.64 445.745 1562.6 443.653 1555.52 439.586C1548.45 435.518 1542.6 429.625 1538.58 422.522C1534.56 415.42 1532.52 407.368 1532.68 399.209C1532.84 391.05 1535.19 383.083 1539.48 376.141C1543.77 369.199 1549.84 363.538 1557.07 359.747C1564.3 355.957 1572.41 354.178 1580.56 354.596C1588.71 355.014 1596.6 357.613 1603.4 362.122C1610.2 366.632 1615.67 372.885 1619.23 380.229H1608.64C1605.51 375.07 1601.12 370.799 1595.87 367.822C1590.62 364.844 1584.7 363.261 1578.67 363.222C1573.87 363.199 1569.12 364.139 1564.69 365.987C1560.26 367.835 1556.24 370.553 1552.88 373.979C1549.52 377.406 1546.88 381.472 1545.12 385.937C1543.36 390.401 1542.52 395.174 1542.63 399.972C1542.63 420.792 1558.21 436.965 1578.67 436.965C1584.65 436.934 1590.53 435.405 1595.76 432.517C1601 429.629 1605.43 425.474 1608.64 420.432L1619.23 420.43Z" fill="black"/>
<path d="M1622.08 411.985C1622.1 403.047 1625.66 394.481 1631.99 388.17C1638.32 381.858 1646.89 378.317 1655.83 378.325C1664.77 378.333 1673.34 381.889 1679.66 388.212C1685.97 394.534 1689.52 403.107 1689.52 412.044C1689.52 420.982 1685.97 429.554 1679.66 435.877C1673.34 442.2 1664.77 445.756 1655.83 445.764C1646.89 445.772 1638.32 442.231 1631.99 435.919C1625.66 429.607 1622.1 421.041 1622.08 412.104V411.985ZM1630.76 412.227C1630.78 419.02 1633.49 425.529 1638.3 430.325C1643.11 435.12 1649.63 437.809 1656.43 437.801C1663.22 437.793 1669.73 435.089 1674.53 430.283C1679.33 425.476 1682.03 418.961 1682.03 412.168C1682.03 405.374 1679.33 398.859 1674.53 394.053C1669.73 389.247 1663.22 386.542 1656.43 386.535C1649.63 386.527 1643.11 389.216 1638.3 394.011C1633.49 398.806 1630.78 405.315 1630.76 412.109V412.227Z" fill="black"/>
<path d="M1693.68 380.11H1702.01C1702.01 383.679 1702.01 387.245 1701.89 391.528C1705.57 383.202 1714.26 378.086 1725.67 378.326C1745.52 378.568 1752.55 392.126 1752.55 407.702V444.097H1743.86V409.477C1743.86 395.677 1737.68 386.284 1723.29 386.523C1710.08 386.642 1702.47 394.61 1702.47 407.932V444.09H1693.67L1693.68 380.11Z" fill="black"/>
<path d="M1757.67 380.11H1766C1766 383.679 1766 387.245 1765.88 391.528C1769.57 383.202 1778.25 378.086 1789.67 378.326C1809.52 378.568 1816.54 392.126 1816.54 407.702V444.097H1807.86V409.477C1807.86 395.677 1801.67 386.284 1787.28 386.523C1774.08 386.642 1766.46 394.61 1766.46 407.932V444.09H1757.67V380.11Z" fill="black"/>
<path d="M1829.15 414.602C1829.33 421.049 1832.06 427.16 1836.74 431.597C1841.43 436.034 1847.68 438.434 1854.12 438.272C1858.67 438.42 1863.17 437.253 1867.07 434.911C1870.97 432.57 1874.12 429.153 1876.13 425.07H1885.28C1882.65 431.465 1878.13 436.901 1872.32 440.652C1866.89 444.111 1860.57 445.929 1854.12 445.886C1831.88 445.886 1820.35 428.164 1820.35 412.234C1820.24 407.653 1821.07 403.098 1822.78 398.849C1824.5 394.6 1827.06 390.746 1830.32 387.525C1833.58 384.304 1837.47 381.783 1841.74 380.118C1846 378.452 1850.57 377.677 1855.15 377.839C1859.73 378.001 1864.23 379.098 1868.37 381.062C1872.51 383.026 1876.2 385.816 1879.22 389.26C1882.25 392.704 1884.53 396.73 1885.94 401.09C1887.35 405.45 1887.86 410.052 1887.43 414.614L1829.15 414.602ZM1878.74 407.581C1878.15 396.401 1867.32 385.458 1854.12 385.817C1847.99 385.627 1842.02 387.767 1837.41 391.806C1832.79 395.845 1829.88 401.482 1829.26 407.581H1878.74Z" fill="black"/>
<path d="M1958.07 422.451C1955.65 430.218 1950.53 436.862 1943.64 441.177C1936.74 445.492 1928.52 447.192 1920.48 445.969C1912.44 444.746 1905.1 440.681 1899.8 434.512C1894.5 428.342 1891.58 420.476 1891.58 412.341C1891.58 404.206 1894.5 396.34 1899.8 390.17C1905.1 384 1912.44 379.935 1920.48 378.712C1928.52 377.49 1936.74 379.19 1943.64 383.505C1950.53 387.82 1955.65 394.463 1958.07 402.231H1949.03C1947.46 398.371 1944.97 394.957 1941.77 392.29C1938.57 389.623 1934.76 387.785 1930.68 386.938C1926.6 386.091 1922.38 386.262 1918.38 387.436C1914.38 388.609 1910.74 390.748 1907.76 393.665C1903.03 398.626 1900.42 405.243 1900.5 412.101C1900.4 415.455 1900.99 418.794 1902.22 421.916C1903.44 425.039 1905.29 427.88 1907.65 430.269C1910 432.658 1912.82 434.546 1915.92 435.819C1919.03 437.091 1922.36 437.722 1925.71 437.674C1930.68 437.831 1935.57 436.454 1939.72 433.729C1943.87 431.005 1947.08 427.066 1948.91 422.451H1958.07Z" fill="black"/>
<path d="M1966.75 387.126H1954.14V380.106H1966.75V356.08H1975.44V380.106H1989.48V387.126H1975.44V444.097H1966.75V387.126Z" fill="black"/>
<g filter="url(#filter1_d)">
<path d="M974.806 318H132V479.07H974.806V318Z" fill="white"/>
</g>
<path d="M345.262 379.989C345.747 360.839 361.558 354.416 372.975 354.416C388.436 354.416 398.785 364.885 398.785 377.61C398.777 381.483 397.665 385.275 395.58 388.54C393.495 391.805 390.523 394.408 387.012 396.045C403.066 401.517 403.901 414.241 403.901 418.168C403.901 433.868 389.985 445.767 372.738 445.767C363.105 445.767 352.402 441.961 346.928 433.994C343.76 429.267 341.987 423.744 341.812 418.057H359.655C359.912 421.416 361.45 424.549 363.952 426.807C366.453 429.064 369.726 430.275 373.094 430.188C381.657 430.188 386.167 424.242 386.167 416.873C386.167 408.191 377.96 404.265 371.063 404.265H363.928V391.063H367.853C373.92 391.063 381.054 387.613 381.054 380.12C381.054 374.767 377.963 370.01 372.254 370.01C364.761 370.01 362.979 376.062 362.739 379.999L345.262 379.989Z" fill="black"/>
<path d="M407.344 356.082H435.294C446.237 356.082 462.167 357.152 472.64 371.305C478.877 379.526 482.071 389.655 481.68 399.967C481.68 424.826 468.607 444.094 436.601 444.094H407.344V356.082ZM425.065 428.513H437.553C456.584 428.513 463.956 416.025 463.956 400.207C464.129 393.16 462.046 386.243 458.01 380.464C454.323 375.707 448.375 371.663 437.674 371.663H425.065V428.513Z" fill="black"/>
<path d="M484.65 444.094V356.082H498.45L531.039 429.941L563.509 356.082H577.309V444.094H568.034L568.276 365.834L534.14 444.094H527.846L493.591 365.834L493.833 444.094H484.65Z" fill="black"/>
<path d="M648.668 444.095H639.863V430.893C637.348 435.596 633.56 439.496 628.932 442.146C624.304 444.797 619.023 446.09 613.694 445.879C592.874 445.879 580.51 429.704 580.51 412.101C580.51 393.309 594.188 378.324 613.694 378.324C627.37 378.324 636.769 386.291 639.863 393.547V380.106H648.665L648.668 444.095ZM589.199 412.22C589.317 423.758 597.287 437.672 614.89 437.672C619.88 437.804 624.787 436.373 628.925 433.579C633.062 430.785 636.222 426.769 637.964 422.09C639.388 418.911 640.118 415.464 640.105 411.98C640.23 408.46 639.538 404.959 638.083 401.752C636.193 397.121 632.94 393.174 628.755 390.434C624.571 387.694 619.653 386.29 614.653 386.407C611.277 386.358 607.925 386.99 604.799 388.267C601.673 389.543 598.837 391.438 596.461 393.836C594.084 396.235 592.216 399.088 590.969 402.226C589.722 405.364 589.12 408.721 589.201 412.096L589.199 412.22Z" fill="black"/>
<path d="M653.304 380.108H661.627V393.423C664.263 388.685 668.158 384.766 672.88 382.101C677.602 379.436 682.969 378.127 688.388 378.319C709.916 378.319 721.215 395.803 721.215 412.334C721.215 430.174 708.25 445.874 688.388 445.874C674.235 445.874 665.077 437.667 662.104 431.007V468.353H653.304V380.108ZM712.414 411.983C712.498 408.592 711.89 405.219 710.627 402.071C709.364 398.923 707.473 396.065 705.069 393.672C702.665 391.279 699.799 389.401 696.645 388.152C693.491 386.904 690.116 386.311 686.725 386.41C683.365 386.399 680.035 387.057 676.931 388.345C673.827 389.634 671.01 391.527 668.645 393.915C664.001 398.875 661.445 405.435 661.511 412.23C661.448 415.589 662.063 418.927 663.32 422.043C664.577 425.16 666.45 427.99 668.826 430.366C671.202 432.743 674.033 434.615 677.149 435.872C680.265 437.129 683.603 437.744 686.962 437.681C690.332 437.744 693.68 437.125 696.805 435.861C699.929 434.596 702.765 432.713 705.143 430.324C707.521 427.935 709.391 425.09 710.64 421.959C711.89 418.829 712.493 415.478 712.414 412.109V411.983Z" fill="black"/>
<path d="M754.508 396.174C754.508 389.395 749.988 385.589 743.565 385.589C736.544 385.589 732.266 390.346 732.503 395.936C732.746 402.001 737.379 404.499 745.109 406.761C754.268 409.257 764.497 411.876 764.974 425.552C765.458 437.328 755.934 445.888 743.802 445.888C733.455 445.888 722.035 439.352 721.919 425.908H730.601C730.59 427.632 730.932 429.341 731.605 430.928C732.278 432.516 733.268 433.95 734.515 435.141C735.762 436.332 737.239 437.257 738.855 437.857C740.472 438.458 742.194 438.721 743.916 438.633C745.529 438.704 747.14 438.445 748.649 437.871C750.159 437.298 751.535 436.421 752.693 435.296C753.852 434.171 754.768 432.821 755.385 431.329C756.003 429.837 756.309 428.235 756.285 426.62C756.043 419.357 751.29 416.391 740.229 413.179C731.07 410.443 723.933 406.756 723.696 396.646C723.696 385.11 732.855 378.331 743.676 378.331C752.598 378.331 762.589 383.207 763.184 396.171L754.508 396.174Z" fill="black"/>
<g filter="url(#filter2_d)">
<path d="M2117.64 1006.35H1274.83V1167.42H2117.64V1006.35Z" fill="white"/>
</g>
<path d="M1330.93 1044.44H1358.88C1369.82 1044.44 1385.75 1045.51 1396.22 1059.66C1402.46 1067.88 1405.65 1078.01 1405.26 1088.32C1405.26 1113.18 1392.19 1132.45 1360.19 1132.45H1330.93V1044.44ZM1348.65 1116.87H1361.14C1380.17 1116.87 1387.54 1104.38 1387.54 1088.56C1387.71 1081.51 1385.63 1074.6 1381.59 1068.82C1377.91 1064.06 1371.96 1060.02 1361.26 1060.02H1348.65V1116.87Z" fill="black"/>
<path d="M1503.38 1067.15V1044.44H1487.8V1067.15H1461.99V1076.67C1459.14 1071.44 1451.88 1065.13 1439.99 1065.13C1421.68 1065.13 1406.81 1079.17 1406.81 1099.75C1406.81 1118.19 1419.06 1134.48 1439.99 1134.48C1449.15 1134.48 1457.83 1130.67 1461.99 1123.06V1132.46H1477.58V1079.17H1487.8V1132.46H1503.38V1079.17H1514.56V1067.16L1503.38 1067.15ZM1459.62 1109.5C1458.06 1112.74 1455.58 1115.46 1452.5 1117.32C1449.41 1119.18 1445.85 1120.1 1442.25 1119.96C1439.64 1119.99 1437.04 1119.5 1434.62 1118.52C1432.19 1117.53 1429.99 1116.07 1428.14 1114.22C1426.29 1112.37 1424.83 1110.17 1423.84 1107.75C1422.86 1105.32 1422.37 1102.73 1422.4 1100.11V1099.99C1422.4 1089.88 1429.53 1079.66 1442.14 1079.66C1445.98 1079.53 1449.77 1080.57 1453.02 1082.62C1456.26 1084.68 1458.81 1087.67 1460.34 1091.19C1461.64 1094.06 1462.25 1097.2 1462.12 1100.35C1461.95 1103.54 1461.09 1106.66 1459.62 1109.5V1109.5Z" fill="#0DA829"/>
<path d="M1580.93 1132.45H1565.35V1123.05C1561.19 1130.67 1552.5 1134.47 1543.34 1134.47C1522.41 1134.47 1510.16 1118.18 1510.16 1099.74C1510.16 1079.17 1525.03 1065.12 1543.34 1065.12C1555.24 1065.12 1562.49 1071.42 1565.35 1076.66V1067.15H1580.93V1132.45ZM1525.73 1100.1C1525.7 1102.71 1526.19 1105.31 1527.18 1107.74C1528.16 1110.16 1529.63 1112.36 1531.48 1114.21C1533.33 1116.06 1535.53 1117.52 1537.96 1118.51C1540.38 1119.49 1542.98 1119.98 1545.6 1119.95C1549.2 1120.09 1552.76 1119.17 1555.84 1117.31C1558.93 1115.45 1561.4 1112.73 1562.96 1109.48C1564.44 1106.64 1565.29 1103.52 1565.46 1100.33C1565.58 1097.18 1564.97 1094.04 1563.67 1091.17C1562.14 1087.64 1559.59 1084.66 1556.35 1082.6C1553.1 1080.54 1549.31 1079.51 1545.47 1079.63C1542.83 1079.62 1540.2 1080.14 1537.76 1081.16C1535.32 1082.18 1533.11 1083.69 1531.27 1085.59C1529.42 1087.49 1527.98 1089.74 1527.03 1092.21C1526.08 1094.68 1525.64 1097.32 1525.73 1099.97L1525.73 1100.1Z" fill="black"/>
<path d="M1585.57 1132.45V1044.44H1599.37L1631.95 1118.3L1664.43 1044.44H1678.22V1132.45H1668.95L1669.19 1054.19L1635.05 1132.45H1628.76L1594.5 1054.19L1594.75 1132.45H1585.57Z" fill="black"/>
<path d="M1750.29 1132.45H1741.49V1119.25C1738.98 1123.95 1735.19 1127.85 1730.56 1130.5C1725.94 1133.15 1720.66 1134.45 1715.33 1134.23C1694.51 1134.23 1682.14 1118.06 1682.14 1100.46C1682.14 1081.66 1695.82 1066.68 1715.33 1066.68C1729.01 1066.68 1738.4 1074.65 1741.49 1081.9V1068.46H1750.29V1132.45ZM1690.83 1100.57C1690.94 1112.11 1698.91 1126.02 1716.51 1126.02C1721.5 1126.15 1726.41 1124.72 1730.55 1121.93C1734.69 1119.14 1737.85 1115.12 1739.59 1110.44C1741.01 1107.26 1741.74 1103.81 1741.73 1100.33C1741.85 1096.81 1741.16 1093.31 1739.71 1090.1C1737.81 1085.47 1734.56 1081.53 1730.38 1078.79C1726.19 1076.05 1721.28 1074.64 1716.28 1074.76C1712.9 1074.71 1709.55 1075.34 1706.42 1076.62C1703.3 1077.89 1700.46 1079.79 1698.08 1082.19C1695.71 1084.59 1693.84 1087.44 1692.59 1090.58C1691.35 1093.72 1690.74 1097.07 1690.83 1100.45V1100.57Z" fill="black"/>
<path d="M1755.53 1068.46H1763.85C1763.85 1072.03 1763.85 1075.6 1763.73 1079.88C1767.42 1071.55 1776.1 1066.44 1787.52 1066.68C1807.37 1066.92 1814.39 1080.48 1814.39 1096.05V1132.45H1805.71V1097.83C1805.71 1084.03 1799.53 1074.64 1785.13 1074.88C1771.93 1074.99 1764.31 1082.96 1764.31 1096.28V1132.44H1755.51L1755.53 1068.46Z" fill="black"/>
<path d="M1886.12 1132.45H1877.32V1119.25C1874.8 1123.95 1871.01 1127.85 1866.39 1130.5C1861.76 1133.15 1856.48 1134.45 1851.15 1134.23C1830.33 1134.23 1817.97 1118.06 1817.97 1100.46C1817.97 1081.66 1831.64 1066.68 1851.15 1066.68C1864.83 1066.68 1874.22 1074.65 1877.32 1081.9V1068.46H1886.12V1132.45ZM1826.65 1100.57C1826.77 1112.11 1834.74 1126.02 1852.34 1126.02C1857.33 1126.15 1862.24 1124.72 1866.37 1121.93C1870.51 1119.14 1873.67 1115.12 1875.41 1110.44C1876.84 1107.26 1877.57 1103.81 1877.55 1100.33C1877.68 1096.81 1876.99 1093.31 1875.53 1090.1C1873.64 1085.47 1870.39 1081.53 1866.2 1078.79C1862.02 1076.05 1857.1 1074.64 1852.1 1074.76C1848.73 1074.71 1845.37 1075.34 1842.25 1076.62C1839.12 1077.89 1836.29 1079.79 1833.91 1082.19C1831.53 1084.59 1829.66 1087.44 1828.42 1090.58C1827.17 1093.72 1826.57 1097.07 1826.65 1100.45L1826.65 1100.57Z" fill="black"/>
<path d="M1957.72 1125.07C1957.72 1137.21 1953.79 1144.93 1948.2 1150.29C1941.65 1156.53 1932.98 1160.06 1923.94 1160.16C1908 1160.16 1896.34 1151 1892.3 1139.47H1902.41C1904.25 1142.84 1906.86 1145.73 1910.02 1147.91C1914.17 1150.85 1919.1 1152.46 1924.17 1152.55C1927.48 1152.55 1930.76 1151.88 1933.8 1150.59C1936.85 1149.3 1939.61 1147.41 1941.91 1145.04C1944.22 1142.67 1946.02 1139.86 1947.23 1136.78C1948.43 1133.7 1949 1130.41 1948.92 1127.1V1118.89C1946.55 1123.66 1942.85 1127.65 1938.27 1130.37C1933.7 1133.09 1928.43 1134.44 1923.11 1134.24C1903.12 1134.24 1889.7 1119.01 1889.7 1100.58C1889.7 1081.44 1903.61 1066.69 1923.11 1066.69C1935.71 1066.69 1945.47 1073.83 1949.03 1081.68V1068.48H1957.72V1125.07ZM1898.49 1100.46C1898.39 1103.85 1898.99 1107.23 1900.25 1110.38C1901.5 1113.54 1903.39 1116.4 1905.8 1118.8C1908.21 1121.19 1911.08 1123.07 1914.24 1124.31C1917.4 1125.56 1920.78 1126.14 1924.17 1126.03C1927.51 1126.09 1930.83 1125.46 1933.91 1124.19C1937 1122.92 1939.8 1121.04 1942.13 1118.65C1946.69 1113.73 1949.24 1107.28 1949.27 1100.57C1949.23 1094.5 1947.18 1088.6 1943.44 1083.8C1941.13 1080.88 1938.15 1078.55 1934.76 1077C1931.37 1075.45 1927.66 1074.72 1923.94 1074.89C1920.57 1074.81 1917.23 1075.41 1914.1 1076.66C1910.98 1077.91 1908.14 1079.78 1905.76 1082.16C1903.38 1084.54 1901.51 1087.38 1900.26 1090.5C1899.01 1093.62 1898.4 1096.96 1898.47 1100.33L1898.49 1100.46Z" fill="black"/>
<path d="M1971.51 1102.95C1971.7 1109.4 1974.43 1115.51 1979.11 1119.95C1983.79 1124.39 1990.04 1126.79 1996.49 1126.62C2001.04 1126.77 2005.53 1125.61 2009.44 1123.26C2013.34 1120.92 2016.48 1117.5 2018.49 1113.42H2027.65C2025.02 1119.81 2020.5 1125.25 2014.69 1129C2009.25 1132.46 2002.93 1134.28 1996.49 1134.24C1974.25 1134.24 1962.71 1116.51 1962.71 1100.58C1962.6 1096 1963.43 1091.45 1965.15 1087.2C1966.86 1082.95 1969.43 1079.1 1972.69 1075.88C1975.95 1072.65 1979.83 1070.13 1984.1 1068.47C1988.37 1066.8 1992.93 1066.03 1997.51 1066.19C2002.09 1066.35 2006.59 1067.45 2010.73 1069.41C2014.87 1071.38 2018.57 1074.17 2021.59 1077.61C2024.61 1081.05 2026.9 1085.08 2028.31 1089.44C2029.72 1093.8 2030.23 1098.4 2029.79 1102.96L1971.51 1102.95ZM2021.11 1095.93C2020.52 1084.75 2009.69 1073.81 1996.49 1074.17C1990.36 1073.98 1984.39 1076.12 1979.78 1080.16C1975.16 1084.2 1972.25 1089.83 1971.63 1095.93H2021.11Z" fill="black"/>
<path d="M2032.76 1068.46H2041.09V1078.93C2045.73 1069.41 2054.05 1066.92 2061.55 1066.68V1075.36H2060.71C2048.34 1075.36 2041.44 1083.09 2041.44 1097.6V1132.45H2032.76V1068.46Z" fill="black"/>
<g filter="url(#filter3_d)">
<path d="M974.806 1006.35H132V1167.42H974.806V1006.35Z" fill="white"/>
</g>
<path d="M344.221 1066.24C338.397 1066.05 332.624 1067.39 327.482 1070.13C322.34 1072.87 318.01 1076.92 314.927 1081.86H287.606V1061.07H316.268V1045.68H270.103V1132.6H287.604V1097.25H309.816C309.732 1098.23 309.686 1099.21 309.686 1100.19V1100.31C309.592 1107.16 311.538 1113.88 315.275 1119.62C319.013 1125.37 324.374 1129.87 330.676 1132.55C336.979 1135.24 343.938 1135.99 350.668 1134.71C357.399 1133.43 363.597 1130.18 368.474 1125.37C373.352 1120.56 376.688 1114.4 378.059 1107.69C379.43 1100.98 378.774 1094.01 376.174 1087.67C373.574 1081.33 369.148 1075.91 363.458 1072.1C357.768 1068.28 351.072 1066.24 344.221 1066.24V1066.24ZM344.221 1120.04C341.666 1120.05 339.135 1119.54 336.779 1118.55C334.423 1117.56 332.289 1116.11 330.504 1114.28C328.719 1112.45 327.319 1110.28 326.386 1107.9C325.453 1105.53 325.007 1102.98 325.073 1100.43V1100.31C325.198 1096.57 326.422 1092.94 328.593 1089.89C330.764 1086.83 333.785 1084.49 337.281 1083.14C340.776 1081.79 344.592 1081.49 348.252 1082.3C351.912 1083.1 355.255 1084.96 357.865 1087.65C360.474 1090.34 362.235 1093.74 362.927 1097.42C363.62 1101.1 363.213 1104.91 361.759 1108.36C360.304 1111.82 357.866 1114.77 354.747 1116.84C351.629 1118.92 347.968 1120.03 344.221 1120.05V1120.04Z" fill="#0DA829"/>
<path d="M382.507 1068.12H397.074V1076.58C399.892 1070.82 405.179 1066.24 414.929 1066.12V1081.62H414.224C403.417 1081.62 397.897 1086.67 397.897 1097.84V1132.61H382.507V1068.12Z" fill="black"/>
<path d="M418.918 1068.12H433.367V1076.22C435.33 1073.03 438.103 1070.42 441.403 1068.64C444.704 1066.87 448.416 1066 452.161 1066.12C455.119 1066.04 458.061 1066.58 460.795 1067.71C463.528 1068.84 465.99 1070.55 468.018 1072.7C469.537 1074.5 470.838 1076.47 471.892 1078.57C473.154 1076.32 474.737 1074.26 476.591 1072.46C481.229 1068.36 487.216 1066.1 493.412 1066.12C499.607 1066.14 505.578 1068.44 510.187 1072.58C516.06 1078.69 517.234 1083.98 517.234 1097.25V1132.6H501.847V1097.83C502.142 1093.67 501.246 1089.51 499.264 1085.85C497.62 1082.67 494.564 1080.56 489.161 1080.56C486.94 1080.42 484.723 1080.89 482.753 1081.93C480.784 1082.96 479.139 1084.52 478 1086.43C476.278 1089.76 475.506 1093.5 475.768 1097.24V1132.59H460.38V1097.24C460.56 1093.57 459.876 1089.91 458.383 1086.55C457.369 1084.65 455.837 1083.08 453.966 1082.02C452.095 1080.96 449.961 1080.46 447.813 1080.56C445.599 1080.44 443.395 1080.94 441.446 1082C439.497 1083.05 437.879 1084.63 436.771 1086.55C435.028 1090.01 434.18 1093.84 434.304 1097.71V1132.6H418.916L418.918 1068.12Z" fill="black"/>
<path d="M521.575 1045.69H544.48C552.351 1045.69 557.754 1047.1 561.63 1049.8C568.675 1053.79 571.026 1061.08 571.026 1067.89C571.143 1071.77 570.1 1075.6 568.03 1078.88C565.96 1082.17 562.957 1084.76 559.406 1086.33C564.266 1087.6 568.557 1090.47 571.584 1094.47C574.612 1098.48 576.198 1103.39 576.086 1108.41C576.232 1112.58 575.195 1116.69 573.095 1120.29C570.995 1123.89 567.919 1126.82 564.223 1128.74C559.054 1131.91 554.12 1132.61 545.545 1132.61H521.578L521.575 1045.69ZM531.208 1083.27H544.364C547.858 1083.43 551.344 1082.83 554.583 1081.51C556.898 1080.29 558.802 1078.41 560.055 1076.11C561.309 1073.82 561.858 1071.2 561.633 1068.59C561.765 1066.08 561.171 1063.57 559.921 1061.39C558.671 1059.2 556.818 1057.42 554.583 1056.26C551.189 1054.75 547.485 1054.06 543.776 1054.26H531.206L531.208 1083.27ZM531.208 1124.03H546.945C550.541 1124.15 554.126 1123.59 557.517 1122.39C560.355 1121.23 562.762 1119.21 564.404 1116.63C566.046 1114.04 566.842 1111 566.681 1107.94C566.783 1104.84 565.954 1101.79 564.299 1099.17C562.644 1096.55 560.241 1094.49 557.401 1093.26C553.513 1091.76 549.337 1091.15 545.185 1091.49H531.206L531.208 1124.03Z" fill="black"/>
<path d="M637.746 1132.61H629.515V1121.33C625.99 1129.57 617.41 1134.49 606.14 1134.37C586.407 1134.02 579.476 1120.63 579.476 1105.24V1069.41H588.051V1103.59C588.051 1117.22 594.159 1126.38 608.372 1126.26C621.528 1126.15 629.048 1118.27 629.048 1105.12V1069.41H637.739L637.746 1132.61Z" fill="black"/>
<path d="M641.733 1045.69H650.425V1057.79H641.733V1045.69ZM641.733 1069.41H650.425V1132.6H641.733V1069.41Z" fill="black"/>
<path d="M654.535 1045.69H663.226V1132.6H654.535V1045.69Z" fill="black"/>
<path d="M733.82 1132.61H725.48V1119.57C721.016 1127.91 712.557 1134.37 699.401 1134.37C679.198 1134.37 666.747 1118.64 666.747 1100.89C666.747 1082.1 680.372 1067.65 699.283 1067.65C713.143 1067.65 722.306 1075.64 725.124 1082.22V1045.69H733.818L733.82 1132.61ZM675.322 1101.01C675.441 1113.7 684.248 1126.27 700.694 1126.27C704.031 1126.29 707.339 1125.65 710.425 1124.38C713.511 1123.11 716.312 1121.23 718.665 1118.87C721.011 1116.47 722.845 1113.61 724.057 1110.48C725.268 1107.35 725.831 1104.01 725.713 1100.66C725.768 1097.36 725.151 1094.09 723.899 1091.04C722.647 1087.99 720.786 1085.23 718.43 1082.92C714.876 1079.42 710.369 1077.05 705.473 1076.1C700.576 1075.15 695.509 1075.67 690.906 1077.59C686.303 1079.51 682.368 1082.74 679.596 1086.89C676.823 1091.03 675.336 1095.9 675.32 1100.89L675.322 1101.01Z" fill="black"/>
<path d="M746.276 1103.48C746.458 1109.84 749.156 1115.88 753.779 1120.26C758.403 1124.64 764.575 1127.01 770.943 1126.85C775.436 1127 779.875 1125.85 783.729 1123.53C787.583 1121.22 790.689 1117.85 792.674 1113.82H801.716C799.118 1120.13 794.651 1125.5 788.914 1129.2C783.546 1132.62 777.306 1134.41 770.943 1134.37C748.978 1134.37 737.584 1116.87 737.584 1101.13C737.478 1096.6 738.297 1092.11 739.991 1087.91C741.686 1083.71 744.221 1079.91 747.439 1076.73C750.658 1073.55 754.493 1071.06 758.709 1069.41C762.925 1067.77 767.433 1067 771.955 1067.16C776.478 1067.32 780.92 1068.41 785.009 1070.34C789.097 1072.28 792.747 1075.04 795.732 1078.44C798.718 1081.84 800.976 1085.82 802.37 1090.12C803.763 1094.43 804.262 1098.97 803.835 1103.48H746.276ZM795.257 1096.55C794.669 1085.51 783.98 1074.7 770.943 1075.05C764.891 1074.86 758.992 1076.98 754.436 1080.97C749.88 1084.96 747.005 1090.52 746.392 1096.55H795.257Z" fill="black"/>
<path d="M808.285 1069.41H816.517V1079.75C821.097 1070.35 829.319 1067.89 836.72 1067.65V1076.22H835.897C823.68 1076.22 816.868 1083.86 816.868 1098.19V1132.6H808.293L808.285 1069.41Z" fill="black"/>
<g filter="url(#filter4_d)">
<path d="M1701.25 632.551H548.394V852.875H1701.25V632.551Z" fill="white"/>
</g>
<path d="M1519.7 726.882V714.992C1508.29 715.786 1499.77 718.684 1494.94 729.944H1494.62V717.244H1483.36V805.198H1494.62V753.745C1494.62 737.977 1504.28 728.175 1519.7 726.882ZM847.635 720.127C842.839 709.261 834.972 700.033 825.003 693.577C815.033 687.121 803.394 683.719 791.517 683.788C775.242 683.892 759.661 690.393 748.14 701.887C736.618 713.381 730.079 728.947 729.937 745.221C730.018 761.686 736.574 777.459 748.187 789.132C759.8 800.806 775.538 807.442 792.003 807.609C815.155 807.609 837.835 793.611 846.989 772.067H821.428C813.068 781.235 804.384 787.019 791.519 787.019C769.488 787.019 751.958 766.925 751.958 745.545C751.958 724.47 768.839 704.388 790.71 704.388C803.898 704.388 814.194 710.334 822.558 720.137L847.635 720.127ZM875.997 705.819V686.209H854.612V705.819H875.997ZM875.997 805.196V715.946H854.612V805.196H875.997ZM1078.39 721.747C1078.51 726.33 1077.25 730.843 1074.79 734.708C1072.32 738.573 1068.76 741.614 1064.55 743.441C1057.8 746.666 1051.53 746.501 1044.13 746.501H1023.55V696.975H1044.13C1051.53 696.975 1057.8 696.813 1064.55 700.038C1068.76 701.866 1072.33 704.908 1074.79 708.775C1077.26 712.643 1078.52 717.159 1078.4 721.745L1078.39 721.747ZM1090.28 721.747C1090.39 716.122 1089.09 710.56 1086.51 705.563C1083.93 700.565 1080.14 696.29 1075.49 693.121C1066.48 687.013 1055.4 686.204 1044.77 686.204H1011.66V805.198H1023.56V757.275H1044.79C1055.4 757.275 1066.49 756.466 1075.5 750.358C1080.15 747.191 1083.93 742.917 1086.52 737.922C1089.1 732.926 1090.4 727.367 1090.29 721.745L1090.28 721.747ZM1108.9 805.196V686.202H1097.64V805.196H1108.9ZM1199.09 761.291C1199.16 765.965 1198.3 770.605 1196.56 774.945C1194.83 779.284 1192.25 783.236 1188.97 786.572C1185.7 789.908 1181.8 792.561 1177.49 794.378C1173.18 796.195 1168.56 797.14 1163.89 797.158C1143.31 797.158 1127.86 782.041 1127.86 761.453C1127.86 740.715 1142.97 725.114 1163.89 725.114C1168.58 725.167 1173.21 726.145 1177.52 727.994C1181.83 729.842 1185.74 732.525 1189.01 735.886C1192.28 739.248 1194.85 743.223 1196.58 747.582C1198.31 751.942 1199.17 756.601 1199.09 761.291V761.291ZM1209.72 805.196V717.242H1198.46V732.666H1198.13C1190.57 720.774 1177.7 714.992 1163.88 714.992C1138 714.992 1116.61 734.602 1116.61 760.969C1116.61 787.505 1137.51 807.287 1163.88 807.287C1170.6 807.447 1177.25 805.927 1183.23 802.866C1189.21 799.805 1194.33 795.299 1198.13 789.757H1198.46V805.196H1209.72ZM1294.18 805.196V756.788C1294.18 732.518 1280.67 714.99 1255.43 714.99C1244.98 714.99 1234.21 719.478 1228.41 728.484H1228.1V717.242H1216.84V805.196H1228.1V755.994C1228.1 747.944 1230.19 738.466 1236.3 732.666C1241.49 727.814 1248.33 725.115 1255.43 725.115C1262.54 725.115 1269.38 727.814 1274.57 732.666C1280.84 738.626 1282.93 748.429 1282.93 756.788V805.196H1294.18ZM1378.97 805.196V756.788C1378.97 732.518 1365.48 714.99 1340.22 714.99C1329.77 714.99 1319 719.478 1313.21 728.484H1312.89V717.242H1301.63V805.196H1312.89V755.994C1312.89 747.944 1314.98 738.466 1321.09 732.666C1326.28 727.814 1333.12 725.116 1340.23 725.116C1347.33 725.116 1354.17 727.814 1359.37 732.666C1365.64 738.626 1367.73 748.429 1367.73 756.788V805.196H1378.97ZM1466.13 755.183H1397.47C1398.6 746.889 1402.69 739.282 1408.98 733.758C1415.27 728.235 1423.34 725.166 1431.72 725.114C1449.41 725.114 1463.24 737.977 1466.14 755.18L1466.13 755.183ZM1477.7 762.1C1477.7 736.696 1457.28 714.99 1431.55 714.99C1423.08 714.966 1414.77 717.274 1407.52 721.661C1400.27 726.048 1394.38 732.346 1390.47 739.863C1386.56 747.38 1384.8 755.827 1385.38 764.279C1385.96 772.731 1388.85 780.861 1393.74 787.778C1398.63 794.695 1405.33 800.133 1413.1 803.496C1420.88 806.858 1429.43 808.016 1437.82 806.842C1446.21 805.667 1454.11 802.207 1460.67 796.838C1467.22 791.47 1472.17 784.402 1474.97 776.408H1463.06C1458.24 789.433 1445.05 797.158 1431.55 797.158C1414.35 797.158 1398.26 782.676 1397.45 765.31H1477.53C1477.55 764.189 1477.71 763.218 1477.71 762.1H1477.7Z" fill="black"/>
<path d="M914.761 715.946V686.202H893.377V715.946H882.913V734.917H893.377V805.198H914.761V734.917H923.431L948.422 796.836L932.013 834.94H955.012L1006.3 715.946H982.021L960.474 773.198L940.208 715.946H914.761Z" fill="#0DA829"/>
<defs>
<filter id="filter0_d" x="1234.83" y="308" width="922.806" height="241.07" filterUnits="userSpaceOnUse" color-interpolation-filters="sRGB">
<feFlood flood-opacity="0" result="BackgroundImageFix"/>
<feColorMatrix in="SourceAlpha" type="matrix" values="0 0 0 0 0 0 0 0 0 0 0 0 0 0 0 0 0 0 127 0"/>
<feOffset dy="30"/>
<feGaussianBlur stdDeviation="20"/>
<feColorMatrix type="matrix" values="0 0 0 0 0 0 0 0 0 0 0 0 0 0 0 0 0 0 0.25 0"/>
<feBlend mode="normal" in2="BackgroundImageFix" result="effect1_dropShadow"/>
<feBlend mode="normal" in="SourceGraphic" in2="effect1_dropShadow" result="shape"/>
</filter>
<filter id="filter1_d" x="92" y="308" width="922.806" height="241.07" filterUnits="userSpaceOnUse" color-interpolation-filters="sRGB">
<feFlood flood-opacity="0" result="BackgroundImageFix"/>
<feColorMatrix in="SourceAlpha" type="matrix" values="0 0 0 0 0 0 0 0 0 0 0 0 0 0 0 0 0 0 127 0"/>
<feOffset dy="30"/>
<feGaussianBlur stdDeviation="20"/>
<feColorMatrix type="matrix" values="0 0 0 0 0 0 0 0 0 0 0 0 0 0 0 0 0 0 0.25 0"/>
<feBlend mode="normal" in2="BackgroundImageFix" result="effect1_dropShadow"/>
<feBlend mode="normal" in="SourceGraphic" in2="effect1_dropShadow" result="shape"/>
</filter>
<filter id="filter2_d" x="1234.83" y="996.353" width="922.806" height="241.07" filterUnits="userSpaceOnUse" color-interpolation-filters="sRGB">
<feFlood flood-opacity="0" result="BackgroundImageFix"/>
<feColorMatrix in="SourceAlpha" type="matrix" values="0 0 0 0 0 0 0 0 0 0 0 0 0 0 0 0 0 0 127 0"/>
<feOffset dy="30"/>
<feGaussianBlur stdDeviation="20"/>
<feColorMatrix type="matrix" values="0 0 0 0 0 0 0 0 0 0 0 0 0 0 0 0 0 0 0.25 0"/>
<feBlend mode="normal" in2="BackgroundImageFix" result="effect1_dropShadow"/>
<feBlend mode="normal" in="SourceGraphic" in2="effect1_dropShadow" result="shape"/>
</filter>
<filter id="filter3_d" x="92" y="996.353" width="922.806" height="241.07" filterUnits="userSpaceOnUse" color-interpolation-filters="sRGB">
<feFlood flood-opacity="0" result="BackgroundImageFix"/>
<feColorMatrix in="SourceAlpha" type="matrix" values="0 0 0 0 0 0 0 0 0 0 0 0 0 0 0 0 0 0 127 0"/>
<feOffset dy="30"/>
<feGaussianBlur stdDeviation="20"/>
<feColorMatrix type="matrix" values="0 0 0 0 0 0 0 0 0 0 0 0 0 0 0 0 0 0 0.25 0"/>
<feBlend mode="normal" in2="BackgroundImageFix" result="effect1_dropShadow"/>
<feBlend mode="normal" in="SourceGraphic" in2="effect1_dropShadow" result="shape"/>
</filter>
<filter id="filter4_d" x="508.394" y="622.551" width="1232.85" height="300.324" filterUnits="userSpaceOnUse" color-interpolation-filters="sRGB">
<feFlood flood-opacity="0" result="BackgroundImageFix"/>
<feColorMatrix in="SourceAlpha" type="matrix" values="0 0 0 0 0 0 0 0 0 0 0 0 0 0 0 0 0 0 127 0"/>
<feOffset dy="30"/>
<feGaussianBlur stdDeviation="20"/>
<feColorMatrix type="matrix" values="0 0 0 0 0 0 0 0 0 0 0 0 0 0 0 0 0 0 0.25 0"/>
<feBlend mode="normal" in2="BackgroundImageFix" result="effect1_dropShadow"/>
<feBlend mode="normal" in="SourceGraphic" in2="effect1_dropShadow" result="shape"/>
</filter>
</defs>
</svg>
