<svg width="2250" height="1485" viewBox="0 0 2250 1485" fill="none" xmlns="http://www.w3.org/2000/svg">
<g filter="url(#filter0_d)">
<rect x="127" y="343" width="1997" height="800" rx="30" fill="url(#paint0_linear)" fill-opacity="0.95"/>
</g>
<path d="M127 728C127 726.343 128.343 725 130 725H2121C2122.66 725 2124 726.343 2124 728V758C2124 759.657 2122.66 761 2121 761H130C128.343 761 127 759.657 127 758V728Z" fill="url(#paint1_linear)" fill-opacity="0.56"/>
<path d="M1617.95 746.04C1617.02 748.71 1615.61 749.52 1614.05 749.52C1612.1 749.52 1609.55 748.29 1609.55 742.32C1609.55 736.35 1612.1 735.12 1614.02 735.12C1615.58 735.12 1617.05 735.96 1617.98 738.75L1621.79 737.79C1620.23 733.11 1617.05 731.46 1614.02 731.46C1610.03 731.46 1605.5 734.31 1605.5 742.32C1605.5 750.33 1610.03 753.18 1614.02 753.18C1617.05 753.18 1620.23 751.53 1621.82 746.82L1617.95 746.04ZM1642.15 753V731.64H1638.16L1633.48 740.1L1628.8 731.64H1624.81V753H1628.8V739.35L1632.37 745.8H1634.59L1638.16 739.35V753H1642.15ZM1654.43 753V744.75L1660.88 731.64H1656.65L1652.45 739.95L1648.25 731.64H1644.02L1650.44 744.75V753H1654.43ZM1679.5 753L1670.35 741L1678.72 731.64H1673.71L1666.6 739.68V731.64H1662.61V753H1666.6V745.2L1667.8 743.85L1674.73 753H1679.5Z" fill="white" fill-opacity="0.76"/>
<path d="M1067.1 754L1061.28 745.06C1064.46 744.37 1066.14 742.21 1066.14 739.03C1066.14 735.16 1063.59 732.64 1059.09 732.64H1051.8V754H1055.79V745.27H1056.84L1062.6 754H1067.1ZM1055.79 741.64V736.27H1058.88C1060.86 736.27 1062.09 737.23 1062.09 739.03C1062.09 740.8 1060.86 741.64 1058.88 741.64H1055.79ZM1085.58 754V742.87H1077.57V746.5H1081.59V748.51C1080.78 750.01 1079.1 750.52 1077.72 750.52C1075.59 750.52 1073.07 749.32 1073.07 743.32C1073.07 737.35 1075.59 736.12 1077.51 736.12C1078.98 736.12 1080.48 736.84 1081.38 739.75L1085.22 738.79C1083.66 734.08 1080.48 732.46 1077.48 732.46C1073.49 732.46 1069.02 735.34 1069.02 743.32C1069.02 751.27 1073.43 754.18 1077.6 754.18C1079.07 754.18 1080.54 753.82 1081.83 752.95L1081.95 754H1085.58ZM1096.3 754C1100.83 754 1103.35 751.54 1103.35 747.76C1103.35 745.72 1102.39 744.1 1100.8 743.02C1102.03 742 1102.78 740.56 1102.78 738.85C1102.78 735.13 1100.26 732.64 1095.73 732.64H1089.04V754H1096.3ZM1093.03 750.37V745.06H1096.09C1098.1 745.06 1099.3 745.93 1099.3 747.7C1099.3 749.47 1098.1 750.37 1096.09 750.37H1093.03ZM1093.03 741.43V736.27H1095.52C1097.5 736.27 1098.73 737.2 1098.73 738.88C1098.73 740.59 1097.5 741.43 1095.52 741.43H1093.03Z" fill="white" fill-opacity="0.76"/>
<path d="M210.77 754V732.64H206.78V741.49H199.79V732.64H195.8V754H199.79V745.15H206.78V754H210.77ZM228.084 754V750.37H218.364V745.06H224.364V741.43H218.364V736.27H228.084V732.64H214.374V754H228.084ZM247.01 754L240.29 742.93L246.47 732.64H241.94L238.04 739.12L234.11 732.64H229.58L235.76 742.9L229.04 754H233.6L238.04 746.65L242.45 754H247.01Z" fill="white" fill-opacity="0.76"/>
<g filter="url(#filter1_d)">
<path fill-rule="evenodd" clip-rule="evenodd" d="M708.798 491.159L771.197 527.184L833.596 563.211V635.263V707.316L771.197 743.343L708.798 779.368L646.399 743.343L584 707.316V635.263V563.211L646.399 527.184L708.798 491.159Z" fill="#80C07E" stroke="#1D1C1C" stroke-width="12" stroke-miterlimit="22.9256"/>
<path fill-rule="evenodd" clip-rule="evenodd" d="M708.798 923.474L771.197 959.499L833.596 995.526V1067.58V1139.63L771.197 1175.66L708.798 1211.68L646.399 1175.66L584 1139.63V1067.58V995.526L646.399 959.499L708.798 923.474Z" fill="#EAD937" stroke="#1D1C1C" stroke-width="12" stroke-miterlimit="22.9256"/>
<path fill-rule="evenodd" clip-rule="evenodd" d="M833.597 707.315L895.996 743.339L958.395 779.367V851.419V923.471L895.996 959.499L833.597 995.524L771.198 959.499L708.799 923.471V851.419V779.367L771.198 743.339L833.597 707.315Z" fill="#1D1C1C" stroke="#1D1C1C" stroke-width="12" stroke-miterlimit="22.9256"/>
<path fill-rule="evenodd" clip-rule="evenodd" d="M833.597 275L895.996 311.025L958.395 347.053V419.105V491.157L895.996 527.184L833.597 563.209L771.198 527.184L708.799 491.157V419.105V347.053L771.198 311.025L833.597 275Z" fill="#1AA148" stroke="#1D1C1C" stroke-width="12" stroke-miterlimit="22.9256"/>
</g>
<g filter="url(#filter2_d)">
<path d="M1626.68 416.922C1630.55 414.256 1632.7 409.956 1632.7 403.85C1632.7 393.186 1626.16 387.252 1616.1 387.252C1606.04 387.252 1599.5 393.186 1599.5 403.85C1599.5 409.956 1601.65 414.256 1605.44 416.922C1600.45 419.674 1597.44 424.748 1597.44 431.972C1597.44 443.324 1605.01 449.516 1616.1 449.516C1627.2 449.516 1634.76 443.324 1634.76 431.972C1634.76 424.748 1631.75 419.674 1626.68 416.922ZM1626.68 431.8C1626.68 438.422 1622.98 441.948 1616.1 441.948C1609.22 441.948 1605.52 438.422 1605.52 431.8C1605.52 425.178 1609.14 421.05 1616.1 421.05C1623.07 421.05 1626.68 425.178 1626.68 431.8ZM1616.1 413.482C1610.68 413.482 1607.59 409.956 1607.59 404.022C1607.59 398.088 1610.68 394.82 1616.1 394.82C1621.52 394.82 1624.62 398.088 1624.62 404.022C1624.62 409.956 1621.52 413.482 1616.1 413.482ZM1641.62 433.692C1641.62 444.012 1649.27 449.516 1659.93 449.516C1672.58 449.516 1680.14 441.862 1680.14 428.188C1680.14 414.514 1672.66 406.946 1661.22 406.946C1657.53 406.946 1654.34 407.72 1651.76 409.096L1653.48 396.024H1679.03V387.768H1646.52L1642.39 420.104H1650.39C1651.76 416.578 1655.63 414.514 1660.71 414.514C1668.53 414.514 1672.06 419.416 1672.06 428.016C1672.06 436.874 1668.36 441.948 1660.02 441.948C1653.66 441.948 1649.7 439.024 1649.7 433.692H1641.62ZM1694.04 458.202L1698.25 447.538C1698.68 446.506 1699.11 444.958 1699.11 443.84C1699.11 441.174 1696.79 438.766 1693.87 438.766C1690.94 438.766 1688.71 441.088 1688.71 444.012C1688.71 446.248 1689.91 448.054 1691.8 448.828L1689.48 458.202H1694.04ZM1729.13 433.692C1729.13 444.012 1736.78 449.516 1747.45 449.516C1760.09 449.516 1767.66 441.862 1767.66 428.188C1767.66 414.514 1760.17 406.946 1748.74 406.946C1745.04 406.946 1741.86 407.72 1739.28 409.096L1741 396.024H1766.54V387.768H1734.03L1729.9 420.104H1737.9C1739.28 416.578 1743.15 414.514 1748.22 414.514C1756.05 414.514 1759.57 419.416 1759.57 428.016C1759.57 436.874 1755.87 441.948 1747.53 441.948C1741.17 441.948 1737.21 439.024 1737.21 433.692H1729.13ZM1781.55 458.202L1785.76 447.538C1786.19 446.506 1786.62 444.958 1786.62 443.84C1786.62 441.174 1784.3 438.766 1781.38 438.766C1778.45 438.766 1776.22 441.088 1776.22 444.012C1776.22 446.248 1777.42 448.054 1779.31 448.828L1776.99 458.202H1781.55ZM1835.65 419.072C1828.34 419.072 1824.72 414.514 1824.72 406.946C1824.72 399.378 1828.34 394.82 1835.65 394.82C1842.87 394.82 1847.08 399.206 1847.08 406.946C1847.08 414.686 1842.87 419.072 1835.65 419.072ZM1834.18 449L1849.32 424.92C1852.67 419.588 1855.17 413.912 1855.17 406.86C1855.17 394.39 1847.26 387.252 1835.65 387.252C1824.04 387.252 1816.64 394.304 1816.64 406.946C1816.64 419.588 1824.12 426.64 1835.56 426.64C1836.76 426.64 1837.97 426.554 1839.17 426.382L1824.38 449H1834.18ZM1862.07 433.692C1862.07 444.012 1869.73 449.516 1880.39 449.516C1893.03 449.516 1900.6 441.862 1900.6 428.188C1900.6 414.514 1893.12 406.946 1881.68 406.946C1877.98 406.946 1874.8 407.72 1872.22 409.096L1873.94 396.024H1899.48V387.768H1866.98L1862.85 420.104H1870.85C1872.22 416.578 1876.09 414.514 1881.17 414.514C1888.99 414.514 1892.52 419.416 1892.52 428.016C1892.52 436.874 1888.82 441.948 1880.48 441.948C1874.11 441.948 1870.16 439.024 1870.16 433.692H1862.07ZM1914.5 458.202L1918.71 447.538C1919.14 446.506 1919.57 444.958 1919.57 443.84C1919.57 441.174 1917.25 438.766 1914.32 438.766C1911.4 438.766 1909.16 441.088 1909.16 444.012C1909.16 446.248 1910.37 448.054 1912.26 448.828L1909.94 458.202H1914.5ZM1972.63 449.516C1983.9 449.516 1995.68 441.346 1995.68 418.384C1995.68 395.422 1983.9 387.252 1972.63 387.252C1961.37 387.252 1949.59 395.422 1949.59 418.384C1949.59 441.346 1961.37 449.516 1972.63 449.516ZM1959.82 432.746C1958.44 429.306 1957.67 424.576 1957.67 418.47C1957.67 398.862 1965.75 394.82 1972.63 394.82C1975.64 394.82 1979 395.594 1981.66 398.26L1959.82 432.746ZM1985.79 405.054C1986.91 408.408 1987.6 412.708 1987.6 418.384C1987.6 437.906 1979.43 441.948 1972.63 441.948C1969.88 441.948 1966.87 441.26 1964.29 439.196L1985.79 405.054Z" fill="url(#paint2_linear)"/>
<path d="M1597.44 649.692C1597.44 660.012 1605.09 665.516 1615.76 665.516C1628.4 665.516 1635.97 657.862 1635.97 644.188C1635.97 630.514 1628.49 622.946 1617.05 622.946C1613.35 622.946 1610.17 623.72 1607.59 625.096L1609.31 612.024H1634.85V603.768H1602.34L1598.21 636.104H1606.21C1607.59 632.578 1611.46 630.514 1616.53 630.514C1624.36 630.514 1627.88 635.416 1627.88 644.016C1627.88 652.874 1624.19 657.948 1615.84 657.948C1609.48 657.948 1605.52 655.024 1605.52 649.692H1597.44ZM1673.66 603.768H1663.86L1648.72 627.848C1645.28 633.352 1642.88 639.63 1642.88 646.252C1642.88 658.292 1650.79 665.516 1662.48 665.516C1674.01 665.516 1681.4 658.464 1681.4 645.822C1681.4 633.18 1673.92 626.128 1662.48 626.128C1661.19 626.128 1659.99 626.214 1658.87 626.386L1673.66 603.768ZM1662.4 657.948C1655.17 657.948 1650.96 653.562 1650.96 645.822C1650.96 638.082 1655.17 633.696 1662.4 633.696C1669.71 633.696 1673.32 638.254 1673.32 645.822C1673.32 653.39 1669.71 657.948 1662.4 657.948ZM1694.46 674.202L1698.67 663.538C1699.1 662.506 1699.53 660.958 1699.53 659.84C1699.53 657.174 1697.21 654.766 1694.29 654.766C1691.36 654.766 1689.13 657.088 1689.13 660.012C1689.13 662.248 1690.33 664.054 1692.22 664.828L1689.9 674.202H1694.46ZM1752.6 665.516C1763.86 665.516 1775.64 657.346 1775.64 634.384C1775.64 611.422 1763.86 603.252 1752.6 603.252C1741.33 603.252 1729.55 611.422 1729.55 634.384C1729.55 657.346 1741.33 665.516 1752.6 665.516ZM1739.78 648.746C1738.41 645.306 1737.63 640.576 1737.63 634.47C1737.63 614.862 1745.72 610.82 1752.6 610.82C1755.61 610.82 1758.96 611.594 1761.63 614.26L1739.78 648.746ZM1765.75 621.054C1766.87 624.408 1767.56 628.708 1767.56 634.384C1767.56 653.906 1759.39 657.948 1752.6 657.948C1749.84 657.948 1746.83 657.26 1744.25 655.196L1765.75 621.054ZM1788.69 674.202L1792.9 663.538C1793.33 662.506 1793.76 660.958 1793.76 659.84C1793.76 657.174 1791.44 654.766 1788.52 654.766C1785.59 654.766 1783.36 657.088 1783.36 660.012C1783.36 662.248 1784.56 664.054 1786.45 664.828L1784.13 674.202H1788.69ZM1854.57 603.768H1844.76L1829.63 627.848C1826.19 633.352 1823.78 639.63 1823.78 646.252C1823.78 658.292 1831.69 665.516 1843.39 665.516C1854.91 665.516 1862.31 658.464 1862.31 645.822C1862.31 633.18 1854.82 626.128 1843.39 626.128C1842.1 626.128 1840.89 626.214 1839.77 626.386L1854.57 603.768ZM1843.3 657.948C1836.08 657.948 1831.86 653.562 1831.86 645.822C1831.86 638.082 1836.08 633.696 1843.3 633.696C1850.61 633.696 1854.22 638.254 1854.22 645.822C1854.22 653.39 1850.61 657.948 1843.3 657.948ZM1901.11 665V652.014H1907.91V644.962H1901.11V603.768H1892.34L1868.26 646.252V652.014H1893.2V665H1901.11ZM1893.2 644.962H1877.55L1893.2 617.528V644.962ZM1921.22 674.202L1925.43 663.538C1925.86 662.506 1926.29 660.958 1926.29 659.84C1926.29 657.174 1923.97 654.766 1921.04 654.766C1918.12 654.766 1915.88 657.088 1915.88 660.012C1915.88 662.248 1917.09 664.054 1918.98 664.828L1916.66 674.202H1921.22ZM1979.35 665.516C1990.62 665.516 2002.4 657.346 2002.4 634.384C2002.4 611.422 1990.62 603.252 1979.35 603.252C1968.09 603.252 1956.31 611.422 1956.31 634.384C1956.31 657.346 1968.09 665.516 1979.35 665.516ZM1966.54 648.746C1965.16 645.306 1964.39 640.576 1964.39 634.47C1964.39 614.862 1972.47 610.82 1979.35 610.82C1982.36 610.82 1985.72 611.594 1988.38 614.26L1966.54 648.746ZM1992.51 621.054C1993.63 624.408 1994.32 628.708 1994.32 634.384C1994.32 653.906 1986.15 657.948 1979.35 657.948C1976.6 657.948 1973.59 657.26 1971.01 655.196L1992.51 621.054Z" fill="url(#paint3_linear)"/>
<path d="M1616.45 851.072C1609.14 851.072 1605.52 846.514 1605.52 838.946C1605.52 831.378 1609.14 826.82 1616.45 826.82C1623.67 826.82 1627.88 831.206 1627.88 838.946C1627.88 846.686 1623.67 851.072 1616.45 851.072ZM1614.98 881L1630.12 856.92C1633.47 851.588 1635.97 845.912 1635.97 838.86C1635.97 826.39 1628.06 819.252 1616.45 819.252C1604.84 819.252 1597.44 826.304 1597.44 838.946C1597.44 851.588 1604.92 858.64 1616.36 858.64C1617.56 858.64 1618.77 858.554 1619.97 858.382L1605.18 881H1614.98ZM1673.18 881V873.948H1661.66V819.768H1653.75L1642.65 829.744L1644.98 836.538L1653.75 829.142V873.948H1642.22V881H1673.18ZM1688.33 890.202L1692.54 879.538C1692.97 878.506 1693.4 876.958 1693.4 875.84C1693.4 873.174 1691.08 870.766 1688.15 870.766C1685.23 870.766 1682.99 873.088 1682.99 876.012C1682.99 878.248 1684.2 880.054 1686.09 880.828L1683.77 890.202H1688.33ZM1734.94 881L1759.19 827.422V819.768H1721.35V828.024H1750.51L1726.25 881H1734.94ZM1782.99 851.072C1775.68 851.072 1772.07 846.514 1772.07 838.946C1772.07 831.378 1775.68 826.82 1782.99 826.82C1790.21 826.82 1794.43 831.206 1794.43 838.946C1794.43 846.686 1790.21 851.072 1782.99 851.072ZM1781.53 881L1796.66 856.92C1800.02 851.588 1802.51 845.912 1802.51 838.86C1802.51 826.39 1794.6 819.252 1782.99 819.252C1771.38 819.252 1763.98 826.304 1763.98 838.946C1763.98 851.588 1771.46 858.64 1782.9 858.64C1784.11 858.64 1785.31 858.554 1786.51 858.382L1771.72 881H1781.53ZM1813.8 890.202L1818.01 879.538C1818.44 878.506 1818.87 876.958 1818.87 875.84C1818.87 873.174 1816.55 870.766 1813.63 870.766C1810.7 870.766 1808.47 873.088 1808.47 876.012C1808.47 878.248 1809.67 880.054 1811.56 880.828L1809.24 890.202H1813.8ZM1879.68 819.768H1869.87L1854.74 843.848C1851.3 849.352 1848.89 855.63 1848.89 862.252C1848.89 874.292 1856.8 881.516 1868.5 881.516C1880.02 881.516 1887.42 874.464 1887.42 861.822C1887.42 849.18 1879.94 842.128 1868.5 842.128C1867.21 842.128 1866 842.214 1864.89 842.386L1879.68 819.768ZM1868.41 873.948C1861.19 873.948 1856.97 869.562 1856.97 861.822C1856.97 854.082 1861.19 849.696 1868.41 849.696C1875.72 849.696 1879.33 854.254 1879.33 861.822C1879.33 869.39 1875.72 873.948 1868.41 873.948ZM1931.56 881V872.744H1904.73L1921.24 854.942C1925.8 849.954 1930.19 845.482 1930.19 836.796C1930.19 826.132 1923.48 819.252 1912.73 819.252C1901.63 819.252 1894.07 826.476 1894.07 839.376H1902.15C1902.15 831.464 1906.02 826.82 1912.73 826.82C1919.09 826.82 1922.1 831.034 1922.1 837.14C1922.1 841.698 1920.38 844.622 1916 849.352L1893.46 873.346V881H1931.56ZM1945.4 890.202L1949.62 879.538C1950.05 878.506 1950.48 876.958 1950.48 875.84C1950.48 873.174 1948.15 870.766 1945.23 870.766C1942.31 870.766 1940.07 873.088 1940.07 876.012C1940.07 878.248 1941.27 880.054 1943.17 880.828L1940.84 890.202H1945.4ZM1999.5 851.072C1992.19 851.072 1988.58 846.514 1988.58 838.946C1988.58 831.378 1992.19 826.82 1999.5 826.82C2006.72 826.82 2010.94 831.206 2010.94 838.946C2010.94 846.686 2006.72 851.072 1999.5 851.072ZM1998.04 881L2013.17 856.92C2016.53 851.588 2019.02 845.912 2019.02 838.86C2019.02 826.39 2011.11 819.252 1999.5 819.252C1987.89 819.252 1980.49 826.304 1980.49 838.946C1980.49 851.588 1987.97 858.64 1999.41 858.64C2000.62 858.64 2001.82 858.554 2003.02 858.382L1988.23 881H1998.04ZM2055.17 848.922C2059.04 846.256 2061.19 841.956 2061.19 835.85C2061.19 825.186 2054.65 819.252 2044.59 819.252C2034.53 819.252 2027.99 825.186 2027.99 835.85C2027.99 841.956 2030.14 846.256 2033.93 848.922C2028.94 851.674 2025.93 856.748 2025.93 863.972C2025.93 875.324 2033.5 881.516 2044.59 881.516C2055.68 881.516 2063.25 875.324 2063.25 863.972C2063.25 856.748 2060.24 851.674 2055.17 848.922ZM2055.17 863.8C2055.17 870.422 2051.47 873.948 2044.59 873.948C2037.71 873.948 2034.01 870.422 2034.01 863.8C2034.01 857.178 2037.62 853.05 2044.59 853.05C2051.56 853.05 2055.17 857.178 2055.17 863.8ZM2044.59 845.482C2039.17 845.482 2036.08 841.956 2036.08 836.022C2036.08 830.088 2039.17 826.82 2044.59 826.82C2050.01 826.82 2053.1 830.088 2053.1 836.022C2053.1 841.956 2050.01 845.482 2044.59 845.482Z" fill="url(#paint4_linear)"/>
<path d="M1626.68 1065.92C1630.55 1063.26 1632.7 1058.96 1632.7 1052.85C1632.7 1042.19 1626.16 1036.25 1616.1 1036.25C1606.04 1036.25 1599.5 1042.19 1599.5 1052.85C1599.5 1058.96 1601.65 1063.26 1605.44 1065.92C1600.45 1068.67 1597.44 1073.75 1597.44 1080.97C1597.44 1092.32 1605.01 1098.52 1616.1 1098.52C1627.2 1098.52 1634.76 1092.32 1634.76 1080.97C1634.76 1073.75 1631.75 1068.67 1626.68 1065.92ZM1626.68 1080.8C1626.68 1087.42 1622.98 1090.95 1616.1 1090.95C1609.22 1090.95 1605.52 1087.42 1605.52 1080.8C1605.52 1074.18 1609.14 1070.05 1616.1 1070.05C1623.07 1070.05 1626.68 1074.18 1626.68 1080.8ZM1616.1 1062.48C1610.68 1062.48 1607.59 1058.96 1607.59 1053.02C1607.59 1047.09 1610.68 1043.82 1616.1 1043.82C1621.52 1043.82 1624.62 1047.09 1624.62 1053.02C1624.62 1058.96 1621.52 1062.48 1616.1 1062.48ZM1648.6 1107.2L1652.82 1096.54C1653.25 1095.51 1653.68 1093.96 1653.68 1092.84C1653.68 1090.17 1651.35 1087.77 1648.43 1087.77C1645.51 1087.77 1643.27 1090.09 1643.27 1093.01C1643.27 1095.25 1644.47 1097.05 1646.37 1097.83L1644.04 1107.2H1648.6ZM1715.25 1098V1085.01H1722.05V1077.96H1715.25V1036.77H1706.48L1682.4 1079.25V1085.01H1707.34V1098H1715.25ZM1707.34 1077.96H1691.69L1707.34 1050.53V1077.96ZM1735.36 1107.2L1739.57 1096.54C1740 1095.51 1740.43 1093.96 1740.43 1092.84C1740.43 1090.17 1738.11 1087.77 1735.19 1087.77C1732.26 1087.77 1730.03 1090.09 1730.03 1093.01C1730.03 1095.25 1731.23 1097.05 1733.12 1097.83L1730.8 1107.2H1735.36ZM1799.69 1065.92C1803.56 1063.26 1805.71 1058.96 1805.71 1052.85C1805.71 1042.19 1799.17 1036.25 1789.11 1036.25C1779.05 1036.25 1772.51 1042.19 1772.51 1052.85C1772.51 1058.96 1774.66 1063.26 1778.45 1065.92C1773.46 1068.67 1770.45 1073.75 1770.45 1080.97C1770.45 1092.32 1778.02 1098.52 1789.11 1098.52C1800.2 1098.52 1807.77 1092.32 1807.77 1080.97C1807.77 1073.75 1804.76 1068.67 1799.69 1065.92ZM1799.69 1080.8C1799.69 1087.42 1795.99 1090.95 1789.11 1090.95C1782.23 1090.95 1778.53 1087.42 1778.53 1080.8C1778.53 1074.18 1782.14 1070.05 1789.11 1070.05C1796.08 1070.05 1799.69 1074.18 1799.69 1080.8ZM1789.11 1062.48C1783.69 1062.48 1780.6 1058.96 1780.6 1053.02C1780.6 1047.09 1783.69 1043.82 1789.11 1043.82C1794.53 1043.82 1797.62 1047.09 1797.62 1053.02C1797.62 1058.96 1794.53 1062.48 1789.11 1062.48ZM1846.25 1036.77H1836.45L1821.31 1060.85C1817.87 1066.35 1815.46 1072.63 1815.46 1079.25C1815.46 1091.29 1823.38 1098.52 1835.07 1098.52C1846.6 1098.52 1853.99 1091.46 1853.99 1078.82C1853.99 1066.18 1846.51 1059.13 1835.07 1059.13C1833.78 1059.13 1832.58 1059.21 1831.46 1059.39L1846.25 1036.77ZM1834.99 1090.95C1827.76 1090.95 1823.55 1086.56 1823.55 1078.82C1823.55 1071.08 1827.76 1066.7 1834.99 1066.7C1842.3 1066.7 1845.91 1071.25 1845.91 1078.82C1845.91 1086.39 1842.3 1090.95 1834.99 1090.95ZM1867.05 1107.2L1871.26 1096.54C1871.69 1095.51 1872.12 1093.96 1872.12 1092.84C1872.12 1090.17 1869.8 1087.77 1866.87 1087.77C1863.95 1087.77 1861.71 1090.09 1861.71 1093.01C1861.71 1095.25 1862.92 1097.05 1864.81 1097.83L1862.49 1107.2H1867.05ZM1932.92 1036.77H1923.12L1907.98 1060.85C1904.54 1066.35 1902.14 1072.63 1902.14 1079.25C1902.14 1091.29 1910.05 1098.52 1921.74 1098.52C1933.27 1098.52 1940.66 1091.46 1940.66 1078.82C1940.66 1066.18 1933.18 1059.13 1921.74 1059.13C1920.45 1059.13 1919.25 1059.21 1918.13 1059.39L1932.92 1036.77ZM1921.66 1090.95C1914.43 1090.95 1910.22 1086.56 1910.22 1078.82C1910.22 1071.08 1914.43 1066.7 1921.66 1066.7C1928.97 1066.7 1932.58 1071.25 1932.58 1078.82C1932.58 1086.39 1928.97 1090.95 1921.66 1090.95Z" fill="url(#paint5_linear)"/>
</g>
<g filter="url(#filter3_d)">
<path d="M1075.26 449V441.948H1063.74V387.768H1055.82L1044.73 397.744L1047.05 404.538L1055.82 397.142V441.948H1044.3V449H1075.26ZM1082.58 431.972C1082.58 443.324 1090.14 449.516 1101.24 449.516C1112.25 449.516 1119.38 443.324 1119.38 432.058C1119.38 425.264 1116.8 420.19 1111.73 417.266C1116.03 414.686 1118.35 410.73 1118.35 404.452C1118.35 393.616 1111.56 387.252 1101.15 387.252C1090.4 387.252 1083.26 393.444 1083.26 404.796H1091.35C1091.35 398.432 1094.79 394.82 1101.15 394.82C1107.09 394.82 1110.27 398.518 1110.27 404.624C1110.27 410.73 1107.09 413.912 1101.15 413.912H1098.57V421.308H1101.15C1107.86 421.308 1111.3 425.35 1111.3 431.886C1111.3 438.336 1107.95 441.948 1101.24 441.948C1094.53 441.948 1090.66 438.336 1090.66 431.972H1082.58ZM1132.39 458.202L1136.61 447.538C1137.04 446.506 1137.47 444.958 1137.47 443.84C1137.47 441.174 1135.15 438.766 1132.22 438.766C1129.3 438.766 1127.06 441.088 1127.06 444.012C1127.06 446.248 1128.27 448.054 1130.16 448.828L1127.84 458.202H1132.39ZM1199.3 449V441.948H1187.78V387.768H1179.87L1168.77 397.744L1171.1 404.538L1179.87 397.142V441.948H1168.34V449H1199.3ZM1237.41 387.768H1227.61L1212.47 411.848C1209.03 417.352 1206.62 423.63 1206.62 430.252C1206.62 442.292 1214.53 449.516 1226.23 449.516C1237.75 449.516 1245.15 442.464 1245.15 429.822C1245.15 417.18 1237.67 410.128 1226.23 410.128C1224.94 410.128 1223.74 410.214 1222.62 410.386L1237.41 387.768ZM1226.14 441.948C1218.92 441.948 1214.71 437.562 1214.71 429.822C1214.71 422.082 1218.92 417.696 1226.14 417.696C1233.45 417.696 1237.07 422.254 1237.07 429.822C1237.07 437.39 1233.45 441.948 1226.14 441.948ZM1281.3 416.922C1285.17 414.256 1287.32 409.956 1287.32 403.85C1287.32 393.186 1280.78 387.252 1270.72 387.252C1260.66 387.252 1254.12 393.186 1254.12 403.85C1254.12 409.956 1256.27 414.256 1260.06 416.922C1255.07 419.674 1252.06 424.748 1252.06 431.972C1252.06 443.324 1259.63 449.516 1270.72 449.516C1281.81 449.516 1289.38 443.324 1289.38 431.972C1289.38 424.748 1286.37 419.674 1281.3 416.922ZM1281.3 431.8C1281.3 438.422 1277.6 441.948 1270.72 441.948C1263.84 441.948 1260.14 438.422 1260.14 431.8C1260.14 425.178 1263.75 421.05 1270.72 421.05C1277.69 421.05 1281.3 425.178 1281.3 431.8ZM1270.72 413.482C1265.3 413.482 1262.21 409.956 1262.21 404.022C1262.21 398.088 1265.3 394.82 1270.72 394.82C1276.14 394.82 1279.23 398.088 1279.23 404.022C1279.23 409.956 1276.14 413.482 1270.72 413.482ZM1303.22 458.202L1307.43 447.538C1307.86 446.506 1308.29 444.958 1308.29 443.84C1308.29 441.174 1305.97 438.766 1303.05 438.766C1300.12 438.766 1297.89 441.088 1297.89 444.012C1297.89 446.248 1299.09 448.054 1300.98 448.828L1298.66 458.202H1303.22ZM1369.87 449V436.014H1376.67V428.962H1369.87V387.768H1361.1L1337.02 430.252V436.014H1361.96V449H1369.87ZM1361.96 428.962H1346.31L1361.96 401.528V428.962ZM1413.97 449V441.948H1402.44V387.768H1394.53L1383.44 397.744L1385.76 404.538L1394.53 397.142V441.948H1383.01V449H1413.97Z" fill="url(#paint6_linear)"/>
<path d="M1075.26 665V657.948H1063.74V603.768H1055.82L1044.73 613.744L1047.05 620.538L1055.82 613.142V657.948H1044.3V665H1075.26ZM1082.58 647.972C1082.58 659.324 1090.14 665.516 1101.24 665.516C1112.25 665.516 1119.38 659.324 1119.38 648.058C1119.38 641.264 1116.8 636.19 1111.73 633.266C1116.03 630.686 1118.35 626.73 1118.35 620.452C1118.35 609.616 1111.56 603.252 1101.15 603.252C1090.4 603.252 1083.26 609.444 1083.26 620.796H1091.35C1091.35 614.432 1094.79 610.82 1101.15 610.82C1107.09 610.82 1110.27 614.518 1110.27 620.624C1110.27 626.73 1107.09 629.912 1101.15 629.912H1098.57V637.308H1101.15C1107.86 637.308 1111.3 641.35 1111.3 647.886C1111.3 654.336 1107.95 657.948 1101.24 657.948C1094.53 657.948 1090.66 654.336 1090.66 647.972H1082.58ZM1126.25 647.972C1126.25 659.324 1133.82 665.516 1144.91 665.516C1155.92 665.516 1163.06 659.324 1163.06 648.058C1163.06 641.264 1160.48 636.19 1155.4 633.266C1159.7 630.686 1162.02 626.73 1162.02 620.452C1162.02 609.616 1155.23 603.252 1144.82 603.252C1134.07 603.252 1126.94 609.444 1126.94 620.796H1135.02C1135.02 614.432 1138.46 610.82 1144.82 610.82C1150.76 610.82 1153.94 614.518 1153.94 620.624C1153.94 626.73 1150.76 629.912 1144.82 629.912H1142.24V637.308H1144.82C1151.53 637.308 1154.97 641.35 1154.97 647.886C1154.97 654.336 1151.62 657.948 1144.91 657.948C1138.2 657.948 1134.33 654.336 1134.33 647.972H1126.25ZM1176.07 674.202L1180.28 663.538C1180.71 662.506 1181.14 660.958 1181.14 659.84C1181.14 657.174 1178.82 654.766 1175.89 654.766C1172.97 654.766 1170.73 657.088 1170.73 660.012C1170.73 662.248 1171.94 664.054 1173.83 664.828L1171.51 674.202H1176.07ZM1248.39 665V656.744H1221.56L1238.07 638.942C1242.63 633.954 1247.02 629.482 1247.02 620.796C1247.02 610.132 1240.31 603.252 1229.56 603.252C1218.47 603.252 1210.9 610.476 1210.9 623.376H1218.98C1218.98 615.464 1222.85 610.82 1229.56 610.82C1235.92 610.82 1238.93 615.034 1238.93 621.14C1238.93 625.698 1237.21 628.622 1232.83 633.352L1210.3 657.346V665H1248.39ZM1286.23 665V657.948H1274.7V603.768H1266.79L1255.7 613.744L1258.02 620.538L1266.79 613.142V657.948H1255.27V665H1286.23ZM1330.78 665V656.744H1303.95L1320.46 638.942C1325.02 633.954 1329.41 629.482 1329.41 620.796C1329.41 610.132 1322.7 603.252 1311.95 603.252C1300.86 603.252 1293.29 610.476 1293.29 623.376H1301.37C1301.37 615.464 1305.24 610.82 1311.95 610.82C1318.31 610.82 1321.32 615.034 1321.32 621.14C1321.32 625.698 1319.6 628.622 1315.22 633.352L1292.69 657.346V665H1330.78ZM1344.62 674.202L1348.84 663.538C1349.27 662.506 1349.7 660.958 1349.7 659.84C1349.7 657.174 1347.38 654.766 1344.45 654.766C1341.53 654.766 1339.29 657.088 1339.29 660.012C1339.29 662.248 1340.5 664.054 1342.39 664.828L1340.07 674.202H1344.62ZM1411.53 665V657.948H1400.01V603.768H1392.1L1381 613.744L1383.33 620.538L1392.1 613.142V657.948H1380.57V665H1411.53ZM1456.09 665V656.744H1429.26L1445.77 638.942C1450.33 633.954 1454.71 629.482 1454.71 620.796C1454.71 610.132 1448 603.252 1437.25 603.252C1426.16 603.252 1418.59 610.476 1418.59 623.376H1426.68C1426.68 615.464 1430.55 610.82 1437.25 610.82C1443.62 610.82 1446.63 615.034 1446.63 621.14C1446.63 625.698 1444.91 628.622 1440.52 633.352L1417.99 657.346V665H1456.09ZM1485.15 665.516C1496.42 665.516 1508.2 657.346 1508.2 634.384C1508.2 611.422 1496.42 603.252 1485.15 603.252C1473.88 603.252 1462.1 611.422 1462.1 634.384C1462.1 657.346 1473.88 665.516 1485.15 665.516ZM1472.34 648.746C1470.96 645.306 1470.19 640.576 1470.19 634.47C1470.19 614.862 1478.27 610.82 1485.15 610.82C1488.16 610.82 1491.51 611.594 1494.18 614.26L1472.34 648.746ZM1498.31 621.054C1499.43 624.408 1500.11 628.708 1500.11 634.384C1500.11 653.906 1491.94 657.948 1485.15 657.948C1482.4 657.948 1479.39 657.26 1476.81 655.196L1498.31 621.054Z" fill="url(#paint7_linear)"/>
<path d="M1066.49 881.516C1077.75 881.516 1089.54 873.346 1089.54 850.384C1089.54 827.422 1077.75 819.252 1066.49 819.252C1055.22 819.252 1043.44 827.422 1043.44 850.384C1043.44 873.346 1055.22 881.516 1066.49 881.516ZM1053.67 864.746C1052.3 861.306 1051.52 856.576 1051.52 850.47C1051.52 830.862 1059.61 826.82 1066.49 826.82C1069.5 826.82 1072.85 827.594 1075.52 830.26L1053.67 864.746ZM1079.65 837.054C1080.76 840.408 1081.45 844.708 1081.45 850.384C1081.45 869.906 1073.28 873.948 1066.49 873.948C1063.74 873.948 1060.73 873.26 1058.15 871.196L1079.65 837.054ZM1102.58 890.202L1106.79 879.538C1107.22 878.506 1107.65 876.958 1107.65 875.84C1107.65 873.174 1105.33 870.766 1102.41 870.766C1099.48 870.766 1097.25 873.088 1097.25 876.012C1097.25 878.248 1098.45 880.054 1100.34 880.828L1098.02 890.202H1102.58ZM1160.72 881.516C1171.98 881.516 1183.77 873.346 1183.77 850.384C1183.77 827.422 1171.98 819.252 1160.72 819.252C1149.45 819.252 1137.67 827.422 1137.67 850.384C1137.67 873.346 1149.45 881.516 1160.72 881.516ZM1147.9 864.746C1146.53 861.306 1145.75 856.576 1145.75 850.47C1145.75 830.862 1153.84 826.82 1160.72 826.82C1163.73 826.82 1167.08 827.594 1169.75 830.26L1147.9 864.746ZM1173.88 837.054C1174.99 840.408 1175.68 844.708 1175.68 850.384C1175.68 869.906 1167.51 873.948 1160.72 873.948C1157.97 873.948 1154.96 873.26 1152.38 871.196L1173.88 837.054ZM1196.81 890.202L1201.02 879.538C1201.45 878.506 1201.88 876.958 1201.88 875.84C1201.88 873.174 1199.56 870.766 1196.64 870.766C1193.71 870.766 1191.48 873.088 1191.48 876.012C1191.48 878.248 1192.68 880.054 1194.57 880.828L1192.25 890.202H1196.81ZM1254.95 881.516C1266.21 881.516 1278 873.346 1278 850.384C1278 827.422 1266.21 819.252 1254.95 819.252C1243.68 819.252 1231.9 827.422 1231.9 850.384C1231.9 873.346 1243.68 881.516 1254.95 881.516ZM1242.13 864.746C1240.76 861.306 1239.98 856.576 1239.98 850.47C1239.98 830.862 1248.07 826.82 1254.95 826.82C1257.96 826.82 1261.31 827.594 1263.98 830.26L1242.13 864.746ZM1268.11 837.054C1269.22 840.408 1269.91 844.708 1269.91 850.384C1269.91 869.906 1261.74 873.948 1254.95 873.948C1252.2 873.948 1249.19 873.26 1246.61 871.196L1268.11 837.054Z" fill="url(#paint8_linear)"/>
<path d="M1080.68 1098V1089.74H1053.85L1070.36 1071.94C1074.92 1066.95 1079.3 1062.48 1079.3 1053.8C1079.3 1043.13 1072.59 1036.25 1061.84 1036.25C1050.75 1036.25 1043.18 1043.48 1043.18 1056.38H1051.27C1051.27 1048.46 1055.14 1043.82 1061.84 1043.82C1068.21 1043.82 1071.22 1048.03 1071.22 1054.14C1071.22 1058.7 1069.5 1061.62 1065.11 1066.35L1042.58 1090.35V1098H1080.68ZM1086.69 1080.97C1086.69 1092.32 1094.26 1098.52 1105.35 1098.52C1116.36 1098.52 1123.5 1092.32 1123.5 1081.06C1123.5 1074.26 1120.92 1069.19 1115.85 1066.27C1120.15 1063.69 1122.47 1059.73 1122.47 1053.45C1122.47 1042.62 1115.67 1036.25 1105.27 1036.25C1094.52 1036.25 1087.38 1042.44 1087.38 1053.8H1095.46C1095.46 1047.43 1098.9 1043.82 1105.27 1043.82C1111.2 1043.82 1114.38 1047.52 1114.38 1053.62C1114.38 1059.73 1111.2 1062.91 1105.27 1062.91H1102.69V1070.31H1105.27C1111.98 1070.31 1115.42 1074.35 1115.42 1080.89C1115.42 1087.34 1112.06 1090.95 1105.35 1090.95C1098.65 1090.95 1094.78 1087.34 1094.78 1080.97H1086.69ZM1162.77 1098V1085.01H1169.56V1077.96H1162.77V1036.77H1153.99L1129.91 1079.25V1085.01H1154.85V1098H1162.77ZM1154.85 1077.96H1139.2L1154.85 1050.53V1077.96ZM1182.87 1107.2L1187.08 1096.54C1187.51 1095.51 1187.94 1093.96 1187.94 1092.84C1187.94 1090.17 1185.62 1087.77 1182.7 1087.77C1179.77 1087.77 1177.54 1090.09 1177.54 1093.01C1177.54 1095.25 1178.74 1097.05 1180.63 1097.83L1178.31 1107.2H1182.87ZM1255.2 1098V1089.74H1228.37L1244.88 1071.94C1249.44 1066.95 1253.82 1062.48 1253.82 1053.8C1253.82 1043.13 1247.11 1036.25 1236.36 1036.25C1225.27 1036.25 1217.7 1043.48 1217.7 1056.38H1225.79C1225.79 1048.46 1229.66 1043.82 1236.36 1043.82C1242.73 1043.82 1245.74 1048.03 1245.74 1054.14C1245.74 1058.7 1244.02 1061.62 1239.63 1066.35L1217.1 1090.35V1098H1255.2ZM1293.03 1098V1090.95H1281.51V1036.77H1273.6L1262.5 1046.74L1264.82 1053.54L1273.6 1046.14V1090.95H1262.07V1098H1293.03ZM1331.14 1036.77H1321.33L1306.2 1060.85C1302.76 1066.35 1300.35 1072.63 1300.35 1079.25C1300.35 1091.29 1308.26 1098.52 1319.96 1098.52C1331.48 1098.52 1338.88 1091.46 1338.88 1078.82C1338.88 1066.18 1331.39 1059.13 1319.96 1059.13C1318.67 1059.13 1317.46 1059.21 1316.34 1059.39L1331.14 1036.77ZM1319.87 1090.95C1312.65 1090.95 1308.43 1086.56 1308.43 1078.82C1308.43 1071.08 1312.65 1066.7 1319.87 1066.7C1327.18 1066.7 1330.79 1071.25 1330.79 1078.82C1330.79 1086.39 1327.18 1090.95 1319.87 1090.95ZM1351.93 1107.2L1356.14 1096.54C1356.57 1095.51 1357 1093.96 1357 1092.84C1357 1090.17 1354.68 1087.77 1351.76 1087.77C1348.83 1087.77 1346.6 1090.09 1346.6 1093.01C1346.6 1095.25 1347.8 1097.05 1349.69 1097.83L1347.37 1107.2H1351.93ZM1418.58 1098V1085.01H1425.38V1077.96H1418.58V1036.77H1409.81L1385.73 1079.25V1085.01H1410.67V1098H1418.58ZM1410.67 1077.96H1395.02L1410.67 1050.53V1077.96ZM1460.1 1065.92C1463.97 1063.26 1466.12 1058.96 1466.12 1052.85C1466.12 1042.19 1459.58 1036.25 1449.52 1036.25C1439.46 1036.25 1432.92 1042.19 1432.92 1052.85C1432.92 1058.96 1435.07 1063.26 1438.86 1065.92C1433.87 1068.67 1430.86 1073.75 1430.86 1080.97C1430.86 1092.32 1438.43 1098.52 1449.52 1098.52C1460.62 1098.52 1468.18 1092.32 1468.18 1080.97C1468.18 1073.75 1465.17 1068.67 1460.1 1065.92ZM1460.1 1080.8C1460.1 1087.42 1456.4 1090.95 1449.52 1090.95C1442.64 1090.95 1438.94 1087.42 1438.94 1080.8C1438.94 1074.18 1442.56 1070.05 1449.52 1070.05C1456.49 1070.05 1460.1 1074.18 1460.1 1080.8ZM1449.52 1062.48C1444.1 1062.48 1441.01 1058.96 1441.01 1053.02C1441.01 1047.09 1444.1 1043.82 1449.52 1043.82C1454.94 1043.82 1458.04 1047.09 1458.04 1053.02C1458.04 1058.96 1454.94 1062.48 1449.52 1062.48Z" fill="url(#paint9_linear)"/>
</g>
<g filter="url(#filter4_d)">
<path d="M212.38 449L214.53 434.552H222.528L223.13 429.65H215.132L217.368 413.224H225.28L225.968 408.322H217.97L219.862 394.992H215.132L213.24 408.322H200.598L202.404 394.992H197.674L195.782 408.322H187.784L187.096 413.224H195.18L192.944 429.65H184.946L184.258 434.552H192.256L190.192 449H194.922L196.986 434.552H209.714L207.65 449H212.38ZM210.402 429.65H197.674L199.91 413.224H212.638L210.402 429.65ZM252.732 449.516C263.998 449.516 275.78 441.346 275.78 418.384C275.78 395.422 263.998 387.252 252.732 387.252C241.466 387.252 229.684 395.422 229.684 418.384C229.684 441.346 241.466 449.516 252.732 449.516ZM239.918 432.746C238.542 429.306 237.768 424.576 237.768 418.47C237.768 398.862 245.852 394.82 252.732 394.82C255.742 394.82 259.096 395.594 261.762 398.26L239.918 432.746ZM265.89 405.054C267.008 408.408 267.696 412.708 267.696 418.384C267.696 437.906 259.526 441.948 252.732 441.948C249.98 441.948 246.97 441.26 244.39 439.196L265.89 405.054ZM320.26 449V387.768H312.52V409.44C309.338 406.43 305.382 404.882 300.91 404.882C292.052 404.882 282.162 410.816 282.162 427.156C282.162 443.582 292.052 449.516 300.91 449.516C305.468 449.516 309.424 447.968 312.692 444.7L312.95 449H320.26ZM312.52 431.198C311.316 440.228 305.726 442.12 301.254 442.12C296.094 442.12 290.074 439.626 290.074 427.156C290.074 414.772 296.094 412.278 301.082 412.278C306.07 412.278 311.316 414.772 312.52 425.006V431.198ZM363.602 449V419.932C363.602 411.418 357.582 404.882 347.348 404.882C339.35 404.882 332.814 408.838 331.094 414.428L337.458 416.234C339.522 413.568 343.048 412.278 346.918 412.278C352.766 412.278 355.862 415.288 355.862 420.792V422.942L344.338 423.63C334.534 424.232 328.858 428.532 328.858 436.788C328.858 445.818 335.738 449.516 344.08 449.516C348.638 449.516 352.766 448.398 356.12 445.818L356.292 449H363.602ZM355.862 437.132C352.336 441.518 347.95 442.12 344.682 442.12C337.802 442.12 336.77 439.368 336.77 436.616C336.77 432.488 339.006 430.08 344.338 429.736L355.862 429.048V437.132ZM401.446 416.922C405.316 414.256 407.466 409.956 407.466 403.85C407.466 393.186 400.93 387.252 390.868 387.252C380.806 387.252 374.27 393.186 374.27 403.85C374.27 409.956 376.42 414.256 380.204 416.922C375.216 419.674 372.206 424.748 372.206 431.972C372.206 443.324 379.774 449.516 390.868 449.516C401.962 449.516 409.53 443.324 409.53 431.972C409.53 424.748 406.52 419.674 401.446 416.922ZM401.446 431.8C401.446 438.422 397.748 441.948 390.868 441.948C383.988 441.948 380.29 438.422 380.29 431.8C380.29 425.178 383.902 421.05 390.868 421.05C397.834 421.05 401.446 425.178 401.446 431.8ZM390.868 413.482C385.45 413.482 382.354 409.956 382.354 404.022C382.354 398.088 385.45 394.82 390.868 394.82C396.286 394.82 399.382 398.088 399.382 404.022C399.382 409.956 396.286 413.482 390.868 413.482ZM453.619 449V440.744H426.787L443.299 422.942C447.857 417.954 452.243 413.482 452.243 404.796C452.243 394.132 445.535 387.252 434.785 387.252C423.691 387.252 416.123 394.476 416.123 407.376H424.207C424.207 399.464 428.077 394.82 434.785 394.82C441.149 394.82 444.159 399.034 444.159 405.14C444.159 409.698 442.439 412.622 438.053 417.352L415.521 441.346V449H453.619ZM478.639 419.072C471.329 419.072 467.717 414.514 467.717 406.946C467.717 399.378 471.329 394.82 478.639 394.82C485.863 394.82 490.077 399.206 490.077 406.946C490.077 414.686 485.863 419.072 478.639 419.072ZM477.177 449L492.313 424.92C495.667 419.588 498.161 413.912 498.161 406.86C498.161 394.39 490.249 387.252 478.639 387.252C467.029 387.252 459.633 394.304 459.633 406.946C459.633 419.588 467.115 426.64 478.553 426.64C479.757 426.64 480.961 426.554 482.165 426.382L467.373 449H477.177Z" fill="url(#paint10_linear)"/>
<path d="M212.38 665L214.53 650.552H222.528L223.13 645.65H215.132L217.368 629.224H225.28L225.968 624.322H217.97L219.862 610.992H215.132L213.24 624.322H200.598L202.404 610.992H197.674L195.782 624.322H187.784L187.096 629.224H195.18L192.944 645.65H184.946L184.258 650.552H192.256L190.192 665H194.922L196.986 650.552H209.714L207.65 665H212.38ZM210.402 645.65H197.674L199.91 629.224H212.638L210.402 645.65ZM258.924 632.922C262.794 630.256 264.944 625.956 264.944 619.85C264.944 609.186 258.408 603.252 248.346 603.252C238.284 603.252 231.748 609.186 231.748 619.85C231.748 625.956 233.898 630.256 237.682 632.922C232.694 635.674 229.684 640.748 229.684 647.972C229.684 659.324 237.252 665.516 248.346 665.516C259.44 665.516 267.008 659.324 267.008 647.972C267.008 640.748 263.998 635.674 258.924 632.922ZM258.924 647.8C258.924 654.422 255.226 657.948 248.346 657.948C241.466 657.948 237.768 654.422 237.768 647.8C237.768 641.178 241.38 637.05 248.346 637.05C255.312 637.05 258.924 641.178 258.924 647.8ZM248.346 629.482C242.928 629.482 239.832 625.956 239.832 620.022C239.832 614.088 242.928 610.82 248.346 610.82C253.764 610.82 256.86 614.088 256.86 620.022C256.86 625.956 253.764 629.482 248.346 629.482ZM273.86 649.692C273.86 660.012 281.514 665.516 292.178 665.516C304.82 665.516 312.388 657.862 312.388 644.188C312.388 630.514 304.906 622.946 293.468 622.946C289.77 622.946 286.588 623.72 284.008 625.096L285.728 612.024H311.27V603.768H278.762L274.634 636.104H282.632C284.008 632.578 287.878 630.514 292.952 630.514C300.778 630.514 304.304 635.416 304.304 644.016C304.304 652.874 300.606 657.948 292.264 657.948C285.9 657.948 281.944 655.024 281.944 649.692H273.86ZM356.877 665V603.768H349.137V625.44C345.955 622.43 341.999 620.882 337.527 620.882C328.669 620.882 318.779 626.816 318.779 643.156C318.779 659.582 328.669 665.516 337.527 665.516C342.085 665.516 346.041 663.968 349.309 660.7L349.567 665H356.877ZM349.137 647.198C347.933 656.228 342.343 658.12 337.871 658.12C332.711 658.12 326.691 655.626 326.691 643.156C326.691 630.772 332.711 628.278 337.699 628.278C342.687 628.278 347.933 630.772 349.137 641.006V647.198ZM397.553 665V652.014H404.347V644.962H397.553V603.768H388.781L364.701 646.252V652.014H389.641V665H397.553ZM389.641 644.962H373.989L389.641 617.528V644.962ZM421.355 665L445.607 611.422V603.768H407.767V612.024H436.921L412.669 665H421.355ZM479.635 632.922C483.505 630.256 485.655 625.956 485.655 619.85C485.655 609.186 479.119 603.252 469.057 603.252C458.995 603.252 452.459 609.186 452.459 619.85C452.459 625.956 454.609 630.256 458.393 632.922C453.405 635.674 450.395 640.748 450.395 647.972C450.395 659.324 457.963 665.516 469.057 665.516C480.151 665.516 487.719 659.324 487.719 647.972C487.719 640.748 484.709 635.674 479.635 632.922ZM479.635 647.8C479.635 654.422 475.937 657.948 469.057 657.948C462.177 657.948 458.479 654.422 458.479 647.8C458.479 641.178 462.091 637.05 469.057 637.05C476.023 637.05 479.635 641.178 479.635 647.8ZM469.057 629.482C463.639 629.482 460.543 625.956 460.543 620.022C460.543 614.088 463.639 610.82 469.057 610.82C474.475 610.82 477.571 614.088 477.571 620.022C477.571 625.956 474.475 629.482 469.057 629.482Z" fill="url(#paint11_linear)"/>
<path d="M212.38 881L214.53 866.552H222.528L223.13 861.65H215.132L217.368 845.224H225.28L225.968 840.322H217.97L219.862 826.992H215.132L213.24 840.322H200.598L202.404 826.992H197.674L195.782 840.322H187.784L187.096 845.224H195.18L192.944 861.65H184.946L184.258 866.552H192.256L190.192 881H194.922L196.986 866.552H209.714L207.65 881H212.38ZM210.402 861.65H197.674L199.91 845.224H212.638L210.402 861.65ZM252.732 881.516C263.998 881.516 275.78 873.346 275.78 850.384C275.78 827.422 263.998 819.252 252.732 819.252C241.466 819.252 229.684 827.422 229.684 850.384C229.684 873.346 241.466 881.516 252.732 881.516ZM239.918 864.746C238.542 861.306 237.768 856.576 237.768 850.47C237.768 830.862 245.852 826.82 252.732 826.82C255.742 826.82 259.096 827.594 261.762 830.26L239.918 864.746ZM265.89 837.054C267.008 840.408 267.696 844.708 267.696 850.384C267.696 869.906 259.526 873.948 252.732 873.948C249.98 873.948 246.97 873.26 244.39 871.196L265.89 837.054ZM320.26 881V819.768H312.52V841.44C309.338 838.43 305.382 836.882 300.91 836.882C292.052 836.882 282.162 842.816 282.162 859.156C282.162 875.582 292.052 881.516 300.91 881.516C305.468 881.516 309.424 879.968 312.692 876.7L312.95 881H320.26ZM312.52 863.198C311.316 872.228 305.726 874.12 301.254 874.12C296.094 874.12 290.074 871.626 290.074 859.156C290.074 846.772 296.094 844.278 301.082 844.278C306.07 844.278 311.316 846.772 312.52 857.006V863.198ZM363.602 881V851.932C363.602 843.418 357.582 836.882 347.348 836.882C339.35 836.882 332.814 840.838 331.094 846.428L337.458 848.234C339.522 845.568 343.048 844.278 346.918 844.278C352.766 844.278 355.862 847.288 355.862 852.792V854.942L344.338 855.63C334.534 856.232 328.858 860.532 328.858 868.788C328.858 877.818 335.738 881.516 344.08 881.516C348.638 881.516 352.766 880.398 356.12 877.818L356.292 881H363.602ZM355.862 869.132C352.336 873.518 347.95 874.12 344.682 874.12C337.802 874.12 336.77 871.368 336.77 868.616C336.77 864.488 339.006 862.08 344.338 861.736L355.862 861.048V869.132ZM401.446 848.922C405.316 846.256 407.466 841.956 407.466 835.85C407.466 825.186 400.93 819.252 390.868 819.252C380.806 819.252 374.27 825.186 374.27 835.85C374.27 841.956 376.42 846.256 380.204 848.922C375.216 851.674 372.206 856.748 372.206 863.972C372.206 875.324 379.774 881.516 390.868 881.516C401.962 881.516 409.53 875.324 409.53 863.972C409.53 856.748 406.52 851.674 401.446 848.922ZM401.446 863.8C401.446 870.422 397.748 873.948 390.868 873.948C383.988 873.948 380.29 870.422 380.29 863.8C380.29 857.178 383.902 853.05 390.868 853.05C397.834 853.05 401.446 857.178 401.446 863.8ZM390.868 845.482C385.45 845.482 382.354 841.956 382.354 836.022C382.354 830.088 385.45 826.82 390.868 826.82C396.286 826.82 399.382 830.088 399.382 836.022C399.382 841.956 396.286 845.482 390.868 845.482ZM453.619 881V872.744H426.787L443.299 854.942C447.857 849.954 452.243 845.482 452.243 836.796C452.243 826.132 445.535 819.252 434.785 819.252C423.691 819.252 416.123 826.476 416.123 839.376H424.207C424.207 831.464 428.077 826.82 434.785 826.82C441.149 826.82 444.159 831.034 444.159 837.14C444.159 841.698 442.439 844.622 438.053 849.352L415.521 873.346V881H453.619ZM478.639 851.072C471.329 851.072 467.717 846.514 467.717 838.946C467.717 831.378 471.329 826.82 478.639 826.82C485.863 826.82 490.077 831.206 490.077 838.946C490.077 846.686 485.863 851.072 478.639 851.072ZM477.177 881L492.313 856.92C495.667 851.588 498.161 845.912 498.161 838.86C498.161 826.39 490.249 819.252 478.639 819.252C467.029 819.252 459.633 826.304 459.633 838.946C459.633 851.588 467.115 858.64 478.553 858.64C479.757 858.64 480.961 858.554 482.165 858.382L467.373 881H477.177Z" fill="url(#paint12_linear)"/>
<path d="M212.38 1098L214.53 1083.55H222.528L223.13 1078.65H215.132L217.368 1062.22H225.28L225.968 1057.32H217.97L219.862 1043.99H215.132L213.24 1057.32H200.598L202.404 1043.99H197.674L195.782 1057.32H187.784L187.096 1062.22H195.18L192.944 1078.65H184.946L184.258 1083.55H192.256L190.192 1098H194.922L196.986 1083.55H209.714L207.65 1098H212.38ZM210.402 1078.65H197.674L199.91 1062.22H212.638L210.402 1078.65ZM267.524 1078.48V1076.24C267.524 1059.82 257.806 1053.88 248.346 1053.88C238.886 1053.88 229.168 1059.82 229.168 1076.33C229.168 1092.58 238.628 1098.52 248.862 1098.52C257.204 1098.52 264.084 1094.65 266.148 1087.51L259.268 1085.7C257.032 1089.49 253.076 1091.12 248.604 1091.12C243.53 1091.12 237.854 1088.97 237.166 1078.48H267.524ZM237.252 1072.46C238.456 1063.26 243.788 1061.28 248.346 1061.28C252.818 1061.28 258.236 1063.26 259.354 1072.46H237.252ZM309.096 1098V1068.93C309.096 1060.42 303.076 1053.88 292.842 1053.88C284.844 1053.88 278.308 1057.84 276.588 1063.43L282.952 1065.23C285.016 1062.57 288.542 1061.28 292.412 1061.28C298.26 1061.28 301.356 1064.29 301.356 1069.79V1071.94L289.832 1072.63C280.028 1073.23 274.352 1077.53 274.352 1085.79C274.352 1094.82 281.232 1098.52 289.574 1098.52C294.132 1098.52 298.26 1097.4 301.614 1094.82L301.786 1098H309.096ZM301.356 1086.13C297.83 1090.52 293.444 1091.12 290.176 1091.12C283.296 1091.12 282.264 1088.37 282.264 1085.62C282.264 1081.49 284.5 1079.08 289.832 1078.74L301.356 1078.05V1086.13ZM355.282 1098V1036.77H347.542V1058.44C344.36 1055.43 340.404 1053.88 335.932 1053.88C327.074 1053.88 317.184 1059.82 317.184 1076.16C317.184 1092.58 327.074 1098.52 335.932 1098.52C340.49 1098.52 344.446 1096.97 347.714 1093.7L347.972 1098H355.282ZM347.542 1080.2C346.338 1089.23 340.748 1091.12 336.276 1091.12C331.116 1091.12 325.096 1088.63 325.096 1076.16C325.096 1063.77 331.116 1061.28 336.104 1061.28C341.092 1061.28 346.338 1063.77 347.542 1074.01V1080.2ZM393.635 1065.92C397.505 1063.26 399.655 1058.96 399.655 1052.85C399.655 1042.19 393.119 1036.25 383.057 1036.25C372.995 1036.25 366.459 1042.19 366.459 1052.85C366.459 1058.96 368.609 1063.26 372.393 1065.92C367.405 1068.67 364.395 1073.75 364.395 1080.97C364.395 1092.32 371.963 1098.52 383.057 1098.52C394.151 1098.52 401.719 1092.32 401.719 1080.97C401.719 1073.75 398.709 1068.67 393.635 1065.92ZM393.635 1080.8C393.635 1087.42 389.937 1090.95 383.057 1090.95C376.177 1090.95 372.479 1087.42 372.479 1080.8C372.479 1074.18 376.091 1070.05 383.057 1070.05C390.023 1070.05 393.635 1074.18 393.635 1080.8ZM383.057 1062.48C377.639 1062.48 374.543 1058.96 374.543 1053.02C374.543 1047.09 377.639 1043.82 383.057 1043.82C388.475 1043.82 391.571 1047.09 391.571 1053.02C391.571 1058.96 388.475 1062.48 383.057 1062.48ZM408.571 1080.97C408.571 1092.32 416.139 1098.52 427.233 1098.52C438.241 1098.52 445.379 1092.32 445.379 1081.06C445.379 1074.26 442.799 1069.19 437.725 1066.27C442.025 1063.69 444.347 1059.73 444.347 1053.45C444.347 1042.62 437.553 1036.25 427.147 1036.25C416.397 1036.25 409.259 1042.44 409.259 1053.8H417.343C417.343 1047.43 420.783 1043.82 427.147 1043.82C433.081 1043.82 436.263 1047.52 436.263 1053.62C436.263 1059.73 433.081 1062.91 427.147 1062.91H424.567V1070.31H427.147C433.855 1070.31 437.295 1074.35 437.295 1080.89C437.295 1087.34 433.941 1090.95 427.233 1090.95C420.525 1090.95 416.655 1087.34 416.655 1080.97H408.571ZM475.291 1098.52C486.557 1098.52 498.339 1090.35 498.339 1067.38C498.339 1044.42 486.557 1036.25 475.291 1036.25C464.025 1036.25 452.243 1044.42 452.243 1067.38C452.243 1090.35 464.025 1098.52 475.291 1098.52ZM462.477 1081.75C461.101 1078.31 460.327 1073.58 460.327 1067.47C460.327 1047.86 468.411 1043.82 475.291 1043.82C478.301 1043.82 481.655 1044.59 484.321 1047.26L462.477 1081.75ZM488.449 1054.05C489.567 1057.41 490.255 1061.71 490.255 1067.38C490.255 1086.91 482.085 1090.95 475.291 1090.95C472.539 1090.95 469.529 1090.26 466.949 1088.2L488.449 1054.05Z" fill="url(#paint13_linear)"/>
</g>
<path d="M197.95 472.04C197.02 474.71 195.61 475.52 194.05 475.52C192.1 475.52 189.55 474.29 189.55 468.32C189.55 462.35 192.1 461.12 194.02 461.12C195.58 461.12 197.05 461.96 197.98 464.75L201.79 463.79C200.23 459.11 197.05 457.46 194.02 457.46C190.03 457.46 185.5 460.31 185.5 468.32C185.5 476.33 190.03 479.18 194.02 479.18C197.05 479.18 200.23 477.53 201.82 472.82L197.95 472.04ZM213.724 479V475.61H210.784V463.79H204.034V467.18H206.944V475.61H204.034V479H213.724ZM208.864 462.32C210.214 462.32 211.294 461.24 211.294 459.89C211.294 458.54 210.214 457.46 208.864 457.46C207.514 457.46 206.434 458.54 206.434 459.89C206.434 461.24 207.514 462.32 208.864 462.32ZM223.629 475.19C222.999 475.43 221.949 475.67 221.379 475.67C220.479 475.67 220.059 475.43 220.059 473.87V467.18H223.569V463.79H220.059V459.5H216.219V463.79H214.659V467.18H216.219V474.17C216.219 476.99 217.419 479.18 220.659 479.18C221.799 479.18 222.759 478.91 223.869 478.4L223.629 475.19ZM231.939 485.15L239.739 463.79H235.599L232.539 472.97L229.509 463.79H225.369L230.559 478.04L228.039 485.15H231.939ZM245.601 479V470.84H248.871C253.401 470.84 255.921 468.35 255.921 464.33C255.921 460.28 253.401 457.64 248.871 457.64H241.611V479H245.601ZM245.601 467.21V461.27H248.661C250.671 461.27 251.871 462.32 251.871 464.33C251.871 466.28 250.671 467.21 248.661 467.21H245.601ZM267.689 479V475.61H264.749V457.64H257.999V461.03H260.909V475.61H257.999V479H267.689ZM281.994 479V469.04C281.994 465.98 279.804 463.61 276.054 463.61C273.174 463.61 270.714 465.29 269.994 467.63L273.144 468.53C273.864 467.57 274.884 467.12 275.934 467.12C277.374 467.12 278.154 467.9 278.154 469.31V469.49L275.064 469.7C271.464 469.94 269.454 471.47 269.454 474.5C269.454 477.8 271.824 479.18 274.704 479.18C276.024 479.18 277.194 478.79 278.274 477.95L278.334 479H281.994ZM278.154 474.53C277.164 475.58 276.054 475.67 275.214 475.67C273.564 475.67 273.324 475.04 273.324 474.44C273.324 473.45 273.864 472.82 275.124 472.76L278.154 472.58V474.53ZM297.829 479V470.03C297.829 465.26 294.769 463.61 292.369 463.61C291.289 463.61 290.389 463.94 289.339 464.84L289.279 463.79H285.619V479H289.459V469.88C289.789 467.75 290.959 467.12 291.919 467.12C292.819 467.12 293.989 467.66 293.989 470.27V479H297.829ZM314.001 479V470.03C314.001 465.26 310.941 463.61 308.541 463.61C307.461 463.61 306.561 463.94 305.511 464.84L305.451 463.79H301.791V479H305.631V469.88C305.961 467.75 307.131 467.12 308.091 467.12C308.991 467.12 310.161 467.66 310.161 470.27V479H314.001ZM330.742 472.7V471.41C330.742 465.68 327.262 463.61 323.872 463.61C320.482 463.61 317.002 465.68 317.002 471.44C317.002 477.11 320.392 479.18 324.022 479.18C327.022 479.18 329.572 477.59 330.382 474.68L327.022 473.81C326.242 475.1 325.102 475.67 323.932 475.67C322.702 475.67 321.292 475.19 320.962 472.7H330.742ZM321.052 469.64C321.532 467.63 322.762 467.12 323.872 467.12C324.952 467.12 326.182 467.57 326.632 469.64H321.052ZM337.593 479V470.6C337.953 468.14 339.123 467.45 340.383 467.45C340.923 467.45 341.553 467.57 341.973 467.72L342.333 463.73C341.883 463.64 341.283 463.61 340.923 463.61C339.543 463.61 338.463 464.09 337.473 465.11L337.413 463.79H333.753V479H337.593ZM367.734 479V467.87H359.724V471.5H363.744V473.51C362.934 475.01 361.254 475.52 359.874 475.52C357.744 475.52 355.224 474.32 355.224 468.32C355.224 462.35 357.744 461.12 359.664 461.12C361.134 461.12 362.634 461.84 363.534 464.75L367.374 463.79C365.814 459.08 362.634 457.46 359.634 457.46C355.644 457.46 351.174 460.34 351.174 468.32C351.174 476.27 355.584 479.18 359.754 479.18C361.224 479.18 362.694 478.82 363.984 477.95L364.104 479H367.734ZM375.211 479V470.6C375.571 468.14 376.741 467.45 378.001 467.45C378.541 467.45 379.171 467.57 379.591 467.72L379.951 463.73C379.501 463.64 378.901 463.61 378.541 463.61C377.161 463.61 376.081 464.09 375.091 465.11L375.031 463.79H371.371V479H375.211ZM394.844 472.7V471.41C394.844 465.68 391.364 463.61 387.974 463.61C384.584 463.61 381.104 465.68 381.104 471.44C381.104 477.11 384.494 479.18 388.124 479.18C391.124 479.18 393.674 477.59 394.484 474.68L391.124 473.81C390.344 475.1 389.204 475.67 388.034 475.67C386.804 475.67 385.394 475.19 385.064 472.7H394.844ZM385.154 469.64C385.634 467.63 386.864 467.12 387.974 467.12C389.054 467.12 390.284 467.57 390.734 469.64H385.154ZM410.987 472.7V471.41C410.987 465.68 407.507 463.61 404.117 463.61C400.727 463.61 397.247 465.68 397.247 471.44C397.247 477.11 400.637 479.18 404.267 479.18C407.267 479.18 409.817 477.59 410.627 474.68L407.267 473.81C406.487 475.1 405.347 475.67 404.177 475.67C402.947 475.67 401.537 475.19 401.207 472.7H410.987ZM401.297 469.64C401.777 467.63 403.007 467.12 404.117 467.12C405.197 467.12 406.427 467.57 406.877 469.64H401.297ZM426.208 479V470.03C426.208 465.26 423.148 463.61 420.748 463.61C419.668 463.61 418.768 463.94 417.718 464.84L417.658 463.79H413.998V479H417.838V469.88C418.168 467.75 419.338 467.12 420.298 467.12C421.198 467.12 422.368 467.66 422.368 470.27V479H426.208Z" fill="black" fill-opacity="0.3"/>
<path d="M197.95 688.04C197.02 690.71 195.61 691.52 194.05 691.52C192.1 691.52 189.55 690.29 189.55 684.32C189.55 678.35 192.1 677.12 194.02 677.12C195.58 677.12 197.05 677.96 197.98 680.75L201.79 679.79C200.23 675.11 197.05 673.46 194.02 673.46C190.03 673.46 185.5 676.31 185.5 684.32C185.5 692.33 190.03 695.18 194.02 695.18C197.05 695.18 200.23 693.53 201.82 688.82L197.95 688.04ZM213.724 695V691.61H210.784V679.79H204.034V683.18H206.944V691.61H204.034V695H213.724ZM208.864 678.32C210.214 678.32 211.294 677.24 211.294 675.89C211.294 674.54 210.214 673.46 208.864 673.46C207.514 673.46 206.434 674.54 206.434 675.89C206.434 677.24 207.514 678.32 208.864 678.32ZM223.629 691.19C222.999 691.43 221.949 691.67 221.379 691.67C220.479 691.67 220.059 691.43 220.059 689.87V683.18H223.569V679.79H220.059V675.5H216.219V679.79H214.659V683.18H216.219V690.17C216.219 692.99 217.419 695.18 220.659 695.18C221.799 695.18 222.759 694.91 223.869 694.4L223.629 691.19ZM231.939 701.15L239.739 679.79H235.599L232.539 688.97L229.509 679.79H225.369L230.559 694.04L228.039 701.15H231.939ZM245.601 695V686.84H248.871C253.401 686.84 255.921 684.35 255.921 680.33C255.921 676.28 253.401 673.64 248.871 673.64H241.611V695H245.601ZM245.601 683.21V677.27H248.661C250.671 677.27 251.871 678.32 251.871 680.33C251.871 682.28 250.671 683.21 248.661 683.21H245.601ZM267.689 695V691.61H264.749V673.64H257.999V677.03H260.909V691.61H257.999V695H267.689ZM281.994 695V685.04C281.994 681.98 279.804 679.61 276.054 679.61C273.174 679.61 270.714 681.29 269.994 683.63L273.144 684.53C273.864 683.57 274.884 683.12 275.934 683.12C277.374 683.12 278.154 683.9 278.154 685.31V685.49L275.064 685.7C271.464 685.94 269.454 687.47 269.454 690.5C269.454 693.8 271.824 695.18 274.704 695.18C276.024 695.18 277.194 694.79 278.274 693.95L278.334 695H281.994ZM278.154 690.53C277.164 691.58 276.054 691.67 275.214 691.67C273.564 691.67 273.324 691.04 273.324 690.44C273.324 689.45 273.864 688.82 275.124 688.76L278.154 688.58V690.53ZM297.829 695V686.03C297.829 681.26 294.769 679.61 292.369 679.61C291.289 679.61 290.389 679.94 289.339 680.84L289.279 679.79H285.619V695H289.459V685.88C289.789 683.75 290.959 683.12 291.919 683.12C292.819 683.12 293.989 683.66 293.989 686.27V695H297.829ZM314.001 695V686.03C314.001 681.26 310.941 679.61 308.541 679.61C307.461 679.61 306.561 679.94 305.511 680.84L305.451 679.79H301.791V695H305.631V685.88C305.961 683.75 307.131 683.12 308.091 683.12C308.991 683.12 310.161 683.66 310.161 686.27V695H314.001ZM330.742 688.7V687.41C330.742 681.68 327.262 679.61 323.872 679.61C320.482 679.61 317.002 681.68 317.002 687.44C317.002 693.11 320.392 695.18 324.022 695.18C327.022 695.18 329.572 693.59 330.382 690.68L327.022 689.81C326.242 691.1 325.102 691.67 323.932 691.67C322.702 691.67 321.292 691.19 320.962 688.7H330.742ZM321.052 685.64C321.532 683.63 322.762 683.12 323.872 683.12C324.952 683.12 326.182 683.57 326.632 685.64H321.052ZM337.593 695V686.6C337.953 684.14 339.123 683.45 340.383 683.45C340.923 683.45 341.553 683.57 341.973 683.72L342.333 679.73C341.883 679.64 341.283 679.61 340.923 679.61C339.543 679.61 338.463 680.09 337.473 681.11L337.413 679.79H333.753V695H337.593ZM363.114 695V691.37H355.464V673.64H351.474V695H363.114ZM375.003 695V691.61H372.063V679.79H365.313V683.18H368.223V691.61H365.313V695H375.003ZM370.143 678.32C371.493 678.32 372.573 677.24 372.573 675.89C372.573 674.54 371.493 673.46 370.143 673.46C368.793 673.46 367.713 674.54 367.713 675.89C367.713 677.24 368.793 678.32 370.143 678.32ZM386.286 694.91C386.286 696.71 385.266 697.82 383.496 697.82C382.236 697.82 381.126 697.25 380.346 695.96L376.986 696.83C377.826 699.65 380.196 701.33 383.436 701.33C387.516 701.33 390.126 698.63 390.126 694.91V679.79H386.466L386.406 680.84C385.476 680 384.456 679.61 383.136 679.61C380.046 679.61 376.446 681.68 376.446 687.38C376.446 693.11 380.076 695.18 383.046 695.18C384.396 695.18 385.386 694.76 386.286 694.1V694.91ZM386.286 688.61C385.926 691.01 384.486 691.67 383.226 691.67C381.936 691.67 380.316 690.95 380.316 687.41C380.316 683.84 381.966 683.12 383.226 683.12C384.546 683.12 385.926 683.9 386.286 686.75V688.61ZM406.286 695V686.03C406.286 681.26 403.256 679.61 400.796 679.61C399.806 679.61 398.936 679.88 397.916 680.6V673.64H394.076V695H397.916V685.88C398.246 683.75 399.416 683.12 400.376 683.12C401.276 683.12 402.446 683.66 402.446 686.27V695H406.286ZM417.575 691.19C416.945 691.43 415.895 691.67 415.325 691.67C414.425 691.67 414.005 691.43 414.005 689.87V683.18H417.515V679.79H414.005V675.5H410.165V679.79H408.605V683.18H410.165V690.17C410.165 692.99 411.365 695.18 414.605 695.18C415.745 695.18 416.705 694.91 417.815 694.4L417.575 691.19ZM443.994 695V683.87H435.984V687.5H440.004V689.51C439.194 691.01 437.514 691.52 436.134 691.52C434.004 691.52 431.484 690.32 431.484 684.32C431.484 678.35 434.004 677.12 435.924 677.12C437.394 677.12 438.894 677.84 439.794 680.75L443.634 679.79C442.074 675.08 438.894 673.46 435.894 673.46C431.904 673.46 427.434 676.34 427.434 684.32C427.434 692.27 431.844 695.18 436.014 695.18C437.484 695.18 438.954 694.82 440.244 693.95L440.364 695H443.994ZM451.47 695V686.6C451.83 684.14 453 683.45 454.26 683.45C454.8 683.45 455.43 683.57 455.85 683.72L456.21 679.73C455.76 679.64 455.16 679.61 454.8 679.61C453.42 679.61 452.34 680.09 451.35 681.11L451.29 679.79H447.63V695H451.47ZM471.104 688.7V687.41C471.104 681.68 467.624 679.61 464.234 679.61C460.844 679.61 457.364 681.68 457.364 687.44C457.364 693.11 460.754 695.18 464.384 695.18C467.384 695.18 469.934 693.59 470.744 690.68L467.384 689.81C466.604 691.1 465.464 691.67 464.294 691.67C463.064 691.67 461.654 691.19 461.324 688.7H471.104ZM461.414 685.64C461.894 683.63 463.124 683.12 464.234 683.12C465.314 683.12 466.544 683.57 466.994 685.64H461.414ZM487.246 688.7V687.41C487.246 681.68 483.766 679.61 480.376 679.61C476.986 679.61 473.506 681.68 473.506 687.44C473.506 693.11 476.896 695.18 480.526 695.18C483.526 695.18 486.076 693.59 486.886 690.68L483.526 689.81C482.746 691.1 481.606 691.67 480.436 691.67C479.206 691.67 477.796 691.19 477.466 688.7H487.246ZM477.556 685.64C478.036 683.63 479.266 683.12 480.376 683.12C481.456 683.12 482.686 683.57 483.136 685.64H477.556ZM502.467 695V686.03C502.467 681.26 499.407 679.61 497.007 679.61C495.927 679.61 495.027 679.94 493.977 680.84L493.917 679.79H490.257V695H494.097V685.88C494.427 683.75 495.597 683.12 496.557 683.12C497.457 683.12 498.627 683.66 498.627 686.27V695H502.467Z" fill="black" fill-opacity="0.3"/>
<path d="M196.69 1120.04C196.69 1122.23 195.58 1123.52 193.24 1123.52C190.9 1123.52 189.79 1122.23 189.79 1120.04V1105.64H185.8V1120.25C185.8 1124.69 188.74 1127.18 193.24 1127.18C197.77 1127.18 200.68 1124.69 200.68 1120.25V1105.64H196.69V1120.04ZM212.35 1123.19C211.72 1123.43 210.67 1123.67 210.1 1123.67C209.2 1123.67 208.78 1123.43 208.78 1121.87V1115.18H212.29V1111.79H208.78V1107.5H204.94V1111.79H203.38V1115.18H204.94V1122.17C204.94 1124.99 206.14 1127.18 209.38 1127.18C210.52 1127.18 211.48 1126.91 212.59 1126.4L212.35 1123.19ZM221.392 1127.18C224.782 1127.18 228.202 1125.11 228.202 1119.41C228.202 1113.68 224.752 1111.61 221.392 1111.61C218.002 1111.61 214.522 1113.68 214.522 1119.41C214.522 1125.11 217.972 1127.18 221.392 1127.18ZM221.392 1123.67C220.042 1123.67 218.392 1122.95 218.392 1119.41C218.392 1115.84 220.042 1115.12 221.392 1115.12C222.742 1115.12 224.332 1115.84 224.332 1119.41C224.332 1122.95 222.742 1123.67 221.392 1123.67ZM235.054 1133.15V1126.1C235.954 1126.76 236.944 1127.18 238.294 1127.18C241.264 1127.18 244.894 1125.11 244.894 1119.38C244.894 1113.68 241.294 1111.61 238.204 1111.61C236.884 1111.61 235.864 1112 234.934 1112.84L234.874 1111.79H231.214V1133.15H235.054ZM235.054 1118.15C235.414 1115.78 236.824 1115.12 238.084 1115.12C239.404 1115.12 241.024 1115.84 241.024 1119.38C241.024 1122.95 239.374 1123.67 238.144 1123.67C236.884 1123.67 235.414 1122.92 235.054 1120.01V1118.15ZM256.439 1127V1123.61H253.499V1111.79H246.749V1115.18H249.659V1123.61H246.749V1127H256.439ZM251.579 1110.32C252.929 1110.32 254.009 1109.24 254.009 1107.89C254.009 1106.54 252.929 1105.46 251.579 1105.46C250.229 1105.46 249.149 1106.54 249.149 1107.89C249.149 1109.24 250.229 1110.32 251.579 1110.32ZM270.744 1127V1117.04C270.744 1113.98 268.554 1111.61 264.804 1111.61C261.924 1111.61 259.464 1113.29 258.744 1115.63L261.894 1116.53C262.614 1115.57 263.634 1115.12 264.684 1115.12C266.124 1115.12 266.904 1115.9 266.904 1117.31V1117.49L263.814 1117.7C260.214 1117.94 258.204 1119.47 258.204 1122.5C258.204 1125.8 260.574 1127.18 263.454 1127.18C264.774 1127.18 265.944 1126.79 267.024 1125.95L267.084 1127H270.744ZM266.904 1122.53C265.914 1123.58 264.804 1123.67 263.964 1123.67C262.314 1123.67 262.074 1123.04 262.074 1122.44C262.074 1121.45 262.614 1120.82 263.874 1120.76L266.904 1120.58V1122.53ZM290.212 1127V1118.75L296.662 1105.64H292.432L288.232 1113.95L284.032 1105.64H279.802L286.222 1118.75V1127H290.212ZM310.147 1120.7V1119.41C310.147 1113.68 306.667 1111.61 303.277 1111.61C299.887 1111.61 296.407 1113.68 296.407 1119.44C296.407 1125.11 299.797 1127.18 303.427 1127.18C306.427 1127.18 308.977 1125.59 309.787 1122.68L306.427 1121.81C305.647 1123.1 304.507 1123.67 303.337 1123.67C302.107 1123.67 300.697 1123.19 300.367 1120.7H310.147ZM300.457 1117.64C300.937 1115.63 302.167 1115.12 303.277 1115.12C304.357 1115.12 305.587 1115.57 306.037 1117.64H300.457ZM321.595 1127V1123.61H318.655V1105.64H311.905V1109.03H314.815V1123.61H311.905V1127H321.595ZM332.903 1127V1123.61H329.963V1105.64H323.213V1109.03H326.123V1123.61H323.213V1127H332.903ZM341.216 1127.18C344.606 1127.18 348.026 1125.11 348.026 1119.41C348.026 1113.68 344.576 1111.61 341.216 1111.61C337.826 1111.61 334.346 1113.68 334.346 1119.41C334.346 1125.11 337.796 1127.18 341.216 1127.18ZM341.216 1123.67C339.866 1123.67 338.216 1122.95 338.216 1119.41C338.216 1115.84 339.866 1115.12 341.216 1115.12C342.566 1115.12 344.156 1115.84 344.156 1119.41C344.156 1122.95 342.566 1123.67 341.216 1123.67ZM364.323 1127L368.133 1111.79H364.083L362.043 1120.61L360.303 1113.89H357.213L355.443 1120.61L353.433 1111.79H349.353L353.163 1127H356.703L358.743 1120.19L360.783 1127H364.323Z" fill="black" fill-opacity="0.3"/>
<path d="M194.05 904.64C194.05 906.47 193.06 907.52 191.5 907.52C189.73 907.52 188.74 906.17 188.74 903.05L184.75 903.83C184.75 908.45 187.57 911.18 191.41 911.18C195.28 911.18 198.04 908.42 198.04 904.64V889.64H189.28V893.12H194.05V904.64ZM214.545 911V895.79H210.705V904.91C210.345 907.13 208.995 907.67 208.005 907.67C207.045 907.67 205.875 907.16 205.875 904.52V895.61H202.035V904.76C202.035 909.53 205.095 911.18 207.495 911.18C208.665 911.18 209.985 910.79 210.825 909.95L210.885 911H214.545ZM229.18 899.99C228.4 897.08 226.45 895.61 223.72 895.61C220.66 895.61 218.32 897.44 218.32 900.2C218.32 902.9 220.54 903.83 222.43 904.55L223.54 904.97C225.04 905.54 225.64 905.84 225.64 906.5C225.64 907.28 224.77 907.67 223.72 907.67C222.55 907.67 221.59 907.19 220.9 905.81L217.54 906.68C218.35 909.56 220.33 911.18 223.63 911.18C226.87 911.18 229.6 909.59 229.6 906.41C229.6 903.77 227.77 902.66 225.46 901.82L224.47 901.46C222.85 900.89 222.19 900.65 222.19 900.11C222.19 899.54 222.88 899.12 223.72 899.12C224.62 899.12 225.28 899.63 225.82 900.86L229.18 899.99ZM240.211 907.19C239.581 907.43 238.531 907.67 237.961 907.67C237.061 907.67 236.641 907.43 236.641 905.87V899.18H240.151V895.79H236.641V891.5H232.801V895.79H231.241V899.18H232.801V906.17C232.801 908.99 234.001 911.18 237.241 911.18C238.381 911.18 239.341 910.91 240.451 910.4L240.211 907.19ZM257.63 911C262.16 911 264.68 908.54 264.68 904.76C264.68 902.72 263.72 901.1 262.13 900.02C263.36 899 264.11 897.56 264.11 895.85C264.11 892.13 261.59 889.64 257.06 889.64H250.37V911H257.63ZM254.36 907.37V902.06H257.42C259.43 902.06 260.63 902.93 260.63 904.7C260.63 906.47 259.43 907.37 257.42 907.37H254.36ZM254.36 898.43V893.27H256.85C258.83 893.27 260.06 894.2 260.06 895.88C260.06 897.59 258.83 898.43 256.85 898.43H254.36ZM276.595 911V907.61H273.655V889.64H266.905V893.03H269.815V907.61H266.905V911H276.595ZM290.9 911V901.04C290.9 897.98 288.71 895.61 284.96 895.61C282.08 895.61 279.62 897.29 278.9 899.63L282.05 900.53C282.77 899.57 283.79 899.12 284.84 899.12C286.28 899.12 287.06 899.9 287.06 901.31V901.49L283.97 901.7C280.37 901.94 278.36 903.47 278.36 906.5C278.36 909.8 280.73 911.18 283.61 911.18C284.93 911.18 286.1 910.79 287.18 909.95L287.24 911H290.9ZM287.06 906.53C286.07 907.58 284.96 907.67 284.12 907.67C282.47 907.67 282.23 907.04 282.23 906.44C282.23 905.45 282.77 904.82 284.03 904.76L287.06 904.58V906.53ZM303.161 905.81C302.501 907.1 301.601 907.67 300.551 907.67C299.231 907.67 297.581 906.95 297.581 903.41C297.581 899.84 299.231 899.12 300.581 899.12C301.601 899.12 302.501 899.66 303.161 900.89L306.521 899.99C305.711 897.11 303.431 895.61 300.671 895.61C297.131 895.61 293.711 897.68 293.711 903.41C293.711 909.11 297.101 911.18 300.641 911.18C303.611 911.18 305.741 909.53 306.521 906.68L303.161 905.81ZM323.295 911L316.245 901.79L322.905 895.76H317.775L313.365 899.75V889.64H309.525V911H313.365V904.4L313.545 904.28L318.735 911H323.295Z" fill="black" fill-opacity="0.3"/>
<defs>
<filter id="filter0_d" x="87" y="333" width="2077" height="880" filterUnits="userSpaceOnUse" color-interpolation-filters="sRGB">
<feFlood flood-opacity="0" result="BackgroundImageFix"/>
<feColorMatrix in="SourceAlpha" type="matrix" values="0 0 0 0 0 0 0 0 0 0 0 0 0 0 0 0 0 0 127 0"/>
<feOffset dy="30"/>
<feGaussianBlur stdDeviation="20"/>
<feColorMatrix type="matrix" values="0 0 0 0 0 0 0 0 0 0 0 0 0 0 0 0 0 0 0.25 0"/>
<feBlend mode="normal" in2="BackgroundImageFix" result="effect1_dropShadow"/>
<feBlend mode="normal" in="SourceGraphic" in2="effect1_dropShadow" result="shape"/>
</filter>
<filter id="filter1_d" x="536" y="255.763" width="470.395" height="1035.16" filterUnits="userSpaceOnUse" color-interpolation-filters="sRGB">
<feFlood flood-opacity="0" result="BackgroundImageFix"/>
<feColorMatrix in="SourceAlpha" type="matrix" values="0 0 0 0 0 0 0 0 0 0 0 0 0 0 0 0 0 0 127 0"/>
<feOffset dy="30"/>
<feGaussianBlur stdDeviation="20"/>
<feColorMatrix type="matrix" values="0 0 0 0 0 0 0 0 0 0 0 0 0 0 0 0 0 0 0.25 0"/>
<feBlend mode="normal" in2="BackgroundImageFix" result="effect1_dropShadow"/>
<feBlend mode="normal" in="SourceGraphic" in2="effect1_dropShadow" result="shape"/>
</filter>
<filter id="filter2_d" x="1588.44" y="382.252" width="483.812" height="737.95" filterUnits="userSpaceOnUse" color-interpolation-filters="sRGB">
<feFlood flood-opacity="0" result="BackgroundImageFix"/>
<feColorMatrix in="SourceAlpha" type="matrix" values="0 0 0 0 0 0 0 0 0 0 0 0 0 0 0 0 0 0 127 0"/>
<feOffset dy="4"/>
<feGaussianBlur stdDeviation="4.5"/>
<feColorMatrix type="matrix" values="0 0 0 0 0 0 0 0 0 0 0 0 0 0 0 0 0 0 0.12 0"/>
<feBlend mode="normal" in2="BackgroundImageFix" result="effect1_dropShadow"/>
<feBlend mode="normal" in="SourceGraphic" in2="effect1_dropShadow" result="shape"/>
</filter>
<filter id="filter3_d" x="1033.58" y="382.252" width="483.618" height="737.95" filterUnits="userSpaceOnUse" color-interpolation-filters="sRGB">
<feFlood flood-opacity="0" result="BackgroundImageFix"/>
<feColorMatrix in="SourceAlpha" type="matrix" values="0 0 0 0 0 0 0 0 0 0 0 0 0 0 0 0 0 0 127 0"/>
<feOffset dy="4"/>
<feGaussianBlur stdDeviation="4.5"/>
<feColorMatrix type="matrix" values="0 0 0 0 0 0 0 0 0 0 0 0 0 0 0 0 0 0 0.12 0"/>
<feBlend mode="normal" in2="BackgroundImageFix" result="effect1_dropShadow"/>
<feBlend mode="normal" in="SourceGraphic" in2="effect1_dropShadow" result="shape"/>
</filter>
<filter id="filter4_d" x="175.258" y="382.252" width="332.081" height="729.264" filterUnits="userSpaceOnUse" color-interpolation-filters="sRGB">
<feFlood flood-opacity="0" result="BackgroundImageFix"/>
<feColorMatrix in="SourceAlpha" type="matrix" values="0 0 0 0 0 0 0 0 0 0 0 0 0 0 0 0 0 0 127 0"/>
<feOffset dy="4"/>
<feGaussianBlur stdDeviation="4.5"/>
<feColorMatrix type="matrix" values="0 0 0 0 0 0 0 0 0 0 0 0 0 0 0 0 0 0 0.12 0"/>
<feBlend mode="normal" in2="BackgroundImageFix" result="effect1_dropShadow"/>
<feBlend mode="normal" in="SourceGraphic" in2="effect1_dropShadow" result="shape"/>
</filter>
<linearGradient id="paint0_linear" x1="1125.5" y1="343" x2="1125.5" y2="1143" gradientUnits="userSpaceOnUse">
<stop stop-color="#DEDEDE"/>
<stop offset="1" stop-color="#E8E8E8"/>
</linearGradient>
<linearGradient id="paint1_linear" x1="1125.5" y1="725" x2="1125.5" y2="761" gradientUnits="userSpaceOnUse">
<stop stop-color="#4D4D4D"/>
<stop offset="1" stop-color="#606060"/>
</linearGradient>
<linearGradient id="paint2_linear" x1="1797" y1="367" x2="1797" y2="471" gradientUnits="userSpaceOnUse">
<stop stop-color="#242424"/>
<stop offset="1" stop-color="#242424" stop-opacity="0.88"/>
</linearGradient>
<linearGradient id="paint3_linear" x1="1800" y1="583" x2="1800" y2="687" gradientUnits="userSpaceOnUse">
<stop stop-color="#242424"/>
<stop offset="1" stop-color="#242424" stop-opacity="0.88"/>
</linearGradient>
<linearGradient id="paint4_linear" x1="1830.5" y1="799" x2="1830.5" y2="903" gradientUnits="userSpaceOnUse">
<stop stop-color="#242424"/>
<stop offset="1" stop-color="#242424" stop-opacity="0.88"/>
</linearGradient>
<linearGradient id="paint5_linear" x1="1769.5" y1="1016" x2="1769.5" y2="1120" gradientUnits="userSpaceOnUse">
<stop stop-color="#242424"/>
<stop offset="1" stop-color="#242424" stop-opacity="0.88"/>
</linearGradient>
<linearGradient id="paint6_linear" x1="1229" y1="367" x2="1229" y2="471" gradientUnits="userSpaceOnUse">
<stop stop-color="#242424"/>
<stop offset="1" stop-color="#242424" stop-opacity="0.88"/>
</linearGradient>
<linearGradient id="paint7_linear" x1="1276" y1="583" x2="1276" y2="687" gradientUnits="userSpaceOnUse">
<stop stop-color="#242424"/>
<stop offset="1" stop-color="#242424" stop-opacity="0.88"/>
</linearGradient>
<linearGradient id="paint8_linear" x1="1161" y1="799" x2="1161" y2="903" gradientUnits="userSpaceOnUse">
<stop stop-color="#242424"/>
<stop offset="1" stop-color="#242424" stop-opacity="0.88"/>
</linearGradient>
<linearGradient id="paint9_linear" x1="1256" y1="1016" x2="1256" y2="1120" gradientUnits="userSpaceOnUse">
<stop stop-color="#242424"/>
<stop offset="1" stop-color="#242424" stop-opacity="0.88"/>
</linearGradient>
<linearGradient id="paint10_linear" x1="343" y1="367" x2="343" y2="471" gradientUnits="userSpaceOnUse">
<stop stop-color="#242424"/>
<stop offset="1" stop-color="#242424" stop-opacity="0.88"/>
</linearGradient>
<linearGradient id="paint11_linear" x1="338" y1="583" x2="338" y2="687" gradientUnits="userSpaceOnUse">
<stop stop-color="#242424"/>
<stop offset="1" stop-color="#242424" stop-opacity="0.88"/>
</linearGradient>
<linearGradient id="paint12_linear" x1="343" y1="799" x2="343" y2="903" gradientUnits="userSpaceOnUse">
<stop stop-color="#242424"/>
<stop offset="1" stop-color="#242424" stop-opacity="0.88"/>
</linearGradient>
<linearGradient id="paint13_linear" x1="343" y1="1016" x2="343" y2="1120" gradientUnits="userSpaceOnUse">
<stop stop-color="#242424"/>
<stop offset="1" stop-color="#242424" stop-opacity="0.88"/>
</linearGradient>
</defs>
</svg>
