<svg width="2250" height="1485" viewBox="0 0 2250 1485" fill="none" xmlns="http://www.w3.org/2000/svg">
<path fill-rule="evenodd" clip-rule="evenodd" d="M766.144 273.062H1395.05L1034.26 901.962H405.355L766.144 273.062Z" fill="#85D478"/>
<path fill-rule="evenodd" clip-rule="evenodd" d="M1395.05 273.062H2023.95L1663.16 901.962H1034.26L1395.05 273.062Z" fill="#0DA829"/>
<path fill-rule="evenodd" clip-rule="evenodd" d="M405.352 901.967H1663.16L1544.09 1109.52H286.293L405.352 901.967Z" fill="black"/>
<path fill-rule="evenodd" clip-rule="evenodd" d="M286.29 1109.5H1544.09L1484.56 1213.26H226.761L286.29 1109.5Z" fill="#EAD830"/>
<path d="M764.841 264.005H2038.04C1914.83 478.488 1791.62 692.97 1668.4 912.014L1549.75 1117.36L1490.43 1222.32H212.667L281.118 1099.11L399.77 893.756C522.982 683.835 641.631 473.92 760.282 264L764.841 264.005ZM1531.5 1117.36H290.245L240.046 1204.07H1481.3L1531.5 1117.36ZM1650.14 912.006H408.893L299.371 1099.11H1540.63L1650.14 912.006ZM418.007 893.753H1029.52C1134.48 706.653 1244 519.55 1348.97 337.019L1362.66 318.766L1371.79 300.514L1376.35 291.387L1380.92 282.261H769.406L418.007 893.753ZM1047.76 893.753H1659.28L2010.66 282.261H1399.16C1294.2 469.361 1184.68 651.899 1079.72 838.995L1070.59 857.25L1056.89 875.503L1052.33 884.629L1047.76 893.753Z" fill="white"/>
</svg>
