<svg width="2250" height="1485" viewBox="0 0 2250 1485" fill="none" xmlns="http://www.w3.org/2000/svg">
<g opacity="0.8" filter="url(#filter0_d)">
<path d="M801.931 1141.21C790.763 1141.49 779.656 1139.49 769.284 1135.34C758.912 1131.19 749.49 1124.98 741.591 1117.08C733.692 1109.18 727.479 1099.76 723.33 1089.38C719.181 1079.01 717.182 1067.9 717.454 1056.74V927.433C717.182 916.265 719.181 905.158 723.33 894.786C727.478 884.413 733.691 874.992 741.59 867.092C749.49 859.193 758.911 852.98 769.284 848.831C779.656 844.682 790.763 842.684 801.931 842.956H946.751C957.919 842.684 969.026 844.682 979.398 848.831C989.771 852.98 999.192 859.193 1007.09 867.092C1014.99 874.992 1021.2 884.413 1025.35 894.786C1029.5 905.158 1031.5 916.265 1031.23 927.433V1056.74C1031.17 1077.84 1023.17 1098.15 1008.82 1113.63C995.195 1129.33 976.063 1139.21 955.37 1141.21H946.751L943.295 1148.11L915.719 1198.11L886.411 1148.11L882.955 1141.21H801.931ZM946.751 815.37H801.931C787.207 815.341 772.622 818.22 759.013 823.841C745.404 829.462 733.039 837.715 722.627 848.127C712.216 858.538 703.963 870.903 698.341 884.512C692.72 898.121 689.842 912.707 689.871 927.431V1056.73C689.842 1071.46 692.721 1086.04 698.342 1099.65C703.963 1113.26 712.217 1125.63 722.628 1136.04C733.04 1146.45 745.405 1154.7 759.014 1160.32C772.622 1165.94 787.207 1168.82 801.931 1168.79H865.712L903.64 1232.59L915.709 1253.27L926.054 1232.59L963.982 1167.07C989.842 1163.62 1012.25 1149.83 1029.5 1132.59C1046.74 1111.9 1058.8 1086.04 1058.8 1056.73V927.433C1058.83 912.709 1055.95 898.124 1050.33 884.515C1044.71 870.905 1036.46 858.54 1026.05 848.128C1015.64 837.717 1003.27 829.464 989.662 823.843C976.053 818.222 961.468 815.343 946.743 815.373L946.751 815.37Z" fill="white"/>
</g>
<path opacity="0.8" d="M946.741 842.956H801.921C790.753 842.683 779.646 844.682 769.274 848.831C758.901 852.98 749.48 859.193 741.58 867.092C733.681 874.991 727.469 884.413 723.32 894.785C719.171 905.158 717.172 916.265 717.444 927.433V1056.75C717.172 1067.91 719.171 1079.02 723.32 1089.39C727.469 1099.77 733.682 1109.19 741.581 1117.09C749.481 1124.99 758.902 1131.2 769.274 1135.35C779.647 1139.5 790.753 1141.5 801.921 1141.22H882.95L886.406 1148.12L915.714 1198.12L943.298 1148.12L946.753 1141.22H955.372C976.065 1139.22 995.198 1129.34 1008.82 1113.64C1023.17 1098.16 1031.17 1077.85 1031.23 1056.75V927.433C1031.5 916.265 1029.5 905.158 1025.35 894.785C1021.21 884.413 1014.99 874.991 1007.09 867.092C999.195 859.193 989.773 852.98 979.401 848.831C969.028 844.682 957.921 842.683 946.753 842.956H946.741Z" fill="#126591"/>
<g opacity="0.8" filter="url(#filter1_d)">
<path d="M446.318 557.844H365.289L361.833 564.74L332.525 614.738L304.941 564.74L301.486 557.844H292.864C272.171 555.84 253.038 545.965 239.418 530.258C225.065 514.783 217.064 494.471 217.006 473.364V344.063C216.734 332.895 218.733 321.788 222.882 311.415C227.03 301.043 233.243 291.621 241.142 283.721C249.042 275.822 258.463 269.609 268.836 265.46C279.208 261.31 290.315 259.311 301.483 259.583H446.318C457.486 259.311 468.593 261.31 478.965 265.46C489.338 269.609 498.759 275.822 506.659 283.721C514.558 291.621 520.77 301.043 524.919 311.415C529.068 321.788 531.067 332.895 530.795 344.063V473.364C531.067 484.532 529.068 495.639 524.919 506.012C520.77 516.384 514.558 525.806 506.658 533.705C498.759 541.605 489.337 547.817 478.965 551.966C468.593 556.115 457.486 558.114 446.318 557.841V557.844ZM301.498 232C286.774 231.971 272.189 234.85 258.58 240.471C244.971 246.093 232.606 254.346 222.195 264.757C211.783 275.169 203.53 287.534 197.909 301.143C192.288 314.752 189.409 329.336 189.438 344.061V473.362C189.438 502.67 201.508 528.531 218.746 549.22C235.987 566.461 258.399 580.251 284.26 583.699L322.187 649.212L332.532 669.902L344.602 649.212L382.53 585.422H446.318C461.042 585.451 475.627 582.573 489.236 576.952C502.845 571.33 515.21 563.077 525.621 552.666C536.033 542.254 544.286 529.889 549.907 516.28C555.529 502.671 558.407 488.086 558.378 473.362V344.063C558.407 329.339 555.528 314.754 549.907 301.145C544.285 287.536 536.032 275.171 525.621 264.76C515.209 254.348 502.844 246.095 489.235 240.474C475.627 234.853 461.042 231.974 446.318 232.003L301.498 232Z" fill="white"/>
</g>
<path opacity="0.8" d="M301.501 259.586H446.32C457.489 259.313 468.597 261.311 478.97 265.46C489.343 269.609 498.766 275.821 506.666 283.721C514.566 291.621 520.779 301.043 524.929 311.416C529.078 321.789 531.077 332.896 530.805 344.065V473.357C531.077 484.525 529.078 495.632 524.929 506.004C520.78 516.377 514.568 525.798 506.668 533.698C498.769 541.597 489.347 547.81 478.975 551.959C468.602 556.107 457.495 558.106 446.327 557.834H365.289L361.833 564.73L332.525 614.728L304.956 564.743L301.501 557.846H292.879C272.186 555.843 253.053 545.967 239.433 530.261C225.08 514.785 217.079 494.474 217.021 473.367V344.065C216.749 332.897 218.747 321.79 222.897 311.417C227.046 301.044 233.258 291.622 241.158 283.723C249.058 275.823 258.479 269.61 268.852 265.461C279.225 261.312 290.332 259.313 301.501 259.586V259.586Z" fill="#552978"/>
<g opacity="0.8" filter="url(#filter2_d)">
<path d="M1947.58 1141.21H1866.56L1863.1 1148.11L1833.79 1198.11L1806.21 1148.11L1802.75 1141.21H1794.13C1773.44 1139.21 1754.3 1129.33 1740.68 1113.63C1726.33 1098.15 1718.33 1077.84 1718.27 1056.74V927.433C1718 916.265 1720 905.158 1724.15 894.786C1728.3 884.413 1734.51 874.992 1742.41 867.092C1750.31 859.193 1759.73 852.98 1770.1 848.831C1780.47 844.682 1791.58 842.684 1802.75 842.956H1947.57C1958.74 842.684 1969.84 844.682 1980.22 848.831C1990.59 852.98 2000.01 859.193 2007.91 867.092C2015.81 874.992 2022.02 884.413 2026.17 894.786C2030.32 905.158 2032.32 916.265 2032.04 927.433V1056.74C2032.32 1067.9 2030.32 1079.01 2026.17 1089.38C2022.02 1099.76 2015.81 1109.18 2007.91 1117.08C2000.01 1124.98 1990.59 1131.19 1980.21 1135.34C1969.84 1139.49 1958.74 1141.49 1947.57 1141.21H1947.58ZM1802.77 815.37C1788.04 815.341 1773.46 818.219 1759.85 823.84C1746.24 829.461 1733.87 837.714 1723.46 848.126C1713.05 858.538 1704.8 870.903 1699.17 884.512C1693.55 898.121 1690.68 912.706 1690.7 927.431V1056.73C1690.7 1086.04 1702.77 1111.9 1720.01 1132.59C1737.25 1149.83 1759.67 1163.62 1785.53 1167.07L1823.45 1232.59L1833.8 1253.27L1845.87 1232.59L1883.8 1168.79H1947.59C1962.31 1168.82 1976.9 1165.95 1990.51 1160.32C2004.11 1154.7 2016.48 1146.45 2026.89 1136.04C2037.3 1125.63 2045.56 1113.26 2051.18 1099.65C2056.8 1086.04 2059.68 1071.46 2059.65 1056.73V927.433C2059.68 912.709 2056.8 898.124 2051.18 884.515C2045.56 870.905 2037.3 858.54 2026.89 848.128C2016.48 837.717 2004.11 829.464 1990.51 823.843C1976.9 818.222 1962.31 815.343 1947.59 815.373L1802.77 815.37Z" fill="white"/>
</g>
<path opacity="0.8" d="M1802.77 842.956H1947.58C1958.75 842.684 1969.86 844.683 1980.23 848.832C1990.6 852.981 2000.03 859.193 2007.93 867.092C2015.83 874.992 2022.04 884.413 2026.19 894.786C2030.34 905.158 2032.33 916.265 2032.06 927.433V1056.75C2032.33 1067.92 2030.34 1079.02 2026.19 1089.39C2022.04 1099.77 2015.82 1109.19 2007.93 1117.09C2000.03 1124.99 1990.6 1131.2 1980.23 1135.35C1969.86 1139.5 1958.75 1141.5 1947.58 1141.22H1866.56L1863.1 1148.12L1833.79 1198.12L1806.21 1148.12L1802.75 1141.22H1794.13C1773.44 1139.22 1754.31 1129.34 1740.69 1113.64C1726.33 1098.16 1718.33 1077.85 1718.27 1056.75V927.433C1718 916.265 1720 905.158 1724.15 894.786C1728.3 884.413 1734.51 874.992 1742.41 867.092C1750.31 859.193 1759.73 852.981 1770.1 848.832C1780.48 844.683 1791.58 842.684 1802.75 842.956H1802.77Z" fill="#478B38"/>
<g opacity="0.8" filter="url(#filter3_d)">
<path d="M1447.16 557.844H1366.14L1362.68 564.74L1333.37 614.738L1305.79 564.74L1302.33 557.844H1293.71C1273.02 555.84 1253.89 545.965 1240.27 530.258C1225.91 514.783 1217.91 494.471 1217.86 473.364V344.063C1217.58 332.895 1219.58 321.788 1223.73 311.415C1227.88 301.043 1234.09 291.621 1241.99 283.721C1249.89 275.822 1259.31 269.609 1269.68 265.46C1280.06 261.31 1291.16 259.311 1302.33 259.583H1447.15C1458.32 259.311 1469.43 261.31 1479.8 265.46C1490.17 269.609 1499.59 275.822 1507.49 283.721C1515.39 291.621 1521.6 301.043 1525.75 311.415C1529.9 321.788 1531.9 332.895 1531.63 344.063V473.364C1531.9 484.532 1529.9 495.639 1525.75 506.012C1521.6 516.384 1515.39 525.806 1507.49 533.705C1499.59 541.605 1490.17 547.817 1479.8 551.966C1469.43 556.115 1458.32 558.114 1447.15 557.841L1447.16 557.844ZM1302.34 232C1287.62 231.971 1273.04 234.85 1259.43 240.471C1245.82 246.092 1233.45 254.345 1223.04 264.757C1212.63 275.168 1204.38 287.533 1198.75 301.142C1193.13 314.751 1190.26 329.336 1190.28 344.061V473.362C1190.28 502.67 1202.35 528.531 1219.59 549.22C1236.83 566.461 1259.25 580.251 1285.11 583.699L1323.03 649.212L1333.38 669.902L1345.45 649.212L1383.38 585.422H1447.17C1461.89 585.452 1476.48 582.573 1490.09 576.952C1503.69 571.331 1516.06 563.078 1526.47 552.666C1536.88 542.255 1545.14 529.89 1550.76 516.28C1556.38 502.671 1559.26 488.086 1559.23 473.362V344.063C1559.26 329.339 1556.38 314.754 1550.76 301.145C1545.14 287.536 1536.88 275.171 1526.47 264.759C1516.06 254.348 1503.69 246.094 1490.08 240.473C1476.48 234.852 1461.89 231.973 1447.17 232.003L1302.34 232Z" fill="white"/>
</g>
<path opacity="0.8" d="M1302.34 259.586H1447.16C1458.33 259.314 1469.44 261.313 1479.81 265.462C1490.18 269.612 1499.6 275.824 1507.5 283.724C1515.4 291.624 1521.61 301.045 1525.76 311.418C1529.91 321.79 1531.91 332.897 1531.64 344.066V473.357C1531.91 484.525 1529.91 495.632 1525.76 506.005C1521.61 516.377 1515.4 525.799 1507.5 533.698C1499.6 541.597 1490.18 547.81 1479.81 551.959C1469.44 556.108 1458.33 558.107 1447.16 557.834H1366.13L1362.68 564.731L1333.37 614.728L1305.78 564.731L1302.33 557.834H1293.71C1273.01 555.831 1253.88 545.956 1240.26 530.249C1225.91 514.773 1217.91 494.461 1217.85 473.355V344.066C1217.58 332.897 1219.57 321.79 1223.72 311.418C1227.87 301.045 1234.08 291.624 1241.98 283.724C1249.88 275.824 1259.3 269.612 1269.68 265.462C1280.05 261.313 1291.16 259.314 1302.33 259.586H1302.34Z" fill="#AE2225"/>
<g opacity="0.8" filter="url(#filter4_d)">
<path d="M301.498 1141.21C290.33 1141.49 279.223 1139.49 268.851 1135.34C258.479 1131.19 249.057 1124.98 241.158 1117.08C233.259 1109.18 227.046 1099.76 222.897 1089.38C218.748 1079.01 216.749 1067.9 217.021 1056.74V927.433C216.749 916.265 218.747 905.158 222.896 894.786C227.045 884.413 233.258 874.992 241.157 867.092C249.057 859.193 258.478 852.98 268.851 848.831C279.223 844.682 290.33 842.684 301.498 842.956H446.318C457.486 842.684 468.593 844.682 478.965 848.831C489.337 852.98 498.759 859.193 506.658 867.092C514.558 874.992 520.77 884.413 524.919 894.786C529.068 905.158 531.067 916.265 530.795 927.433V1056.74C530.737 1077.84 522.735 1098.15 508.383 1113.63C494.761 1129.34 475.626 1139.21 454.932 1141.21H446.318L442.862 1148.11L415.276 1198.11L385.968 1148.11L382.512 1141.21H301.498ZM446.318 815.37H301.498C286.774 815.341 272.189 818.22 258.58 823.841C244.971 829.462 232.606 837.715 222.194 848.127C211.783 858.538 203.529 870.903 197.908 884.512C192.287 898.121 189.409 912.707 189.438 927.431V1056.73C189.409 1071.46 192.288 1086.04 197.909 1099.65C203.53 1113.26 211.783 1125.63 222.195 1136.04C232.606 1146.45 244.971 1154.7 258.58 1160.32C272.189 1165.94 286.774 1168.82 301.498 1168.79H365.289L403.216 1232.59L415.286 1253.27L425.631 1232.59L463.571 1167.07C489.431 1163.62 511.843 1149.83 529.084 1132.59C546.325 1111.91 558.393 1086.05 558.393 1056.74V927.433C558.422 912.709 555.543 898.124 549.922 884.515C544.301 870.906 536.048 858.541 525.636 848.129C515.225 837.718 502.86 829.465 489.251 823.843C475.642 818.222 461.057 815.344 446.332 815.373" fill="white"/>
</g>
<path opacity="0.8" d="M446.318 842.956H301.501C290.332 842.683 279.225 844.682 268.853 848.831C258.481 852.98 249.059 859.193 241.16 867.092C233.26 874.991 227.048 884.413 222.899 894.785C218.75 905.158 216.751 916.265 217.023 927.433V1056.75C216.752 1067.91 218.752 1079.02 222.902 1089.39C227.051 1099.76 233.264 1109.18 241.163 1117.08C249.062 1124.98 258.483 1131.19 268.855 1135.34C279.227 1139.49 290.333 1141.49 301.501 1141.22H382.53L385.985 1148.11L415.289 1198.11L442.874 1148.11L446.33 1141.21H454.949C475.642 1139.21 494.774 1129.33 508.395 1113.63C522.744 1098.16 530.745 1077.85 530.805 1056.75V927.433C531.077 916.265 529.078 905.158 524.929 894.785C520.78 884.413 514.568 874.991 506.668 867.092C498.769 859.193 489.347 852.98 478.975 848.831C468.603 844.682 457.495 842.683 446.327 842.956" fill="#B260A2"/>
<g opacity="0.8" filter="url(#filter5_d)">
<path d="M801.931 557.844C790.763 558.116 779.656 556.117 769.284 551.969C758.911 547.82 749.49 541.607 741.59 533.708C733.691 525.808 727.478 516.387 723.33 506.014C719.181 495.642 717.182 484.535 717.454 473.367V344.063C717.182 332.895 719.181 321.788 723.33 311.416C727.479 301.044 733.692 291.622 741.591 283.723C749.49 275.824 758.912 269.611 769.284 265.462C779.656 261.313 790.763 259.314 801.931 259.586H946.751C957.919 259.314 969.026 261.313 979.399 265.462C989.771 269.611 999.192 275.824 1007.09 283.724C1014.99 291.623 1021.2 301.045 1025.35 311.418C1029.5 321.79 1031.5 332.897 1031.23 344.065V473.367C1031.17 494.474 1023.17 514.785 1008.82 530.261C995.196 545.968 976.063 555.843 955.37 557.846H946.751L943.295 564.743L915.719 614.738L886.411 564.74L882.955 557.844H801.931ZM946.751 232H801.931C787.207 231.971 772.622 234.85 759.014 240.471C745.405 246.093 733.04 254.346 722.628 264.757C712.217 275.169 703.963 287.534 698.342 301.143C692.721 314.752 689.842 329.336 689.871 344.061V473.362C689.842 488.086 692.72 502.671 698.341 516.28C703.963 529.889 712.216 542.254 722.627 552.666C733.039 563.077 745.404 571.33 759.013 576.952C772.622 582.573 787.207 585.451 801.931 585.422H865.712L903.64 649.212L915.709 669.902L926.054 649.212L963.982 583.699C989.842 580.244 1012.25 566.458 1029.5 549.22C1046.74 528.531 1058.8 502.67 1058.8 473.362V344.063C1058.83 329.339 1055.95 314.754 1050.33 301.145C1044.71 287.536 1036.46 275.171 1026.05 264.759C1015.64 254.348 1003.27 246.094 989.662 240.473C976.053 234.852 961.467 231.973 946.743 232.003" fill="white"/>
</g>
<path opacity="0.8" d="M946.741 259.586H801.921C790.753 259.314 779.646 261.313 769.274 265.462C758.901 269.612 749.48 275.824 741.58 283.724C733.681 291.624 727.469 301.045 723.32 311.418C719.171 321.79 717.172 332.897 717.444 344.066V473.357C717.172 484.525 719.171 495.632 723.32 506.005C727.469 516.377 733.681 525.799 741.58 533.698C749.48 541.597 758.901 547.81 769.274 551.959C779.646 556.108 790.753 558.107 801.921 557.834H882.95L886.406 564.731L915.714 614.728L943.298 564.731L946.753 557.834H955.372C976.065 555.831 995.198 545.956 1008.82 530.249C1023.17 514.773 1031.17 494.462 1031.23 473.355V344.066C1031.5 332.897 1029.5 321.79 1025.35 311.418C1021.21 301.045 1014.99 291.624 1007.09 283.724C999.195 275.824 989.773 269.612 979.401 265.462C969.028 261.313 957.921 259.314 946.753 259.586" fill="#61AFD7"/>
<g opacity="0.8" filter="url(#filter6_d)">
<path d="M1302.34 1141.21C1291.18 1141.49 1280.07 1139.49 1269.7 1135.34C1259.33 1131.19 1249.9 1124.98 1242 1117.08C1234.11 1109.18 1227.89 1099.76 1223.74 1089.38C1219.59 1079.01 1217.6 1067.9 1217.87 1056.74V927.433C1217.59 916.265 1219.59 905.158 1223.74 894.786C1227.89 884.413 1234.1 874.992 1242 867.092C1249.9 859.193 1259.32 852.98 1269.7 848.831C1280.07 844.682 1291.18 842.684 1302.34 842.956H1447.16C1458.33 842.684 1469.44 844.682 1479.81 848.831C1490.18 852.98 1499.61 859.193 1507.5 867.092C1515.4 874.992 1521.62 884.413 1525.77 894.786C1529.91 905.158 1531.91 916.265 1531.64 927.433V1056.74C1531.58 1077.84 1523.58 1098.15 1509.23 1113.63C1495.61 1129.33 1476.48 1139.21 1455.79 1141.21H1447.16L1443.71 1148.11L1416.13 1198.11L1386.82 1148.11L1383.37 1141.21H1302.34ZM1447.16 815.37H1302.34C1287.62 815.341 1273.03 818.219 1259.43 823.84C1245.82 829.461 1233.45 837.714 1223.04 848.126C1212.63 858.538 1204.38 870.903 1198.75 884.512C1193.13 898.121 1190.25 912.706 1190.28 927.431V1056.73C1190.25 1071.46 1193.13 1086.04 1198.75 1099.65C1204.38 1113.26 1212.63 1125.63 1223.04 1136.04C1233.45 1146.45 1245.82 1154.7 1259.43 1160.32C1273.04 1165.95 1287.62 1168.82 1302.34 1168.79H1366.14L1404.07 1232.59L1416.13 1253.27L1426.48 1232.59L1464.41 1167.07C1490.27 1163.62 1512.68 1149.83 1529.92 1132.59C1547.16 1111.9 1559.23 1086.04 1559.23 1056.73V927.433C1559.26 912.709 1556.38 898.124 1550.76 884.515C1545.14 870.905 1536.89 858.54 1526.47 848.128C1516.06 837.717 1503.7 829.464 1490.09 823.843C1476.48 818.222 1461.89 815.343 1447.17 815.373" fill="white"/>
</g>
<path opacity="0.8" d="M1447.16 842.956H1302.34C1291.17 842.684 1280.07 844.683 1269.69 848.832C1259.32 852.981 1249.9 859.193 1242 867.092C1234.1 874.992 1227.89 884.413 1223.74 894.786C1219.59 905.158 1217.59 916.265 1217.86 927.433V1056.75C1217.59 1067.92 1219.59 1079.02 1223.74 1089.39C1227.89 1099.77 1234.1 1109.19 1242 1117.09C1249.9 1124.99 1259.32 1131.2 1269.7 1135.35C1280.07 1139.5 1291.17 1141.5 1302.34 1141.22H1383.37L1386.83 1148.12L1416.14 1198.12L1443.72 1148.12L1447.18 1141.22H1455.8C1476.49 1139.22 1495.62 1129.34 1509.24 1113.64C1523.59 1098.16 1531.6 1077.85 1531.65 1056.75V927.433C1531.93 916.265 1529.93 905.158 1525.78 894.786C1521.63 884.413 1515.42 874.992 1507.52 867.092C1499.62 859.193 1490.2 852.981 1479.82 848.832C1469.45 844.683 1458.34 842.684 1447.18 842.956" fill="#F48A34"/>
<g opacity="0.8" filter="url(#filter7_d)">
<path d="M1947.58 557.844H1866.56L1863.1 564.74L1833.79 614.738L1806.21 564.74L1802.75 557.844H1794.13C1773.44 555.84 1754.3 545.965 1740.68 530.258C1726.33 514.783 1718.33 494.471 1718.27 473.364V344.063C1718 332.895 1720 321.788 1724.15 311.415C1728.3 301.043 1734.51 291.621 1742.41 283.721C1750.31 275.822 1759.73 269.609 1770.1 265.46C1780.47 261.31 1791.58 259.311 1802.75 259.583H1947.57C1958.74 259.311 1969.84 261.31 1980.22 265.46C1990.59 269.609 2000.01 275.822 2007.91 283.721C2015.81 291.621 2022.02 301.043 2026.17 311.415C2030.32 321.788 2032.32 332.895 2032.04 344.063V473.364C2032.32 484.532 2030.32 495.639 2026.17 506.012C2022.02 516.384 2015.81 525.806 2007.91 533.705C2000.01 541.605 1990.59 547.817 1980.22 551.966C1969.84 556.115 1958.74 558.114 1947.57 557.841L1947.58 557.844ZM1802.77 232C1788.04 231.971 1773.46 234.85 1759.85 240.471C1746.24 246.092 1733.87 254.345 1723.46 264.757C1713.05 275.168 1704.8 287.533 1699.18 301.142C1693.55 314.751 1690.68 329.336 1690.7 344.061V473.362C1690.7 502.67 1702.77 528.531 1720.01 549.22C1737.25 566.461 1759.67 580.251 1785.53 583.699L1823.45 649.212L1833.8 669.902L1845.87 649.212L1883.8 585.422H1947.59C1962.31 585.452 1976.9 582.573 1990.51 576.952C2004.11 571.331 2016.48 563.078 2026.89 552.666C2037.3 542.255 2045.56 529.89 2051.18 516.28C2056.8 502.671 2059.68 488.086 2059.65 473.362V344.063C2059.68 329.339 2056.8 314.754 2051.18 301.145C2045.56 287.536 2037.3 275.171 2026.89 264.759C2016.48 254.348 2004.11 246.094 1990.51 240.473C1976.9 234.852 1962.31 231.973 1947.59 232.003L1802.77 232Z" fill="white"/>
</g>
<path opacity="0.8" d="M1802.77 259.586H1947.58C1958.75 259.314 1969.86 261.313 1980.23 265.462C1990.6 269.612 2000.03 275.824 2007.93 283.724C2015.83 291.624 2022.04 301.045 2026.19 311.418C2030.34 321.79 2032.33 332.897 2032.06 344.066V473.357C2032.33 484.525 2030.34 495.632 2026.19 506.005C2022.04 516.377 2015.83 525.799 2007.93 533.698C2000.03 541.597 1990.6 547.81 1980.23 551.959C1969.86 556.108 1958.75 558.107 1947.58 557.834H1866.56L1863.1 564.731L1833.79 614.728L1806.21 564.731L1802.75 557.834H1794.13C1773.44 555.83 1754.31 545.955 1740.69 530.249C1726.33 514.773 1718.33 494.461 1718.27 473.355V344.066C1718 332.897 1720 321.79 1724.15 311.418C1728.3 301.045 1734.51 291.624 1742.41 283.724C1750.31 275.824 1759.73 269.612 1770.1 265.462C1780.48 261.313 1791.58 259.314 1802.75 259.586H1802.77Z" fill="#D7C314"/>
<defs>
<filter id="filter0_d" x="649.871" y="805.37" width="448.933" height="517.904" filterUnits="userSpaceOnUse" color-interpolation-filters="sRGB">
<feFlood flood-opacity="0" result="BackgroundImageFix"/>
<feColorMatrix in="SourceAlpha" type="matrix" values="0 0 0 0 0 0 0 0 0 0 0 0 0 0 0 0 0 0 127 0"/>
<feOffset dy="30"/>
<feGaussianBlur stdDeviation="20"/>
<feColorMatrix type="matrix" values="0 0 0 0 0 0 0 0 0 0 0 0 0 0 0 0 0 0 0.12 0"/>
<feBlend mode="normal" in2="BackgroundImageFix" result="effect1_dropShadow"/>
<feBlend mode="normal" in="SourceGraphic" in2="effect1_dropShadow" result="shape"/>
</filter>
<filter id="filter1_d" x="149.438" y="222" width="448.94" height="517.902" filterUnits="userSpaceOnUse" color-interpolation-filters="sRGB">
<feFlood flood-opacity="0" result="BackgroundImageFix"/>
<feColorMatrix in="SourceAlpha" type="matrix" values="0 0 0 0 0 0 0 0 0 0 0 0 0 0 0 0 0 0 127 0"/>
<feOffset dy="30"/>
<feGaussianBlur stdDeviation="20"/>
<feColorMatrix type="matrix" values="0 0 0 0 0 0 0 0 0 0 0 0 0 0 0 0 0 0 0.12 0"/>
<feBlend mode="normal" in2="BackgroundImageFix" result="effect1_dropShadow"/>
<feBlend mode="normal" in="SourceGraphic" in2="effect1_dropShadow" result="shape"/>
</filter>
<filter id="filter2_d" x="1650.7" y="805.37" width="448.943" height="517.904" filterUnits="userSpaceOnUse" color-interpolation-filters="sRGB">
<feFlood flood-opacity="0" result="BackgroundImageFix"/>
<feColorMatrix in="SourceAlpha" type="matrix" values="0 0 0 0 0 0 0 0 0 0 0 0 0 0 0 0 0 0 127 0"/>
<feOffset dy="30"/>
<feGaussianBlur stdDeviation="20"/>
<feColorMatrix type="matrix" values="0 0 0 0 0 0 0 0 0 0 0 0 0 0 0 0 0 0 0.12 0"/>
<feBlend mode="normal" in2="BackgroundImageFix" result="effect1_dropShadow"/>
<feBlend mode="normal" in="SourceGraphic" in2="effect1_dropShadow" result="shape"/>
</filter>
<filter id="filter3_d" x="1150.28" y="222" width="448.943" height="517.902" filterUnits="userSpaceOnUse" color-interpolation-filters="sRGB">
<feFlood flood-opacity="0" result="BackgroundImageFix"/>
<feColorMatrix in="SourceAlpha" type="matrix" values="0 0 0 0 0 0 0 0 0 0 0 0 0 0 0 0 0 0 127 0"/>
<feOffset dy="30"/>
<feGaussianBlur stdDeviation="20"/>
<feColorMatrix type="matrix" values="0 0 0 0 0 0 0 0 0 0 0 0 0 0 0 0 0 0 0.12 0"/>
<feBlend mode="normal" in2="BackgroundImageFix" result="effect1_dropShadow"/>
<feBlend mode="normal" in="SourceGraphic" in2="effect1_dropShadow" result="shape"/>
</filter>
<filter id="filter4_d" x="149.438" y="805.37" width="448.955" height="517.904" filterUnits="userSpaceOnUse" color-interpolation-filters="sRGB">
<feFlood flood-opacity="0" result="BackgroundImageFix"/>
<feColorMatrix in="SourceAlpha" type="matrix" values="0 0 0 0 0 0 0 0 0 0 0 0 0 0 0 0 0 0 127 0"/>
<feOffset dy="30"/>
<feGaussianBlur stdDeviation="20"/>
<feColorMatrix type="matrix" values="0 0 0 0 0 0 0 0 0 0 0 0 0 0 0 0 0 0 0.12 0"/>
<feBlend mode="normal" in2="BackgroundImageFix" result="effect1_dropShadow"/>
<feBlend mode="normal" in="SourceGraphic" in2="effect1_dropShadow" result="shape"/>
</filter>
<filter id="filter5_d" x="649.871" y="222" width="448.933" height="517.902" filterUnits="userSpaceOnUse" color-interpolation-filters="sRGB">
<feFlood flood-opacity="0" result="BackgroundImageFix"/>
<feColorMatrix in="SourceAlpha" type="matrix" values="0 0 0 0 0 0 0 0 0 0 0 0 0 0 0 0 0 0 127 0"/>
<feOffset dy="30"/>
<feGaussianBlur stdDeviation="20"/>
<feColorMatrix type="matrix" values="0 0 0 0 0 0 0 0 0 0 0 0 0 0 0 0 0 0 0.12 0"/>
<feBlend mode="normal" in2="BackgroundImageFix" result="effect1_dropShadow"/>
<feBlend mode="normal" in="SourceGraphic" in2="effect1_dropShadow" result="shape"/>
</filter>
<filter id="filter6_d" x="1150.28" y="805.37" width="448.945" height="517.904" filterUnits="userSpaceOnUse" color-interpolation-filters="sRGB">
<feFlood flood-opacity="0" result="BackgroundImageFix"/>
<feColorMatrix in="SourceAlpha" type="matrix" values="0 0 0 0 0 0 0 0 0 0 0 0 0 0 0 0 0 0 127 0"/>
<feOffset dy="30"/>
<feGaussianBlur stdDeviation="20"/>
<feColorMatrix type="matrix" values="0 0 0 0 0 0 0 0 0 0 0 0 0 0 0 0 0 0 0.12 0"/>
<feBlend mode="normal" in2="BackgroundImageFix" result="effect1_dropShadow"/>
<feBlend mode="normal" in="SourceGraphic" in2="effect1_dropShadow" result="shape"/>
</filter>
<filter id="filter7_d" x="1650.7" y="222" width="448.943" height="517.902" filterUnits="userSpaceOnUse" color-interpolation-filters="sRGB">
<feFlood flood-opacity="0" result="BackgroundImageFix"/>
<feColorMatrix in="SourceAlpha" type="matrix" values="0 0 0 0 0 0 0 0 0 0 0 0 0 0 0 0 0 0 127 0"/>
<feOffset dy="30"/>
<feGaussianBlur stdDeviation="20"/>
<feColorMatrix type="matrix" values="0 0 0 0 0 0 0 0 0 0 0 0 0 0 0 0 0 0 0.12 0"/>
<feBlend mode="normal" in2="BackgroundImageFix" result="effect1_dropShadow"/>
<feBlend mode="normal" in="SourceGraphic" in2="effect1_dropShadow" result="shape"/>
</filter>
</defs>
</svg>
