<svg width="156" height="156" viewBox="0 0 156 156" fill="none" xmlns="http://www.w3.org/2000/svg">
<circle cx="78" cy="78" r="78" fill="url(#paint0_linear)"/>
<path d="M73.7307 41.9271H62.2339V113.828H73.7307V41.9271Z" fill="white"/>
<path d="M93.767 41.9271H82.2702V113.828H93.767V41.9271Z" fill="white"/>
<path d="M113.804 41.9271H102.307V113.828H113.804V41.9271Z" fill="white"/>
<path d="M53.6944 37.9866V24.5257C53.6944 24.1975 53.6944 24.1975 53.3661 24.1975C51.8961 24.1852 50.4383 24.4655 49.0778 25.0221C47.7173 25.5787 46.4813 26.4004 45.4417 27.4394C44.4022 28.4784 43.58 29.7138 43.023 31.0736C42.4661 32.4335 42.1855 33.8905 42.1977 35.3599V37.9866H53.6944Z" fill="white"/>
<path d="M42.1977 41.9271V131.23C42.1977 131.558 42.1977 131.558 42.5261 131.558C43.9961 131.57 45.454 131.29 46.8145 130.733C48.1751 130.177 49.4112 129.355 50.4507 128.316C51.4903 127.277 52.3125 126.041 52.8694 124.681C53.4263 123.321 53.7067 121.864 53.6944 120.395V41.9271H42.1977Z" fill="white"/>
<defs>
<linearGradient id="paint0_linear" x1="78" y1="0" x2="78" y2="156" gradientUnits="userSpaceOnUse">
<stop stop-color="#1F90A3"/>
<stop offset="1" stop-color="#1F90A3"/>
</linearGradient>
</defs>
</svg>
