<svg xmlns="http://www.w3.org/2000/svg" xmlns:xlink="http://www.w3.org/1999/xlink" width="1000" height="660" viewBox="0 0 1000 660"><defs><clipPath id="a"><rect width="985.923" height="650" fill="none"/></clipPath><clipPath id="b"><rect width="985.923" height="640.684" fill="none"/></clipPath><clipPath id="d"><rect width="1000" height="660"/></clipPath></defs><g id="c" clip-path="url(#d)"><g transform="translate(7 4.5)" opacity="0.201"><g transform="translate(0 0.5)" clip-path="url(#a)"><g transform="translate(0 -0.5)"><path d="M0,0V660" transform="translate(6.5 0.5)" fill="none" stroke="rgba(6,35,43,0.5)" stroke-width="1"/></g><g transform="translate(21 -0.5)"><path d="M0,0V660" transform="translate(6.5 0.5)" fill="none" stroke="rgba(6,35,43,0.5)" stroke-width="1"/></g><g transform="translate(42 -0.5)"><path d="M0,0V660" transform="translate(6.5 0.5)" fill="none" stroke="rgba(6,35,43,0.5)" stroke-width="1"/></g><g transform="translate(63 -0.5)"><path d="M0,0V660" transform="translate(6.5 0.5)" fill="none" stroke="rgba(6,35,43,0.5)" stroke-width="1"/></g><g transform="translate(84 -0.5)"><path d="M0,0V660" transform="translate(6.5 0.5)" fill="none" stroke="rgba(6,35,43,0.5)" stroke-width="1"/></g><g transform="translate(105 -0.5)"><path d="M0,0V660" transform="translate(6.5 0.5)" fill="none" stroke="rgba(6,35,43,0.5)" stroke-width="1"/></g><g transform="translate(126 -0.5)"><path d="M0,0V660" transform="translate(6.5 0.5)" fill="none" stroke="rgba(6,35,43,0.5)" stroke-width="1"/></g><g transform="translate(147 -0.5)"><path d="M0,0V660" transform="translate(6.5 0.5)" fill="none" stroke="rgba(6,35,43,0.5)" stroke-width="1"/></g><g transform="translate(168 -0.5)"><path d="M0,0V660" transform="translate(6.5 0.5)" fill="none" stroke="rgba(6,35,43,0.5)" stroke-width="1"/></g><g transform="translate(189 -0.5)"><path d="M0,0V660" transform="translate(6.5 0.5)" fill="none" stroke="rgba(6,35,43,0.5)" stroke-width="1"/></g><g transform="translate(210 -0.5)"><path d="M0,0V660" transform="translate(6.5 0.5)" fill="none" stroke="rgba(6,35,43,0.5)" stroke-width="1"/></g><g transform="translate(231 -0.5)"><path d="M0,0V660" transform="translate(6.5 0.5)" fill="none" stroke="rgba(6,35,43,0.5)" stroke-width="1"/></g><g transform="translate(252 -0.5)"><path d="M0,0V660" transform="translate(6.5 0.5)" fill="none" stroke="rgba(6,35,43,0.5)" stroke-width="1"/></g><g transform="translate(273 -0.5)"><path d="M0,0V660" transform="translate(6.5 0.5)" fill="none" stroke="rgba(6,35,43,0.5)" stroke-width="1"/></g><g transform="translate(294 -0.5)"><path d="M0,0V660" transform="translate(6.5 0.5)" fill="none" stroke="rgba(6,35,43,0.5)" stroke-width="1"/></g><g transform="translate(315 -0.5)"><path d="M0,0V660" transform="translate(6.5 0.5)" fill="none" stroke="rgba(6,35,43,0.5)" stroke-width="1"/></g><g transform="translate(336 -0.5)"><path d="M0,0V660" transform="translate(6.5 0.5)" fill="none" stroke="rgba(6,35,43,0.5)" stroke-width="1"/></g><g transform="translate(357 -0.5)"><path d="M0,0V660" transform="translate(6.5 0.5)" fill="none" stroke="rgba(6,35,43,0.5)" stroke-width="1"/></g><g transform="translate(378 -0.5)"><path d="M0,0V660" transform="translate(6.5 0.5)" fill="none" stroke="rgba(6,35,43,0.5)" stroke-width="1"/></g><g transform="translate(399 -0.5)"><path d="M0,0V660" transform="translate(6.5 0.5)" fill="none" stroke="rgba(6,35,43,0.5)" stroke-width="1"/></g><g transform="translate(420 -0.5)"><path d="M0,0V660" transform="translate(6.5 0.5)" fill="none" stroke="rgba(6,35,43,0.5)" stroke-width="1"/></g><g transform="translate(441 -0.5)"><path d="M0,0V660" transform="translate(6.5 0.5)" fill="none" stroke="rgba(6,35,43,0.5)" stroke-width="1"/></g><g transform="translate(462 -0.5)"><path d="M0,0V660" transform="translate(6.5 0.5)" fill="none" stroke="rgba(6,35,43,0.5)" stroke-width="1"/></g><g transform="translate(483 -0.5)"><path d="M0,0V660" transform="translate(6.5 0.5)" fill="none" stroke="rgba(6,35,43,0.5)" stroke-width="1"/></g><g transform="translate(504 -0.5)"><path d="M0,0V660" transform="translate(6.5 0.5)" fill="none" stroke="rgba(6,35,43,0.5)" stroke-width="1"/></g><g transform="translate(525 -0.5)"><path d="M0,0V660" transform="translate(6.5 0.5)" fill="none" stroke="rgba(6,35,43,0.5)" stroke-width="1"/></g><g transform="translate(546 -0.5)"><path d="M0,0V660" transform="translate(6.5 0.5)" fill="none" stroke="rgba(6,35,43,0.5)" stroke-width="1"/></g><g transform="translate(567 -0.5)"><path d="M0,0V660" transform="translate(6.5 0.5)" fill="none" stroke="rgba(6,35,43,0.5)" stroke-width="1"/></g><g transform="translate(588 -0.5)"><path d="M0,0V660" transform="translate(6.5 0.5)" fill="none" stroke="rgba(6,35,43,0.5)" stroke-width="1"/></g><g transform="translate(609 -0.5)"><path d="M0,0V660" transform="translate(6.5 0.5)" fill="none" stroke="rgba(6,35,43,0.5)" stroke-width="1"/></g><g transform="translate(630 -0.5)"><path d="M0,0V660" transform="translate(6.5 0.5)" fill="none" stroke="rgba(6,35,43,0.5)" stroke-width="1"/></g><g transform="translate(651 -0.5)"><path d="M0,0V660" transform="translate(6.5 0.5)" fill="none" stroke="rgba(6,35,43,0.5)" stroke-width="1"/></g><g transform="translate(672 -0.5)"><path d="M0,0V660" transform="translate(6.5 0.5)" fill="none" stroke="rgba(6,35,43,0.5)" stroke-width="1"/></g><g transform="translate(693 -0.5)"><path d="M0,0V660" transform="translate(6.5 0.5)" fill="none" stroke="rgba(6,35,43,0.5)" stroke-width="1"/></g><g transform="translate(714 -0.5)"><path d="M0,0V660" transform="translate(6.5 0.5)" fill="none" stroke="rgba(6,35,43,0.5)" stroke-width="1"/></g><g transform="translate(735 -0.5)"><path d="M0,0V660" transform="translate(6.5 0.5)" fill="none" stroke="rgba(6,35,43,0.5)" stroke-width="1"/></g><g transform="translate(756 -0.5)"><path d="M0,0V660" transform="translate(6.5 0.5)" fill="none" stroke="rgba(6,35,43,0.5)" stroke-width="1"/></g><g transform="translate(777 -0.5)"><path d="M0,0V660" transform="translate(6.5 0.5)" fill="none" stroke="rgba(6,35,43,0.5)" stroke-width="1"/></g><g transform="translate(798 -0.5)"><path d="M0,0V660" transform="translate(6.5 0.5)" fill="none" stroke="rgba(6,35,43,0.5)" stroke-width="1"/></g><g transform="translate(819 -0.5)"><path d="M0,0V660" transform="translate(6.5 0.5)" fill="none" stroke="rgba(6,35,43,0.5)" stroke-width="1"/></g><g transform="translate(840 -0.5)"><path d="M0,0V660" transform="translate(6.5 0.5)" fill="none" stroke="rgba(6,35,43,0.5)" stroke-width="1"/></g><g transform="translate(861 -0.5)"><path d="M0,0V660" transform="translate(6.5 0.5)" fill="none" stroke="rgba(6,35,43,0.5)" stroke-width="1"/></g><g transform="translate(882 -0.5)"><path d="M0,0V660" transform="translate(6.5 0.5)" fill="none" stroke="rgba(6,35,43,0.5)" stroke-width="1"/></g><g transform="translate(903 -0.5)"><path d="M0,0V660" transform="translate(6.5 0.5)" fill="none" stroke="rgba(6,35,43,0.5)" stroke-width="1"/></g><g transform="translate(924 -0.5)"><path d="M0,0V660" transform="translate(6.5 0.5)" fill="none" stroke="rgba(6,35,43,0.5)" stroke-width="1"/></g><g transform="translate(945 -0.5)"><path d="M0,0V660" transform="translate(6.5 0.5)" fill="none" stroke="rgba(6,35,43,0.5)" stroke-width="1"/></g><g transform="translate(966 -0.5)"><path d="M0,0V660" transform="translate(6.5 0.5)" fill="none" stroke="rgba(6,35,43,0.5)" stroke-width="1"/></g></g><g transform="translate(0.932 5.624)" clip-path="url(#b)"><g transform="translate(-0.5)"><line x2="1000" transform="translate(0.5 9.5)" fill="none" stroke="rgba(6,35,43,0.5)" stroke-width="1"/></g><g transform="translate(-0.5 21)"><line x2="1000" transform="translate(0.5 9.5)" fill="none" stroke="rgba(6,35,43,0.5)" stroke-width="1"/></g><g transform="translate(-0.5 42)"><line x2="1000" transform="translate(0.5 9.5)" fill="none" stroke="rgba(6,35,43,0.5)" stroke-width="1"/></g><g transform="translate(-0.5 63)"><line x2="1000" transform="translate(0.5 9.5)" fill="none" stroke="rgba(6,35,43,0.5)" stroke-width="1"/></g><g transform="translate(-0.5 84)"><line x2="1000" transform="translate(0.5 9.5)" fill="none" stroke="rgba(6,35,43,0.5)" stroke-width="1"/></g><g transform="translate(-0.5 105)"><line x2="1000" transform="translate(0.5 9.5)" fill="none" stroke="rgba(6,35,43,0.5)" stroke-width="1"/></g><g transform="translate(-0.5 126)"><line x2="1000" transform="translate(0.5 9.5)" fill="none" stroke="rgba(6,35,43,0.5)" stroke-width="1"/></g><g transform="translate(-0.5 147)"><line x2="1000" transform="translate(0.5 9.5)" fill="none" stroke="rgba(6,35,43,0.5)" stroke-width="1"/></g><g transform="translate(-0.5 168)"><line x2="1000" transform="translate(0.5 9.5)" fill="none" stroke="rgba(6,35,43,0.5)" stroke-width="1"/></g><g transform="translate(-0.5 189)"><line x2="1000" transform="translate(0.5 9.5)" fill="none" stroke="rgba(6,35,43,0.5)" stroke-width="1"/></g><g transform="translate(-0.5 210)"><line x2="1000" transform="translate(0.5 9.5)" fill="none" stroke="rgba(6,35,43,0.5)" stroke-width="1"/></g><g transform="translate(-0.5 231)"><line x2="1000" transform="translate(0.5 9.5)" fill="none" stroke="rgba(6,35,43,0.5)" stroke-width="1"/></g><g transform="translate(-0.5 252)"><line x2="1000" transform="translate(0.5 9.5)" fill="none" stroke="rgba(6,35,43,0.5)" stroke-width="1"/></g><g transform="translate(-0.5 273)"><line x2="1000" transform="translate(0.5 9.5)" fill="none" stroke="rgba(6,35,43,0.5)" stroke-width="1"/></g><g transform="translate(-0.5 294)"><line x2="1000" transform="translate(0.5 9.5)" fill="none" stroke="rgba(6,35,43,0.5)" stroke-width="1"/></g><g transform="translate(-0.5 315)"><line x2="1000" transform="translate(0.5 9.5)" fill="none" stroke="rgba(6,35,43,0.5)" stroke-width="1"/></g><g transform="translate(-0.5 336)"><line x2="1000" transform="translate(0.5 9.5)" fill="none" stroke="rgba(6,35,43,0.5)" stroke-width="1"/></g><g transform="translate(-0.5 357)"><line x2="1000" transform="translate(0.5 9.5)" fill="none" stroke="rgba(6,35,43,0.5)" stroke-width="1"/></g><g transform="translate(-0.5 378)"><line x2="1000" transform="translate(0.5 9.5)" fill="none" stroke="rgba(6,35,43,0.5)" stroke-width="1"/></g><g transform="translate(-0.5 399)"><line x2="1000" transform="translate(0.5 9.5)" fill="none" stroke="rgba(6,35,43,0.5)" stroke-width="1"/></g><g transform="translate(-0.5 420)"><line x2="1000" transform="translate(0.5 9.5)" fill="none" stroke="rgba(6,35,43,0.5)" stroke-width="1"/></g><g transform="translate(-0.5 441)"><line x2="1000" transform="translate(0.5 9.5)" fill="none" stroke="rgba(6,35,43,0.5)" stroke-width="1"/></g><g transform="translate(-0.5 462)"><line x2="1000" transform="translate(0.5 9.5)" fill="none" stroke="rgba(6,35,43,0.5)" stroke-width="1"/></g><g transform="translate(-0.5 483)"><line x2="1000" transform="translate(0.5 9.5)" fill="none" stroke="rgba(6,35,43,0.5)" stroke-width="1"/></g><g transform="translate(-0.5 504)"><line x2="1000" transform="translate(0.5 9.5)" fill="none" stroke="rgba(6,35,43,0.5)" stroke-width="1"/></g><g transform="translate(-0.5 525)"><line x2="1000" transform="translate(0.5 9.5)" fill="none" stroke="rgba(6,35,43,0.5)" stroke-width="1"/></g><g transform="translate(-0.5 546)"><line x2="1000" transform="translate(0.5 9.5)" fill="none" stroke="rgba(6,35,43,0.5)" stroke-width="1"/></g><g transform="translate(-0.5 567)"><line x2="1000" transform="translate(0.5 9.5)" fill="none" stroke="rgba(6,35,43,0.5)" stroke-width="1"/></g><g transform="translate(-0.5 588)"><line x2="1000" transform="translate(0.5 9.5)" fill="none" stroke="rgba(6,35,43,0.5)" stroke-width="1"/></g><g transform="translate(-0.5 609)"><line x2="1000" transform="translate(0.5 9.5)" fill="none" stroke="rgba(6,35,43,0.5)" stroke-width="1"/></g><g transform="translate(-0.5 630)"><line x2="1000" transform="translate(0.5 9.5)" fill="none" stroke="rgba(6,35,43,0.5)" stroke-width="1"/></g></g></g></g></svg>