<svg width="2250" height="1485" viewBox="0 0 2250 1485" fill="none" xmlns="http://www.w3.org/2000/svg">
<g filter="url(#filter0_d)">
<path d="M428 1046.07V1008.21H472.049V1034.19C472.049 1057.08 480.564 1068.52 497.597 1068.52C516.978 1068.52 526.669 1056.34 526.669 1031.98C526.669 1017.6 524.467 1006.45 520.062 998.525C514.776 988.253 501.268 972.405 479.537 950.98C462.211 933.663 450.024 919.428 442.977 908.276C432.992 891.547 428 873.497 428 854.126C428 804.525 452.08 779.725 500.24 779.725C521.97 779.725 539.149 785.595 551.777 797.334C560.293 805.259 564.551 818.76 564.551 837.837V867.774H523.145V842.679C523.145 823.602 514.923 814.064 498.478 814.064C480.859 814.064 472.049 825.657 472.049 848.843C472.049 860.583 474.398 870.855 479.096 879.66C485.263 890.519 497.89 905.928 516.978 925.886C538.415 948.484 552.291 965.801 558.604 977.835C564.918 989.868 568.074 1005.42 568.074 1024.5C568.074 1076.74 544.142 1102.86 496.275 1102.86C450.758 1102.86 428 1083.93 428 1046.07L428 1046.07ZM595.825 1100.22V782.366H639.874V918.842H698.459V782.366H742.507V1100.22H698.459V955.822H639.874V1100.22H595.825V1100.22ZM817.831 859.85V1026.7C817.831 1054.58 827.962 1068.52 848.224 1068.52C868.78 1068.52 879.058 1054.58 879.058 1026.7V859.85C879.058 829.325 868.78 814.064 848.224 814.064C827.962 814.064 817.831 829.325 817.831 859.85ZM773.782 1024.06V863.371C773.782 807.607 798.596 779.725 848.225 779.725C875.535 779.725 895.063 786.623 906.81 800.417C917.675 813.037 923.108 832.408 923.108 858.529V1019.22C923.108 1074.98 898.146 1102.86 848.225 1102.86C821.209 1102.86 801.827 1095.82 790.081 1081.73C779.216 1069.41 773.783 1050.18 773.783 1024.06H773.782ZM954.381 1100.22V782.367H1074.19V819.348H998.43V918.842H1069.79V955.822H998.43V1063.24H1074.19V1100.22H954.381V1100.22ZM1393.11 1100.22L1463.15 782.367H1514.24L1578.99 1100.22H1534.95L1520.41 1019.22H1451.69L1437.16 1100.22H1393.11H1393.11ZM1486.05 829.033L1458.3 982.237H1514.24L1486.93 829.033H1486.05V829.033ZM1598.82 1100.22V782.367H1642.87V1100.22H1598.82V1100.22ZM1718.19 819.348V1063.24H1739.33C1755.19 1063.24 1765.76 1058.11 1771.05 1047.83C1775.74 1038.44 1778.09 1019.66 1778.09 991.483V882.303C1778.09 857.355 1775.74 840.919 1771.05 832.995C1765.47 823.897 1753.72 819.348 1735.81 819.348H1718.19V819.348ZM1674.14 1100.22V782.367H1745.06C1779.42 782.367 1801.15 790.144 1810.25 805.699C1818.18 818.907 1822.14 849.871 1822.14 898.591V993.243C1822.14 1034.92 1816.86 1062.95 1806.29 1077.33C1794.83 1092.59 1772.07 1100.22 1738.01 1100.22H1674.14L1674.14 1100.22Z" fill="#121C26"/>
<path d="M900.725 1199.75H921.95C925.24 1199.75 928.203 1199.53 930.835 1199.1C933.468 1198.66 935.744 1197.86 937.663 1196.71C939.583 1195.56 941.064 1194 942.106 1192.02C943.148 1190.05 943.669 1187.58 943.669 1184.62C943.669 1179.47 942.052 1175.61 938.815 1173.03C935.579 1170.45 930.835 1169.17 924.582 1169.17H900.725V1199.75V1199.75ZM866.171 1146.14H932.48C939.172 1146.14 945.37 1146.91 951.073 1148.45C956.778 1149.98 961.714 1152.34 965.882 1155.52C970.05 1158.7 973.314 1162.73 975.672 1167.6C978.031 1172.48 979.21 1178.32 979.21 1185.12C979.21 1191.04 978.25 1196.35 976.33 1201.07C974.411 1205.78 971.394 1209.73 967.281 1212.91C963.167 1216.09 957.902 1218.53 951.485 1220.23C945.068 1221.93 937.417 1222.78 928.532 1222.78H900.725V1264.88H866.171V1146.14V1146.14ZM1035.81 1196.79H1063.29C1071.19 1196.79 1076.64 1195.61 1079.66 1193.26C1082.68 1190.9 1084.19 1187.42 1084.19 1182.82C1084.19 1179.97 1083.64 1177.64 1082.54 1175.83C1081.44 1174.02 1079.8 1172.62 1077.6 1171.63C1075.41 1170.65 1072.72 1169.99 1069.54 1169.66C1066.36 1169.33 1062.69 1169.17 1058.52 1169.17H1035.81V1196.79V1196.79ZM1001.26 1146.14H1073.82C1088.19 1146.14 1099.27 1148.72 1107.06 1153.87C1114.84 1159.03 1118.74 1166.81 1118.74 1177.22C1118.74 1181.06 1118 1184.54 1116.52 1187.67C1115.04 1190.79 1112.98 1193.59 1110.35 1196.05C1107.71 1198.52 1104.53 1200.6 1100.8 1202.3C1097.07 1204 1093.02 1205.23 1088.63 1206V1206.33C1093.67 1206.66 1098.34 1207.54 1102.61 1208.96C1106.89 1210.39 1110.02 1212.96 1111.99 1216.69C1113.42 1219.43 1114.6 1222.89 1115.53 1227.05C1116.46 1231.22 1117.29 1235.6 1118 1240.21C1118.71 1244.81 1119.48 1249.31 1120.3 1253.69C1121.12 1258.08 1122.14 1261.81 1123.35 1264.87H1086.65C1085.67 1262.02 1084.93 1258.87 1084.43 1255.42C1083.94 1251.97 1083.5 1248.57 1083.12 1245.22C1082.73 1241.88 1082.32 1238.7 1081.88 1235.69C1081.44 1232.67 1080.84 1230.12 1080.07 1228.04C1078.97 1225.3 1076.89 1223.24 1073.82 1221.87C1070.75 1220.5 1065.76 1219.82 1058.85 1219.82H1035.81V1264.87H1001.26V1146.14L1001.26 1146.14ZM1175.34 1205.51C1175.34 1210.77 1175.94 1215.71 1177.15 1220.31C1178.36 1224.91 1180.3 1228.94 1182.99 1232.4C1185.68 1235.85 1189.27 1238.59 1193.77 1240.62C1198.27 1242.65 1203.81 1243.66 1210.39 1243.66C1216.97 1243.66 1222.51 1242.65 1227.01 1240.62C1231.5 1238.59 1235.1 1235.85 1237.78 1232.4C1240.47 1228.94 1242.42 1224.91 1243.62 1220.31C1244.83 1215.71 1245.43 1210.77 1245.43 1205.51C1245.43 1200.25 1244.83 1195.31 1243.62 1190.71C1242.42 1186.1 1240.47 1182.08 1237.78 1178.62C1235.1 1175.17 1231.5 1172.43 1227.01 1170.4C1222.51 1168.37 1216.97 1167.36 1210.39 1167.36C1203.81 1167.36 1198.27 1168.37 1193.77 1170.4C1189.27 1172.43 1185.68 1175.17 1182.99 1178.62C1180.3 1182.08 1178.36 1186.1 1177.15 1190.71C1175.94 1195.31 1175.34 1200.25 1175.34 1205.51ZM1139.8 1205.51C1139.8 1196.52 1141.14 1188.21 1143.83 1180.6C1146.52 1172.98 1150.71 1166.37 1156.42 1160.78C1162.12 1155.19 1169.44 1150.83 1178.38 1147.71C1187.32 1144.58 1197.99 1143.02 1210.39 1143.02C1222.78 1143.02 1233.45 1144.58 1242.39 1147.71C1251.33 1150.83 1258.65 1155.19 1264.36 1160.78C1270.06 1166.37 1274.26 1172.98 1276.94 1180.6C1279.63 1188.21 1280.98 1196.52 1280.98 1205.51C1280.98 1214.5 1279.63 1222.8 1276.94 1230.42C1274.26 1238.04 1270.06 1244.65 1264.36 1250.24C1258.65 1255.83 1251.33 1260.19 1242.39 1263.31C1233.45 1266.44 1222.78 1268 1210.39 1268C1197.99 1268 1187.32 1266.44 1178.38 1263.31C1169.44 1260.19 1162.12 1255.83 1156.42 1250.24C1150.71 1244.65 1146.52 1238.04 1143.83 1230.42C1141.14 1222.8 1139.8 1214.5 1139.8 1205.51ZM1396.15 1219.82C1396.15 1228.7 1395 1236.18 1392.7 1242.26C1390.39 1248.35 1386.99 1253.31 1382.5 1257.15C1378 1260.98 1372.46 1263.75 1365.88 1265.45C1359.3 1267.15 1351.73 1268 1343.17 1268C1335.27 1268 1328.09 1267.18 1321.62 1265.53C1315.14 1263.89 1309.66 1261.34 1305.16 1257.89C1300.66 1254.43 1297.18 1250.05 1294.71 1244.73C1292.25 1239.41 1291.01 1233.14 1291.01 1225.9V1223.43H1325.57C1325.89 1229.9 1327.27 1234.89 1329.68 1238.4C1332.09 1241.91 1336.7 1243.66 1343.5 1243.66C1346.13 1243.66 1348.57 1243.28 1350.82 1242.51C1353.07 1241.74 1354.99 1240.43 1356.58 1238.56C1358.17 1236.7 1359.4 1234.23 1360.28 1231.16C1361.16 1228.09 1361.6 1224.26 1361.6 1219.65V1146.14H1396.15V1219.82V1219.82ZM1428.07 1146.14H1530.09V1170.48H1462.63V1192.52H1526.47V1216.86H1462.63V1240.54H1531.57V1264.88H1428.07V1146.14H1428.07ZM1649.05 1185.12C1648.61 1181.83 1647.65 1179.06 1646.17 1176.81C1644.69 1174.57 1642.8 1172.73 1640.49 1171.3C1638.19 1169.88 1635.58 1168.86 1632.68 1168.26C1629.77 1167.66 1626.67 1167.36 1623.38 1167.36C1617.79 1167.36 1612.88 1168.29 1608.65 1170.15C1604.43 1172.02 1600.95 1174.62 1598.21 1177.96C1595.46 1181.31 1593.41 1185.28 1592.04 1189.89C1590.66 1194.49 1589.98 1199.48 1589.98 1204.85C1589.98 1210.11 1590.58 1215.1 1591.79 1219.82C1593 1224.53 1594.89 1228.64 1597.47 1232.15C1600.04 1235.66 1603.39 1238.45 1607.5 1240.54C1611.62 1242.62 1616.58 1243.66 1622.39 1243.66C1625.68 1243.66 1628.87 1243.36 1631.94 1242.76C1635.01 1242.15 1637.72 1241.11 1640.08 1239.63C1642.44 1238.15 1644.39 1236.18 1645.92 1233.71C1647.46 1231.25 1648.39 1228.2 1648.72 1224.59H1685.25C1684.92 1233.36 1682.94 1240.54 1679.32 1246.13C1675.7 1251.72 1670.93 1256.13 1665.01 1259.37C1659.09 1262.6 1652.18 1264.85 1644.28 1266.11C1636.38 1267.37 1627.93 1268 1618.94 1268C1610.05 1268 1601.69 1266.82 1593.85 1264.46C1586 1262.11 1579.18 1258.43 1573.36 1253.45C1567.55 1248.46 1562.94 1242.02 1559.54 1234.12C1556.14 1226.23 1554.44 1216.75 1554.44 1205.67C1554.44 1194.49 1556.11 1184.95 1559.46 1177.06C1562.8 1169.17 1567.52 1162.7 1573.61 1157.66C1579.7 1152.61 1587.05 1148.91 1595.66 1146.55C1604.27 1144.2 1613.89 1143.02 1624.53 1143.02C1632.1 1143.02 1639.45 1143.73 1646.58 1145.16C1653.71 1146.58 1660.07 1148.94 1665.67 1152.23C1671.26 1155.52 1675.79 1159.85 1679.24 1165.22C1682.7 1170.59 1684.48 1177.22 1684.59 1185.12H1649.05V1185.12ZM1741.85 1170.48H1696.11V1146.14H1822.14V1170.48H1776.4V1264.88H1741.85V1170.48V1170.48Z" fill="#121C26"/>
<path fill-rule="evenodd" clip-rule="evenodd" d="M1114.79 806.38H1405.9C1396.64 816.116 1387.28 825.799 1378.22 835.651C1389.83 864.731 1393.15 893.834 1388.18 922.958C1369.27 938.355 1350.37 953.754 1331.46 969.152L1336.34 1001.87C1295.4 1018.63 1303.84 1044.48 1253.53 1090.24C1233.74 1092.5 1213.94 1094.75 1194.14 1097C1161.9 1046.5 1152.3 984.721 1127.42 936.597L1145.04 886.402C1150.77 866.649 1137.76 838.695 1114.79 806.38L1114.79 806.38Z" fill="#007A5E"/>
<path fill-rule="evenodd" clip-rule="evenodd" d="M1317.04 515.763H926.354C909.453 533.987 893.356 551.487 877.93 568.389C884.529 597.457 880.602 619.602 866.15 634.826C883.917 688.188 911.859 722.009 949.976 736.289L1045.51 718.847L1110.22 752.568L1102.72 790.143C1106.99 795.662 1111.02 801.08 1114.79 806.381H1405.9C1445.32 764.952 1482.98 722.56 1487.9 662.208C1466.03 666.389 1444.16 670.571 1422.29 674.754L1317.04 515.764V515.763Z" fill="#CF142B"/>
<path fill-rule="evenodd" clip-rule="evenodd" d="M1317.04 515.764H926.352C948.134 492.277 971.252 467.594 995.995 441.452L1018.23 449.887C1052.59 434.413 1087.03 430.707 1121.55 438.767L1126.43 471.673C1149.27 480.412 1172.1 489.153 1194.94 497.893L1206.68 475.654C1245.82 490.353 1283.08 496.565 1316.19 484.106L1308.66 503.102L1317.04 515.764L1317.04 515.764Z" fill="#F7D117"/>
<path fill-rule="evenodd" clip-rule="evenodd" d="M1374.11 381.883C1379.44 385.42 1384.77 388.956 1390.1 392.494C1394.84 399.411 1399.58 406.329 1404.32 413.247C1405.41 419.465 1406.51 425.684 1407.61 431.903C1409.56 442.53 1410.52 452.782 1404.48 460.415C1399.83 462.69 1395.18 464.964 1390.53 467.24C1385.41 465.781 1380.3 464.321 1375.19 462.863C1365.59 452.6 1356 442.337 1346.41 432.073C1336.06 399.031 1342.68 380.125 1374.11 381.883V381.883Z" fill="#F7D117"/>
<path d="M1378.05 375.926L1394.04 386.538C1394.87 387.083 1395.54 387.77 1396.05 388.545L1410.22 409.22C1410.81 410.09 1411.19 411.044 1411.36 412.018L1411.37 412.017L1414.65 430.672C1414.68 430.818 1414.7 430.961 1414.72 431.106C1415.73 436.728 1416.47 442.3 1416.17 447.673C1415.82 453.886 1414.13 459.707 1410.07 464.833C1409.39 465.7 1408.54 466.364 1407.61 466.818V466.819L1393.66 473.643C1392.01 474.448 1390.21 474.559 1388.57 474.094L1388.57 474.118L1373.23 469.742C1371.8 469.336 1370.59 468.523 1369.71 467.466L1341.17 436.939C1340.42 436.129 1339.89 435.189 1339.58 434.198H1339.58C1333.85 415.923 1333.01 401.174 1338.18 390.768C1343.84 379.388 1355.56 373.693 1374.5 374.752C1375.82 374.824 1377.03 375.247 1378.05 375.927L1378.05 375.926L1378.05 375.926ZM1384.98 397.675L1371.81 388.933C1360.48 388.621 1353.77 391.501 1351 397.088C1347.7 403.714 1348.54 414.4 1352.76 428.408L1379.04 456.525L1389.88 459.618L1399.71 454.813C1401.1 452.535 1401.74 449.839 1401.9 446.89C1402.13 442.871 1401.51 438.346 1400.67 433.684C1400.62 433.503 1400.59 433.319 1400.55 433.133L1397.53 415.988L1384.98 397.675L1384.98 397.675Z" fill="#121C26"/>
<path fill-rule="evenodd" clip-rule="evenodd" d="M1309.24 335.53L1317.07 358.497L1316.85 389.601L1304.65 412.278C1289.44 413.946 1275.8 410.102 1264.46 398.203L1258.13 371.403C1258.48 344.219 1264.49 327.772 1282.98 324.864L1309.24 335.53V335.53Z" fill="#F7D117"/>
<path d="M1316.08 333.445L1323.85 356.204C1324.16 357.141 1324.28 358.097 1324.21 359.023L1323.99 389.63C1323.98 390.842 1323.67 391.981 1323.14 392.979L1323.15 392.986L1310.95 415.663C1309.77 417.848 1307.62 419.173 1305.32 419.391C1296.78 420.315 1288.6 419.671 1280.87 417.096C1273.02 414.484 1265.79 409.947 1259.29 403.125C1258.38 402.169 1257.78 401.024 1257.5 399.824L1257.5 399.826L1251.17 373.025C1250.99 372.261 1250.94 371.497 1251.01 370.755C1251.23 356.405 1253.04 344.697 1257.35 335.899C1262.27 325.85 1270.09 319.674 1281.9 317.818C1283.22 317.614 1284.51 317.785 1285.67 318.254L1285.67 318.238L1311.93 328.903C1314.01 329.745 1315.47 331.454 1316.08 333.445V333.445ZM1309.93 359.699L1303.53 340.929L1282.23 332.277C1276.56 333.647 1272.69 337.008 1270.16 342.163C1266.9 348.824 1265.5 358.418 1265.28 370.55L1270.97 394.623C1275.43 398.952 1280.24 401.864 1285.34 403.562C1289.97 405.101 1294.94 405.685 1300.21 405.459L1309.73 387.754L1309.93 359.699V359.699Z" fill="#121C26"/>
<path fill-rule="evenodd" clip-rule="evenodd" d="M1196.79 263.186L1217.01 276.291L1230.81 324.883C1232.71 341.474 1228.79 356.129 1219.05 368.846L1182.69 377.61L1160.91 349.199C1156.87 337.233 1154.82 323.267 1157.18 312.102L1173.55 272.345C1179.29 264.491 1188.64 261.838 1196.79 263.186H1196.79Z" fill="#F7D117"/>
<path d="M1200.89 257.348L1220.89 270.307C1222.41 271.292 1223.42 272.752 1223.87 274.365L1223.88 274.363L1237.69 322.953C1237.8 323.326 1237.87 323.699 1237.91 324.072H1237.92L1237.92 324.098C1238.2 326.532 1238.36 329.051 1238.4 331.65C1238.44 334.305 1238.36 336.758 1238.17 339.002C1237.06 351.529 1232.58 362.921 1224.73 373.18C1223.63 374.614 1222.1 375.515 1220.46 375.846L1184.36 384.545C1181.53 385.231 1178.67 384.118 1177.01 381.941L1177 381.944L1155.23 353.534C1154.75 352.906 1154.39 352.224 1154.14 351.517L1154.14 351.52L1154.13 351.502C1154.07 351.324 1154.01 351.143 1153.97 350.964C1153.42 349.324 1152.91 347.649 1152.44 345.953C1151.9 343.976 1151.42 342.066 1151.03 340.247C1148.88 330.228 1148.26 319.721 1150.18 310.648C1150.3 310.089 1150.47 309.558 1150.71 309.063L1166.94 269.633C1167.17 269.079 1167.46 268.569 1167.8 268.107L1167.79 268.105C1168.84 266.68 1169.98 265.375 1171.22 264.19C1172.45 263 1173.75 261.949 1175.1 261.035C1182.01 256.331 1190.38 254.891 1197.93 256.14C1199.03 256.319 1200.04 256.743 1200.89 257.348V257.348ZM1210.86 280.812L1194.26 270.059C1190.47 269.727 1186.47 270.578 1183.15 272.835C1182.43 273.327 1181.75 273.876 1181.12 274.481C1180.66 274.928 1180.21 275.417 1179.78 275.951L1164.05 314.161C1162.72 321.034 1163.29 329.249 1165.02 337.283C1165.4 339.022 1165.79 340.647 1166.21 342.149C1166.55 343.382 1166.91 344.599 1167.3 345.797L1185.53 369.584L1214.82 362.525C1220.08 355.009 1223.11 346.758 1223.9 337.772C1224.08 335.676 1224.16 333.71 1224.13 331.874C1224.1 330.129 1223.98 328.247 1223.76 326.233L1210.86 280.812H1210.86Z" fill="#121C26"/>
<path fill-rule="evenodd" clip-rule="evenodd" d="M1015.78 230.901L1055.84 225.146C1088.67 233.058 1110.83 257.444 1122.33 298.309L1126.06 341.416L1103.84 383.202L1081.13 395.404L1000.79 381.946C987.215 355.371 980.429 326.857 980.431 296.406L1015.78 230.901H1015.78Z" fill="#F7D117"/>
<path d="M1014.77 223.826L1054.83 218.072C1055.91 217.919 1056.97 218.014 1057.94 218.315C1075.6 222.652 1090.41 231.402 1102.37 244.561C1114.21 257.588 1123.16 274.861 1129.22 296.379C1129.34 296.818 1129.42 297.258 1129.46 297.695L1129.47 297.694L1133.19 340.802C1133.31 342.229 1133.01 343.595 1132.38 344.772L1110.17 386.558C1109.41 387.977 1108.25 389.038 1106.9 389.673L1084.52 401.696C1083.07 402.476 1081.47 402.7 1079.96 402.449L1079.96 402.451L999.614 388.994C997.289 388.607 995.413 387.135 994.418 385.187L994.41 385.191C989.732 376.033 985.821 366.612 982.679 356.934C981.561 353.487 980.514 349.895 979.541 346.16C978.554 342.369 977.711 338.718 977.016 335.21C974.536 322.701 973.296 309.765 973.296 296.406C973.296 295.184 973.604 294.033 974.145 293.027L974.136 293.022L1009.48 227.518C1010.6 225.439 1012.6 224.137 1014.77 223.827V223.826L1014.77 223.826ZM1055.5 232.415L1020.36 237.463L987.573 298.221C987.682 309.873 988.846 321.292 991.062 332.47C991.77 336.041 992.537 339.412 993.363 342.581C994.202 345.806 995.174 349.119 996.277 352.515C998.808 360.31 1001.91 367.973 1005.57 375.504L1079.9 387.954L1098.53 377.946L1118.74 339.928L1115.25 299.542C1109.82 280.525 1102 265.404 1091.8 254.18C1081.99 243.392 1069.89 236.136 1055.5 232.415L1055.5 232.415Z" fill="#121C26"/>
<path d="M997.893 449.81C978.189 470.648 958.546 491.616 938.958 512.689C920.432 532.619 902.721 551.847 885.684 570.496C888.505 584.493 888.94 597.005 886.986 608.029C885.048 618.965 880.797 628.438 874.239 636.446C876.246 642.183 878.43 647.793 880.79 653.274C883.6 659.8 886.584 665.917 889.741 671.622C905.408 699.943 925.717 719.038 950.666 728.909L1044.23 711.828L1046.63 711.389L1048.81 712.527L1113.52 746.248L1118.29 748.732L1117.25 753.966L1110.37 788.384C1124.88 807.364 1136.66 825.218 1144.2 841.315C1152.55 859.15 1155.76 875.081 1151.9 888.389L1151.79 888.752L1135.17 936.078C1145.4 956.506 1153.01 978.938 1160.79 1001.87C1170.89 1031.64 1181.29 1062.27 1197.81 1089.39L1250.41 1083.41C1271.41 1063.97 1281.54 1048.23 1289.83 1035.35C1300.22 1019.22 1307.97 1007.18 1328.46 997.539L1324.38 970.188L1323.78 966.198L1326.95 963.617L1381.56 919.149C1382.04 916.049 1382.41 913.019 1382.68 910.06C1383.03 906.163 1383.23 902.282 1383.28 898.419C1383.5 878.39 1379.6 858.343 1371.59 838.281L1369.93 834.108L1372.97 830.815L1372.99 830.789C1379.74 823.442 1386.88 815.968 1394.02 808.494C1432.77 767.92 1471.51 727.339 1479.7 671.051L1423.63 681.772L1418.96 682.666L1416.33 678.697L1302.7 507.044L1300.63 503.923L1302 500.473L1304.12 495.123C1290.88 498.071 1277.13 498.579 1263 497.167C1245.84 495.452 1228.14 490.911 1210.09 484.501L1201.27 501.22L1198.3 506.834L1192.4 504.576L1123.88 478.355L1119.96 476.856L1119.35 472.706L1115.19 444.701C1100.3 441.706 1085.43 441.007 1070.59 442.604C1054.14 444.374 1037.66 448.974 1021.17 456.402L1018.47 457.616L1015.71 456.57L997.892 449.81L997.893 449.81ZM928.495 502.958C947.039 483.009 967.683 461.004 990.82 436.56L994.1 433.095L998.515 434.77L1018.02 442.168C1034.98 434.826 1052 430.236 1069.08 428.399C1087.11 426.458 1105.14 427.593 1123.17 431.804L1127.91 432.911L1128.62 437.733L1132.89 466.488L1191.59 488.95L1200.36 472.326L1203.3 466.755L1209.2 468.971C1228.24 476.119 1246.75 481.198 1264.4 482.962C1281.69 484.69 1298.21 483.24 1313.67 477.423L1328.79 471.732L1322.85 486.735L1316.69 502.28L1425.62 666.841L1486.56 655.188L1495.8 653.421L1495.04 662.766C1489.63 729.063 1447 773.701 1404.37 818.336C1398.42 824.572 1392.46 830.806 1386.48 837.242C1394.08 857.636 1397.77 878.068 1397.55 898.531C1397.5 902.819 1397.28 907.091 1396.89 911.346C1396.5 915.712 1395.95 919.967 1395.24 924.107L1395.24 924.133L1394.79 926.789L1392.69 928.496L1339.13 972.109L1343.42 1000.84L1344.24 1006.35L1339.05 1008.47C1318.79 1016.77 1311.67 1027.83 1301.87 1043.07C1292.89 1057.01 1281.88 1074.12 1258.35 1095.53L1256.64 1097.08L1254.32 1097.35L1194.93 1104.1L1190.54 1104.6L1188.13 1100.83C1169.23 1071.23 1158.08 1038.36 1147.25 1006.46C1139.29 982.985 1131.51 960.05 1121.08 939.885L1121.09 939.88L1119.65 937.184L1120.68 934.249L1138.25 884.209C1140.96 874.552 1138.13 862.005 1131.27 847.355C1123.89 831.594 1111.92 813.712 1097.07 794.504L1095.07 791.912L1095.7 788.744L1102.16 756.403L1044.4 726.304L951.265 743.307L949.327 743.66L947.488 742.971C918.379 732.067 894.951 710.577 877.207 678.502C873.794 672.332 870.605 665.805 867.642 658.922C864.755 652.215 862.002 644.931 859.386 637.073L859.357 636.989L859.354 636.978L858.075 632.961L860.977 629.904C867.202 623.346 871.172 615.234 872.885 605.568C874.687 595.404 874.048 583.531 870.966 569.955L870.141 566.321L872.644 563.579C890.16 544.389 908.698 524.254 928.495 502.958L928.495 502.958Z" fill="#121C26"/>
<path d="M1177.03 587.627L1195.26 643.733L1254.29 643.732L1206.54 678.405L1224.78 734.511L1177.03 699.836L1129.27 734.511L1147.51 678.405L1099.76 643.732L1158.79 643.733L1177.03 587.627V587.627Z" fill="#F7D117"/>
<path fill-rule="evenodd" clip-rule="evenodd" d="M1467.7 493.208C1471.22 504.875 1474.74 516.542 1478.27 528.209C1476.22 532.448 1474.17 536.688 1472.12 540.928C1467.68 541.839 1463.24 542.749 1458.8 543.661C1427.78 534.828 1412.75 519.93 1420.53 498.173C1422.45 494.484 1424.37 490.793 1426.29 487.104C1433.98 484.376 1441.68 481.649 1449.37 478.923C1455.48 483.684 1461.59 488.446 1467.7 493.208V493.208Z" fill="#F7D117"/>
<path d="M1474.56 491.167L1485.12 526.168C1485.68 528.048 1485.43 529.976 1484.57 531.58L1478.56 544.032C1477.52 546.198 1475.52 547.596 1473.31 547.969L1460.23 550.653C1459.07 550.889 1457.91 550.828 1456.85 550.524L1456.84 550.541C1453.74 549.656 1450.81 548.724 1448.07 547.745C1434.71 542.976 1424.64 536.725 1418.44 528.896C1411.65 520.312 1409.55 510.259 1412.86 498.669C1413.14 497.675 1413.45 496.706 1413.79 495.769C1413.92 495.381 1414.09 495.013 1414.29 494.665L1419.94 483.805C1420.87 482.022 1422.44 480.793 1424.23 480.255L1447 472.184C1449.54 471.288 1452.25 471.913 1454.13 473.582L1472.1 487.588L1474.56 491.167V491.167ZM1470.62 527.62L1461.5 497.421L1448.09 486.962L1431.35 492.895L1427.11 501.025C1426.93 501.575 1426.76 502.094 1426.62 502.584C1424.67 509.422 1425.81 515.228 1429.64 520.06C1434.06 525.65 1441.98 530.374 1452.88 534.267C1454.9 534.987 1456.99 535.667 1459.14 536.309L1467.22 534.65L1470.62 527.62V527.62Z" fill="#121C26"/>
</g>
<defs>
<filter id="filter0_d" x="419" y="213" width="1412.14" height="1068" filterUnits="userSpaceOnUse" color-interpolation-filters="sRGB">
<feFlood flood-opacity="0" result="BackgroundImageFix"/>
<feColorMatrix in="SourceAlpha" type="matrix" values="0 0 0 0 0 0 0 0 0 0 0 0 0 0 0 0 0 0 127 0"/>
<feOffset dy="4"/>
<feGaussianBlur stdDeviation="4.5"/>
<feColorMatrix type="matrix" values="0 0 0 0 0 0 0 0 0 0 0 0 0 0 0 0 0 0 0.12 0"/>
<feBlend mode="normal" in2="BackgroundImageFix" result="effect1_dropShadow"/>
<feBlend mode="normal" in="SourceGraphic" in2="effect1_dropShadow" result="shape"/>
</filter>
</defs>
</svg>
