<svg width="2250" height="1485" viewBox="0 0 2250 1485" fill="none" xmlns="http://www.w3.org/2000/svg">
<path fill-rule="evenodd" clip-rule="evenodd" d="M1505.93 723.966V483.418H1543.39C1576.81 483.418 1600.47 485.043 1614.49 488.352C1628.5 491.603 1640.56 497.269 1650.6 505.285C1663.94 515.882 1674.15 529.566 1681.16 546.332C1688.17 563.096 1691.64 582.272 1691.64 603.861C1691.64 625.449 1688.17 644.625 1681.16 661.445C1674.15 678.265 1664.06 691.724 1650.93 701.762C1640.56 709.78 1628.67 715.498 1615.33 718.864C1601.98 722.285 1580.45 723.966 1550.79 723.966H1543.39H1505.93ZM1527.8 705.128H1558.53C1583.37 705.128 1601.03 703.724 1611.4 700.919C1621.83 698.117 1630.64 693.404 1637.87 686.733C1647.96 677.316 1655.53 665.594 1660.69 651.575C1665.85 637.56 1668.43 621.578 1668.43 603.578C1668.43 585.189 1665.85 568.985 1660.63 554.965C1655.42 540.948 1647.74 529.451 1637.53 520.483C1629.85 513.585 1620.48 508.705 1609.44 505.848C1598.4 502.987 1579.05 501.585 1551.46 501.585H1547.37H1527.8V705.128Z" fill="url(#paint0_linear)"/>
<path fill-rule="evenodd" clip-rule="evenodd" d="M1333.28 723.966V483.418H1452.38V503.942H1355.16V579.3H1452.38V599.824H1355.16V703.443H1452.38V723.966H1333.28Z" fill="url(#paint1_linear)"/>
<path fill-rule="evenodd" clip-rule="evenodd" d="M1301.66 723.966H1275.08L1190.7 609.245H1177.58V723.966H1155.71V483.418H1199.89C1225.97 483.418 1245.42 488.857 1258.38 499.678C1271.33 510.502 1277.83 526.928 1277.83 548.966C1277.83 567.694 1272.28 582.383 1261.18 593.151C1250.07 603.861 1234.82 609.245 1215.37 609.245L1301.66 723.966ZM1177.58 502.595V591.412H1199.61C1219.97 591.412 1234.15 588.161 1242.23 581.657C1250.25 575.151 1254.28 564.049 1254.28 548.405C1254.28 531.864 1250.13 520.09 1241.78 513.08C1233.48 506.071 1219.41 502.595 1199.61 502.595H1177.58Z" fill="url(#paint2_linear)"/>
<path fill-rule="evenodd" clip-rule="evenodd" d="M1108.33 527.493C1096.39 517.178 1084.16 509.552 1071.71 504.618C1059.21 499.682 1046.09 497.215 1032.29 497.215C1001.17 497.215 975.942 507.085 956.483 526.766C937.029 546.503 927.326 572.184 927.326 603.866C927.326 619.731 929.682 634.032 934.445 646.76C939.214 659.431 946.502 670.76 956.205 680.571C965.85 690.214 976.896 697.562 989.341 702.609C1001.73 707.655 1015.08 710.178 1029.32 710.178C1043.11 710.178 1056.57 707.822 1069.69 703.113C1082.81 698.401 1095.26 691.451 1106.98 682.252V707.877C1095.15 715.108 1082.64 720.66 1069.47 724.53C1056.24 728.4 1043.17 730.364 1030.27 730.364C1012.84 730.364 996.183 727.22 980.313 720.997C964.446 714.775 950.821 705.97 939.437 694.701C927.718 683.094 918.862 669.636 912.806 654.33C906.806 638.963 903.779 622.143 903.779 603.866C903.779 585.92 906.861 569.156 913.084 553.623C919.252 538.035 928.168 524.637 939.775 513.363C951.044 502.32 964.669 493.626 980.595 487.404C996.521 481.181 1013.12 478.038 1030.27 478.038C1045.64 478.038 1059.82 480.172 1072.94 484.376C1086.01 488.58 1097.95 494.863 1108.66 503.329L1108.33 527.493Z" fill="url(#paint3_linear)"/>
<path fill-rule="evenodd" clip-rule="evenodd" d="M703.124 723.969L808.821 474L910.028 723.969H886.199L855.471 642.555H757.233L725.384 723.969H703.124ZM764.636 623.712H848.406L807.364 519.139L764.636 623.712Z" fill="url(#paint4_linear)"/>
<path fill-rule="evenodd" clip-rule="evenodd" d="M558 683.548L576.839 673.511C580.315 685.34 586.371 694.54 594.95 701.044C603.585 707.604 613.903 710.855 625.956 710.855C641.154 710.855 653.04 706.368 661.563 697.396C670.141 688.367 674.402 675.978 674.402 660.053C674.402 648.446 671.545 638.802 665.767 631.121C660.049 623.439 647.655 614.579 628.761 604.486C604.538 591.703 588.445 580.43 580.426 570.675C572.407 560.92 568.427 549.198 568.427 535.517C568.427 518.415 574.203 504.51 585.755 493.802C597.306 483.09 612.274 477.71 630.669 477.71C642.668 477.71 653.151 480.233 662.067 485.334C670.984 490.437 678.216 498.062 683.823 508.21L667.003 518.415C663.525 511.521 658.535 506.247 652.141 502.659C645.752 499.015 638.182 497.22 629.376 497.22C617.548 497.22 608.181 500.696 601.172 507.65C594.163 514.603 590.631 524.025 590.631 535.854C590.631 552.674 604.538 568.433 632.349 583.013C637.396 585.591 641.21 587.666 643.844 589.069C664.309 600.338 677.993 610.99 684.887 621.028C691.785 631.065 695.263 644.075 695.263 660.053C695.263 681.64 688.98 698.743 676.364 711.414C663.748 724.03 646.59 730.369 624.891 730.369C609.136 730.369 595.621 726.443 584.408 718.646C573.139 710.799 564.333 699.081 558 683.548Z" fill="url(#paint5_linear)"/>
<path fill-rule="evenodd" clip-rule="evenodd" d="M1505.93 999.751V759.203H1543.39C1576.81 759.203 1600.47 760.829 1614.49 764.139C1628.5 767.39 1640.56 773.056 1650.6 781.07C1663.94 791.667 1674.15 805.353 1681.16 822.117C1688.17 838.882 1691.64 858.059 1691.64 879.646C1691.64 901.235 1688.17 920.412 1681.16 937.232C1674.15 954.052 1664.06 967.51 1650.93 977.547C1640.56 985.567 1628.67 991.285 1615.33 994.65C1601.98 998.071 1580.45 999.751 1550.79 999.751H1543.39H1505.93ZM1527.8 980.913H1558.53C1583.37 980.913 1601.03 979.511 1611.4 976.705C1621.83 973.904 1630.64 969.191 1637.87 962.52C1647.96 953.103 1655.53 941.38 1660.69 927.362C1665.85 913.347 1668.43 897.365 1668.43 879.365C1668.43 860.974 1665.85 844.771 1660.63 830.752C1655.42 816.733 1647.74 805.238 1637.53 796.269C1629.85 789.371 1620.48 784.492 1609.44 781.635C1598.4 778.774 1579.05 777.371 1551.46 777.371H1547.37H1527.8V980.913Z" fill="url(#paint6_linear)"/>
<path fill-rule="evenodd" clip-rule="evenodd" d="M1333.28 999.751V759.203H1452.38V779.727H1355.16V855.086H1452.38V875.609H1355.16V979.228H1452.38V999.751H1333.28Z" fill="url(#paint7_linear)"/>
<path fill-rule="evenodd" clip-rule="evenodd" d="M1301.66 999.751H1275.08L1190.7 885.031H1177.58V999.751H1155.71V759.203H1199.89C1225.97 759.203 1245.42 764.644 1258.38 775.464C1271.33 786.287 1277.83 802.715 1277.83 824.752C1277.83 843.479 1272.28 858.17 1261.18 868.938C1250.07 879.646 1234.82 885.031 1215.37 885.031L1301.66 999.751ZM1177.58 778.38V867.197H1199.61C1219.97 867.197 1234.15 863.948 1242.23 857.442C1250.25 850.938 1254.28 839.836 1254.28 824.192C1254.28 807.649 1250.13 795.876 1241.78 788.867C1233.48 781.858 1219.41 778.38 1199.61 778.38H1177.58Z" fill="url(#paint8_linear)"/>
<path fill-rule="evenodd" clip-rule="evenodd" d="M1108.33 803.279C1096.39 792.964 1084.16 785.338 1071.71 780.403C1059.21 775.468 1046.09 773 1032.29 773C1001.17 773 975.942 782.871 956.483 802.552C937.029 822.288 927.326 847.97 927.326 879.651C927.326 895.517 929.682 909.819 934.445 922.545C939.214 935.218 946.502 946.547 956.205 956.356C965.85 966.001 976.896 973.348 989.341 978.394C1001.73 983.44 1015.08 985.964 1029.32 985.964C1043.11 985.964 1056.57 983.607 1069.69 978.899C1082.81 974.186 1095.26 967.237 1106.98 958.037V983.663C1095.15 990.895 1082.64 996.446 1069.47 1000.32C1056.24 1004.19 1043.17 1006.15 1030.27 1006.15C1012.84 1006.15 996.183 1003.01 980.313 996.784C964.446 990.561 950.821 981.755 939.437 970.486C927.718 958.88 918.862 945.421 912.806 930.115C906.806 914.75 903.779 897.93 903.779 879.651C903.779 861.706 906.861 844.942 913.084 829.409C919.252 813.821 928.168 800.422 939.775 789.149C951.044 778.107 964.669 769.413 980.595 763.19C996.521 756.968 1013.12 753.823 1030.27 753.823C1045.64 753.823 1059.82 755.958 1072.94 760.162C1086.01 764.366 1097.95 770.648 1108.66 779.116L1108.33 803.279Z" fill="url(#paint9_linear)"/>
<path fill-rule="evenodd" clip-rule="evenodd" d="M703.124 761.708L808.821 1011.68L910.028 761.708H886.199L855.471 843.123H757.233L725.384 761.708H703.124ZM764.636 861.966H848.406L807.364 966.539L764.636 861.966Z" fill="url(#paint10_linear)"/>
<path fill-rule="evenodd" clip-rule="evenodd" d="M558 959.335L576.839 949.296C580.315 961.126 586.371 970.325 594.95 976.83C603.585 983.391 613.903 986.64 625.956 986.64C641.154 986.64 653.04 982.154 661.563 973.182C670.141 964.154 674.402 951.765 674.402 935.838C674.402 924.231 671.545 914.588 665.767 906.906C660.049 899.226 647.655 890.365 628.761 880.272C604.538 867.49 588.445 856.216 580.426 846.461C572.407 836.706 568.427 824.983 568.427 811.303C568.427 794.2 574.203 780.297 585.755 769.589C597.306 758.875 612.274 753.495 630.669 753.495C642.668 753.495 653.151 756.018 662.067 761.121C670.984 766.223 678.216 773.847 683.823 783.996L667.003 794.2C663.525 787.306 658.535 782.034 652.141 778.445C645.752 774.802 638.182 773.005 629.376 773.005C617.548 773.005 608.181 776.483 601.172 783.436C594.163 790.39 590.631 799.811 590.631 811.641C590.631 828.461 604.538 844.22 632.349 858.798C637.396 861.378 641.21 863.452 643.844 864.854C664.309 876.123 677.993 886.777 684.887 896.814C691.785 906.852 695.263 919.86 695.263 935.838C695.263 957.427 688.98 974.529 676.364 987.201C663.748 999.817 646.59 1006.15 624.891 1006.15C609.136 1006.15 595.621 1002.23 584.408 994.433C573.139 986.585 564.333 974.866 558 959.335Z" fill="url(#paint11_linear)"/>
<defs>
<linearGradient id="paint0_linear" x1="1598.79" y1="483.418" x2="1598.79" y2="723.966" gradientUnits="userSpaceOnUse">
<stop stop-color="#130121" stop-opacity="0.85"/>
<stop offset="1" stop-color="#130121"/>
</linearGradient>
<linearGradient id="paint1_linear" x1="1392.83" y1="483.418" x2="1392.83" y2="723.966" gradientUnits="userSpaceOnUse">
<stop stop-color="#130121" stop-opacity="0.85"/>
<stop offset="1" stop-color="#130121"/>
</linearGradient>
<linearGradient id="paint2_linear" x1="1228.68" y1="483.418" x2="1228.68" y2="723.966" gradientUnits="userSpaceOnUse">
<stop stop-color="#130121" stop-opacity="0.85"/>
<stop offset="1" stop-color="#130121"/>
</linearGradient>
<linearGradient id="paint3_linear" x1="1006.22" y1="478.038" x2="1006.22" y2="730.364" gradientUnits="userSpaceOnUse">
<stop stop-color="#130121" stop-opacity="0.85"/>
<stop offset="1" stop-color="#130121"/>
</linearGradient>
<linearGradient id="paint4_linear" x1="806.576" y1="474" x2="806.576" y2="723.969" gradientUnits="userSpaceOnUse">
<stop stop-color="#130121" stop-opacity="0.85"/>
<stop offset="1" stop-color="#130121"/>
</linearGradient>
<linearGradient id="paint5_linear" x1="626.631" y1="477.71" x2="626.631" y2="730.369" gradientUnits="userSpaceOnUse">
<stop stop-color="#130121" stop-opacity="0.85"/>
<stop offset="1" stop-color="#130121"/>
</linearGradient>
<linearGradient id="paint6_linear" x1="1598.79" y1="759.203" x2="1598.79" y2="999.751" gradientUnits="userSpaceOnUse">
<stop stop-color="#130121"/>
<stop offset="1" stop-color="#130121" stop-opacity="0.54"/>
</linearGradient>
<linearGradient id="paint7_linear" x1="1392.83" y1="759.203" x2="1392.83" y2="999.751" gradientUnits="userSpaceOnUse">
<stop stop-color="#130121"/>
<stop offset="1" stop-color="#130121" stop-opacity="0.54"/>
</linearGradient>
<linearGradient id="paint8_linear" x1="1228.68" y1="759.203" x2="1228.68" y2="999.751" gradientUnits="userSpaceOnUse">
<stop stop-color="#130121"/>
<stop offset="1" stop-color="#130121" stop-opacity="0.54"/>
</linearGradient>
<linearGradient id="paint9_linear" x1="1006.22" y1="753.823" x2="1006.22" y2="1006.15" gradientUnits="userSpaceOnUse">
<stop stop-color="#130121"/>
<stop offset="1" stop-color="#130121" stop-opacity="0.54"/>
</linearGradient>
<linearGradient id="paint10_linear" x1="806.576" y1="761.708" x2="806.576" y2="1011.68" gradientUnits="userSpaceOnUse">
<stop stop-color="#130121"/>
<stop offset="1" stop-color="#130121" stop-opacity="0.54"/>
</linearGradient>
<linearGradient id="paint11_linear" x1="626.631" y1="753.495" x2="626.631" y2="1006.15" gradientUnits="userSpaceOnUse">
<stop stop-color="#130121"/>
<stop offset="1" stop-color="#130121" stop-opacity="0.54"/>
</linearGradient>
</defs>
</svg>
