<svg width="2250" height="1485" viewBox="0 0 2250 1485" fill="none" xmlns="http://www.w3.org/2000/svg">
<g clip-path="url(#clip0)">
<g filter="url(#filter0_d)">
<path fill-rule="evenodd" clip-rule="evenodd" d="M578.856 786.435C595.816 786.435 611.411 792.011 623.575 801.277V581.246C623.575 574.1 629.307 568.328 636.363 568.328C643.459 568.328 649.19 574.1 649.19 581.246V851.534C649.19 869.752 641.12 886.203 628.098 898.06C615.427 909.565 597.999 916.671 578.856 916.671C559.713 916.671 542.324 909.565 529.653 898.06C516.592 886.203 508.561 869.752 508.561 851.534C508.561 833.315 516.592 816.864 529.653 805.046C542.324 793.542 559.713 786.435 578.856 786.435ZM456.473 651.331C456.317 651.448 456.122 651.527 455.927 651.606L455.888 651.645L455.615 651.763L455.303 651.88C453.939 652.43 452.535 652.744 451.171 652.783H451.093H450.859H450.781H450.586H450.43H450.313H450.079H450.001C448.636 652.744 447.233 652.43 445.868 651.88L445.595 651.763H445.556L445.283 651.645L445.244 651.606C445.049 651.527 444.855 651.448 444.699 651.331L444.465 651.213L351.478 602.487V801.277C363.643 792.011 379.238 786.435 396.198 786.435C415.341 786.435 432.729 793.542 445.4 805.046C458.422 816.864 466.493 833.315 466.493 851.534C466.493 869.752 458.422 886.203 445.4 898.06C432.729 909.565 415.341 916.671 396.198 916.671C377.054 916.671 359.627 909.565 346.956 898.06C333.934 886.203 325.863 869.752 325.863 851.534V581.246C325.863 574.1 331.595 568.328 338.651 568.328C340.991 568.328 343.174 568.957 345.045 570.056L450.586 625.378L556.594 569.781C562.871 566.522 570.591 568.957 573.866 575.278C577.141 581.599 574.684 589.413 568.407 592.672L456.707 651.213L456.473 651.331ZM691.219 581.246C691.219 574.1 696.951 568.328 704.046 568.328C711.103 568.328 716.834 574.1 716.834 581.246V801.277C728.999 792.011 744.594 786.435 761.554 786.435C780.697 786.435 798.085 793.542 810.756 805.046C823.817 816.864 831.888 833.315 831.888 851.534C831.888 869.752 823.817 886.203 810.756 898.06C798.085 909.565 780.697 916.671 761.554 916.671C742.411 916.671 724.983 909.565 712.312 898.06C699.29 886.203 691.219 869.752 691.219 851.534V581.246Z" fill="url(#paint0_linear)"/>
</g>
<g filter="url(#filter1_d)">
<path d="M1074.86 712.856V618.782H1063.24L1023.94 704.964C1022.62 701.117 1021.41 698.604 1019.69 694.992L984.253 618.782H972.323V712.856H980.783V629.03C981.836 632.485 982.655 634.487 983.434 636.097L1019.19 712.856H1028.43L1063.75 635.429C1064.84 633.152 1065.46 631.425 1066.56 629.03V712.856H1074.86ZM1190.66 675.124V618.782H1182.19V668.45C1182.19 681.132 1181.42 687.257 1178.22 692.871C1172.68 702.569 1162.35 706.731 1141.3 706.731C1124.1 706.731 1114.43 701.509 1109.68 694.874C1104.26 687.257 1104.65 678.187 1104.65 669.392V618.782H1096.07V673.122C1096.07 679.679 1096.19 686.079 1098.45 692.204C1103.71 706.849 1116.15 710.972 1121.33 712.464C1131 715.251 1141.45 715.251 1144.34 715.251C1147.53 715.251 1153.73 715.251 1161.69 713.524C1171.47 711.247 1179.7 707.242 1185.12 698.329C1190.93 688.984 1190.66 678.58 1190.66 675.124ZM1302.47 684.862C1302.47 675.517 1296.94 668.45 1288.59 664.877C1280.37 661.265 1267.42 659.93 1247.03 657.024C1238.18 655.807 1233.66 655.14 1229.68 653.294C1227.85 652.352 1222.43 649.8 1222.43 643.164C1222.43 639.945 1223.6 637.432 1224.15 636.49C1225.74 633.702 1228.4 631.425 1231.01 629.815C1240.29 624.357 1252.61 624.357 1255.22 624.357C1267.03 624.357 1279.86 627.027 1288.44 635.822C1289.37 636.882 1290.43 638.217 1291.24 639.277L1299.7 634.762C1298.65 633.427 1296.66 631.032 1293.35 628.244C1279.31 616.622 1261.57 616.23 1255.88 616.23C1246.49 616.23 1234.59 617.957 1226.25 622.63C1218.73 626.909 1212.88 634.487 1212.88 643.557C1212.88 654.472 1220.83 659.419 1224.03 660.99C1229.45 663.817 1236.86 664.72 1242.78 665.662C1248.36 666.487 1254.05 667.154 1259.74 667.939C1266.6 668.882 1282.51 670.609 1288.44 675.517C1290.04 676.852 1292.8 679.915 1292.8 685.411C1292.8 692.322 1288.59 697.387 1282.9 700.842C1272.57 706.967 1259.74 706.967 1256.15 706.967C1241.34 706.967 1231.94 703.63 1226.52 700.057C1219.23 695.109 1216.58 688.592 1215.41 685.529L1205.63 689.259C1208 693.657 1209.99 697.504 1213.54 701.234C1225.2 713.759 1244.77 714.702 1248.75 714.977C1251.52 715.094 1254.17 715.251 1256.82 715.251C1279.7 715.251 1292.3 707.399 1298.11 698.839C1301.97 693.107 1302.47 687.532 1302.47 684.862ZM1328.56 712.856V618.782H1319.67V712.856H1328.56ZM1445.91 687.532L1437.84 683.645C1434.95 688.474 1433.75 689.927 1431.76 692.204C1419.59 706.064 1403.96 706.967 1397.6 706.967C1392.46 706.967 1377.52 706.299 1366.14 694.874C1355.42 684.194 1354.48 671.277 1354.48 666.055C1354.48 661.147 1355.42 647.562 1365.71 636.882C1377.1 625.142 1392.34 624.239 1397.49 624.239C1402.13 624.239 1417.49 624.907 1428.33 636.097C1432.15 639.945 1434.8 644.735 1435.62 646.07L1443.53 641.672C1440.49 636.882 1437.99 633.152 1433.75 629.304C1420.26 616.897 1403.06 615.837 1397.21 615.837C1389.81 615.837 1369.69 617.29 1355.42 634.605C1345.36 646.737 1344.54 659.537 1344.54 665.387C1344.54 681.524 1351.71 696.17 1364.42 705.632C1370.23 709.912 1380.02 715.251 1397.1 715.251C1414.84 715.251 1425.28 708.969 1431.25 704.572C1439.98 698.054 1443.69 691.379 1445.91 687.532ZM1603.54 687.257C1603.54 677.402 1598.63 668.057 1589.23 664.484C1586.97 663.66 1584.75 663.267 1582.48 662.992C1583.93 662.6 1586.85 662.089 1590.01 659.93C1592.15 658.477 1596.09 655.257 1597.85 649.014C1598.74 645.952 1598.74 643.675 1598.74 642.34C1598.74 635.547 1595.86 630.875 1594.38 628.755C1589.35 621.844 1582.33 618.782 1574.02 618.782H1500.84V712.856H1573.59C1580.89 712.856 1587.9 712.189 1594.14 707.634C1602.99 701.234 1603.54 690.476 1603.54 687.257ZM1589.11 642.889C1589.11 648.347 1586.97 651.684 1585.53 653.294C1580.61 659.144 1573.87 659.694 1567.01 659.694H1509.97V626.36H1568.33C1575.47 626.36 1582.33 626.909 1586.58 633.545C1588.96 637.432 1589.11 641.28 1589.11 642.889ZM1594.26 687.257C1594.26 688.867 1593.99 692.597 1591.88 696.444C1588.02 703.512 1580.89 704.964 1573.75 704.964H1509.97V667.664H1566.19C1574.41 667.664 1585.14 667.939 1590.67 675.674C1593.99 680.072 1594.26 685.647 1594.26 687.257ZM1699.6 712.856V704.964H1631.57V618.782H1622.29V712.856H1699.6ZM1809.94 665.544C1809.94 660.872 1809.16 650.192 1802.42 639.434C1788.38 617.015 1762.69 615.837 1755.04 615.837C1733.45 615.68 1712.16 625.3 1703.42 646.345C1699.84 654.747 1699.6 662.207 1699.6 665.662C1699.6 670.06 1699.99 679.679 1705.69 689.927C1719.02 714.034 1746.82 715.369 1754.38 715.369C1761.63 715.369 1784.13 714.309 1799.22 696.052C1808.89 684.312 1809.94 670.884 1809.94 665.544ZM1799.76 664.995C1799.76 670.884 1798.95 687.257 1784.4 698.329C1772.9 706.967 1759.53 707.399 1754.89 707.399C1748.3 707.399 1721.83 706.064 1712.43 682.192C1709.62 675.282 1709.39 668.607 1709.39 666.055C1709.39 647.287 1720.11 636.607 1725.53 632.642C1735.71 625.025 1748.3 624.082 1752.12 623.965C1765.77 623.415 1775.79 627.695 1780.31 630.09C1793.53 637.275 1797.5 649.682 1798.71 654.865C1799.88 659.694 1799.76 662.874 1799.76 664.995ZM1924.14 712.856V663.66H1866.43V671.669H1916.06C1915.95 673.397 1915.68 677.912 1913.96 682.742C1909.87 693.932 1899.53 701.902 1888.42 705.239C1882.34 706.967 1877.04 707.124 1874.66 707.124C1855.59 707.124 1844.87 698.447 1839.84 692.44C1831.38 682.31 1830.84 670.217 1830.84 665.819C1830.84 648.465 1840.12 633.702 1856.37 627.42C1863.94 624.475 1870.68 624.357 1873.61 624.357C1886.71 624.357 1900.31 628.48 1908.93 639.277C1910.92 641.672 1911.7 643.007 1913.14 645.834L1921.87 640.769C1920.31 638.217 1917 632.642 1910.65 627.42C1897.16 616.505 1879.14 615.837 1874.39 615.837C1851.5 615.837 1838.52 626.634 1832.59 633.702C1821.99 646.07 1821.21 660.322 1821.21 666.055C1821.21 678.187 1825.15 686.589 1827.41 690.594C1836.53 706.967 1851.62 711.796 1857.86 713.367C1865.26 715.369 1870.68 715.526 1873.84 715.526C1891.85 715.526 1903.9 707.634 1908.77 703.119C1910.53 701.509 1913.3 698.604 1916.06 693.657V712.856H1924.14ZM1068 818.671C1068 812.781 1067.22 793.581 1052.13 781.056C1044.72 774.931 1036.77 772.262 1027.49 771.594C1024.72 771.358 1021.95 771.358 1019.19 771.358H972.479V865.433H1014.82C1024.88 865.433 1034.66 865.04 1044.18 860.643C1055.45 855.421 1062.97 845.173 1066.13 833.316C1067.88 826.916 1068 820.909 1068 818.671ZM1058.6 819.181C1058.6 834.651 1053.03 843.171 1048 847.961C1038.21 857.306 1024.06 857.58 1011.51 857.58H981.719V779.093H1019.19C1025.54 779.093 1030.14 779.486 1036.22 781.724C1051.98 787.613 1058.6 803.319 1058.6 819.181ZM1172.68 865.433L1125.55 771.358H1115.49L1069.44 865.433H1078.84L1090.77 841.051H1150.97L1163.01 865.433H1172.68ZM1147.26 833.591H1094.32L1120.52 779.722L1147.26 833.591ZM1246.76 779.093V771.358H1155.88V779.093H1197.83V865.433H1206.68V779.093H1246.76ZM1334.48 865.433L1287.38 771.358H1277.33L1231.28 865.433H1240.68L1252.61 841.051H1312.8L1324.85 865.433H1334.48ZM1309.1 833.591H1256.15L1282.35 779.722L1309.1 833.591ZM1448.83 839.833C1448.83 829.978 1443.92 820.634 1434.52 817.061C1432.3 816.236 1430.04 815.844 1427.78 815.569C1429.26 815.176 1432.15 814.666 1435.34 812.506C1437.45 811.054 1441.43 807.873 1443.14 801.591C1444.08 798.529 1444.08 796.251 1444.08 794.916C1444.08 788.124 1441.15 783.491 1439.71 781.331C1434.68 774.421 1427.66 771.358 1419.32 771.358H1346.14V865.433H1418.93C1426.22 865.433 1433.2 864.766 1439.44 860.211C1448.29 853.85 1448.83 843.053 1448.83 839.833ZM1434.41 795.466C1434.41 800.924 1432.3 804.261 1430.82 805.871C1425.95 811.721 1419.2 812.271 1412.3 812.271H1355.26V778.936H1413.63C1420.76 778.936 1427.66 779.486 1431.87 786.121C1434.29 790.008 1434.41 793.856 1434.41 795.466ZM1439.55 839.833C1439.55 841.443 1439.32 845.173 1437.18 849.021C1433.36 856.088 1426.22 857.58 1419.05 857.58H1355.26V820.241H1411.52C1419.71 820.241 1430.43 820.516 1436.01 828.251C1439.32 832.648 1439.55 838.224 1439.55 839.833ZM1556.01 865.433L1508.91 771.358H1498.85L1452.81 865.433H1462.21L1474.1 841.051H1534.3L1546.34 865.433H1556.01ZM1530.59 833.591H1477.68L1503.88 779.722L1530.59 833.591ZM1657.89 837.438C1657.89 828.133 1652.35 821.066 1644.01 817.453C1635.82 813.841 1622.84 812.506 1602.45 809.601C1593.6 808.384 1589.11 807.716 1585.14 805.871C1583.26 804.928 1577.84 802.376 1577.84 795.741C1577.84 792.521 1579.05 790.008 1579.56 789.066C1581.16 786.278 1583.81 784.001 1586.46 782.391C1595.7 776.934 1608.02 776.934 1610.67 776.934C1622.45 776.934 1635.27 779.604 1643.89 788.399C1644.79 789.459 1645.88 790.794 1646.66 791.854L1655.12 787.339C1654.07 786.004 1652.08 783.609 1648.76 780.821C1634.77 769.199 1617.03 768.806 1611.34 768.806C1601.94 768.806 1590.01 770.534 1581.7 775.206C1574.14 779.486 1568.33 787.064 1568.33 796.134C1568.33 807.049 1576.25 811.996 1579.44 813.606C1584.86 816.393 1592.27 817.336 1598.24 818.239C1603.77 819.063 1609.46 819.731 1615.16 820.516C1622.06 821.458 1637.92 823.186 1643.89 828.133C1645.45 829.429 1648.26 832.53 1648.26 837.988C1648.26 844.898 1644.01 849.963 1638.31 853.418C1627.98 859.544 1615.16 859.544 1611.61 859.544C1596.75 859.544 1587.36 856.245 1581.94 852.633C1574.69 847.686 1572.04 841.168 1570.83 838.106L1561.04 841.836C1563.42 846.233 1565.41 850.12 1568.99 853.85C1580.61 866.375 1600.22 867.278 1604.16 867.553C1606.97 867.71 1609.62 867.828 1612.27 867.828C1635.16 867.828 1647.71 859.975 1653.52 851.416C1657.38 845.723 1657.89 840.108 1657.89 837.438ZM1768.53 865.433V857.58H1684.36V820.123H1758.59V812.114H1684.36V779.093H1764.67V771.358H1675.24V865.433H1768.53Z" fill="#151919"/>
</g>
</g>
<defs>
<filter id="filter0_d" x="316.863" y="563.328" width="524.025" height="366.343" filterUnits="userSpaceOnUse" color-interpolation-filters="sRGB">
<feFlood flood-opacity="0" result="BackgroundImageFix"/>
<feColorMatrix in="SourceAlpha" type="matrix" values="0 0 0 0 0 0 0 0 0 0 0 0 0 0 0 0 0 0 127 0"/>
<feOffset dy="4"/>
<feGaussianBlur stdDeviation="4.5"/>
<feColorMatrix type="matrix" values="0 0 0 0 0 0 0 0 0 0 0 0 0 0 0 0 0 0 0.12 0"/>
<feBlend mode="normal" in2="BackgroundImageFix" result="effect1_dropShadow"/>
<feBlend mode="normal" in="SourceGraphic" in2="effect1_dropShadow" result="shape"/>
</filter>
<filter id="filter1_d" x="963.323" y="610.835" width="969.813" height="269.993" filterUnits="userSpaceOnUse" color-interpolation-filters="sRGB">
<feFlood flood-opacity="0" result="BackgroundImageFix"/>
<feColorMatrix in="SourceAlpha" type="matrix" values="0 0 0 0 0 0 0 0 0 0 0 0 0 0 0 0 0 0 127 0"/>
<feOffset dy="4"/>
<feGaussianBlur stdDeviation="4.5"/>
<feColorMatrix type="matrix" values="0 0 0 0 0 0 0 0 0 0 0 0 0 0 0 0 0 0 0.12 0"/>
<feBlend mode="normal" in2="BackgroundImageFix" result="effect1_dropShadow"/>
<feBlend mode="normal" in="SourceGraphic" in2="effect1_dropShadow" result="shape"/>
</filter>
<linearGradient id="paint0_linear" x1="525.381" y1="568.027" x2="633.727" y2="916.542" gradientUnits="userSpaceOnUse">
<stop stop-color="#00C7C7"/>
<stop offset="1" stop-color="#18ADAD"/>
</linearGradient>
<clipPath id="clip0">
<rect width="1618" height="373" fill="white" transform="translate(316 556)"/>
</clipPath>
</defs>
</svg>
