<svg width="2250" height="1485" viewBox="0 0 2250 1485" fill="none" xmlns="http://www.w3.org/2000/svg">
<g filter="url(#filter0_d)">
<circle cx="1125" cy="743" r="530" fill="white"/>
<path d="M1108.83 210.404C1072.36 211.727 1039.54 215.918 1005.79 223.637C899.706 247.824 802.553 304.911 729.441 386.074C651.843 472.199 604.829 579.571 594.389 694.478C592.11 719.585 591.632 741.566 592.735 766.893C598.028 885.219 641.882 996.928 718.634 1087.61C736.425 1108.64 758.884 1131.1 780.02 1149.04C868.094 1223.77 976.091 1267.4 1091 1274.68C1108.57 1275.82 1124.15 1276.15 1137.79 1275.67C1159.99 1274.9 1176.9 1273.61 1195.21 1271.18C1299.09 1257.55 1396.76 1213.25 1476.19 1143.74C1494.39 1127.79 1514.05 1107.87 1530.12 1089.08C1589.22 1019.94 1629.29 937.71 1647.3 848.681C1653.66 817.105 1656.86 787.367 1657.85 749.8C1658.29 733.553 1656.82 704.624 1654.47 683.488C1643.08 580.159 1601.13 481.903 1534.12 401.696C1515.12 378.942 1492.15 355.748 1470.16 337.111C1395.51 273.849 1306.88 232.753 1211.38 217.204C1177.56 211.691 1140.66 209.265 1108.83 210.404ZM1151.47 228.011C1171.28 229.151 1186.46 230.732 1203.85 233.378C1284.53 245.729 1361.14 277.231 1427.52 325.385C1442.23 336.082 1456.49 347.624 1471.45 361.078C1479.39 368.209 1501 389.896 1508.1 397.836C1541.22 434.963 1565.92 471.39 1587.39 514.729C1616.57 573.653 1634 636.988 1639.03 702.565C1640.98 727.708 1641.05 757.078 1639.25 781.229C1633.11 862.539 1608.85 938.923 1566.99 1008.69C1550.3 1036.44 1531.15 1062.32 1508.1 1088.16C1501 1096.14 1478.99 1118.2 1471.08 1125.29C1419.07 1171.9 1362.68 1205.68 1298.13 1228.84C1251.34 1245.6 1203.33 1255.08 1150.36 1258.02C1132.98 1259.02 1103.86 1258.58 1084.57 1257.03C993 1249.83 906.838 1219.17 831.299 1166.9C793.548 1140.76 756.862 1107.02 727.456 1071.44C710.694 1051.15 695.733 1029.97 682.169 1007.29C669.156 985.607 656.217 959.545 646.55 935.578C627.252 887.719 615.452 837.8 611.151 785.64C609.865 770.275 609.497 760.791 609.497 742.632C609.497 697.897 614.607 657.168 625.634 614.161C644.785 539.357 681.471 468.56 731.646 409.599C748.776 389.492 770.831 367.363 790.864 350.234C844.716 304.175 909.962 268.74 978.039 248.633C1021.67 235.731 1063.5 229.114 1111.58 227.497C1118.05 227.276 1144.81 227.644 1151.47 228.011Z" fill="#01204B"/>
<path d="M1108.64 237.201C1057.14 239.186 1012.11 247.273 965.1 262.895C922.166 277.195 882.356 296.64 845.083 321.489C756.164 380.854 688.344 466.134 650.998 565.64C619.826 648.714 611.225 738.846 626.039 827.361C634.309 876.912 650.336 925.653 673.126 970.793C725.14 1073.79 811.633 1156.64 916.763 1204.25C971.68 1229.1 1030.53 1243.84 1091 1247.84C1111.8 1249.24 1128.23 1249.39 1149.26 1248.39C1220.24 1245.09 1289.46 1226.85 1352.79 1194.87C1426.9 1157.45 1491.04 1101.98 1539.09 1033.76C1562.13 1001.01 1582.2 963.625 1596.69 926.425C1614.66 880.146 1625.65 831.698 1629.48 781.78C1632.16 746.933 1631.35 713.777 1626.94 678.856C1619.7 621.807 1602.83 566.558 1576.87 515.207C1533.87 430 1467.26 358.394 1384.88 308.807C1361.84 294.949 1335 281.716 1309.9 271.865C1258.69 251.794 1206.09 240.509 1150.22 237.569C1140 237.054 1117.91 236.834 1108.64 237.201ZM1117.02 262.822C1124.49 281.606 1155.88 362.291 1155.77 362.438C1155.4 362.769 1124.19 364.827 1123.9 364.496C1123.75 364.349 1122.1 359.975 1120.22 354.829C1118.35 349.683 1116.69 345.308 1116.55 345.161C1116.4 345.014 1110.37 345.272 1103.17 345.786C1095.96 346.301 1089.75 346.742 1089.42 346.742C1088.87 346.742 1088.39 348.323 1086.4 357.071C1085.12 362.769 1083.87 367.474 1083.68 367.547C1083.17 367.731 1058.69 369.459 1058.54 369.312C1058.36 369.165 1082.69 265.064 1083.06 264.403C1083.32 263.961 1086.37 263.631 1099.49 262.712C1108.35 262.087 1115.81 261.535 1116.03 261.499C1116.29 261.499 1116.73 262.087 1117.02 262.822ZM1275.53 287.744C1283.03 288.369 1293.35 292.119 1300.3 296.75C1308.21 302.08 1313.06 308.991 1315.7 318.732C1316.55 321.93 1316.66 322.996 1316.66 329.098C1316.7 336.302 1315.81 343.287 1314.9 342.956C1314.67 342.882 1308.24 341.191 1300.6 339.17C1287.66 335.788 1286.74 335.494 1286.92 334.795C1288.02 331.156 1288.61 326.819 1288.43 324.319C1287.66 314.909 1278.76 309.322 1270.9 313.328C1264.43 316.6 1258.4 327.738 1254.17 344.132C1250.9 356.887 1252.44 364.496 1259.06 367.952C1264.61 370.892 1269.9 370.378 1274.02 366.555C1275.86 364.864 1278.58 361.004 1279.53 358.725C1279.97 357.622 1280.27 357.365 1280.82 357.512C1281.22 357.622 1287.33 359.975 1294.42 362.732L1307.32 367.805L1305.45 371.333C1298.65 384.089 1289.02 391.367 1275.89 393.683C1271.15 394.491 1263.21 394.161 1258.25 392.911C1245.64 389.786 1235.86 383.648 1229.8 375.046C1220.5 361.85 1219.03 346.08 1225.35 326.892C1229.14 315.276 1234.58 306.124 1241.71 299.397C1248.91 292.596 1257.66 288.369 1266.34 287.597C1269.57 287.303 1270.27 287.303 1275.53 287.744ZM964.512 302.448C966.865 307.667 968.776 312.152 968.776 312.409C968.776 312.63 959.403 317.004 947.934 322.114C936.428 327.186 926.908 331.524 926.761 331.671C926.577 331.818 927.79 335.016 929.481 338.765L932.495 345.566L933.635 345.088C934.26 344.794 942.053 341.375 950.911 337.405C959.807 333.435 967.085 330.237 967.122 330.274C967.159 330.348 969.254 335.053 971.79 340.75L976.422 351.079L959.256 358.688C949.845 362.916 942.053 366.371 941.979 366.445C941.869 366.555 948.449 381.626 948.743 381.957C948.816 382.03 989.324 364.092 990.794 363.32C991.383 362.989 991.971 364.129 996.492 374.201C999.249 380.376 1001.45 385.485 1001.42 385.559C1001.12 385.816 930.951 416.951 930.621 416.951C930.437 416.951 930.179 416.73 930.069 416.473C929.959 416.252 920.512 395.043 909.08 369.385C897.648 343.691 888.348 322.665 888.385 322.628C888.422 322.555 904.448 315.424 923.931 306.712L959.403 290.942L959.844 291.898C960.064 292.449 962.159 297.191 964.512 302.448ZM1434.62 375.561C1440.43 380.964 1445.17 385.485 1445.17 385.596C1445.17 385.669 1439.51 391.845 1432.56 399.233C1425.61 406.658 1419.84 412.907 1419.69 413.128C1419.55 413.385 1422.86 416.73 1428.11 421.582C1432.85 426.03 1436.9 429.669 1437.08 429.743C1437.3 429.816 1462 403.718 1463.03 402.284C1463.11 402.211 1467.74 406.438 1473.32 411.658C1478.95 416.914 1484.17 421.766 1484.98 422.465L1486.45 423.788L1451.23 461.539C1431.86 482.308 1415.83 499.253 1415.61 499.18C1415.06 498.996 1392.68 478.191 1392.71 477.933C1392.75 477.786 1398.82 471.207 1406.2 463.303C1413.59 455.4 1419.66 448.784 1419.73 448.6C1419.84 448.269 1402.71 432.022 1402.23 432.022C1402.09 432.022 1395.87 438.565 1388.41 446.542C1380.95 454.555 1374.74 461.061 1374.59 460.988C1374.04 460.804 1351.8 439.962 1351.8 439.631C1351.8 439.484 1367.61 422.391 1386.94 401.659L1422.12 363.982L1423.08 364.864C1423.59 365.342 1428.77 370.157 1434.62 375.561ZM823.947 399.27C823.947 399.417 820.639 402.946 816.595 407.1L809.244 414.672L837.548 442.02C853.133 457.018 865.815 469.442 865.778 469.589C865.521 470.214 845.488 490.652 845.12 490.652C844.863 490.652 832.034 478.448 816.559 463.487L788.475 436.359L781.086 443.932C777.043 448.085 773.551 451.504 773.367 451.504C773.183 451.467 769.14 447.681 764.398 443.086L755.797 434.705L757.965 432.316C759.178 430.993 770.574 419.156 783.292 405.997L806.413 382.067L815.198 390.558C820.014 395.227 823.947 399.123 823.947 399.27ZM1140.44 389.014C1162.82 390.044 1183.85 392.911 1204.77 397.689C1293.98 418.201 1372.02 472.934 1422.45 550.385C1467.7 619.858 1486.89 703.925 1476.56 787.11C1470.2 838.389 1452.96 886.763 1425.24 931.204C1402.6 967.522 1371.91 1000.79 1336.91 1027C1263.87 1081.69 1172.16 1105.92 1080.89 1094.56C1029.61 1088.2 981.237 1070.96 936.796 1043.24C893.678 1016.34 855.854 979.064 827.549 935.615C784.946 870.185 765.317 791.595 771.934 713.042C776.492 658.859 793.217 607.14 821.117 560.677C846.995 517.596 882.209 480.102 923.857 451.283C962.748 424.376 1007.7 405.188 1053.84 395.851C1082.18 390.08 1112.39 387.728 1140.44 389.014ZM735.285 604.126C738.189 619.969 740.578 633.202 740.615 633.533C740.652 633.937 732.749 642.796 720.472 656.066C702.497 675.548 700.254 677.864 699.997 677.128C699.556 675.695 689.337 619.491 689.484 619.123C689.631 618.719 729.588 575.417 729.845 575.381C729.955 575.381 732.418 588.32 735.285 604.126ZM1540.37 598.686C1550.59 609.75 1558.97 619.013 1559.05 619.307C1559.19 619.895 1548.97 676.283 1548.53 677.275C1548.35 677.79 1543.97 673.269 1528.06 656.029C1516.96 644.009 1507.88 633.937 1507.91 633.716C1508.5 630.151 1518.43 576.152 1518.54 575.748C1518.69 575.344 1519.16 575.675 1520.27 576.924C1521.11 577.88 1530.15 587.658 1540.37 598.686ZM1560.22 763.842C1588.01 768.216 1610.8 771.819 1610.84 771.855C1610.91 771.892 1609.88 778.692 1608.56 786.963C1607.24 795.234 1606.17 802.218 1606.17 802.439C1606.17 802.696 1605.8 802.916 1605.36 802.916C1604.88 802.916 1595.95 801.556 1585.51 799.902C1575.04 798.248 1566.4 796.998 1566.29 797.072C1565.85 797.513 1562.43 820.708 1562.76 820.891C1562.94 821.038 1571.87 822.509 1582.53 824.2C1593.19 825.891 1601.98 827.287 1602.05 827.361C1602.2 827.471 1597.31 858.201 1597.13 858.385C1596.98 858.569 1495.45 842.616 1495.2 842.358C1495.01 842.211 1499.5 813.099 1499.86 811.886C1500.12 811.15 1500.38 811.187 1517.95 813.981C1527.76 815.561 1536.18 816.848 1536.7 816.848L1537.62 816.885L1539.49 805.012C1540.56 798.505 1541.33 793.102 1541.25 793.028C1541.11 792.881 1505.3 787.147 1504.46 787.11C1504.2 787.11 1503.98 786.779 1503.98 786.338C1503.98 785.566 1508.21 758.218 1508.58 756.674C1508.69 756.233 1508.98 755.865 1509.24 755.865C1509.46 755.865 1532.43 759.431 1560.22 763.842ZM699.629 774.759C728.595 780.494 752.341 785.236 752.415 785.309C752.635 785.566 756.017 818.392 755.833 818.576C755.245 819.164 656.512 861.51 656.438 861.216C656.364 860.995 655.666 854.452 654.857 846.659C654.049 838.866 653.314 831.845 653.203 831L652.983 829.53L662.908 825.523C672.538 821.627 672.832 821.48 672.685 820.597C672.575 820.083 671.913 813.834 671.178 806.776C670.443 799.682 669.818 793.874 669.781 793.837C669.781 793.8 665.187 792.918 659.636 791.852C654.085 790.786 649.38 789.794 649.16 789.61C648.645 789.169 646.109 764.32 646.587 764.32C646.77 764.32 670.664 769.025 699.629 774.759ZM1508.25 874.853C1508.14 875.625 1507.55 881.029 1506.92 886.91C1506.3 892.755 1505.71 898.268 1505.6 899.077L1505.38 900.584L1502.92 900.768C1499.68 901.025 1496.81 902.312 1494.2 904.811C1489.61 909.149 1486.52 917.75 1488.36 921.242C1489.83 924.11 1492.95 925.176 1495.71 923.852C1497.81 922.86 1499.53 920.838 1505.38 912.751C1516.52 897.276 1521.04 892.387 1527.03 889.336C1533.65 885.991 1542.47 885.44 1549.71 887.902C1563.82 892.718 1571.65 904.554 1571.65 921.095C1571.65 923.779 1571.47 927.124 1571.25 928.521C1570.29 934.733 1567.39 943.408 1564.08 949.951C1556.66 964.728 1546.36 973.182 1533.06 975.498C1529.97 976.05 1522.95 976.233 1520.49 975.829L1519.2 975.608L1521.85 963.993C1523.28 957.56 1524.75 951.054 1525.12 949.473L1525.74 946.643H1528.24C1532.95 946.643 1537.95 944.29 1540.59 940.872C1543.53 937.049 1545.96 931.719 1546.66 927.638C1547.06 925.359 1547.06 924.845 1546.47 923.338C1545.63 921.095 1544.12 920.066 1541.44 919.882C1539.71 919.735 1539.05 919.882 1538.02 920.507C1536.04 921.757 1533.17 925.102 1529.2 930.8C1521.74 941.46 1514.79 949.179 1509.39 952.781C1501.48 958.075 1490.53 958.516 1481.37 953.884C1472.52 949.436 1466.97 942.305 1464.39 932.013C1463.51 928.557 1463.55 920.029 1464.39 915.618C1465.94 907.973 1470.2 897.607 1474.43 891.284C1481.85 880.11 1493.1 873.603 1505.19 873.53L1508.47 873.493L1508.25 874.853ZM797.995 930.726C804.391 939.879 809.611 947.525 809.611 947.709C809.611 947.929 801.524 957.817 791.636 969.69C781.748 981.6 773.735 991.378 773.772 991.415C773.845 991.488 785.755 987.151 800.274 981.747C821.999 973.697 826.704 972.043 827.108 972.447C828.321 973.66 850.671 1006.01 850.45 1006.19C850.303 1006.3 831.262 1019.61 808.178 1035.78C785.093 1051.96 766.089 1065.19 765.942 1065.15C765.795 1065.15 761.935 1059.79 757.34 1053.24C749.033 1041.37 748.996 1041.37 749.805 1040.74C750.246 1040.41 763.516 1031.11 779.285 1020.09C795.055 1009.02 808.288 999.759 808.692 999.428C809.611 998.693 810.493 998.362 770.978 1013.14C753.04 1019.83 738.263 1025.31 738.079 1025.31C737.417 1025.27 726.463 1009.17 726.757 1008.69C726.904 1008.43 737.711 995.458 750.761 979.909C763.773 964.324 774.69 951.274 775.021 950.907C775.793 949.988 776.675 949.363 743.813 972.374C728.301 983.217 715.472 992.223 715.252 992.334C714.884 992.554 701.541 973.881 701.541 973.219C701.578 972.852 785.792 913.891 786.159 914.038C786.306 914.075 791.636 921.573 797.995 930.726ZM1483.21 987.996C1504.64 1004.72 1522.4 1018.62 1522.65 1018.84C1523.02 1019.2 1521.15 1021.81 1513.54 1031.59C1508.25 1038.36 1503.76 1043.87 1503.58 1043.87C1503.1 1043.87 1422.38 980.755 1422.38 980.35C1422.38 980.203 1426.68 974.506 1431.97 967.742L1441.57 955.465L1442.89 956.494C1443.66 957.082 1461.78 971.271 1483.21 987.996ZM1419.14 1008.32C1423.33 1013.32 1426.79 1017.55 1426.79 1017.7C1426.79 1017.84 1419.33 1024.24 1410.21 1031.89C1401.09 1039.53 1393.67 1045.96 1393.67 1046.11C1393.74 1046.59 1404 1058.76 1404.33 1058.76C1404.48 1058.76 1410.28 1053.98 1417.27 1048.1C1424.22 1042.25 1430.02 1037.51 1430.17 1037.55C1430.32 1037.58 1433.66 1041.48 1437.67 1046.22C1442.78 1052.32 1444.8 1054.97 1444.58 1055.34C1444.4 1055.6 1438.7 1060.45 1431.93 1066.14C1425.17 1071.81 1419.66 1076.66 1419.66 1076.95C1419.69 1077.21 1425.13 1083.9 1431.79 1091.8C1438.44 1099.74 1443.92 1106.32 1443.95 1106.47C1443.99 1106.62 1438.73 1111.14 1432.27 1116.54L1420.5 1126.39L1387.27 1086.77L1354.04 1047.18L1354.85 1046.37C1356.62 1044.6 1410.84 999.244 1411.17 999.244C1411.39 999.207 1414.95 1003.32 1419.14 1008.32ZM898.163 1042.77C904.632 1047.62 909.925 1051.74 909.962 1051.96C909.999 1052.62 873.755 1153.96 873.498 1153.85C873.387 1153.81 867.58 1149.48 860.595 1144.18L847.914 1134.63L851.737 1124.7C853.795 1119.26 855.412 1114.7 855.265 1114.59C854.677 1114.08 834.019 1098.57 833.615 1098.31C833.32 1098.16 829.902 1100.4 824.645 1104.23C819.977 1107.61 816.007 1110.37 815.787 1110.29C815.125 1110.11 795.68 1095.33 795.753 1095.07C795.79 1094.93 815.529 1080.59 839.569 1063.24L883.312 1031.67L884.856 1032.8C885.702 1033.43 891.693 1037.91 898.163 1042.77ZM966.019 1085.41C973.114 1088.38 979.032 1090.96 979.179 1091.1C979.363 1091.25 981.384 1102.68 983.663 1116.5C987.449 1139.22 988.809 1149.18 989.104 1155.62L989.177 1157.82L989.655 1156.17C989.912 1155.25 990.647 1152.67 991.272 1150.47C992.522 1145.87 994.617 1139.74 996.345 1135.4C998.293 1130.44 1009.32 1104.52 1009.54 1104.26C1009.69 1104.12 1014.98 1106.21 1021.34 1108.93C1030.64 1112.87 1032.92 1113.97 1032.88 1114.52C1032.85 1115 1005.94 1178.81 993.698 1207.33C993.294 1208.33 992.816 1209.1 992.632 1209.1C992.155 1209.1 969.769 1199.54 969.401 1199.17C969.107 1198.92 961.865 1153.04 960.542 1143.19C959.844 1138.01 959.219 1129.81 959.219 1125.51C959.219 1123.71 959.145 1122.31 959.072 1122.39C958.961 1122.46 958.557 1124.3 958.116 1126.39C957.712 1128.52 956.94 1131.65 956.425 1133.38C955.175 1137.57 935.252 1184.47 934.738 1184.47C934.407 1184.47 911.837 1175.02 911.506 1174.73C911.469 1174.69 920.365 1153.59 931.319 1127.83C942.236 1102.06 951.352 1080.63 951.536 1080.15C951.794 1079.49 952.014 1079.38 952.492 1079.64C952.86 1079.82 958.961 1082.43 966.019 1085.41ZM1258.62 1101.43C1271.85 1103.05 1283.91 1110.7 1291.55 1122.35C1297.21 1130.91 1301.22 1143.26 1302.14 1154.92C1303.35 1170.14 1298.61 1183.74 1288.61 1193.7C1282.07 1200.24 1275.27 1203.92 1264.98 1206.53C1247.66 1210.9 1231.42 1206.49 1219.21 1194.14C1206.82 1181.57 1199.99 1158.34 1203.3 1139.99C1203.52 1138.67 1204.29 1135.88 1204.99 1133.74C1210.13 1117.68 1221.86 1107.42 1240.24 1102.87C1247.44 1101.07 1252.48 1100.7 1258.62 1101.43ZM1177.57 1120.22C1177.57 1120.47 1177.82 1125.95 1178.15 1132.38C1178.48 1138.78 1178.67 1144.15 1178.56 1144.26C1178.45 1144.37 1173.67 1144.73 1167.93 1145.03C1162.2 1145.32 1157.49 1145.62 1157.42 1145.69C1157.38 1145.73 1158.23 1163.19 1159.37 1184.51C1160.51 1205.83 1161.35 1223.51 1161.32 1223.8C1161.21 1224.28 1158.89 1224.46 1146.5 1225.13C1138.42 1225.53 1131.73 1225.75 1131.62 1225.6C1131.51 1225.46 1130.51 1207.92 1129.41 1186.68C1128.31 1165.43 1127.28 1147.86 1127.17 1147.64C1126.99 1147.34 1124.15 1147.34 1116.4 1147.75C1105.96 1148.26 1105.89 1148.26 1105.85 1147.53C1105.85 1147.12 1105.55 1141.61 1105.22 1135.25C1104.78 1127.61 1104.71 1123.71 1104.97 1123.6C1105.3 1123.53 1172.46 1119.92 1176.2 1119.81C1177.09 1119.78 1177.57 1119.92 1177.57 1120.22Z" fill="#01204B"/>
<path d="M1098.79 294.03C1098.24 295.794 1092.62 323.657 1092.76 323.841C1092.87 323.915 1096.44 323.731 1100.7 323.437C1104.97 323.106 1108.72 322.849 1109.01 322.849C1109.6 322.849 1109.89 323.694 1102.94 304.322C1100.37 297.154 1098.9 293.552 1098.79 294.03Z" fill="#01204B"/>
<path d="M1113.79 398.461C1078.5 399.858 1047.73 405.408 1015.46 416.215C965.945 432.757 921.541 459.958 884.268 496.533C865.962 514.508 851.81 531.527 838.099 552.039C823.984 573.175 811.449 597.435 802.737 620.52C776.749 689.369 773.257 763.327 792.665 834.712C795.165 843.865 801.12 861.62 804.575 870.184C816.044 898.672 831.078 925.543 848.722 949.032C875.519 984.724 909.153 1015.27 946.721 1037.99C959.843 1045.93 975.539 1054.01 988.993 1059.79C1056.59 1088.79 1131.58 1095.37 1203.66 1078.64C1223.59 1074.01 1245.53 1066.66 1264.68 1058.17C1323.94 1031.92 1375.51 988.437 1411.9 933.961C1437.67 895.364 1455.53 851.511 1463.88 806.188C1472.59 759.063 1471.49 711.093 1460.64 664.336C1456.01 644.486 1448.73 622.762 1440.17 603.317C1436.71 595.45 1428.77 579.828 1424.21 571.888C1402.16 533.586 1373.86 500.724 1339.05 472.934C1288.65 432.794 1227.04 407.357 1163.23 400.446C1146.32 398.608 1128.23 397.873 1113.79 398.461ZM1141.17 415.848C1201.42 418.899 1257.7 437.646 1307.87 471.39C1362.64 508.186 1405.8 561.927 1429.91 623.35C1440.9 651.287 1447.37 678.047 1450.86 709.549C1452.74 726.789 1452.96 752.41 1451.38 770.569C1447.7 813.245 1436.12 853.9 1417.01 891.321C1387.35 949.436 1341.4 997.112 1283.98 1029.35C1277.4 1033.06 1263.87 1039.75 1256.6 1042.95C1224.51 1057.03 1191.53 1065.59 1156.61 1069.01C1145.4 1070.11 1140.03 1070.34 1124.45 1070.3C1107.28 1070.3 1100.89 1069.97 1086.59 1068.28C1034.9 1062.28 985.979 1044.09 942.126 1014.61C887.355 977.814 844.201 924.073 820.087 862.649C809.096 834.676 802.075 805.71 799.172 776.266C797.885 763.401 797.664 758.622 797.701 742.632C797.701 723.554 798.289 714.291 800.642 697.456C809.758 631.511 839.68 568.727 885.187 520.059C927.974 474.331 981.384 442.204 1041.08 426.361C1063.65 420.369 1088.28 416.657 1111.58 415.738C1118.38 415.444 1134.78 415.517 1141.17 415.848Z" fill="#01204B"/>
<g filter="url(#filter1_d)">
<path d="M1123.24 484.293C1118.6 494.181 1111.55 502.341 1099.64 511.641C1098.31 512.67 1093.68 516.126 1089.34 519.324C1075.74 529.285 1069.72 534.578 1064.39 541.195C1061.7 544.54 1057.84 550.274 1058.14 550.532C1058.21 550.605 1068.94 558.618 1081.99 568.396C1106.88 587.033 1109.71 589.385 1115.04 596.149C1117.72 599.494 1121.25 604.861 1123.38 608.72C1124.15 610.191 1124.89 611.404 1125 611.404C1125.11 611.404 1125.66 610.485 1126.25 609.382C1127.98 606.074 1131.87 600.082 1134.52 596.7C1140.03 589.606 1142.83 587.253 1167.93 568.433C1180.91 558.729 1191.53 550.605 1191.53 550.458C1191.53 550.017 1187.42 543.805 1185.62 541.562C1180.03 534.505 1173.96 529.285 1157.35 517.118C1150.88 512.376 1144.63 507.377 1141.1 504.105C1135.4 498.812 1129.78 491.277 1126.62 484.66C1125.7 482.822 1124.89 481.278 1124.82 481.278C1124.74 481.278 1124.01 482.638 1123.24 484.293Z" fill="#01204B"/>
</g>
<g filter="url(#filter2_d)">
<path d="M944.919 565.897C944.883 655.074 944.736 649.744 947.456 660.477C951.205 675.438 958.226 688.45 967.158 697.089C968.923 698.78 993.588 717.526 1029.68 744.581C1062.51 769.172 1090.63 790.456 1092.25 791.889C1098.97 797.807 1106.29 808.1 1109.71 816.481L1110.92 819.421L1111.18 808.136C1111.44 795.896 1111.14 662.241 1110.81 657.72C1109.63 640.517 1100.74 619.748 1090.12 609.199C1088.28 607.361 1066.26 590.636 1024.8 559.501C957.711 509.178 960.432 511.31 954.771 503.812C951.904 500.026 948.375 494.071 946.868 490.432C946.169 488.741 945.434 487.013 945.25 486.609C945.067 486.204 944.919 520.61 944.919 565.897Z" fill="#01204B"/>
</g>
<g filter="url(#filter3_d)">
<path d="M1304.05 488.263C1301.63 494.879 1296.66 502.635 1290.49 509.509C1288.02 512.229 1280.16 518.258 1225.2 559.501C1183.59 590.746 1161.76 607.361 1159.88 609.199C1149.67 619.307 1141.25 638.385 1139.37 655.698C1138.93 659.705 1138.45 791.816 1138.82 808.136L1139.08 819.421L1140.29 816.481C1143.71 808.1 1151.03 797.807 1157.75 791.889C1159.37 790.456 1187.49 769.172 1220.32 744.581C1256.41 717.526 1281.08 698.78 1282.84 697.089C1291.77 688.45 1298.68 675.622 1302.54 660.514C1305.3 649.744 1305.15 654.816 1305.04 565.64L1304.93 485.874L1304.05 488.263Z" fill="#01204B"/>
</g>
<g filter="url(#filter4_d)">
<path d="M1303.68 701.61C1301.4 707.491 1296.07 715.651 1290.71 721.496C1287.99 724.473 1281 729.803 1225.98 771.12C1192.05 796.594 1163.16 818.392 1161.8 819.531C1153.41 826.515 1145.25 841.476 1141.39 856.878C1138.82 867.097 1138.97 861.914 1138.97 951.164L1139.01 1031.74L1140.4 1028.43C1142.68 1022.99 1145.84 1017.81 1150.18 1012.26C1155.44 1005.53 1157.09 1004.24 1220.57 956.567C1261.3 926.021 1281.89 910.325 1283.69 908.524C1293.39 898.746 1300.6 883.712 1304.09 865.957L1304.9 861.914L1305.01 789.316C1305.08 749.396 1305.08 712.6 1305.04 707.564L1304.93 698.375L1303.68 701.61Z" fill="#2A679D"/>
</g>
<path d="M692.902 797.035C692.755 797.292 694.483 813.245 694.667 813.466C694.887 813.65 723.228 802.438 723.228 802.144C723.228 801.887 693.086 796.778 692.902 797.035Z" fill="#01204B"/>
<path d="M864.014 1073.31C857.838 1078.05 852.435 1082.25 851.957 1082.61L851.075 1083.24L857.802 1088.27C861.477 1091.07 864.602 1093.2 864.749 1093.05C865.006 1092.76 875.776 1065.19 875.776 1064.82C875.776 1064.34 874.453 1065.3 864.014 1073.31Z" fill="#01204B"/>
<path d="M1244.98 1125.69C1242.77 1126.21 1239.69 1128.19 1238.36 1129.96C1234.1 1135.55 1234.14 1145.76 1238.4 1160.58C1241.78 1172.27 1246.67 1180.21 1252.15 1182.93C1254.87 1184.25 1258.99 1184.29 1262.22 1183.04C1265.12 1181.9 1267.95 1179.1 1269.13 1176.2C1269.9 1174.22 1270.01 1173.44 1269.98 1168.85C1269.98 1164.69 1269.76 1162.78 1268.95 1159C1266.7 1148.52 1263.8 1139.59 1260.9 1134.52C1259.02 1131.17 1255.57 1127.57 1253.14 1126.39C1251.12 1125.44 1247.41 1125.11 1244.98 1125.69Z" fill="#01204B"/>
</g>
<defs>
<filter id="filter0_d" x="583" y="205" width="1084" height="1084" filterUnits="userSpaceOnUse" color-interpolation-filters="sRGB">
<feFlood flood-opacity="0" result="BackgroundImageFix"/>
<feColorMatrix in="SourceAlpha" type="matrix" values="0 0 0 0 0 0 0 0 0 0 0 0 0 0 0 0 0 0 127 0"/>
<feOffset dy="4"/>
<feGaussianBlur stdDeviation="4.5"/>
<feColorMatrix type="matrix" values="0 0 0 0 0 0 0 0 0 0 0 0 0 0 0 0 0 0 0.12 0"/>
<feBlend mode="normal" in2="BackgroundImageFix" result="effect1_dropShadow"/>
<feBlend mode="normal" in="SourceGraphic" in2="effect1_dropShadow" result="shape"/>
</filter>
<filter id="filter1_d" x="1049.12" y="476.278" width="151.413" height="148.125" filterUnits="userSpaceOnUse" color-interpolation-filters="sRGB">
<feFlood flood-opacity="0" result="BackgroundImageFix"/>
<feColorMatrix in="SourceAlpha" type="matrix" values="0 0 0 0 0 0 0 0 0 0 0 0 0 0 0 0 0 0 127 0"/>
<feOffset dy="4"/>
<feGaussianBlur stdDeviation="4.5"/>
<feColorMatrix type="matrix" values="0 0 0 0 0 0 0 0 0 0 0 0 0 0 0 0 0 0 0.12 0"/>
<feBlend mode="normal" in2="BackgroundImageFix" result="effect1_dropShadow"/>
<feBlend mode="normal" in="SourceGraphic" in2="effect1_dropShadow" result="shape"/>
</filter>
<filter id="filter2_d" x="935.906" y="481.605" width="184.371" height="350.816" filterUnits="userSpaceOnUse" color-interpolation-filters="sRGB">
<feFlood flood-opacity="0" result="BackgroundImageFix"/>
<feColorMatrix in="SourceAlpha" type="matrix" values="0 0 0 0 0 0 0 0 0 0 0 0 0 0 0 0 0 0 127 0"/>
<feOffset dy="4"/>
<feGaussianBlur stdDeviation="4.5"/>
<feColorMatrix type="matrix" values="0 0 0 0 0 0 0 0 0 0 0 0 0 0 0 0 0 0 0.12 0"/>
<feBlend mode="normal" in2="BackgroundImageFix" result="effect1_dropShadow"/>
<feBlend mode="normal" in="SourceGraphic" in2="effect1_dropShadow" result="shape"/>
</filter>
<filter id="filter3_d" x="1129.69" y="480.874" width="184.401" height="351.548" filterUnits="userSpaceOnUse" color-interpolation-filters="sRGB">
<feFlood flood-opacity="0" result="BackgroundImageFix"/>
<feColorMatrix in="SourceAlpha" type="matrix" values="0 0 0 0 0 0 0 0 0 0 0 0 0 0 0 0 0 0 127 0"/>
<feOffset dy="4"/>
<feGaussianBlur stdDeviation="4.5"/>
<feColorMatrix type="matrix" values="0 0 0 0 0 0 0 0 0 0 0 0 0 0 0 0 0 0 0.12 0"/>
<feBlend mode="normal" in2="BackgroundImageFix" result="effect1_dropShadow"/>
<feBlend mode="normal" in="SourceGraphic" in2="effect1_dropShadow" result="shape"/>
</filter>
<filter id="filter4_d" x="1129.97" y="693.375" width="184.101" height="351.364" filterUnits="userSpaceOnUse" color-interpolation-filters="sRGB">
<feFlood flood-opacity="0" result="BackgroundImageFix"/>
<feColorMatrix in="SourceAlpha" type="matrix" values="0 0 0 0 0 0 0 0 0 0 0 0 0 0 0 0 0 0 127 0"/>
<feOffset dy="4"/>
<feGaussianBlur stdDeviation="4.5"/>
<feColorMatrix type="matrix" values="0 0 0 0 0 0 0 0 0 0 0 0 0 0 0 0 0 0 0.12 0"/>
<feBlend mode="normal" in2="BackgroundImageFix" result="effect1_dropShadow"/>
<feBlend mode="normal" in="SourceGraphic" in2="effect1_dropShadow" result="shape"/>
</filter>
</defs>
</svg>
