<svg width="2250" height="1485" viewBox="0 0 2250 1485" fill="none" xmlns="http://www.w3.org/2000/svg">
<g filter="url(#filter0_d)">
<path fill-rule="evenodd" clip-rule="evenodd" d="M539.374 179.412C544.501 161.467 541.938 176.848 552.193 187.102C599.218 234.129 633.011 326.754 577.829 381.937C542.117 417.648 529.836 217.565 539.374 179.412V179.412Z" fill="#8FD400"/>
<path fill-rule="evenodd" clip-rule="evenodd" d="M682.27 174.103C692.727 158.645 685.505 172.465 692.059 185.401C722.12 244.725 725.415 343.266 655.802 378.54C610.751 401.367 661.335 207.394 682.27 174.103V174.103Z" fill="#8FD400"/>
<path fill-rule="evenodd" clip-rule="evenodd" d="M433.806 336.718C419.51 331.206 430.574 336.655 430.177 345.011C428.355 383.337 462.995 435.587 532.571 436.969C577.597 437.863 463.317 348.976 433.806 336.718Z" fill="#8FD400"/>
<path d="M635.757 360.371C635.57 325.301 635.548 294.258 640.559 263.997C645.595 233.58 655.689 204.036 675.726 172.172L675.77 172.094C680.59 164.967 683.004 162.845 685.55 164.565L685.556 164.556C687.176 165.651 687.297 167.574 687.476 170.412C687.684 173.7 688.012 178.857 690.461 183.695L690.465 183.692L690.51 183.779V183.791C694.792 192.255 698.533 201.476 701.599 211.165C704.657 220.821 707.063 231.014 708.692 241.457C717.072 295.238 704.358 354.616 652.948 380.667L652.946 380.668L652.948 380.671C652.466 380.918 651.49 381.619 650.297 382.477C646.406 385.272 640.605 389.439 636.523 388.953C633.153 388.549 631.132 386.159 631.819 380.348C632.148 375.379 630.92 367.088 629.792 359.486C628.585 351.347 627.488 343.945 628.494 340.872L633.912 342.634C633.324 344.432 634.328 351.208 635.434 358.661C636.606 366.564 637.885 375.184 637.502 380.77V380.78L637.497 380.849L637.486 380.982C637.283 382.675 637.183 383.288 637.192 383.289C639.102 383.517 643.814 380.132 646.976 377.86C648.414 376.827 649.59 375.981 650.361 375.588L650.443 375.552C699.159 350.825 711.117 293.95 703.073 242.326C701.504 232.262 699.157 222.352 696.158 212.881C693.172 203.447 689.554 194.515 685.431 186.364L685.426 186.366L685.382 186.28V186.268C682.634 180.845 682.1 175.431 681.848 171.686C681.727 172.711 681.391 173.963 680.498 175.282L680.495 175.28C660.943 206.393 651.092 235.233 646.178 264.91C641.234 294.766 641.256 325.557 641.442 360.348L635.757 360.371V360.371ZM682.367 169.273C681.85 168.923 681.895 169.317 681.91 170.172C682.21 169.643 682.913 169.654 682.367 169.285V169.273Z" fill="#613005"/>
<path d="M553.129 370.904C542.032 337.613 532.346 308.1 527.697 277.805C523.022 247.345 523.422 216.132 532.552 179.614L532.574 179.524C534.941 171.24 536.572 168.474 539.529 169.318C541.4 169.851 542.114 171.644 543.171 174.291C544.388 177.34 546.297 182.123 550.152 185.978L550.159 185.985C574.019 209.846 594.524 245.292 602.069 281.785C609.674 318.571 604.158 356.445 575.815 384.811V384.821L575.789 384.846L575.785 384.852L575.779 384.846C575.442 385.187 574.714 386.184 573.824 387.398C570.997 391.264 566.785 397.026 562.744 397.834C559.418 398.498 556.755 396.852 555.598 391.109C554.357 386.247 550.621 378.774 547.196 371.923C543.507 364.546 540.153 357.839 540.153 354.63H545.861C545.861 356.547 548.918 362.66 552.279 369.381C555.873 376.57 559.795 384.414 561.15 389.809L561.155 389.83L561.188 389.963C561.52 391.628 561.622 392.238 561.629 392.238C563.505 391.862 566.932 387.176 569.23 384.031C570.255 382.632 571.093 381.486 571.749 380.827V380.816L571.754 380.812L571.779 380.786L571.784 380.791C598.572 353.981 603.74 317.975 596.495 282.923C589.185 247.559 569.284 213.182 546.124 190.019L546.118 190.013C541.822 185.717 539.624 180.706 538.215 177.21C538.423 178.222 538.502 179.521 538.065 181.063C529.16 216.719 528.773 247.207 533.339 276.958C537.933 306.893 547.53 336.134 558.524 369.12L553.129 370.904V370.904ZM537.968 174.802C537.371 174.631 537.533 174.99 537.812 175.794C537.923 175.191 538.6 174.982 537.968 174.802Z" fill="#613005"/>
<path d="M537.26 424.925C524.281 406.771 512.677 390.738 497.473 376.447C482.314 362.197 463.467 349.579 435.894 338.126L435.897 338.123C435.542 337.979 435.225 337.808 434.949 337.613C435.723 339.399 436.315 341.519 436.2 343.921C436.172 344.512 436.153 345.041 436.144 345.502V345.514C435.787 363.539 443.675 384.536 459.644 401.447C475.677 418.428 499.863 431.245 532.052 432.774C533.355 432.836 534.608 432.88 535.808 432.903H535.863L536.137 432.915H536.181C537.003 432.963 538.058 433.089 539.308 433.24C541.932 433.557 545.561 433.995 547.701 434.04C545.37 431.032 543.274 426.504 541.341 422.331L541.232 422.1L537.26 424.925V424.925ZM501.376 372.3C515.924 385.975 527.143 401.048 539.271 417.957C538.287 415.963 537.453 414.478 536.895 414.093L540.127 409.41C542.335 410.929 544.326 415.224 546.514 419.946C548.432 424.084 550.523 428.599 552.533 430.965C555.312 433.87 555.247 436.145 553.383 437.94C550.854 440.379 543.432 439.48 538.64 438.904C537.406 438.755 536.37 438.629 535.869 438.6V438.598L535.64 438.588C534.281 438.562 532.996 438.517 531.785 438.46C497.946 436.852 472.449 423.305 455.497 405.35C438.478 387.326 430.074 364.811 430.46 345.401C430.471 344.751 430.491 344.167 430.515 343.654C430.638 341.062 429.109 338.551 428.136 336.951C427.11 335.265 426.386 334.075 427.016 332.444C428.044 329.777 430.736 330.038 438.013 332.842L438.08 332.865C466.358 344.61 485.738 357.601 501.376 372.3V372.3ZM432.664 334.208L432.654 334.195L432.378 334.363L432.323 334.496C432.067 335.157 432.379 334.577 432.664 334.208ZM432.654 334.195C432.566 334.087 432.487 334.122 432.378 334.363L432.654 334.195Z" fill="#613005"/>
<path fill-rule="evenodd" clip-rule="evenodd" d="M692.982 421.467C831.839 421.467 1069.51 498.389 1069.51 669.919C1069.51 841.448 905.799 1239.96 766.942 1239.96C628.085 1239.96 436.585 928.284 436.585 756.754C436.585 585.225 554.125 421.467 692.982 421.467Z" fill="#F7B512"/>
<path d="M684.25 404.023H684.259V404.034C754.078 404.036 848.733 423.372 925.918 464.262C1003.54 505.384 1063.62 568.297 1063.62 655.318H1063.63V655.329V655.334H1063.62C1063.62 741.494 1022.58 884.506 964.131 1005.91C905.425 1127.86 828.923 1228.21 758.217 1228.22V1228.23H758.21H758.206V1228.22C687.717 1228.21 604.277 1149.73 538.575 1049.65C473.083 949.894 425.015 828.492 425.012 742.173H425V742.165V742.157H425.012C425.013 655.772 454.619 571.332 501.708 508.488C548.962 445.426 613.858 404.037 684.243 404.034V404.023H684.25V404.023ZM684.259 409.72V409.731H684.25H684.243V409.72C615.778 409.722 552.482 450.211 506.256 511.901C459.865 573.813 430.697 657.019 430.696 742.157H430.708V742.165V742.173H430.696C430.7 827.382 478.382 947.576 543.347 1046.53C608.105 1145.17 689.843 1222.53 758.206 1222.53V1222.52H758.21H758.217V1222.53C826.361 1222.53 901.143 1123.62 959.002 1003.44C1017.12 882.71 1057.94 740.705 1057.94 655.334H1057.93V655.329V655.318H1057.94C1057.93 570.828 999.179 509.518 923.265 469.302C846.906 428.849 753.297 409.721 684.259 409.72V409.72Z" fill="#613005"/>
<path fill-rule="evenodd" clip-rule="evenodd" d="M675.577 563.759C648.913 552.78 638.643 577.577 633.493 598.907C628.982 617.579 641.708 637.19 656.792 638.434C690.059 641.178 701.241 624.142 694.55 589.995C691.879 576.357 684.619 569.789 675.577 563.759V563.759Z" fill="white"/>
<path fill-rule="evenodd" clip-rule="evenodd" d="M495.741 702.653C493.022 709.127 488.865 726.564 502.454 723.901C510.833 722.26 522.38 703.486 513.242 697.659C504.865 692.318 502.174 694.345 495.741 702.653V702.653Z" fill="white"/>
<path fill-rule="evenodd" clip-rule="evenodd" d="M599.396 588.002C588.256 593.551 586.03 605.258 588.243 616.552C595.223 652.181 617.706 639.007 619.766 623.054C620.509 617.297 619.867 612.314 619.259 606.841C617.629 592.155 604.707 586.065 599.396 588.002V588.002Z" fill="white"/>
<path fill-rule="evenodd" clip-rule="evenodd" d="M555.048 625.626C551.663 634.423 553.051 640.207 554.848 649.379C557.725 664.063 570.293 659.218 577.928 650.101C580.334 647.229 580.044 642.892 579.123 638.189C577.4 629.399 562.03 607.474 555.048 625.626Z" fill="white"/>
<path fill-rule="evenodd" clip-rule="evenodd" d="M529.728 649.3C522.399 653.435 516.403 663.889 518.145 672.783C518.851 676.383 518.502 689.105 527.519 687.049C535.016 685.34 543.461 677.528 544.531 669.368C545.986 658.274 541.301 648.201 529.728 649.3Z" fill="white"/>
<path fill-rule="evenodd" clip-rule="evenodd" d="M675.796 666.624C619.36 640.9 545.554 662.131 516.193 755.177C492.473 830.346 570.947 907.196 587.835 972.603C608.672 1053.31 661.681 1165.81 748.263 1121.71C806.399 1092.1 779.222 1021.48 723.288 974.583C622.607 890.169 766.333 707.89 675.796 666.624V666.624Z" fill="white"/>
<path d="M1750.55 871.804V751.65H1735.3V826.794C1735.3 832.326 1735.68 838.047 1736.25 843.578L1695.63 751.65H1675.41V871.804H1690.67V790.176C1690.67 784.645 1690.29 779.114 1689.71 773.774L1734.91 871.804H1750.55V871.804Z" fill="#613005"/>
<path d="M1600.93 748.782C1569.65 748.782 1559.16 786.354 1559.16 811.719C1559.16 837.086 1569.65 874.689 1600.93 874.689C1632.21 874.689 1642.7 837.086 1642.7 811.719C1642.7 786.354 1632.21 748.782 1600.93 748.782ZM1600.93 761.369C1621.53 761.369 1627.44 796.272 1627.44 811.719C1627.44 827.168 1621.53 862.07 1600.93 862.07C1580.33 862.07 1574.42 827.168 1574.42 811.719C1574.42 796.272 1580.33 761.369 1600.93 761.369Z" fill="#613005"/>
<path d="M1490.8 751.65H1461.24V869.898C1470.77 872.409 1481.26 874.697 1491.18 874.697C1514.64 874.697 1534.09 862.077 1534.09 836.903C1534.09 821.454 1525.51 808.485 1509.3 807.532C1519.6 804.671 1527.42 792.274 1527.42 781.975C1527.42 769.387 1521.51 759.279 1509.68 754.511C1503.77 752.223 1497.09 751.65 1490.8 751.65V751.65ZM1512.35 781.785C1512.35 794.754 1503.2 802.382 1490.61 802.382H1476.49V763.475H1490.61C1503.01 763.475 1512.35 767.862 1512.35 781.785ZM1518.83 836.712C1518.83 853.876 1506.82 861.697 1490.8 861.697C1486.03 861.697 1481.07 860.552 1476.49 859.217V814.779H1489.85C1505.67 814.779 1518.83 817.64 1518.83 836.712V836.712Z" fill="#613005"/>
<path d="M1434.25 871.804V867.227L1398.78 827.938C1418.23 824.125 1428.53 807.532 1428.53 788.65C1428.53 762.141 1407.93 751.65 1383.9 751.65H1357.96V871.804H1373.22V825.078C1375.32 826.222 1377.61 827.176 1379.9 827.938L1419.38 871.804H1434.25V871.804ZM1413.27 788.459C1413.27 804.29 1403.74 816.495 1387.33 816.495C1382.19 816.495 1377.8 814.588 1373.22 812.491V763.857H1383.9C1399.73 763.857 1413.27 771.104 1413.27 788.459Z" fill="#613005"/>
<path d="M1333.46 871.804L1295.31 751.65H1278.91L1240.77 871.804H1256.41L1269.19 833.088H1305.04L1317.82 871.804H1333.46V871.804ZM1287.11 767.48L1301.42 820.501H1272.81L1287.11 767.48V767.48Z" fill="#613005"/>
<path d="M1226.75 863.976L1220.26 854.44C1213.4 859.59 1202.91 862.26 1194.32 862.26C1168.96 862.26 1162.47 832.698 1162.47 812.482C1162.47 794.554 1171.25 760.796 1193.94 760.796C1203.1 760.796 1211.3 762.513 1219.31 766.9L1224.84 756.982C1216.26 751.451 1204.05 748.781 1193.94 748.781C1160.95 748.781 1147.22 783.682 1147.22 811.719C1147.22 841.09 1158.66 874.688 1193.56 874.688C1204.43 874.688 1218.16 870.842 1226.75 863.976V863.976Z" fill="#613005"/>
<path d="M1812.59 1018.63C1815.96 1017.58 1825 1013.76 1825 1013.76L1818.48 993.009C1818.48 993.009 1812.8 996.163 1808.18 994.479C1805.23 993.639 1804.81 988.38 1804.81 987.12V938.47H1821.63V914.284H1804.39V895.776H1775.16V914.284H1765.27V936.155L1774.32 938.47V992.167C1774.32 1005.8 1780.62 1020.31 1799.55 1020.31C1805.02 1020.31 1808.81 1019.89 1812.59 1018.63Z" fill="#613005"/>
<path d="M1720.06 1017.12H1750.56V942.674C1750.56 927.322 1745.72 910.917 1718.59 910.917C1710.18 910.917 1701.14 917.016 1694.62 921.642V914.07H1664.12V1017.12H1694.62V944.567C1700.09 941.201 1705.34 936.154 1714.81 936.154C1718.8 936.154 1720.06 938.468 1720.06 942.674V1017.12V1017.12Z" fill="#613005"/>
<path d="M1612.38 1017.11H1642.46V914.067H1612.38V1017.11Z" fill="#613005"/>
<path d="M1598.51 943.935L1602.51 914.07C1602.51 914.07 1597.67 910.917 1591.57 910.917C1586.31 910.917 1577.27 921.642 1577.27 921.642V914.07H1546.57V1017.12H1577.06V943.935C1577.06 943.935 1580.01 940.78 1585.26 940.78C1591.15 940.78 1598.51 943.935 1598.51 943.935V943.935Z" fill="#613005"/>
<path d="M1485.58 936.154C1498.83 936.154 1499.04 954.45 1499.04 963.703C1499.04 972.747 1499.46 995.669 1485.58 995.669C1470.44 995.669 1469.17 979.058 1469.17 967.278V944.776C1473.8 940.78 1476.96 936.154 1485.58 936.154ZM1486.42 1020.31C1522.8 1020.31 1530.16 985.577 1530.16 962.021C1530.16 940.15 1518.17 910.917 1490.84 910.917C1479.48 910.917 1468.96 921.642 1468.96 921.642L1469.17 914.07H1438.47V1053.96H1469.17V1012.91C1469.17 1012.91 1476.53 1020.31 1486.42 1020.31V1020.31Z" fill="#613005"/>
<path d="M1413.44 1018.63C1416.81 1017.58 1425.85 1013.76 1425.85 1013.76L1419.33 993.009C1419.33 993.009 1413.66 996.163 1409.03 994.479C1406.08 993.639 1405.66 988.38 1405.66 987.12V938.47H1422.49V914.284H1405.24V895.776H1376.01V914.284H1366.13V936.155L1375.17 938.47V992.167C1375.17 1005.8 1381.48 1020.31 1400.41 1020.31C1405.87 1020.31 1409.66 1019.89 1413.44 1018.63Z" fill="#613005"/>
<path d="M1627.16 1057.82C1636.84 1057.82 1646.3 1050.46 1646.3 1040.16C1646.3 1030.27 1637.46 1023.33 1628 1023.33C1618.33 1023.33 1608.86 1031.12 1608.86 1041.21C1608.86 1051.09 1617.7 1057.82 1627.16 1057.82V1057.82Z" fill="#613005"/>
<path d="M1337.15 1057.82C1346.83 1057.82 1356.29 1050.46 1356.29 1040.16C1356.29 1030.27 1347.46 1023.33 1337.99 1023.33C1328.32 1023.33 1318.85 1031.12 1318.85 1041.21C1318.85 1051.09 1327.69 1057.82 1337.15 1057.82V1057.82Z" fill="#613005"/>
<path d="M1322.39 1017.11H1352.45V914.067H1322.39V1017.11Z" fill="#613005"/>
<path d="M1296.72 1020.3L1306.39 1004.28C1306.39 1004.28 1301.13 1000.92 1301.13 995.663V914.276H1270.64V987.078C1270.64 987.078 1258.65 995.244 1251.92 995.244C1247.3 995.244 1245.19 993.981 1245.19 988.968V914.276H1214.7V988.968C1214.7 1008.91 1223.95 1020.3 1247.3 1020.3C1256.97 1020.3 1268.96 1013.75 1276.74 1008.07C1280.52 1013.54 1287.26 1019.25 1296.72 1020.3V1020.3Z" fill="#613005"/>
<path d="M1199.36 943.935L1203.35 914.07C1203.35 914.07 1198.51 910.917 1192.42 910.917C1187.16 910.917 1178.12 921.642 1178.12 921.642V914.07H1147.41V1017.12H1177.9V943.935C1177.9 943.935 1180.85 940.78 1186.1 940.78C1191.99 940.78 1199.36 943.935 1199.36 943.935V943.935Z" fill="#613005"/>
<path d="M1135.62 890.378L1131 868.647C1131 868.647 1088.1 869.069 1088.1 904.576V914.283H1077.79V936.154L1088.1 937.837V1017.12H1118.59V938.887H1134.36V914.283H1118.59V905.836C1118.59 893.358 1135.62 890.378 1135.62 890.378Z" fill="#613005"/>
</g>
<defs>
<filter id="filter0_d" x="416" y="159" width="1418" height="1093.96" filterUnits="userSpaceOnUse" color-interpolation-filters="sRGB">
<feFlood flood-opacity="0" result="BackgroundImageFix"/>
<feColorMatrix in="SourceAlpha" type="matrix" values="0 0 0 0 0 0 0 0 0 0 0 0 0 0 0 0 0 0 127 0"/>
<feOffset dy="4"/>
<feGaussianBlur stdDeviation="4.5"/>
<feColorMatrix type="matrix" values="0 0 0 0 0 0 0 0 0 0 0 0 0 0 0 0 0 0 0.12 0"/>
<feBlend mode="normal" in2="BackgroundImageFix" result="effect1_dropShadow"/>
<feBlend mode="normal" in="SourceGraphic" in2="effect1_dropShadow" result="shape"/>
</filter>
</defs>
</svg>
