<svg width="2250" height="1485" viewBox="0 0 2250 1485" fill="none" xmlns="http://www.w3.org/2000/svg">
<g filter="url(#filter0_d)">
<path fill-rule="evenodd" clip-rule="evenodd" d="M397.327 502.083C417.221 466.532 459.386 460.181 475.219 421C491.084 460.257 533.366 466.554 553.212 502.283L501.515 541.067L501.42 541.139H501.295C497.92 543.689 494.464 546.921 490.988 550.724C487.76 554.253 484.921 557.818 482.49 561.359L482.577 561.417C480.442 564.527 478.405 567.848 476.497 571.336L476.473 571.378L476.391 571.532L476.112 572.045L476.057 572.145L475.725 572.763L475.642 572.916L475.608 572.984L475.56 573.072L475.405 573.375L475.399 573.386L475.233 573.072L475.186 572.984L475.151 572.916L475.068 572.763L474.984 572.608L474.902 572.454L474.82 572.3C472.763 568.461 470.558 564.811 468.229 561.417L468.314 561.359C465.883 557.818 463.044 554.253 459.817 550.724C456.341 546.921 452.885 543.689 449.51 541.139H449.385L449.29 541.067L397.327 502.083V502.083Z" fill="#032048"/>
<path d="M295.855 677.487V677.467C293.117 675.406 290.491 672.958 288.025 670.216L287.915 670.081L287.807 669.954L287.7 669.837L287.577 669.717L287.475 669.592L287.365 669.465L287.257 669.343L287.154 669.206L287.038 669.081L286.929 668.96L286.829 668.84L286.706 668.713L286.604 668.576L286.494 668.441L286.389 668.314L286.292 668.202L286.191 668.066L286.065 667.93L285.974 667.811L285.872 667.686L285.753 667.553L285.656 667.422L285.545 667.286L285.447 667.164L285.339 667.03L285.236 666.905L285.129 666.781L285.021 666.644L284.942 666.519L284.833 666.375L284.741 666.234L284.618 666.117L284.524 665.981H284.519L284.426 665.856L284.322 665.728L284.221 665.592L284.132 665.45L284.022 665.328L283.931 665.201L283.826 665.056L283.731 664.925L283.636 664.805L283.529 664.67L283.43 664.529L283.344 664.398L283.228 664.259L283.152 664.126L283.05 663.991L282.955 663.864L282.848 663.719L282.768 663.591L282.657 663.449L282.58 663.319L282.487 663.183L282.388 663.049L282.289 662.913L282.206 662.774L282.112 662.646L282.011 662.514L281.923 662.361L281.821 662.23L281.732 662.091L281.645 661.957L281.549 661.807L281.095 661.132L280.655 660.419L280.214 659.71L279.76 658.987L279.337 658.263L278.901 657.533L278.474 656.773L278.055 656.035L277.644 655.27L277.229 654.507L276.821 653.736L276.418 652.957L276.032 652.171L275.638 651.385L275.252 650.571L274.88 649.781V649.773L274.519 648.961L274.137 648.156L273.788 647.336V647.327L273.422 646.499L273.072 645.671L272.74 644.828L272.405 643.99L272.063 643.145L271.739 642.289L271.423 641.442L271.114 640.594V640.583L270.803 639.718L270.509 638.86L270.241 637.998L269.94 637.13L269.665 636.249L269.39 635.385L269.131 634.496L268.877 633.613L268.635 632.728L268.401 631.854L268.153 630.966L267.954 630.078L267.72 629.196L267.528 628.31L267.321 627.423L267.125 626.525V626.517L266.937 625.635L266.765 624.75L266.591 623.859V623.855L266.438 622.967L266.282 622.074L266.127 621.2V621.182L265.998 620.295L265.876 619.413V619.407L265.755 618.526V618.518L265.661 617.656L265.559 616.763V616.745L265.454 615.874L265.385 615.009L265.309 614.121V614.118L265.256 613.25L265.204 612.384L265.144 611.522V611.519L265.114 610.661V610.651L265.086 609.8L265.068 608.936V608.086V608.08H265.135V605.827C265.048 604.32 265 602.822 265 601.346V544.991V488.634V442.747L265.114 442.834L265.135 426.431C267.644 435.292 275.703 448.814 286.488 458.869L294.047 464.541L362.08 515.584L430.115 566.627C444.934 577.745 457.248 604.756 458.955 628.75L458.998 629.265L459.054 630.126L459.108 630.997L459.142 631.858L459.184 632.728L459.205 633.594L459.225 634.451L459.232 635.29V635.305H459.162V681.833V690.662V728.379H459.232V766.251V766.268V800.082L459.184 800.046L459.162 816.945C456.293 806.761 446.064 790.409 432.804 780.239L432.169 779.775L408.179 761.768L352.022 719.623L295.855 677.487V677.487Z" fill="#032048"/>
<path d="M654.95 925.36V925.34C657.688 923.278 660.313 920.831 662.779 918.088L662.89 917.954L662.998 917.827L663.105 917.71L663.227 917.589L663.33 917.465L663.44 917.338L663.548 917.216L663.65 917.078L663.767 916.953L663.876 916.833L663.976 916.712L664.099 916.586L664.201 916.448L664.311 916.314L664.416 916.187L664.513 916.074L664.614 915.939L664.74 915.803L664.831 915.684L664.933 915.559L665.052 915.426L665.15 915.295L665.26 915.159L665.358 915.037L665.466 914.903L665.569 914.778L665.676 914.654L665.784 914.516L665.863 914.391L665.971 914.248L666.064 914.107L666.187 913.99L666.28 913.854H666.286L666.379 913.729L666.482 913.599L666.583 913.465L666.673 913.321L666.783 913.201L666.873 913.074L666.98 912.929L667.074 912.798L667.171 912.677L667.276 912.543L667.375 912.402L667.461 912.271L667.577 912.132L667.653 911.999L667.755 911.864L667.852 911.737L667.957 911.592L668.037 911.463L668.147 911.322L668.225 911.192L668.317 911.056L668.417 910.921L668.516 910.787L668.599 910.647L668.693 910.518L668.794 910.387L668.882 910.234L668.984 910.103L669.073 909.964L669.16 909.83L669.256 909.68L669.71 909.005L670.15 908.292L670.591 907.582L671.045 906.86L671.468 906.136L671.904 905.406L672.331 904.646L672.75 903.908L673.161 903.143L673.576 902.38L673.984 901.608L674.387 900.83L674.773 900.044L675.167 899.258L675.552 898.444L675.924 897.654V897.646L676.286 896.834L676.668 896.029L677.017 895.209V895.2L677.383 894.372L677.733 893.544L678.065 892.701L678.4 891.863L678.742 891.018L679.065 890.162L679.381 889.315L679.69 888.467V888.456L680.002 887.591L680.295 886.733L680.564 885.871L680.865 885.003L681.14 884.121L681.415 883.258L681.674 882.369L681.928 881.485L682.17 880.6L682.404 879.727L682.652 878.84L682.85 877.949L683.085 877.069L683.277 876.183L683.484 875.296L683.68 874.398V874.39L683.868 873.508L684.04 872.623L684.214 871.732V871.727L684.367 870.84L684.523 869.947L684.678 869.073V869.054L684.807 868.168L684.93 867.286V867.28L685.05 866.398V866.39L685.144 865.529L685.246 864.636V864.618L685.351 863.747L685.42 862.882L685.496 861.994V861.991L685.549 861.123L685.6 860.258L685.662 859.395V859.392L685.691 858.534V858.524L685.719 857.673L685.737 856.808V855.959V855.953H685.669V852.136C685.709 851.127 685.735 850.117 685.735 849.123V792.768V762.875H685.737V762.865V724.982V724.979V691.176H685.735V690.524L685.691 690.558L685.669 674.304C683.22 682.956 675.476 696.056 665.072 706.028L656.688 712.318L588.656 763.36L520.62 814.404C504.644 826.39 491.573 856.844 491.573 882.083V883.162V883.178V938.438V976.253V994.795V1014.12V1014.14V1040.68V1047.96L491.621 1047.92L491.643 1064.82C494.512 1054.63 504.741 1038.28 518.001 1028.11L518.636 1027.65L542.626 1009.64L598.783 967.496L654.95 925.36V925.36Z" fill="#336699"/>
<path d="M654.95 677.487V677.467C657.688 675.406 660.313 672.958 662.779 670.216L662.89 670.081L662.998 669.954L663.105 669.837L663.227 669.717L663.33 669.592L663.44 669.465L663.548 669.343L663.65 669.206L663.767 669.081L663.876 668.96L663.976 668.84L664.099 668.713L664.201 668.576L664.311 668.441L664.416 668.314L664.513 668.202L664.614 668.066L664.74 667.93L664.831 667.811L664.933 667.686L665.052 667.553L665.15 667.422L665.26 667.286L665.358 667.164L665.466 667.03L665.569 666.905L665.676 666.781L665.784 666.644L665.863 666.519L665.971 666.375L666.064 666.234L666.187 666.117L666.28 665.981H666.286L666.379 665.856L666.482 665.728L666.583 665.592L666.673 665.45L666.783 665.328L666.873 665.201L666.98 665.056L667.074 664.925L667.171 664.805L667.276 664.67L667.375 664.529L667.461 664.398L667.577 664.259L667.653 664.126L667.755 663.991L667.852 663.864L667.957 663.719L668.037 663.591L668.147 663.449L668.225 663.319L668.317 663.183L668.417 663.049L668.516 662.913L668.599 662.774L668.693 662.646L668.794 662.514L668.882 662.361L668.984 662.23L669.073 662.091L669.16 661.957L669.256 661.807L669.71 661.132L670.15 660.419L670.591 659.71L671.045 658.987L671.468 658.263L671.904 657.533L672.331 656.773L672.75 656.035L673.161 655.27L673.576 654.507L673.984 653.736L674.387 652.957L674.773 652.171L675.167 651.385L675.552 650.571L675.924 649.781V649.773L676.286 648.961L676.668 648.156L677.017 647.336V647.327L677.383 646.499L677.733 645.671L678.065 644.828L678.4 643.99L678.742 643.145L679.065 642.289L679.381 641.442L679.69 640.594V640.583L680.002 639.718L680.295 638.86L680.564 637.998L680.865 637.13L681.14 636.249L681.415 635.385L681.674 634.496L681.928 633.613L682.17 632.728L682.404 631.854L682.652 630.966L682.85 630.078L683.085 629.196L683.277 628.31L683.484 627.423L683.68 626.525V626.517L683.868 625.635L684.04 624.75L684.214 623.859V623.855L684.367 622.967L684.523 622.074L684.678 621.2V621.182L684.807 620.295L684.93 619.413V619.407L685.05 618.526V618.518L685.144 617.656L685.246 616.763V616.745L685.351 615.874L685.42 615.009L685.496 614.121V614.118L685.549 613.25L685.6 612.384L685.662 611.522V611.519L685.691 610.661V610.651L685.719 609.8L685.737 608.936V608.086V608.08H685.669V605.827C685.757 604.32 685.805 602.822 685.805 601.346V544.991V488.634V442.747L685.691 442.834L685.669 426.431C683.161 435.292 675.102 448.814 664.317 458.869L656.758 464.541L588.725 515.584L520.69 566.627C505.871 577.745 493.557 604.756 491.85 628.75L491.807 629.265L491.751 630.126L491.697 630.997L491.663 631.858L491.621 632.728L491.6 633.594L491.58 634.451L491.573 635.29V635.305H491.643V681.833V690.662V728.379H491.573V766.251V766.268V800.082L491.621 800.046L491.643 816.945C494.512 806.761 504.741 790.409 518.001 780.239L518.636 779.775L542.626 761.768L598.783 719.623L654.95 677.487V677.487Z" fill="#032048"/>
<path d="M960.749 582.567V782.779H884.181V582.567H829.601V519.494H1015.33V582.567H960.749V582.567ZM1236.35 719.906V782.779H1038.31V519.494H1236.35V580.262H1117.58V618.449H1213.63V676.911H1117.58V719.906H1236.35ZM1413.65 782.779L1398.77 730.899H1328.19L1312.39 782.779H1246.81L1328.19 519.494H1413.65L1496.01 782.779H1413.65ZM1341.88 673.422H1384.68L1363.28 597.051L1341.88 673.422ZM1657.24 682.312L1731.12 686.723C1727.62 718.983 1715.71 743.74 1695.3 760.988C1674.96 778.238 1649.94 786.861 1620.18 786.861C1584.43 786.861 1555.59 775.01 1533.6 751.31C1511.61 727.673 1500.62 695.017 1500.62 653.341C1500.62 612.062 1511.02 578.749 1531.89 553.466C1552.7 528.12 1581.73 515.412 1619.06 515.412C1653.89 515.412 1680.68 525.092 1699.38 544.38C1718.08 563.672 1728.68 589.282 1731.12 621.148L1655.67 625.163C1655.67 607.587 1652.31 594.879 1645.59 586.978C1638.81 579.142 1630.85 575.261 1621.76 575.261C1596.28 575.261 1583.57 600.803 1583.57 652.025C1583.57 680.666 1586.86 700.154 1593.51 710.424C1600.1 720.759 1609.38 725.897 1621.36 725.897C1642.7 725.897 1654.68 711.346 1657.24 682.312V682.312ZM1984 519.494V782.779H1903.22V680.337H1841.46V782.779H1760.68V519.494H1841.46V616.343H1903.22V519.494H1984V519.494Z" fill="#032048"/>
<path d="M874.952 827.213H901.013L938.717 967.859H915.117L906.254 932.618H865.14L856.487 967.859H834.26L874.952 827.213ZM901.647 914.295L885.645 849.863L869.783 914.295H901.647ZM991.686 827.213H1026.22L1054.22 928.608L1082.99 827.213H1116.05V967.859H1094.21V847.82L1060.83 967.859H1043.95L1011.17 847.717V967.859H991.686V827.213V827.213ZM1169.54 827.213H1195.6L1233.31 967.859H1209.71L1200.84 932.618H1159.73L1151.08 967.859H1128.85L1169.54 827.213V827.213ZM1196.24 914.295L1180.23 849.863L1164.37 914.295H1196.24V914.295ZM1246.71 827.213H1274.14L1320.39 928.608V827.213H1339.88V967.859H1318.14L1266.19 855.242V967.859H1246.71V827.213V827.213ZM1388.59 827.213H1474.44V846.977H1442.99V967.859H1419.71V846.977H1388.59V827.213V827.213ZM1581.6 897.481C1581.6 921.538 1577.31 939.687 1568.73 951.997C1560.15 964.271 1547.66 970.427 1531.31 970.427C1514.88 970.427 1502.33 964.307 1493.6 952.032C1484.88 939.792 1480.52 921.61 1480.52 897.481C1480.52 873.566 1484.85 855.454 1493.5 843.144C1502.15 830.8 1514.74 824.644 1531.2 824.644C1547.49 824.644 1559.97 830.763 1568.62 843.039C1577.28 855.276 1581.6 873.424 1581.6 897.481V897.481ZM1557.19 897.481C1557.19 880.777 1555.23 867.657 1551.36 858.056C1547.49 848.49 1540.7 843.707 1531.03 843.707C1521.32 843.707 1514.57 848.49 1510.7 858.127C1506.86 867.729 1504.93 880.846 1504.93 897.481C1504.93 913.837 1506.83 926.885 1510.59 936.628C1514.39 946.406 1521.29 951.258 1531.31 951.258C1540.73 951.258 1547.38 946.546 1551.32 937.085C1555.23 927.659 1557.19 914.435 1557.19 897.481ZM1643.22 827.213H1721.34V845.853H1666.5V887.917H1710.4V906.557H1666.5V967.859H1643.22V827.213ZM1733.08 827.213H1756.37V967.859H1733.08V827.213ZM1867.15 858.654L1847.25 865.549C1844.93 858.127 1841.83 852.639 1838.03 849.124C1834.23 845.571 1829.03 843.814 1822.42 843.814C1816.3 843.814 1811.58 845.606 1808.24 849.192C1804.94 852.817 1803.25 856.965 1803.25 861.608C1803.25 866.78 1805.11 870.893 1808.87 873.954C1812.6 876.978 1820.09 880.636 1831.28 884.928C1840.84 888.549 1848.2 892.03 1853.33 895.301C1858.5 898.609 1862.65 903.038 1865.85 908.562C1869.05 914.082 1870.63 920.485 1870.63 927.766C1870.63 939.582 1866.49 949.642 1858.11 957.975C1849.78 966.277 1838.07 970.427 1823.05 970.427C1797.06 970.427 1780.99 957.307 1774.83 931.071L1795.62 925.196C1799.27 942.502 1808.73 951.153 1824.07 951.153C1831.56 951.153 1837.26 949.219 1841.13 945.349C1844.99 941.481 1846.93 936.663 1846.93 930.965C1846.93 926.779 1845.59 922.91 1842.92 919.323C1840.25 915.77 1833.6 911.938 1822.94 907.894C1811.65 903.637 1803.56 900.015 1798.57 897.061C1793.58 894.107 1789.36 889.746 1785.84 883.976C1782.32 878.209 1780.6 871.667 1780.6 864.317C1780.6 853.096 1784.5 843.707 1792.27 836.075C1800.08 828.442 1810.42 824.644 1823.37 824.644C1846.23 824.644 1860.82 835.969 1867.15 858.654V858.654ZM1891.24 827.213H1914.53V885.524H1955.96V827.213H1979.24V967.859H1955.96V905.219H1914.53V967.859H1891.24V827.213Z" fill="#032048"/>
</g>
<defs>
<filter id="filter0_d" x="256" y="416" width="1737" height="661.818" filterUnits="userSpaceOnUse" color-interpolation-filters="sRGB">
<feFlood flood-opacity="0" result="BackgroundImageFix"/>
<feColorMatrix in="SourceAlpha" type="matrix" values="0 0 0 0 0 0 0 0 0 0 0 0 0 0 0 0 0 0 127 0"/>
<feOffset dy="4"/>
<feGaussianBlur stdDeviation="4.5"/>
<feColorMatrix type="matrix" values="0 0 0 0 0 0 0 0 0 0 0 0 0 0 0 0 0 0 0.12 0"/>
<feBlend mode="normal" in2="BackgroundImageFix" result="effect1_dropShadow"/>
<feBlend mode="normal" in="SourceGraphic" in2="effect1_dropShadow" result="shape"/>
</filter>
</defs>
</svg>
