<svg xmlns="http://www.w3.org/2000/svg" xmlns:xlink="http://www.w3.org/1999/xlink" width="1000" height="660" viewBox="0 0 1000 660"><defs><clipPath id="a"><rect width="985.923" height="650" fill="none"/></clipPath><clipPath id="b"><rect width="985.923" height="640.684" fill="none"/></clipPath><linearGradient id="c" x2="0.5" y2="1" gradientUnits="objectBoundingBox"><stop offset="0" stop-color="#0da829"/><stop offset="1" stop-color="#075415"/></linearGradient><filter id="d" x="402.033" y="235.831" width="195.131" height="195.132" filterUnits="userSpaceOnUse"><feOffset dy="3" input="SourceAlpha"/><feGaussianBlur stdDeviation="3" result="e"/><feFlood flood-opacity="0.161"/><feComposite operator="in" in2="e"/><feComposite in="SourceGraphic"/></filter><clipPath id="g"><rect width="1000" height="660"/></clipPath></defs><g id="f" clip-path="url(#g)"><g transform="translate(7 4.5)" opacity="0.201"><g transform="translate(0 0.5)" clip-path="url(#a)"><g transform="translate(0 -0.5)"><path d="M0,0V660" transform="translate(6.5 0.5)" fill="none" stroke="rgba(6,35,43,0.5)" stroke-width="1"/></g><g transform="translate(21 -0.5)"><path d="M0,0V660" transform="translate(6.5 0.5)" fill="none" stroke="rgba(6,35,43,0.5)" stroke-width="1"/></g><g transform="translate(42 -0.5)"><path d="M0,0V660" transform="translate(6.5 0.5)" fill="none" stroke="rgba(6,35,43,0.5)" stroke-width="1"/></g><g transform="translate(63 -0.5)"><path d="M0,0V660" transform="translate(6.5 0.5)" fill="none" stroke="rgba(6,35,43,0.5)" stroke-width="1"/></g><g transform="translate(84 -0.5)"><path d="M0,0V660" transform="translate(6.5 0.5)" fill="none" stroke="rgba(6,35,43,0.5)" stroke-width="1"/></g><g transform="translate(105 -0.5)"><path d="M0,0V660" transform="translate(6.5 0.5)" fill="none" stroke="rgba(6,35,43,0.5)" stroke-width="1"/></g><g transform="translate(126 -0.5)"><path d="M0,0V660" transform="translate(6.5 0.5)" fill="none" stroke="rgba(6,35,43,0.5)" stroke-width="1"/></g><g transform="translate(147 -0.5)"><path d="M0,0V660" transform="translate(6.5 0.5)" fill="none" stroke="rgba(6,35,43,0.5)" stroke-width="1"/></g><g transform="translate(168 -0.5)"><path d="M0,0V660" transform="translate(6.5 0.5)" fill="none" stroke="rgba(6,35,43,0.5)" stroke-width="1"/></g><g transform="translate(189 -0.5)"><path d="M0,0V660" transform="translate(6.5 0.5)" fill="none" stroke="rgba(6,35,43,0.5)" stroke-width="1"/></g><g transform="translate(210 -0.5)"><path d="M0,0V660" transform="translate(6.5 0.5)" fill="none" stroke="rgba(6,35,43,0.5)" stroke-width="1"/></g><g transform="translate(231 -0.5)"><path d="M0,0V660" transform="translate(6.5 0.5)" fill="none" stroke="rgba(6,35,43,0.5)" stroke-width="1"/></g><g transform="translate(252 -0.5)"><path d="M0,0V660" transform="translate(6.5 0.5)" fill="none" stroke="rgba(6,35,43,0.5)" stroke-width="1"/></g><g transform="translate(273 -0.5)"><path d="M0,0V660" transform="translate(6.5 0.5)" fill="none" stroke="rgba(6,35,43,0.5)" stroke-width="1"/></g><g transform="translate(294 -0.5)"><path d="M0,0V660" transform="translate(6.5 0.5)" fill="none" stroke="rgba(6,35,43,0.5)" stroke-width="1"/></g><g transform="translate(315 -0.5)"><path d="M0,0V660" transform="translate(6.5 0.5)" fill="none" stroke="rgba(6,35,43,0.5)" stroke-width="1"/></g><g transform="translate(336 -0.5)"><path d="M0,0V660" transform="translate(6.5 0.5)" fill="none" stroke="rgba(6,35,43,0.5)" stroke-width="1"/></g><g transform="translate(357 -0.5)"><path d="M0,0V660" transform="translate(6.5 0.5)" fill="none" stroke="rgba(6,35,43,0.5)" stroke-width="1"/></g><g transform="translate(378 -0.5)"><path d="M0,0V660" transform="translate(6.5 0.5)" fill="none" stroke="rgba(6,35,43,0.5)" stroke-width="1"/></g><g transform="translate(399 -0.5)"><path d="M0,0V660" transform="translate(6.5 0.5)" fill="none" stroke="rgba(6,35,43,0.5)" stroke-width="1"/></g><g transform="translate(420 -0.5)"><path d="M0,0V660" transform="translate(6.5 0.5)" fill="none" stroke="rgba(6,35,43,0.5)" stroke-width="1"/></g><g transform="translate(441 -0.5)"><path d="M0,0V660" transform="translate(6.5 0.5)" fill="none" stroke="rgba(6,35,43,0.5)" stroke-width="1"/></g><g transform="translate(462 -0.5)"><path d="M0,0V660" transform="translate(6.5 0.5)" fill="none" stroke="rgba(6,35,43,0.5)" stroke-width="1"/></g><g transform="translate(483 -0.5)"><path d="M0,0V660" transform="translate(6.5 0.5)" fill="none" stroke="rgba(6,35,43,0.5)" stroke-width="1"/></g><g transform="translate(504 -0.5)"><path d="M0,0V660" transform="translate(6.5 0.5)" fill="none" stroke="rgba(6,35,43,0.5)" stroke-width="1"/></g><g transform="translate(525 -0.5)"><path d="M0,0V660" transform="translate(6.5 0.5)" fill="none" stroke="rgba(6,35,43,0.5)" stroke-width="1"/></g><g transform="translate(546 -0.5)"><path d="M0,0V660" transform="translate(6.5 0.5)" fill="none" stroke="rgba(6,35,43,0.5)" stroke-width="1"/></g><g transform="translate(567 -0.5)"><path d="M0,0V660" transform="translate(6.5 0.5)" fill="none" stroke="rgba(6,35,43,0.5)" stroke-width="1"/></g><g transform="translate(588 -0.5)"><path d="M0,0V660" transform="translate(6.5 0.5)" fill="none" stroke="rgba(6,35,43,0.5)" stroke-width="1"/></g><g transform="translate(609 -0.5)"><path d="M0,0V660" transform="translate(6.5 0.5)" fill="none" stroke="rgba(6,35,43,0.5)" stroke-width="1"/></g><g transform="translate(630 -0.5)"><path d="M0,0V660" transform="translate(6.5 0.5)" fill="none" stroke="rgba(6,35,43,0.5)" stroke-width="1"/></g><g transform="translate(651 -0.5)"><path d="M0,0V660" transform="translate(6.5 0.5)" fill="none" stroke="rgba(6,35,43,0.5)" stroke-width="1"/></g><g transform="translate(672 -0.5)"><path d="M0,0V660" transform="translate(6.5 0.5)" fill="none" stroke="rgba(6,35,43,0.5)" stroke-width="1"/></g><g transform="translate(693 -0.5)"><path d="M0,0V660" transform="translate(6.5 0.5)" fill="none" stroke="rgba(6,35,43,0.5)" stroke-width="1"/></g><g transform="translate(714 -0.5)"><path d="M0,0V660" transform="translate(6.5 0.5)" fill="none" stroke="rgba(6,35,43,0.5)" stroke-width="1"/></g><g transform="translate(735 -0.5)"><path d="M0,0V660" transform="translate(6.5 0.5)" fill="none" stroke="rgba(6,35,43,0.5)" stroke-width="1"/></g><g transform="translate(756 -0.5)"><path d="M0,0V660" transform="translate(6.5 0.5)" fill="none" stroke="rgba(6,35,43,0.5)" stroke-width="1"/></g><g transform="translate(777 -0.5)"><path d="M0,0V660" transform="translate(6.5 0.5)" fill="none" stroke="rgba(6,35,43,0.5)" stroke-width="1"/></g><g transform="translate(798 -0.5)"><path d="M0,0V660" transform="translate(6.5 0.5)" fill="none" stroke="rgba(6,35,43,0.5)" stroke-width="1"/></g><g transform="translate(819 -0.5)"><path d="M0,0V660" transform="translate(6.5 0.5)" fill="none" stroke="rgba(6,35,43,0.5)" stroke-width="1"/></g><g transform="translate(840 -0.5)"><path d="M0,0V660" transform="translate(6.5 0.5)" fill="none" stroke="rgba(6,35,43,0.5)" stroke-width="1"/></g><g transform="translate(861 -0.5)"><path d="M0,0V660" transform="translate(6.5 0.5)" fill="none" stroke="rgba(6,35,43,0.5)" stroke-width="1"/></g><g transform="translate(882 -0.5)"><path d="M0,0V660" transform="translate(6.5 0.5)" fill="none" stroke="rgba(6,35,43,0.5)" stroke-width="1"/></g><g transform="translate(903 -0.5)"><path d="M0,0V660" transform="translate(6.5 0.5)" fill="none" stroke="rgba(6,35,43,0.5)" stroke-width="1"/></g><g transform="translate(924 -0.5)"><path d="M0,0V660" transform="translate(6.5 0.5)" fill="none" stroke="rgba(6,35,43,0.5)" stroke-width="1"/></g><g transform="translate(945 -0.5)"><path d="M0,0V660" transform="translate(6.5 0.5)" fill="none" stroke="rgba(6,35,43,0.5)" stroke-width="1"/></g><g transform="translate(966 -0.5)"><path d="M0,0V660" transform="translate(6.5 0.5)" fill="none" stroke="rgba(6,35,43,0.5)" stroke-width="1"/></g></g><g transform="translate(0.932 5.624)" clip-path="url(#b)"><g transform="translate(-0.5)"><line x2="1000" transform="translate(0.5 9.5)" fill="none" stroke="rgba(6,35,43,0.5)" stroke-width="1"/></g><g transform="translate(-0.5 21)"><line x2="1000" transform="translate(0.5 9.5)" fill="none" stroke="rgba(6,35,43,0.5)" stroke-width="1"/></g><g transform="translate(-0.5 42)"><line x2="1000" transform="translate(0.5 9.5)" fill="none" stroke="rgba(6,35,43,0.5)" stroke-width="1"/></g><g transform="translate(-0.5 63)"><line x2="1000" transform="translate(0.5 9.5)" fill="none" stroke="rgba(6,35,43,0.5)" stroke-width="1"/></g><g transform="translate(-0.5 84)"><line x2="1000" transform="translate(0.5 9.5)" fill="none" stroke="rgba(6,35,43,0.5)" stroke-width="1"/></g><g transform="translate(-0.5 105)"><line x2="1000" transform="translate(0.5 9.5)" fill="none" stroke="rgba(6,35,43,0.5)" stroke-width="1"/></g><g transform="translate(-0.5 126)"><line x2="1000" transform="translate(0.5 9.5)" fill="none" stroke="rgba(6,35,43,0.5)" stroke-width="1"/></g><g transform="translate(-0.5 147)"><line x2="1000" transform="translate(0.5 9.5)" fill="none" stroke="rgba(6,35,43,0.5)" stroke-width="1"/></g><g transform="translate(-0.5 168)"><line x2="1000" transform="translate(0.5 9.5)" fill="none" stroke="rgba(6,35,43,0.5)" stroke-width="1"/></g><g transform="translate(-0.5 189)"><line x2="1000" transform="translate(0.5 9.5)" fill="none" stroke="rgba(6,35,43,0.5)" stroke-width="1"/></g><g transform="translate(-0.5 210)"><line x2="1000" transform="translate(0.5 9.5)" fill="none" stroke="rgba(6,35,43,0.5)" stroke-width="1"/></g><g transform="translate(-0.5 231)"><line x2="1000" transform="translate(0.5 9.5)" fill="none" stroke="rgba(6,35,43,0.5)" stroke-width="1"/></g><g transform="translate(-0.5 252)"><line x2="1000" transform="translate(0.5 9.5)" fill="none" stroke="rgba(6,35,43,0.5)" stroke-width="1"/></g><g transform="translate(-0.5 273)"><line x2="1000" transform="translate(0.5 9.5)" fill="none" stroke="rgba(6,35,43,0.5)" stroke-width="1"/></g><g transform="translate(-0.5 294)"><line x2="1000" transform="translate(0.5 9.5)" fill="none" stroke="rgba(6,35,43,0.5)" stroke-width="1"/></g><g transform="translate(-0.5 315)"><line x2="1000" transform="translate(0.5 9.5)" fill="none" stroke="rgba(6,35,43,0.5)" stroke-width="1"/></g><g transform="translate(-0.5 336)"><line x2="1000" transform="translate(0.5 9.5)" fill="none" stroke="rgba(6,35,43,0.5)" stroke-width="1"/></g><g transform="translate(-0.5 357)"><line x2="1000" transform="translate(0.5 9.5)" fill="none" stroke="rgba(6,35,43,0.5)" stroke-width="1"/></g><g transform="translate(-0.5 378)"><line x2="1000" transform="translate(0.5 9.5)" fill="none" stroke="rgba(6,35,43,0.5)" stroke-width="1"/></g><g transform="translate(-0.5 399)"><line x2="1000" transform="translate(0.5 9.5)" fill="none" stroke="rgba(6,35,43,0.5)" stroke-width="1"/></g><g transform="translate(-0.5 420)"><line x2="1000" transform="translate(0.5 9.5)" fill="none" stroke="rgba(6,35,43,0.5)" stroke-width="1"/></g><g transform="translate(-0.5 441)"><line x2="1000" transform="translate(0.5 9.5)" fill="none" stroke="rgba(6,35,43,0.5)" stroke-width="1"/></g><g transform="translate(-0.5 462)"><line x2="1000" transform="translate(0.5 9.5)" fill="none" stroke="rgba(6,35,43,0.5)" stroke-width="1"/></g><g transform="translate(-0.5 483)"><line x2="1000" transform="translate(0.5 9.5)" fill="none" stroke="rgba(6,35,43,0.5)" stroke-width="1"/></g><g transform="translate(-0.5 504)"><line x2="1000" transform="translate(0.5 9.5)" fill="none" stroke="rgba(6,35,43,0.5)" stroke-width="1"/></g><g transform="translate(-0.5 525)"><line x2="1000" transform="translate(0.5 9.5)" fill="none" stroke="rgba(6,35,43,0.5)" stroke-width="1"/></g><g transform="translate(-0.5 546)"><line x2="1000" transform="translate(0.5 9.5)" fill="none" stroke="rgba(6,35,43,0.5)" stroke-width="1"/></g><g transform="translate(-0.5 567)"><line x2="1000" transform="translate(0.5 9.5)" fill="none" stroke="rgba(6,35,43,0.5)" stroke-width="1"/></g><g transform="translate(-0.5 588)"><line x2="1000" transform="translate(0.5 9.5)" fill="none" stroke="rgba(6,35,43,0.5)" stroke-width="1"/></g><g transform="translate(-0.5 609)"><line x2="1000" transform="translate(0.5 9.5)" fill="none" stroke="rgba(6,35,43,0.5)" stroke-width="1"/></g><g transform="translate(-0.5 630)"><line x2="1000" transform="translate(0.5 9.5)" fill="none" stroke="rgba(6,35,43,0.5)" stroke-width="1"/></g></g></g><g transform="translate(50.395 329.598)"><rect width="449.605" height="296.74" transform="translate(0 0)" opacity="0"/><g transform="translate(-6158.751 -604.5)" fill="#85d478" stroke-miterlimit="10"><path d="M 6383.9072265625 789.9151000976562 L 6382.171875 786.8880615234375 L 6344.728515625 721.5652465820312 L 6344.6953125 721.587646484375 L 6343.64013671875 719.6731567382812 L 6342.689453125 717.9411010742188 L 6341.64453125 716.0374145507812 L 6341.73828125 715.99560546875 C 6339.970703125 712.1758422851562 6338.73974609375 708.143798828125 6338.07275390625 703.9815673828125 C 6337.31005859375 699.22607421875 6337.2978515625 694.3987426757812 6338.03515625 689.6336059570312 C 6338.77099609375 684.8819580078125 6340.23828125 680.2959594726562 6342.3955078125 676.0028076171875 C 6344.60888671875 671.5987548828125 6347.5068359375 667.5899658203125 6351.00927734375 664.0877075195312 C 6355.30126953125 659.7960815429688 6360.28662109375 656.4464111328125 6365.826171875 654.1317138671875 C 6371.15283203125 651.9058227539062 6376.767578125 650.7131958007812 6382.52685546875 650.5829467773438 L 6382.52685546875 650.5586547851562 L 6383.90673828125 650.56787109375 L 6385.28662109375 650.5586547851562 L 6385.28662109375 650.5829467773438 C 6391.04638671875 650.7131958007812 6396.66162109375 651.9058227539062 6401.98779296875 654.1317138671875 C 6407.5283203125 656.44677734375 6412.513671875 659.7965087890625 6416.8046875 664.0877075195312 C 6420.45849609375 667.7413330078125 6423.4462890625 671.92138671875 6425.68505859375 676.51171875 C 6427.84912109375 680.9487915039062 6429.275390625 685.6847534179688 6429.923828125 690.5880737304688 C 6430.58203125 695.5682983398438 6430.4287109375 700.5917358398438 6429.46826171875 705.5189208984375 C 6428.49267578125 710.52294921875 6426.70947265625 715.2907104492188 6424.1689453125 719.6898193359375 L 6424.04052734375 719.9122924804688 L 6424.02392578125 719.92919921875 L 6385.642578125 786.8880615234375 L 6383.9072265625 789.9151000976562 Z" stroke="none"/><path d="M 6383.9072265625 785.8934326171875 L 6422.41796875 718.7088623046875 L 6422.43701171875 718.6895751953125 C 6427.35791015625 710.1693115234375 6429.1962890625 700.347412109375 6427.94091796875 690.8502197265625 C 6426.71826171875 681.6024169921875 6422.5380859375 672.6494140625 6415.390625 665.501953125 C 6411.3466796875 661.4581298828125 6406.5400390625 658.201416015625 6401.216796875 655.97705078125 C 6396.05419921875 653.819580078125 6390.41650390625 652.6112060546875 6384.52685546875 652.572021484375 L 6384.52685546875 652.58935546875 L 6384.2177734375 652.58935546875 L 6383.9072265625 652.58935546875 L 6383.5966796875 652.58935546875 L 6383.28662109375 652.58935546875 L 6383.28662109375 652.572021484375 C 6377.39794921875 652.6112060546875 6371.76025390625 653.819580078125 6366.59716796875 655.97705078125 C 6361.27392578125 658.201416015625 6356.4677734375 661.4581298828125 6352.42333984375 665.501953125 C 6345.60205078125 672.322998046875 6341.40673828125 680.9320068359375 6340.01171875 689.9395751953125 C 6338.6103515625 698.99267578125 6340.02978515625 708.47509765625 6344.447265625 716.976806640625 L 6344.44287109375 716.978759765625 L 6345.3935546875 718.7108154296875 L 6345.396484375 718.7088623046875 L 6383.9072265625 785.8934326171875 M 6383.9072265625 793.9368286132812 L 6380.43701171875 787.8826293945312 L 6344.05419921875 724.4109497070312 L 6343.98779296875 724.4554443359375 L 6341.88720703125 720.6354370117188 L 6340.9365234375 718.9033813476562 L 6338.8408203125 715.0859375 L 6339.10693359375 714.9681396484375 C 6337.69482421875 711.5430908203125 6336.6865234375 707.9692993164062 6336.09765625 704.2981567382812 C 6335.30224609375 699.3362426757812 6335.2890625 694.2994384765625 6336.05859375 689.3276977539062 C 6336.82666015625 684.3695678710938 6338.357421875 679.5844116210938 6340.6083984375 675.104736328125 C 6342.91796875 670.5094604492188 6345.94140625 666.3270263671875 6349.59521484375 662.6734619140625 C 6354.072265625 658.1967163085938 6359.27392578125 654.7019653320312 6365.05517578125 652.2863159179688 C 6370.0087890625 650.2162475585938 6375.20166015625 649.0026245117188 6380.52685546875 648.6670532226562 L 6380.52685546875 648.5452880859375 L 6383.90673828125 648.5678100585938 L 6387.28662109375 648.5452880859375 L 6387.28662109375 648.6670532226562 C 6392.61279296875 649.0025634765625 6397.8056640625 650.2162475585938 6402.75927734375 652.286376953125 C 6408.541015625 654.702392578125 6413.74267578125 658.1971435546875 6418.21923828125 662.6734619140625 C 6422.02978515625 666.4841918945312 6425.146484375 670.8450317382812 6427.48291015625 675.6348876953125 C 6429.74169921875 680.2659912109375 6431.22998046875 685.208740234375 6431.90625 690.325927734375 C 6432.59326171875 695.521240234375 6432.43310546875 700.7615966796875 6431.43115234375 705.9016723632812 C 6430.4130859375 711.1233520507812 6428.55224609375 716.098876953125 6425.90087890625 720.6901245117188 L 6425.64453125 721.1337280273438 L 6425.63037109375 721.1482543945312 L 6387.37744140625 787.8826293945312 L 6383.9072265625 793.9368286132812 Z" stroke="none" fill="#0da829"/></g><text transform="translate(223.362 232.344)" font-size="31" font-family="ITCAvantGardePro-Bk, ITC Avant Garde Gothic Pro"><tspan x="-62" y="0">MARKER</tspan></text></g><g transform="translate(500 329.598)"><rect width="449.605" height="296.74" transform="translate(0 0)" opacity="0"/><g transform="translate(-6713.189 -604.5)" fill="#85d478" stroke-miterlimit="10" fill-rule="evenodd"><path d="M 6939.125 788.8889770507812 L 6939.125 781.37841796875 L 6939.125 743.3948364257812 C 6938.85986328125 743.4002075195312 6938.6015625 743.40283203125 6938.3466796875 743.40283203125 C 6932.08154296875 743.40283203125 6926.00244140625 742.1753540039062 6920.27880859375 739.7545166015625 C 6914.75146484375 737.4166259765625 6909.7880859375 734.0701904296875 6905.52587890625 729.8081665039062 C 6901.263671875 725.5460815429688 6897.91748046875 720.5824584960938 6895.57958984375 715.0551147460938 C 6893.15869140625 709.3314819335938 6891.93115234375 703.2526245117188 6891.93115234375 696.9874267578125 C 6891.93115234375 696.97265625 6891.93115234375 696.958740234375 6891.931640625 696.9456176757812 C 6891.93115234375 696.9325561523438 6891.93115234375 696.9186401367188 6891.93115234375 696.9039306640625 C 6891.93115234375 690.6370849609375 6893.1591796875 684.5571899414062 6895.5810546875 678.8331909179688 C 6897.91943359375 673.3064575195312 6901.2666015625 668.3427734375 6905.5302734375 664.0799560546875 C 6909.3701171875 660.2431030273438 6913.80029296875 657.1361083984375 6918.697265625 654.8447265625 C 6923.74072265625 652.4847412109375 6929.12109375 651.0680541992188 6934.68896484375 650.6339721679688 L 6936.84423828125 650.4659423828125 L 6936.84423828125 650.6011352539062 C 6937.36376953125 650.5816650390625 6937.86279296875 650.572021484375 6938.3466796875 650.572021484375 C 6938.60205078125 650.572021484375 6938.8603515625 650.5746459960938 6939.125 650.5800170898438 L 6939.125 650.4449462890625 L 6941.248046875 650.5758056640625 C 6952.521484375 651.2706298828125 6963.14794921875 656.0662841796875 6971.16943359375 664.0792846679688 C 6975.4296875 668.3438110351562 6978.77490234375 673.3082275390625 6981.1123046875 678.8361206054688 C 6983.53369140625 684.5621948242188 6984.76171875 690.6410522460938 6984.76171875 696.9039306640625 C 6984.76171875 696.91845703125 6984.76171875 696.9328002929688 6984.76123046875 696.9470825195312 C 6984.76171875 696.9605102539062 6984.76171875 696.9739379882812 6984.76171875 696.9874267578125 C 6984.76171875 697.0386962890625 6984.76025390625 697.0897216796875 6984.75830078125 697.1406860351562 L 6984.7578125 697.1553344726562 C 6984.75439453125 697.7268676757812 6984.73974609375 698.310546875 6984.71240234375 698.9396362304688 C 6984.70166015625 699.2089233398438 6984.6884765625 699.485595703125 6984.67333984375 699.7572021484375 L 6984.6728515625 699.7630004882812 L 6984.67236328125 699.7688598632812 C 6984.64697265625 700.185302734375 6984.61279296875 700.5973510742188 6984.580078125 700.9805908203125 C 6984.5322265625 701.53759765625 6984.47265625 702.1040649414062 6984.3984375 702.7125244140625 L 6984.3974609375 702.7197265625 L 6984.396484375 702.7268676757812 C 6984.38916015625 702.7825317382812 6984.38232421875 702.8381958007812 6984.37548828125 702.8939208984375 C 6984.36279296875 702.9971313476562 6984.35009765625 703.100341796875 6984.33544921875 703.203369140625 C 6983.89501953125 706.490966796875 6983.099609375 709.733154296875 6981.9716796875 712.8400268554688 C 6980.87060546875 715.871337890625 6979.4443359375 718.7978515625 6977.732421875 721.5388793945312 L 6942.8603515625 782.373046875 L 6939.125 788.8889770507812 Z M 6938.3466796875 679.7049560546875 C 6933.72998046875 679.7049560546875 6929.39013671875 681.5026245117188 6926.1259765625 684.7667846679688 C 6922.86181640625 688.0308837890625 6921.064453125 692.3709106445312 6921.064453125 696.9874267578125 C 6921.064453125 701.6036376953125 6922.8623046875 705.943603515625 6926.1259765625 709.2078247070312 C 6929.39013671875 712.47216796875 6933.73046875 714.2698974609375 6938.3466796875 714.2698974609375 C 6942.962890625 714.2698974609375 6947.302734375 712.47216796875 6950.56640625 709.2078247070312 C 6953.83056640625 705.9435424804688 6955.62841796875 701.6035766601562 6955.62841796875 696.9874267578125 C 6955.62841796875 692.3710327148438 6953.83056640625 688.0309448242188 6950.56689453125 684.7667846679688 C 6947.302734375 681.5026245117188 6942.962890625 679.7049560546875 6938.3466796875 679.7049560546875 Z" stroke="none"/><path d="M 6938.3466796875 652.572021484375 C 6937.16650390625 652.572021484375 6936.00146484375 652.6318359375 6934.84423828125 652.722412109375 L 6934.84423828125 652.6279296875 C 6923.9794921875 653.4749755859375 6914.21044921875 658.2342529296875 6906.9443359375 665.4942626953125 C 6898.90478515625 673.5325927734375 6893.93115234375 684.6346435546875 6893.93115234375 696.9039306640625 C 6893.93115234375 696.91796875 6893.9326171875 696.9315185546875 6893.9326171875 696.9456787109375 C 6893.9326171875 696.959716796875 6893.93115234375 696.9732666015625 6893.93115234375 696.9874267578125 C 6893.93115234375 721.517578125 6913.81640625 741.40283203125 6938.3466796875 741.40283203125 C 6939.28076171875 741.40283203125 6940.20556640625 741.3642578125 6941.125 741.3077392578125 L 6941.125 781.37841796875 L 6976.01611328125 720.5111083984375 C 6979.2890625 715.2813720703125 6981.49853515625 709.323486328125 6982.35400390625 702.93310546875 C 6982.37548828125 702.77880859375 6982.39306640625 702.6239013671875 6982.4130859375 702.4696044921875 C 6982.48046875 701.9188232421875 6982.53955078125 701.3662109375 6982.58740234375 700.8095703125 C 6982.62060546875 700.4227294921875 6982.65234375 700.0357666015625 6982.67626953125 699.646240234375 C 6982.69091796875 699.3828125 6982.70361328125 699.1185302734375 6982.71435546875 698.8538818359375 C 6982.73876953125 698.2850341796875 6982.75439453125 697.7142333984375 6982.7578125 697.1409912109375 C 6982.7578125 697.089599609375 6982.76171875 697.038818359375 6982.76171875 696.9874267578125 C 6982.76171875 696.9764404296875 6982.7607421875 696.965576171875 6982.7607421875 696.95458984375 C 6982.7607421875 696.9378662109375 6982.76171875 696.9212646484375 6982.76171875 696.9039306640625 C 6982.76171875 684.6416015625 6977.78662109375 673.5325927734375 6969.755859375 665.4942626953125 C 6962.32861328125 658.0748291015625 6952.283203125 653.259765625 6941.125 652.572021484375 L 6941.125 652.6678466796875 C 6940.20556640625 652.610595703125 6939.28076171875 652.572021484375 6938.3466796875 652.572021484375 M 6938.3466796875 716.2698974609375 C 6927.69677734375 716.2698974609375 6919.064453125 707.6363525390625 6919.064453125 696.9874267578125 C 6919.064453125 686.3377685546875 6927.69677734375 677.7049560546875 6938.3466796875 677.7049560546875 C 6948.99560546875 677.7049560546875 6957.62841796875 686.3377685546875 6957.62841796875 696.9874267578125 C 6957.62841796875 707.6363525390625 6948.99560546875 716.2698974609375 6938.3466796875 716.2698974609375 M 6938.84423828125 648.303955078125 L 6938.84423828125 648.423828125 L 6941.37109375 648.57958984375 C 6953.1318359375 649.3045043945312 6964.21630859375 654.3065185546875 6972.5830078125 662.6643676757812 C 6977.02734375 667.1131591796875 6980.51611328125 672.2910766601562 6982.95458984375 678.0570678710938 C 6985.48095703125 684.031005859375 6986.76171875 690.3719482421875 6986.76171875 696.9039306640625 C 6986.76171875 696.9180297851562 6986.76171875 696.9320068359375 6986.76171875 696.9458618164062 C 6986.76171875 696.959228515625 6986.76171875 696.9730834960938 6986.76171875 696.9874267578125 C 6986.76171875 697.0773315429688 6986.75927734375 697.15234375 6986.75732421875 697.1992797851562 C 6986.75341796875 697.7838745117188 6986.73828125 698.3804931640625 6986.7109375 699.0217895507812 C 6986.69921875 699.304931640625 6986.685546875 699.5897827148438 6986.669921875 699.8684692382812 L 6986.66943359375 699.8799438476562 L 6986.6689453125 699.8914184570312 C 6986.6416015625 700.3297119140625 6986.6064453125 700.7561645507812 6986.57275390625 701.1516723632812 C 6986.52294921875 701.7327270507812 6986.4609375 702.3226318359375 6986.38330078125 702.9554443359375 L 6986.3818359375 702.9696655273438 L 6986.3798828125 702.9838256835938 C 6986.373046875 703.0350341796875 6986.36669921875 703.08642578125 6986.36083984375 703.1377563476562 C 6986.3466796875 703.250244140625 6986.33251953125 703.36279296875 6986.31689453125 703.4751586914062 C 6985.857421875 706.9026489257812 6985.02783203125 710.2831420898438 6983.8515625 713.5227661132812 C 6982.70703125 716.6737060546875 6981.22607421875 719.7157592773438 6979.44873046875 722.5661010742188 L 6944.59521484375 783.36767578125 L 6937.125 796.3995361328125 L 6937.125 781.37841796875 L 6937.125 745.3878784179688 C 6931.02197265625 745.238037109375 6925.0986328125 743.9644775390625 6919.5 741.5964965820312 C 6913.73388671875 739.1577758789062 6908.556640625 735.66748046875 6904.11181640625 731.2223510742188 C 6899.66650390625 726.7772827148438 6896.17626953125 721.5999755859375 6893.7373046875 715.8341674804688 C 6891.2119140625 709.8627319335938 6889.93115234375 703.521728515625 6889.93115234375 696.9874267578125 C 6889.93115234375 696.9730834960938 6889.93115234375 696.9591674804688 6889.93115234375 696.9456787109375 C 6889.93115234375 696.9321899414062 6889.93115234375 696.9182739257812 6889.93115234375 696.9039306640625 C 6889.93115234375 690.367919921875 6891.21240234375 684.0258178710938 6893.7392578125 678.0538330078125 C 6896.17822265625 672.2887573242188 6899.66943359375 667.1114501953125 6904.1162109375 662.6656494140625 C 6908.12109375 658.6637573242188 6912.74169921875 655.4232788085938 6917.849609375 653.033203125 C 6923.11181640625 650.5709838867188 6928.72509765625 649.0928344726562 6934.533203125 648.6400146484375 L 6937.125 648.43798828125 L 6937.125 648.31787109375 L 6937.9853515625 648.3709106445312 L 6938.84423828125 648.303955078125 Z M 6938.3466796875 712.2698974609375 C 6942.42822265625 712.2698974609375 6946.26611328125 710.6802368164062 6949.15234375 707.7936401367188 C 6952.03857421875 704.9071044921875 6953.62841796875 701.0693969726562 6953.62841796875 696.9874267578125 C 6953.62841796875 692.9052734375 6952.03857421875 689.0674438476562 6949.15234375 686.1809692382812 C 6946.26611328125 683.2945556640625 6942.4287109375 681.7049560546875 6938.3466796875 681.7049560546875 C 6934.2646484375 681.7049560546875 6930.4267578125 683.2945556640625 6927.54052734375 686.1809692382812 C 6924.65380859375 689.0673217773438 6923.064453125 692.9051513671875 6923.064453125 696.9874267578125 C 6923.064453125 701.0694580078125 6924.65380859375 704.9071655273438 6927.54052734375 707.7936401367188 C 6930.4267578125 710.6802368164062 6934.2646484375 712.2698974609375 6938.3466796875 712.2698974609375 Z" stroke="none" fill="#0da829"/></g><text transform="translate(223.471 232.344)" fill="#0da829" font-size="31" font-family="ITCAvantGardePro-Bk, ITC Avant Garde Gothic Pro"><tspan x="-75.128" y="0" fill="#000">AGENCY</tspan><tspan y="0" fill="#0da829">9</tspan></text></g><g transform="translate(50.395 33.519)"><rect width="449.605" height="296.74" transform="translate(0 0)" opacity="0"/><g transform="translate(180.741 47.19)"><g transform="translate(-6365.728 -118.927)" fill-rule="evenodd"><path d="M 6410.921875 255.2440643310547 L 6410.921875 247.7333679199219 L 6410.921875 182.7887115478516 L 6410.921875 181.0511474609375 L 6412.642578125 180.8083343505859 C 6414.55517578125 180.5383605957031 6416.39990234375 179.9599151611328 6418.125 179.0890197753906 C 6419.80859375 178.2391815185547 6421.34130859375 177.1304321289062 6422.68115234375 175.7936248779297 C 6426.029296875 172.4453887939453 6427.8740234375 167.9932403564453 6427.8740234375 163.2588500976562 C 6427.8740234375 158.5250549316406 6426.029296875 154.0728607177734 6422.67919921875 150.7223815917969 C 6421.3408203125 149.3836212158203 6419.80810546875 148.2734069824219 6418.12451171875 147.4227294921875 C 6416.400390625 146.5516052246094 6414.5556640625 145.9729614257812 6412.642578125 145.7029266357422 L 6410.921875 145.4601135253906 L 6410.921875 143.7225494384766 L 6410.921875 118.927001953125 L 6410.921875 116.7999496459961 L 6413.044921875 116.9307861328125 C 6424.3193359375 117.625617980957 6434.94580078125 122.421272277832 6442.96630859375 130.4343414306641 C 6447.2265625 134.6987457275391 6450.5712890625 139.6631774902344 6452.9091796875 145.1911010742188 C 6455.33056640625 150.9171905517578 6456.55859375 156.9960632324219 6456.55859375 163.2588500976562 C 6456.55859375 167.3346710205078 6456.03076171875 171.3748016357422 6454.990234375 175.2669982910156 C 6454.12255859375 178.4998168945312 6452.89892578125 181.6503295898438 6451.3525390625 184.6327972412109 L 6451.341796875 184.6534576416016 L 6451.3310546875 184.6738433837891 L 6450.38623046875 186.3969421386719 L 6450.376953125 186.4135437011719 L 6450.36767578125 186.4299774169922 L 6414.6572265625 248.7279815673828 L 6410.921875 255.2440643310547 Z" stroke="none"/><path d="M 6412.921875 118.927001953125 L 6412.921875 143.7225494384766 C 6417.25732421875 144.3344116210938 6421.14111328125 146.3556976318359 6424.09375 149.3083038330078 C 6427.66455078125 152.8798217773438 6429.8740234375 157.8125457763672 6429.8740234375 163.2588500976562 C 6429.8740234375 168.7057495117188 6427.66455078125 173.6385192871094 6424.09375 177.2093811035156 C 6421.14111328125 180.1555480957031 6417.25732421875 182.1768493652344 6412.921875 182.7887115478516 L 6412.921875 247.7333679199219 L 6448.63232421875 185.4353637695312 L 6449.5771484375 183.7122650146484 C 6451.04296875 180.885009765625 6452.21728515625 177.8835906982422 6453.05810546875 174.7504119873047 C 6454.037109375 171.0888977050781 6454.55859375 167.2333221435547 6454.55859375 163.2588500976562 C 6454.55859375 150.9966888427734 6449.58349609375 139.8875274658203 6441.552734375 131.8492279052734 C 6434.12646484375 124.4298400878906 6424.08056640625 119.6147003173828 6412.921875 118.927001953125 M 6408.921875 114.6728973388672 L 6413.16796875 114.9345855712891 C 6424.9296875 115.6594390869141 6436.01416015625 120.6615447998047 6444.3798828125 129.0194854736328 C 6448.82421875 133.4681091308594 6452.31298828125 138.6460418701172 6454.75146484375 144.412109375 C 6457.27783203125 150.3860015869141 6458.55859375 156.7269592285156 6458.55859375 163.2588500976562 C 6458.55859375 167.5090484619141 6458.00830078125 171.7229919433594 6456.92236328125 175.7836303710938 C 6456.01708984375 179.1572418212891 6454.74072265625 182.4430694580078 6453.12841796875 185.5533599853516 L 6453.10693359375 185.5946655273438 L 6453.08447265625 185.6354675292969 L 6452.1396484375 187.3585662841797 L 6452.12158203125 187.3917694091797 L 6452.1025390625 187.4246063232422 L 6416.39208984375 249.7225952148438 L 6408.921875 262.7547607421875 L 6408.921875 247.7333679199219 L 6408.921875 182.7887115478516 L 6408.921875 179.3135833740234 L 6412.36279296875 178.8279418945312 C 6414.05908203125 178.5886077880859 6415.6943359375 178.0757446289062 6417.2236328125 177.3036193847656 C 6418.7177734375 176.5493316650391 6420.07861328125 175.56494140625 6421.2685546875 174.3778381347656 C 6424.2373046875 171.4089660644531 6425.8740234375 167.4590454101562 6425.8740234375 163.2588500976562 C 6425.8740234375 159.0592041015625 6424.2373046875 155.1091918945312 6421.26513671875 152.1364440917969 C 6420.07666015625 150.9480895996094 6418.71630859375 149.962646484375 6417.22265625 149.2078094482422 C 6415.6943359375 148.4356079101562 6414.05908203125 147.9226837158203 6412.36279296875 147.6833038330078 L 6408.921875 147.1976623535156 L 6408.921875 143.7225494384766 L 6408.921875 118.927001953125 L 6408.921875 114.6728973388672 Z" stroke="none" fill="#4d4d4d"/></g><g transform="translate(-6339.491 -118.958)" fill="#85d478" stroke-miterlimit="10" fill-rule="evenodd"><path d="M 6382.40478515625 209.7286224365234 L 6380.2490234375 209.5604553222656 C 6374.6806640625 209.1259613037109 6369.2998046875 207.7088317871094 6364.2568359375 205.3484649658203 C 6359.35888671875 203.0558471679688 6354.9287109375 199.9466857910156 6351.08935546875 196.1073303222656 C 6346.82666015625 191.8444976806641 6343.4794921875 186.8811492919922 6341.14111328125 181.3551483154297 C 6338.71875 175.6315765380859 6337.49072265625 169.5535583496094 6337.49072265625 163.2899475097656 C 6337.49072265625 157.0234527587891 6338.71875 150.9435729980469 6341.14111328125 145.2191925048828 C 6343.47900390625 139.6927947998047 6346.826171875 134.7291412353516 6351.08935546875 130.4661102294922 C 6354.9296875 126.6291961669922 6359.35986328125 123.5223083496094 6364.25732421875 121.2310256958008 C 6369.30078125 118.8712539672852 6374.68115234375 117.4544830322266 6380.2490234375 117.0200653076172 L 6382.40478515625 116.8518905639648 L 6382.40478515625 119.0140151977539 L 6382.40478515625 143.8718872070312 L 6382.40478515625 145.5462341308594 L 6380.75634765625 145.8407135009766 C 6377.1943359375 146.4771423339844 6373.9482421875 148.1760864257812 6371.36962890625 150.7538909912109 C 6368.025390625 154.1051635742188 6366.1826171875 158.5578460693359 6366.1826171875 163.2899475097656 C 6366.1826171875 168.0226440429688 6368.025390625 172.4752807617188 6371.37109375 175.82763671875 C 6373.9404296875 178.3966217041016 6377.1875 180.0959320068359 6380.759765625 180.7403564453125 L 6382.40478515625 181.037109375 L 6382.40478515625 182.7085876464844 L 6382.40478515625 207.5665130615234 L 6382.40478515625 209.7286224365234 Z" stroke="none"/><path d="M 6380.40478515625 207.5664978027344 L 6380.40478515625 182.7085876464844 C 6376.361328125 181.9791412353516 6372.7421875 180.026611328125 6369.95556640625 177.240478515625 C 6366.3916015625 173.6696014404297 6364.1826171875 168.7368621826172 6364.1826171875 163.2899475097656 C 6364.1826171875 157.8436279296875 6366.3916015625 152.9109039306641 6369.95556640625 149.3393707275391 C 6372.7421875 146.5539245605469 6376.361328125 144.5942993164062 6380.40478515625 143.8718719482422 L 6380.40478515625 119.0139999389648 C 6369.53955078125 119.8617324829102 6359.7705078125 124.6203155517578 6352.50341796875 131.8803100585938 C 6344.46533203125 139.9186096191406 6339.49072265625 151.0207061767578 6339.49072265625 163.2899475097656 C 6339.49072265625 175.5527038574219 6344.46533203125 186.6548004150391 6352.50341796875 194.6930999755859 C 6359.7705078125 201.9601898193359 6369.53955078125 206.7187805175781 6380.40478515625 207.5664978027344 M 6384.40478515625 211.8907470703125 L 6380.09375 211.5543823242188 C 6374.2841796875 211.1011047363281 6368.6708984375 209.6225891113281 6363.4091796875 207.1598510742188 C 6358.2998046875 204.7684783935547 6353.67919921875 201.5256652832031 6349.6748046875 197.5215454101562 C 6345.2294921875 193.0757293701172 6341.73828125 187.8988342285156 6339.298828125 182.1345672607422 C 6336.77197265625 176.1630401611328 6335.49072265625 169.8227996826172 6335.49072265625 163.2899475097656 C 6335.49072265625 156.7542572021484 6336.77197265625 150.4121551513672 6339.298828125 144.4398498535156 C 6341.73828125 138.6751708984375 6345.22900390625 133.4979248046875 6349.6748046875 129.0519256591797 C 6353.68115234375 125.0497741699219 6358.3017578125 121.809440612793 6363.40966796875 119.4195022583008 C 6368.671875 116.9574584960938 6374.28515625 115.4793167114258 6380.09375 115.0261306762695 L 6384.40478515625 114.6897506713867 L 6384.40478515625 119.0139999389648 L 6384.40478515625 143.8718719482422 L 6384.40478515625 147.2205657958984 L 6381.1083984375 147.8095245361328 C 6377.95166015625 148.3735046386719 6375.07421875 149.8797302246094 6372.7861328125 152.1657409667969 C 6369.8173828125 155.1410980224609 6368.1826171875 159.0917816162109 6368.1826171875 163.2899475097656 C 6368.1826171875 167.4891204833984 6369.81787109375 171.4400177001953 6372.78662109375 174.414794921875 C 6375.06494140625 176.6926422119141 6377.94580078125 178.200439453125 6381.11474609375 178.7721252441406 L 6384.40478515625 179.3656005859375 L 6384.40478515625 182.7085876464844 L 6384.40478515625 207.5664978027344 L 6384.40478515625 211.8907470703125 Z" stroke="none" fill="#0da829"/></g></g><text transform="translate(223.935 233.226)" fill="#0da829" font-size="31" font-family="ITCAvantGardePro-Bk, ITC Avant Garde Gothic Pro"><tspan x="-31.884" y="0">C</tspan><tspan y="0" fill="#000">ITY</tspan></text></g><g transform="translate(500 33.519)"><rect width="449.605" height="296.74" transform="translate(0 0)" opacity="0"/><g transform="translate(180.741 47.19)"><g transform="translate(-6893.931 -118.958)" fill-rule="evenodd"><path d="M 6936.84521484375 209.7286224365234 L 6934.689453125 209.5604553222656 C 6929.12060546875 209.1259613037109 6923.740234375 207.7088317871094 6918.697265625 205.3484497070312 C 6913.7998046875 203.0559387207031 6909.36962890625 199.94677734375 6905.5302734375 196.1073303222656 C 6901.26708984375 191.8445739746094 6897.919921875 186.8812103271484 6895.58154296875 181.3551635742188 C 6893.1591796875 175.6316223144531 6891.93115234375 169.5536193847656 6891.93115234375 163.2899475097656 C 6891.93115234375 157.0233917236328 6893.1591796875 150.9435119628906 6895.58154296875 145.2191772460938 C 6897.919921875 139.6927337646484 6901.26708984375 134.7290649414062 6905.5302734375 130.466064453125 C 6909.37060546875 126.6291198730469 6913.80078125 123.5222244262695 6918.69775390625 121.2310409545898 C 6923.7412109375 118.8712539672852 6929.12158203125 117.4544830322266 6934.689453125 117.0200653076172 L 6936.84521484375 116.8519058227539 L 6936.84521484375 119.0140151977539 L 6936.84521484375 143.8718872070312 L 6936.84521484375 145.5462341308594 L 6935.19677734375 145.8407135009766 C 6931.63427734375 146.4772796630859 6928.38818359375 148.1761322021484 6925.810546875 150.7536468505859 C 6922.4658203125 154.1057891845703 6920.62255859375 158.5584869384766 6920.62255859375 163.2899475097656 C 6920.62255859375 168.0220184326172 6922.46533203125 172.4746551513672 6925.81201171875 175.82763671875 C 6928.38037109375 178.3965911865234 6931.62744140625 180.0958099365234 6935.2001953125 180.7403564453125 L 6936.84521484375 181.037109375 L 6936.84521484375 182.7085876464844 L 6936.84521484375 207.5665130615234 L 6936.84521484375 209.7286224365234 Z" stroke="none"/><path d="M 6934.84521484375 207.5664978027344 L 6934.84521484375 182.7085876464844 C 6930.8017578125 181.9791412353516 6927.18212890625 180.026611328125 6924.396484375 177.240478515625 C 6920.83251953125 173.6696166992188 6918.62255859375 168.7368469238281 6918.62255859375 163.2899475097656 C 6918.62255859375 157.8436279296875 6920.83251953125 152.9109039306641 6924.396484375 149.3393859863281 C 6927.18212890625 146.5539093017578 6930.8017578125 144.5942993164062 6934.84521484375 143.8718872070312 L 6934.84521484375 119.0140075683594 C 6923.9794921875 119.8617324829102 6914.21142578125 124.6203155517578 6906.9443359375 131.8803100585938 C 6898.90576171875 139.9186096191406 6893.93115234375 151.0207214355469 6893.93115234375 163.2899475097656 C 6893.93115234375 175.5527191162109 6898.90576171875 186.6548004150391 6906.9443359375 194.693115234375 C 6914.21142578125 201.9601898193359 6923.9794921875 206.7187652587891 6934.84521484375 207.5664978027344 M 6938.84521484375 211.8907318115234 L 6934.5341796875 211.5543823242188 C 6928.724609375 211.1011199951172 6923.11083984375 209.6225738525391 6917.849609375 207.1598358154297 C 6912.74072265625 204.7685394287109 6908.1201171875 201.5257415771484 6904.11572265625 197.5215454101562 C 6899.669921875 193.0758666992188 6896.17919921875 187.8989410400391 6893.73974609375 182.1346282958984 C 6891.21240234375 176.1631317138672 6889.93115234375 169.8228607177734 6889.93115234375 163.2899475097656 C 6889.93115234375 156.7541809082031 6891.21240234375 150.4120788574219 6893.7392578125 144.4398193359375 C 6896.1787109375 138.6750640869141 6899.669921875 133.497802734375 6904.11572265625 129.0518341064453 C 6908.1220703125 125.0496978759766 6912.7421875 121.8093719482422 6917.85009765625 119.4195327758789 C 6923.1123046875 116.9574508666992 6928.7255859375 115.4793014526367 6934.5341796875 115.0261306762695 L 6938.84521484375 114.6897735595703 L 6938.84521484375 119.0140075683594 L 6938.84521484375 143.8718872070312 L 6938.84521484375 147.2205810546875 L 6935.548828125 147.8095245361328 C 6932.39013671875 148.3738250732422 6929.51171875 149.8809356689453 6927.224609375 152.1678924560547 C 6924.25830078125 155.1409149169922 6922.62255859375 159.0919036865234 6922.62255859375 163.2899475097656 C 6922.62255859375 167.488525390625 6924.2578125 171.4394073486328 6927.2275390625 174.414794921875 C 6929.50537109375 176.6927185058594 6932.3857421875 178.2003326416016 6935.55517578125 178.7721252441406 L 6938.84521484375 179.3656158447266 L 6938.84521484375 182.7085876464844 L 6938.84521484375 207.5664978027344 L 6938.84521484375 211.8907318115234 Z" stroke="none" fill="#4d4d4d"/></g><g transform="translate(-6920.168 -118.927)" fill="#85d478" stroke-miterlimit="10" fill-rule="evenodd"><path d="M 6965.3623046875 255.2442321777344 L 6965.3623046875 247.7333679199219 L 6965.3623046875 182.7887115478516 L 6965.3623046875 181.0512084960938 L 6967.08251953125 180.808349609375 C 6968.9951171875 180.5383911132812 6970.83984375 179.9599151611328 6972.564453125 179.0890350341797 C 6974.248046875 178.2391510009766 6975.78125 177.13037109375 6977.12109375 175.7935180664062 C 6980.46923828125 172.4453887939453 6982.31396484375 167.9932403564453 6982.31396484375 163.2588500976562 C 6982.31396484375 158.5250549316406 6980.46923828125 154.0728607177734 6977.119140625 150.7223815917969 C 6975.7802734375 149.3836975097656 6974.24755859375 148.2734375 6972.56396484375 147.4227142333984 C 6970.83984375 146.5515899658203 6968.99560546875 145.9729614257812 6967.08251953125 145.7029113769531 L 6965.3623046875 145.4600524902344 L 6965.3623046875 143.7225494384766 L 6965.3623046875 118.927001953125 L 6965.3623046875 116.7999496459961 L 6967.4853515625 116.9307861328125 C 6978.7587890625 117.625617980957 6989.38525390625 122.4212417602539 6997.40673828125 130.4342651367188 C 7001.6669921875 134.6987609863281 7005.01171875 139.6632080078125 7007.34912109375 145.1911468505859 C 7009.7705078125 150.9171905517578 7010.998046875 156.9960327148438 7010.998046875 163.2588500976562 C 7010.998046875 167.3385620117188 7010.47021484375 171.3788604736328 7009.4296875 175.2674865722656 C 7008.5625 178.4997711181641 7007.3388671875 181.6504516601562 7005.7919921875 184.633056640625 L 7005.78125 184.653564453125 L 7005.7705078125 184.6738433837891 L 7004.82568359375 186.3969421386719 L 7004.81640625 186.4135437011719 L 7004.80712890625 186.4299621582031 L 6969.09765625 248.7279663085938 L 6965.3623046875 255.2442321777344 Z" stroke="none"/><path d="M 6967.3623046875 118.927001953125 L 6967.3623046875 143.7225494384766 C 6971.69677734375 144.3343963623047 6975.58056640625 146.355712890625 6978.53369140625 149.3082885742188 C 6982.1044921875 152.8798217773438 6984.31396484375 157.8125457763672 6984.31396484375 163.2588500976562 C 6984.31396484375 168.7057342529297 6982.1044921875 173.6385345458984 6978.53369140625 177.2093658447266 C 6975.58056640625 180.1555480957031 6971.69677734375 182.1768493652344 6967.3623046875 182.7887115478516 L 6967.3623046875 247.7333679199219 L 7003.07177734375 185.4353637695312 L 7004.0166015625 183.7122650146484 C 7005.48291015625 180.8849945068359 7006.6572265625 177.8835754394531 7007.49755859375 174.7503967285156 C 7008.4775390625 171.0889282226562 7008.998046875 167.2333221435547 7008.998046875 163.2588500976562 C 7008.998046875 150.9966888427734 7004.0234375 139.8875274658203 6995.9931640625 131.8492431640625 C 6988.56591796875 124.4298400878906 6978.52001953125 119.6146850585938 6967.3623046875 118.927001953125 M 6963.3623046875 114.6728668212891 L 6967.6083984375 114.9345855712891 C 6979.36865234375 115.659423828125 6990.45361328125 120.6614685058594 6998.8203125 129.0193176269531 C 7003.2646484375 133.4681854248047 7006.7529296875 138.6461334228516 7009.19091796875 144.4122161865234 C 7011.71728515625 150.3860473632812 7012.998046875 156.7269744873047 7012.998046875 163.2588500976562 C 7012.998046875 167.5131072998047 7012.447265625 171.7273712158203 7011.361328125 175.7845764160156 C 7010.45703125 179.1571350097656 7009.1806640625 182.4433135986328 7007.5673828125 185.5538635253906 L 7007.54638671875 185.5948944091797 L 7007.52392578125 185.6354217529297 L 7006.5791015625 187.3585205078125 L 7006.56103515625 187.3917083740234 L 7006.5419921875 187.4245758056641 L 6970.83251953125 249.7225799560547 L 6963.3623046875 262.755126953125 L 6963.3623046875 247.7333679199219 L 6963.3623046875 182.7887115478516 L 6963.3623046875 179.3137054443359 L 6966.80322265625 178.8279724121094 C 6968.49853515625 178.5886383056641 6970.1337890625 178.0757598876953 6971.6630859375 177.3036651611328 C 6973.15771484375 176.5492706298828 6974.5185546875 175.5648193359375 6975.70849609375 174.3776092529297 C 6978.67724609375 171.4089508056641 6980.31396484375 167.4590301513672 6980.31396484375 163.2588500976562 C 6980.31396484375 159.0592041015625 6978.67724609375 155.1091918945312 6975.705078125 152.1364288330078 C 6974.5166015625 150.9482116699219 6973.15625 149.9626922607422 6971.662109375 149.2077941894531 C 6970.1337890625 148.4355773925781 6968.4990234375 147.9226531982422 6966.80322265625 147.6832885742188 L 6963.3623046875 147.1975860595703 L 6963.3623046875 143.7225494384766 L 6963.3623046875 118.927001953125 L 6963.3623046875 114.6728668212891 Z" stroke="none" fill="#0da829"/></g></g><text transform="translate(224.067 233.225)" fill="#0da829" font-size="31" font-family="ITCAvantGardePro-Bk, ITC Avant Garde Gothic Pro"><tspan x="-68.618" y="0">P</tspan><tspan y="0" fill="#000">LANNER</tspan></text></g><g transform="translate(-5689.687 -1965.687)"><g transform="matrix(1, 0, 0, 1, 5689.69, 1965.69)" filter="url(#d)"><circle cx="88.566" cy="88.566" r="88.566" transform="translate(411.03 241.83)" fill="url(#c)"/></g><path d="M6727.608,500.854a41.944,41.944,0,0,1-3.282,8.447l-.889,1.625-33.659,58.72V508.43a18.6,18.6,0,0,0,0-36.821V448.237a41.9,41.9,0,0,1,37.83,52.617" transform="translate(-497.872 1787.142)" fill="#fff"/><path d="M6661.1,531.783a41.864,41.864,0,0,1,0-83.467v23.432a18.6,18.6,0,0,0,0,36.6Z" transform="translate(-475.114 1787.115)" fill="#fff"/></g></g></svg>