<svg xmlns="http://www.w3.org/2000/svg" xmlns:xlink="http://www.w3.org/1999/xlink" width="1000" height="660" viewBox="0 0 1000 660"><defs><clipPath id="a"><rect width="985.923" height="650" fill="none"/></clipPath><clipPath id="b"><rect width="985.923" height="640.684" fill="none"/></clipPath><clipPath id="d"><rect width="1000" height="660"/></clipPath></defs><g id="c" clip-path="url(#d)"><g transform="translate(7 4.5)" opacity="0.201"><g transform="translate(0 0.5)" clip-path="url(#a)"><g transform="translate(0 -0.5)"><path d="M0,0V660" transform="translate(6.5 0.5)" fill="none" stroke="rgba(6,35,43,0.5)" stroke-width="1"/></g><g transform="translate(21 -0.5)"><path d="M0,0V660" transform="translate(6.5 0.5)" fill="none" stroke="rgba(6,35,43,0.5)" stroke-width="1"/></g><g transform="translate(42 -0.5)"><path d="M0,0V660" transform="translate(6.5 0.5)" fill="none" stroke="rgba(6,35,43,0.5)" stroke-width="1"/></g><g transform="translate(63 -0.5)"><path d="M0,0V660" transform="translate(6.5 0.5)" fill="none" stroke="rgba(6,35,43,0.5)" stroke-width="1"/></g><g transform="translate(84 -0.5)"><path d="M0,0V660" transform="translate(6.5 0.5)" fill="none" stroke="rgba(6,35,43,0.5)" stroke-width="1"/></g><g transform="translate(105 -0.5)"><path d="M0,0V660" transform="translate(6.5 0.5)" fill="none" stroke="rgba(6,35,43,0.5)" stroke-width="1"/></g><g transform="translate(126 -0.5)"><path d="M0,0V660" transform="translate(6.5 0.5)" fill="none" stroke="rgba(6,35,43,0.5)" stroke-width="1"/></g><g transform="translate(147 -0.5)"><path d="M0,0V660" transform="translate(6.5 0.5)" fill="none" stroke="rgba(6,35,43,0.5)" stroke-width="1"/></g><g transform="translate(168 -0.5)"><path d="M0,0V660" transform="translate(6.5 0.5)" fill="none" stroke="rgba(6,35,43,0.5)" stroke-width="1"/></g><g transform="translate(189 -0.5)"><path d="M0,0V660" transform="translate(6.5 0.5)" fill="none" stroke="rgba(6,35,43,0.5)" stroke-width="1"/></g><g transform="translate(210 -0.5)"><path d="M0,0V660" transform="translate(6.5 0.5)" fill="none" stroke="rgba(6,35,43,0.5)" stroke-width="1"/></g><g transform="translate(231 -0.5)"><path d="M0,0V660" transform="translate(6.5 0.5)" fill="none" stroke="rgba(6,35,43,0.5)" stroke-width="1"/></g><g transform="translate(252 -0.5)"><path d="M0,0V660" transform="translate(6.5 0.5)" fill="none" stroke="rgba(6,35,43,0.5)" stroke-width="1"/></g><g transform="translate(273 -0.5)"><path d="M0,0V660" transform="translate(6.5 0.5)" fill="none" stroke="rgba(6,35,43,0.5)" stroke-width="1"/></g><g transform="translate(294 -0.5)"><path d="M0,0V660" transform="translate(6.5 0.5)" fill="none" stroke="rgba(6,35,43,0.5)" stroke-width="1"/></g><g transform="translate(315 -0.5)"><path d="M0,0V660" transform="translate(6.5 0.5)" fill="none" stroke="rgba(6,35,43,0.5)" stroke-width="1"/></g><g transform="translate(336 -0.5)"><path d="M0,0V660" transform="translate(6.5 0.5)" fill="none" stroke="rgba(6,35,43,0.5)" stroke-width="1"/></g><g transform="translate(357 -0.5)"><path d="M0,0V660" transform="translate(6.5 0.5)" fill="none" stroke="rgba(6,35,43,0.5)" stroke-width="1"/></g><g transform="translate(378 -0.5)"><path d="M0,0V660" transform="translate(6.5 0.5)" fill="none" stroke="rgba(6,35,43,0.5)" stroke-width="1"/></g><g transform="translate(399 -0.5)"><path d="M0,0V660" transform="translate(6.5 0.5)" fill="none" stroke="rgba(6,35,43,0.5)" stroke-width="1"/></g><g transform="translate(420 -0.5)"><path d="M0,0V660" transform="translate(6.5 0.5)" fill="none" stroke="rgba(6,35,43,0.5)" stroke-width="1"/></g><g transform="translate(441 -0.5)"><path d="M0,0V660" transform="translate(6.5 0.5)" fill="none" stroke="rgba(6,35,43,0.5)" stroke-width="1"/></g><g transform="translate(462 -0.5)"><path d="M0,0V660" transform="translate(6.5 0.5)" fill="none" stroke="rgba(6,35,43,0.5)" stroke-width="1"/></g><g transform="translate(483 -0.5)"><path d="M0,0V660" transform="translate(6.5 0.5)" fill="none" stroke="rgba(6,35,43,0.5)" stroke-width="1"/></g><g transform="translate(504 -0.5)"><path d="M0,0V660" transform="translate(6.5 0.5)" fill="none" stroke="rgba(6,35,43,0.5)" stroke-width="1"/></g><g transform="translate(525 -0.5)"><path d="M0,0V660" transform="translate(6.5 0.5)" fill="none" stroke="rgba(6,35,43,0.5)" stroke-width="1"/></g><g transform="translate(546 -0.5)"><path d="M0,0V660" transform="translate(6.5 0.5)" fill="none" stroke="rgba(6,35,43,0.5)" stroke-width="1"/></g><g transform="translate(567 -0.5)"><path d="M0,0V660" transform="translate(6.5 0.5)" fill="none" stroke="rgba(6,35,43,0.5)" stroke-width="1"/></g><g transform="translate(588 -0.5)"><path d="M0,0V660" transform="translate(6.5 0.5)" fill="none" stroke="rgba(6,35,43,0.5)" stroke-width="1"/></g><g transform="translate(609 -0.5)"><path d="M0,0V660" transform="translate(6.5 0.5)" fill="none" stroke="rgba(6,35,43,0.5)" stroke-width="1"/></g><g transform="translate(630 -0.5)"><path d="M0,0V660" transform="translate(6.5 0.5)" fill="none" stroke="rgba(6,35,43,0.5)" stroke-width="1"/></g><g transform="translate(651 -0.5)"><path d="M0,0V660" transform="translate(6.5 0.5)" fill="none" stroke="rgba(6,35,43,0.5)" stroke-width="1"/></g><g transform="translate(672 -0.5)"><path d="M0,0V660" transform="translate(6.5 0.5)" fill="none" stroke="rgba(6,35,43,0.5)" stroke-width="1"/></g><g transform="translate(693 -0.5)"><path d="M0,0V660" transform="translate(6.5 0.5)" fill="none" stroke="rgba(6,35,43,0.5)" stroke-width="1"/></g><g transform="translate(714 -0.5)"><path d="M0,0V660" transform="translate(6.5 0.5)" fill="none" stroke="rgba(6,35,43,0.5)" stroke-width="1"/></g><g transform="translate(735 -0.5)"><path d="M0,0V660" transform="translate(6.5 0.5)" fill="none" stroke="rgba(6,35,43,0.5)" stroke-width="1"/></g><g transform="translate(756 -0.5)"><path d="M0,0V660" transform="translate(6.5 0.5)" fill="none" stroke="rgba(6,35,43,0.5)" stroke-width="1"/></g><g transform="translate(777 -0.5)"><path d="M0,0V660" transform="translate(6.5 0.5)" fill="none" stroke="rgba(6,35,43,0.5)" stroke-width="1"/></g><g transform="translate(798 -0.5)"><path d="M0,0V660" transform="translate(6.5 0.5)" fill="none" stroke="rgba(6,35,43,0.5)" stroke-width="1"/></g><g transform="translate(819 -0.5)"><path d="M0,0V660" transform="translate(6.5 0.5)" fill="none" stroke="rgba(6,35,43,0.5)" stroke-width="1"/></g><g transform="translate(840 -0.5)"><path d="M0,0V660" transform="translate(6.5 0.5)" fill="none" stroke="rgba(6,35,43,0.5)" stroke-width="1"/></g><g transform="translate(861 -0.5)"><path d="M0,0V660" transform="translate(6.5 0.5)" fill="none" stroke="rgba(6,35,43,0.5)" stroke-width="1"/></g><g transform="translate(882 -0.5)"><path d="M0,0V660" transform="translate(6.5 0.5)" fill="none" stroke="rgba(6,35,43,0.5)" stroke-width="1"/></g><g transform="translate(903 -0.5)"><path d="M0,0V660" transform="translate(6.5 0.5)" fill="none" stroke="rgba(6,35,43,0.5)" stroke-width="1"/></g><g transform="translate(924 -0.5)"><path d="M0,0V660" transform="translate(6.5 0.5)" fill="none" stroke="rgba(6,35,43,0.5)" stroke-width="1"/></g><g transform="translate(945 -0.5)"><path d="M0,0V660" transform="translate(6.5 0.5)" fill="none" stroke="rgba(6,35,43,0.5)" stroke-width="1"/></g><g transform="translate(966 -0.5)"><path d="M0,0V660" transform="translate(6.5 0.5)" fill="none" stroke="rgba(6,35,43,0.5)" stroke-width="1"/></g></g><g transform="translate(0.932 5.624)" clip-path="url(#b)"><g transform="translate(-0.5)"><line x2="1000" transform="translate(0.5 9.5)" fill="none" stroke="rgba(6,35,43,0.5)" stroke-width="1"/></g><g transform="translate(-0.5 21)"><line x2="1000" transform="translate(0.5 9.5)" fill="none" stroke="rgba(6,35,43,0.5)" stroke-width="1"/></g><g transform="translate(-0.5 42)"><line x2="1000" transform="translate(0.5 9.5)" fill="none" stroke="rgba(6,35,43,0.5)" stroke-width="1"/></g><g transform="translate(-0.5 63)"><line x2="1000" transform="translate(0.5 9.5)" fill="none" stroke="rgba(6,35,43,0.5)" stroke-width="1"/></g><g transform="translate(-0.5 84)"><line x2="1000" transform="translate(0.5 9.5)" fill="none" stroke="rgba(6,35,43,0.5)" stroke-width="1"/></g><g transform="translate(-0.5 105)"><line x2="1000" transform="translate(0.5 9.5)" fill="none" stroke="rgba(6,35,43,0.5)" stroke-width="1"/></g><g transform="translate(-0.5 126)"><line x2="1000" transform="translate(0.5 9.5)" fill="none" stroke="rgba(6,35,43,0.5)" stroke-width="1"/></g><g transform="translate(-0.5 147)"><line x2="1000" transform="translate(0.5 9.5)" fill="none" stroke="rgba(6,35,43,0.5)" stroke-width="1"/></g><g transform="translate(-0.5 168)"><line x2="1000" transform="translate(0.5 9.5)" fill="none" stroke="rgba(6,35,43,0.5)" stroke-width="1"/></g><g transform="translate(-0.5 189)"><line x2="1000" transform="translate(0.5 9.5)" fill="none" stroke="rgba(6,35,43,0.5)" stroke-width="1"/></g><g transform="translate(-0.5 210)"><line x2="1000" transform="translate(0.5 9.5)" fill="none" stroke="rgba(6,35,43,0.5)" stroke-width="1"/></g><g transform="translate(-0.5 231)"><line x2="1000" transform="translate(0.5 9.5)" fill="none" stroke="rgba(6,35,43,0.5)" stroke-width="1"/></g><g transform="translate(-0.5 252)"><line x2="1000" transform="translate(0.5 9.5)" fill="none" stroke="rgba(6,35,43,0.5)" stroke-width="1"/></g><g transform="translate(-0.5 273)"><line x2="1000" transform="translate(0.5 9.5)" fill="none" stroke="rgba(6,35,43,0.5)" stroke-width="1"/></g><g transform="translate(-0.5 294)"><line x2="1000" transform="translate(0.5 9.5)" fill="none" stroke="rgba(6,35,43,0.5)" stroke-width="1"/></g><g transform="translate(-0.5 315)"><line x2="1000" transform="translate(0.5 9.5)" fill="none" stroke="rgba(6,35,43,0.5)" stroke-width="1"/></g><g transform="translate(-0.5 336)"><line x2="1000" transform="translate(0.5 9.5)" fill="none" stroke="rgba(6,35,43,0.5)" stroke-width="1"/></g><g transform="translate(-0.5 357)"><line x2="1000" transform="translate(0.5 9.5)" fill="none" stroke="rgba(6,35,43,0.5)" stroke-width="1"/></g><g transform="translate(-0.5 378)"><line x2="1000" transform="translate(0.5 9.5)" fill="none" stroke="rgba(6,35,43,0.5)" stroke-width="1"/></g><g transform="translate(-0.5 399)"><line x2="1000" transform="translate(0.5 9.5)" fill="none" stroke="rgba(6,35,43,0.5)" stroke-width="1"/></g><g transform="translate(-0.5 420)"><line x2="1000" transform="translate(0.5 9.5)" fill="none" stroke="rgba(6,35,43,0.5)" stroke-width="1"/></g><g transform="translate(-0.5 441)"><line x2="1000" transform="translate(0.5 9.5)" fill="none" stroke="rgba(6,35,43,0.5)" stroke-width="1"/></g><g transform="translate(-0.5 462)"><line x2="1000" transform="translate(0.5 9.5)" fill="none" stroke="rgba(6,35,43,0.5)" stroke-width="1"/></g><g transform="translate(-0.5 483)"><line x2="1000" transform="translate(0.5 9.5)" fill="none" stroke="rgba(6,35,43,0.5)" stroke-width="1"/></g><g transform="translate(-0.5 504)"><line x2="1000" transform="translate(0.5 9.5)" fill="none" stroke="rgba(6,35,43,0.5)" stroke-width="1"/></g><g transform="translate(-0.5 525)"><line x2="1000" transform="translate(0.5 9.5)" fill="none" stroke="rgba(6,35,43,0.5)" stroke-width="1"/></g><g transform="translate(-0.5 546)"><line x2="1000" transform="translate(0.5 9.5)" fill="none" stroke="rgba(6,35,43,0.5)" stroke-width="1"/></g><g transform="translate(-0.5 567)"><line x2="1000" transform="translate(0.5 9.5)" fill="none" stroke="rgba(6,35,43,0.5)" stroke-width="1"/></g><g transform="translate(-0.5 588)"><line x2="1000" transform="translate(0.5 9.5)" fill="none" stroke="rgba(6,35,43,0.5)" stroke-width="1"/></g><g transform="translate(-0.5 609)"><line x2="1000" transform="translate(0.5 9.5)" fill="none" stroke="rgba(6,35,43,0.5)" stroke-width="1"/></g><g transform="translate(-0.5 630)"><line x2="1000" transform="translate(0.5 9.5)" fill="none" stroke="rgba(6,35,43,0.5)" stroke-width="1"/></g></g></g><g transform="translate(0.205 3.544)"><rect width="348.126" height="66.531" transform="translate(561.849 151.456)" fill="none" opacity="0"/><rect width="348.126" height="66.531" transform="translate(561.849 151.456)" fill="#fff"/><g transform="translate(607.194 161.561)"><g transform="translate(7.596 4.987)"><path d="M1326.808,1540.463a8.819,8.819,0,0,0,.933-14.739c-1.866-1.424-4.618-2.161-8.155-2.161h-11.938v7.156c-.2-.294-.413-.584-.638-.868-4.323-5.847-10.906-6.288-15.426-6.288h-11.545v36.354h12.085c7.619,0,12.636-2.648,15.524-6.856v6.856h11.2c5.158,0,7.468-.344,10.366-2.555a9.773,9.773,0,0,0,3.93-8.155A8.732,8.732,0,0,0,1326.808,1540.463Zm-34.291,13.019h-5.158V1530h5.208c4.422,0,6.878,1.67,8.4,3.635a13.651,13.651,0,0,1,2.456,8.155C1303.424,1548.323,1300.378,1553.482,1292.517,1553.482ZM1314.968,1530H1319a7.709,7.709,0,0,1,3.243.54,3.542,3.542,0,0,1,2.014,3.439,3.7,3.7,0,0,1-2.063,3.635,8.441,8.441,0,0,1-3.145.491h-4.078Zm8.549,22.943a8.708,8.708,0,0,1-3.39.54h-5.158v-9.236h4.913a9.3,9.3,0,0,1,3.684.492,4.094,4.094,0,0,1,2.555,4.028A4.155,4.155,0,0,1,1323.516,1552.942Z" transform="translate(-1280.039 -1522.924)" fill="#0da829"/><path d="M1398.415,1549.795c-2.359,5.6-8.7,10.415-16.7,10.415a18.817,18.817,0,1,1,16.7-27.02h-4.372a14.588,14.588,0,0,0-12.38-7.025,14.82,14.82,0,0,0-14.886,15.18c0,8.6,6.436,15.28,14.886,15.28a14.772,14.772,0,0,0,12.38-6.829Z" transform="translate(-1309.102 -1522.578)"/><path d="M1419.554,1551.63a13.928,13.928,0,1,1,0,.049Zm3.586.1a10.588,10.588,0,1,0,0-.049Z" transform="translate(-1329.062 -1527.901)"/><path d="M1465.15,1538.462h3.439c0,1.474,0,2.947-.049,4.716,1.523-3.439,5.109-5.552,9.825-5.453,8.2.1,11.1,5.7,11.1,12.134v15.033h-3.586v-14.3c0-5.7-2.555-9.58-8.5-9.481-5.453.049-8.6,3.34-8.6,8.843v14.935h-3.635Z" transform="translate(-1345.084 -1527.899)"/><path d="M1505.9,1538.462h3.439c0,1.474,0,2.947-.049,4.716,1.524-3.439,5.11-5.552,9.826-5.453,8.2.1,11.1,5.7,11.1,12.134v15.033h-3.586v-14.3c0-5.7-2.555-9.58-8.5-9.481-5.453.049-8.6,3.34-8.6,8.843v14.935H1505.9Z" transform="translate(-1359.402 -1527.899)"/><path d="M1549.448,1552.711a10.068,10.068,0,0,0,10.317,9.777,9.777,9.777,0,0,0,9.089-5.453h3.782a14,14,0,0,1-5.354,6.436,13.829,13.829,0,0,1-7.517,2.162c-9.187,0-13.952-7.32-13.952-13.9a13.887,13.887,0,1,1,27.708.983Zm20.486-2.9c-.246-4.618-4.716-9.138-10.17-8.99a10.01,10.01,0,0,0-10.268,8.99Z" transform="translate(-1373.427 -1527.901)"/><path d="M1618.67,1555.953a14.05,14.05,0,1,1,0-8.352h-3.734a10.48,10.48,0,0,0-17.047-3.538,10.843,10.843,0,0,0-3,7.615,10.271,10.271,0,0,0,10.415,10.563,9.966,9.966,0,0,0,9.58-6.288Z" transform="translate(-1389.395 -1527.901)"/><path d="M1636.228,1536.385h-5.208v-2.9h5.208v-9.924h3.587v9.924h5.8v2.9h-5.8v23.532h-3.587Z" transform="translate(-1403.368 -1522.924)"/></g></g><rect width="348.126" height="66.531" transform="translate(89.795 151.456)" fill="rgba(0,0,0,0)" opacity="0"/><rect width="348.126" height="66.531" transform="translate(89.795 151.456)" fill="#fff"/><g transform="translate(169.228 161.486)"><g transform="translate(7.23 5.012)"><path d="M319.9,1533.065c.2-7.91,6.731-10.563,11.447-10.563,6.386,0,10.661,4.324,10.661,9.58a8.422,8.422,0,0,1-4.863,7.615c6.631,2.26,6.976,7.516,6.976,9.138,0,6.485-5.748,11.4-12.872,11.4-3.979,0-8.4-1.572-10.661-4.863a12.512,12.512,0,0,1-2.113-6.583h7.37a5.427,5.427,0,0,0,5.551,5.011c3.537,0,5.4-2.456,5.4-5.5,0-3.586-3.39-5.208-6.239-5.208h-2.947v-5.453h1.621c2.506,0,5.453-1.425,5.453-4.52,0-2.211-1.277-4.176-3.635-4.176-3.095,0-3.831,2.5-3.93,4.126Z" transform="translate(-318.474 -1522.502)"/><path d="M360.207,1523.563h11.545c4.52,0,11.1.442,15.426,6.288a18.433,18.433,0,0,1,3.734,11.839c0,10.268-5.4,18.227-18.62,18.227H360.207Zm7.32,29.918h5.158c7.861,0,10.906-5.158,10.906-11.692a13.656,13.656,0,0,0-2.456-8.155c-1.523-1.965-3.98-3.635-8.4-3.635h-5.208Z" transform="translate(-333.138 -1522.875)"/><path d="M409.439,1559.917v-36.354h5.7l13.461,30.508,13.412-30.508h5.7v36.354h-3.831l.1-32.326-14.1,32.326h-2.6l-14.149-32.326.1,32.326Z" transform="translate(-350.438 -1522.875)"/><path d="M498.637,1564.894H495v-5.453a11.729,11.729,0,0,1-10.809,6.19c-8.6,0-13.707-6.681-13.707-13.952,0-7.762,5.65-13.952,13.707-13.952,5.649,0,9.531,3.291,10.809,6.288v-5.552h3.636Zm-24.564-13.166c.049,4.766,3.341,10.513,10.612,10.513a9.891,9.891,0,0,0,9.531-6.436,10.126,10.126,0,0,0,.884-4.176,9.421,9.421,0,0,0-.835-4.225,10.194,10.194,0,0,0-9.678-6.338,10.364,10.364,0,0,0-10.513,10.611Z" transform="translate(-371.888 -1527.852)"/><path d="M516.84,1538.464h3.438v5.5a12.157,12.157,0,0,1,11.054-6.239c8.892,0,13.559,7.222,13.559,14.05,0,7.369-5.355,13.854-13.559,13.854-5.846,0-9.629-3.39-10.857-6.141v15.426H516.84Zm24.416,13.166a10.313,10.313,0,0,0-10.611-10.563,10.462,10.462,0,0,0-7.468,3.1,10.914,10.914,0,0,0-2.947,7.565,10.322,10.322,0,0,0,10.513,10.513,10.323,10.323,0,0,0,10.513-10.563Z" transform="translate(-388.176 -1527.852)"/><path d="M574,1545.1c0-2.8-1.867-4.372-4.52-4.372-2.9,0-4.667,1.965-4.569,4.274.1,2.505,2.014,3.537,5.207,4.471,3.783,1.031,8.008,2.113,8.205,7.762.2,4.864-3.734,8.4-8.745,8.4-4.274,0-8.991-2.7-9.039-8.253h3.586a5.231,5.231,0,0,0,5.5,5.256,4.893,4.893,0,0,0,5.109-4.962c-.1-3-2.063-4.225-6.632-5.552-3.783-1.13-6.731-2.653-6.829-6.829,0-4.765,3.783-7.565,8.253-7.565,3.685,0,7.812,2.014,8.058,7.369Z" transform="translate(-403.533 -1527.852)"/></g></g><rect width="348.126" height="66.531" transform="translate(561.849 435.784)" fill="none" opacity="0"/><rect width="348.126" height="66.531" transform="translate(561.849 435.784)" fill="#fff"/><g transform="translate(578.006 446.36)"><g transform="translate(7.013 5.155)"><path d="M1234.139,1884.837h11.545c4.52,0,11.1.442,15.426,6.288a18.433,18.433,0,0,1,3.733,11.84c0,10.268-5.4,18.226-18.619,18.226h-12.085Zm7.32,29.919h5.158c7.861,0,10.906-5.159,10.906-11.693a13.652,13.652,0,0,0-2.456-8.155c-1.523-1.965-3.979-3.635-8.4-3.635h-5.208Z" transform="translate(-1234.139 -1884.837)"/><path d="M1322.353,1894.22v-9.383h-6.436v9.383h-10.66v3.931c-1.179-2.162-4.176-4.766-9.089-4.766-7.565,0-13.706,5.8-13.706,14.3,0,7.615,5.06,14.345,13.706,14.345,3.783,0,7.37-1.572,9.089-4.717v3.881h6.436v-22.009h4.224v22.009h6.436v-22.009h4.617v-4.963Zm-18.079,17.49a7.636,7.636,0,0,1-7.172,4.323,8.1,8.1,0,0,1-8.2-8.2v-.049c0-4.176,2.947-8.4,8.155-8.4a7.913,7.913,0,0,1,7.516,4.765,8.385,8.385,0,0,1,.737,3.783A9.256,9.256,0,0,1,1304.274,1911.71Z" transform="translate(-1251.119 -1884.837)" fill="#0da829"/><path d="M1377.511,1925.822h-6.436v-3.881c-1.719,3.145-5.306,4.717-9.089,4.717-8.646,0-13.707-6.731-13.707-14.345,0-8.5,6.141-14.3,13.707-14.3,4.913,0,7.91,2.6,9.089,4.766v-3.93h6.436Zm-22.8-13.363a8.1,8.1,0,0,0,8.205,8.2,7.635,7.635,0,0,0,7.172-4.323,9.256,9.256,0,0,0,1.031-3.783,8.385,8.385,0,0,0-.737-3.783,7.913,7.913,0,0,0-7.516-4.765,8.114,8.114,0,0,0-8.156,8.4Z" transform="translate(-1274.246 -1889.468)"/><path d="M1396.3,1921.191v-36.354h5.7l13.461,30.508,13.412-30.508h5.7v36.354h-3.832l.1-32.326-14.1,32.326h-2.6l-14.149-32.326.1,32.326Z" transform="translate(-1291.12 -1884.837)"/><path d="M1485.952,1926.168h-3.635v-5.453a11.728,11.728,0,0,1-10.808,6.19c-8.6,0-13.707-6.681-13.707-13.952,0-7.762,5.65-13.952,13.707-13.952,5.65,0,9.531,3.291,10.808,6.288v-5.552h3.635ZM1461.388,1913c.049,4.765,3.341,10.513,10.611,10.513a9.891,9.891,0,0,0,9.531-6.436,10.126,10.126,0,0,0,.884-4.176,9.426,9.426,0,0,0-.835-4.225,10.2,10.2,0,0,0-9.678-6.338,10.364,10.364,0,0,0-10.513,10.612Z" transform="translate(-1312.73 -1889.814)"/><path d="M1504.534,1899.736h3.439c0,1.474,0,2.947-.049,4.716,1.523-3.439,5.11-5.552,9.826-5.453,8.2.1,11.1,5.7,11.1,12.134v15.033h-3.586v-14.3c0-5.7-2.554-9.58-8.5-9.481-5.454.049-8.6,3.34-8.6,8.843v14.935h-3.635Z" transform="translate(-1329.151 -1889.812)"/><path d="M1572.448,1926.168h-3.636v-5.453a11.727,11.727,0,0,1-10.808,6.19c-8.6,0-13.707-6.681-13.707-13.952,0-7.762,5.649-13.952,13.707-13.952,5.65,0,9.531,3.291,10.808,6.288v-5.552h3.636ZM1547.883,1913c.049,4.765,3.341,10.513,10.612,10.513a9.891,9.891,0,0,0,9.531-6.436,10.116,10.116,0,0,0,.884-4.176,9.426,9.426,0,0,0-.835-4.225,10.2,10.2,0,0,0-9.678-6.338,10.364,10.364,0,0,0-10.513,10.612Z" transform="translate(-1343.123 -1889.814)"/><path d="M1618.07,1923.122c0,5.011-1.621,8.2-3.93,10.415a14.771,14.771,0,0,1-10.022,4.078c-6.583,0-11.4-3.783-13.068-8.548h4.176a10.161,10.161,0,0,0,3.144,3.488,10.417,10.417,0,0,0,5.846,1.916,10.238,10.238,0,0,0,10.219-10.513v-3.39a11.424,11.424,0,0,1-10.661,6.338c-8.253,0-13.8-6.288-13.8-13.9,0-7.909,5.748-14,13.8-14,5.208,0,9.236,2.948,10.71,6.19v-5.453h3.586Zm-24.465-10.169a10.274,10.274,0,0,0,10.611,10.563,10.142,10.142,0,0,0,7.418-3.046,11.081,11.081,0,0,0,2.948-7.468,11.41,11.41,0,0,0-2.408-6.927,9.736,9.736,0,0,0-8.057-3.684A10.281,10.281,0,0,0,1593.6,1912.9Z" transform="translate(-1359.172 -1889.814)"/><path d="M1640.11,1913.985a10.068,10.068,0,0,0,10.317,9.777,9.776,9.776,0,0,0,9.089-5.454h3.783a14.009,14.009,0,0,1-5.355,6.436,13.829,13.829,0,0,1-7.517,2.162c-9.187,0-13.952-7.32-13.952-13.9a13.887,13.887,0,1,1,27.708.983Zm20.487-2.9c-.246-4.618-4.717-9.138-10.17-8.99a10.01,10.01,0,0,0-10.268,8.99Z" transform="translate(-1375.513 -1889.814)"/><path d="M1681.086,1899.738h3.439v4.323c1.916-3.93,5.355-4.962,8.45-5.06v3.586h-.344c-5.109,0-7.959,3.193-7.959,9.187v14.395h-3.586Z" transform="translate(-1391.189 -1889.814)"/></g></g><rect width="348.126" height="66.531" transform="translate(89.795 435.784)" fill="none" opacity="0"/><rect width="348.126" height="66.531" transform="translate(89.795 435.784)" fill="#fff"/><g transform="translate(139.392 447.009)"><g transform="translate(7.447 5.022)"><path d="M303.423,1894.122a13.719,13.719,0,0,0-12.1,6.453H280.038v-8.588h11.839v-6.356H272.808v35.9h7.229v-14.6h9.175c-.035.405-.054.81-.054,1.214v.049a14.266,14.266,0,1,0,14.265-14.071Zm0,22.222a7.894,7.894,0,0,1-7.909-8.1v-.048a7.888,7.888,0,1,1,7.909,8.151Z" transform="translate(-272.808 -1885.632)" fill="#0da829"/><path d="M344.39,1899.472h6.017v3.494c1.164-2.377,3.348-4.27,7.375-4.318v6.4h-.291c-4.464,0-6.744,2.086-6.744,6.7v14.362H344.39Z" transform="translate(-297.961 -1890.206)"/><path d="M367.578,1899.472h5.968v3.348a8.774,8.774,0,0,1,7.763-4.173,8.648,8.648,0,0,1,6.55,2.717,12.283,12.283,0,0,1,1.6,2.425,10.994,10.994,0,0,1,1.941-2.522,10.423,10.423,0,0,1,13.877.049c2.426,2.523,2.911,4.706,2.911,10.189v14.6h-6.356v-14.362a9.056,9.056,0,0,0-1.067-4.949c-.679-1.31-1.941-2.183-4.173-2.183a4.99,4.99,0,0,0-4.61,2.426,8.432,8.432,0,0,0-.922,4.464v14.6h-6.356v-14.6a9.7,9.7,0,0,0-.825-4.416,4.692,4.692,0,0,0-4.366-2.474,4.96,4.96,0,0,0-4.561,2.474,9.559,9.559,0,0,0-1.019,4.61v14.41h-6.356Z" transform="translate(-306.109 -1890.206)"/><path d="M432.952,1885.632h9.461c3.251,0,5.483.582,7.084,1.7,2.91,1.649,3.881,4.658,3.881,7.471a8.064,8.064,0,0,1-4.8,7.618,9.213,9.213,0,0,1,6.89,9.121,9.1,9.1,0,0,1-4.9,8.394c-2.135,1.31-4.173,1.6-7.715,1.6h-9.9Zm3.979,15.526h5.434a9.978,9.978,0,0,0,4.221-.728,5.5,5.5,0,0,0,2.912-5.337,5.422,5.422,0,0,0-2.912-5.095,9.7,9.7,0,0,0-4.464-.825h-5.192Zm0,16.836h6.5a11.942,11.942,0,0,0,4.367-.68,6.1,6.1,0,0,0,3.785-5.968,6.383,6.383,0,0,0-3.833-6.065,11.441,11.441,0,0,0-5.046-.728h-5.774Z" transform="translate(-329.08 -1885.632)"/><path d="M493.894,1926.846h-3.4v-4.658c-1.456,3.4-5,5.434-9.655,5.385-8.151-.146-11.014-5.677-11.014-12.033v-14.8h3.542v14.119c0,5.628,2.523,9.413,8.394,9.365,5.434-.049,8.54-3.3,8.54-8.734v-14.75h3.59Z" transform="translate(-342.037 -1890.941)"/><path d="M509.472,1885.632h3.59v5h-3.59Zm0,9.8h3.59v26.1h-3.59Z" transform="translate(-355.968 -1885.632)"/><path d="M517.624,1885.632h3.59v35.9h-3.59Z" transform="translate(-358.832 -1885.632)"/><path d="M553.107,1921.536h-3.445v-5.386c-1.844,3.445-5.338,6.114-10.772,6.114-8.345,0-13.488-6.5-13.488-13.828,0-7.763,5.628-13.731,13.439-13.731,5.725,0,9.51,3.3,10.674,6.017v-15.089h3.591Zm-24.163-13.052c.049,5.241,3.687,10.432,10.48,10.432a10.364,10.364,0,0,0,7.423-3.057,10.241,10.241,0,0,0,2.911-7.521,10.018,10.018,0,0,0-3.008-7.327,10.465,10.465,0,0,0-17.807,7.424Z" transform="translate(-361.566 -1885.632)"/><path d="M574.1,1914.418a9.943,9.943,0,0,0,10.189,9.656,9.656,9.656,0,0,0,8.976-5.386H597a13.831,13.831,0,0,1-5.288,6.356,13.654,13.654,0,0,1-7.423,2.135c-9.073,0-13.779-7.229-13.779-13.731a13.715,13.715,0,1,1,27.365.97Zm20.232-2.862c-.243-4.561-4.658-9.025-10.043-8.879a9.885,9.885,0,0,0-10.141,8.879Z" transform="translate(-377.414 -1890.547)"/><path d="M615.535,1900.348h3.4v4.27c1.892-3.882,5.288-4.9,8.345-5v3.542h-.34c-5.046,0-7.86,3.154-7.86,9.073v14.216h-3.542Z" transform="translate(-393.236 -1890.547)"/></g></g><rect width="476.193" height="91.006" transform="translate(261.789 281.383)" fill="none" opacity="0"/><rect width="476.193" height="91.006" transform="translate(261.789 281.383)" fill="#fff"/><g transform="translate(336.778 302.546)"><path d="M1034.745,1711.511V1706.6c-4.711.328-8.232,1.525-10.225,6.176h-.134v-5.246h-4.651v36.33h4.651v-21.253C1024.386,1716.094,1028.374,1712.045,1034.745,1711.511Zm-277.6-2.79a25.177,25.177,0,0,0-23.18-15.01,25.6,25.6,0,0,0-25.436,25.375,25.9,25.9,0,0,0,25.637,25.77c9.563,0,18.931-5.782,22.712-14.681H746.32c-3.453,3.787-7.04,6.176-12.354,6.176-9.1,0-16.341-8.3-16.341-17.131,0-8.705,6.973-17,16.007-17,5.447,0,9.7,2.456,13.155,6.505Zm11.715-5.91v-8.1h-8.833v8.1Zm0,41.048v-36.865h-8.833v36.865Zm83.6-34.469a9.509,9.509,0,0,1-5.715,8.961c-2.79,1.332-5.38,1.264-8.438,1.264h-8.5v-20.457h8.5c3.058,0,5.647-.067,8.438,1.265A9.512,9.512,0,0,1,852.464,1709.389Zm4.912,0a13.994,13.994,0,0,0-6.11-11.824c-3.72-2.523-8.3-2.857-12.688-2.857H824.895v49.151h4.918v-19.795h8.766c4.383,0,8.967-.334,12.688-2.857A13.991,13.991,0,0,0,857.376,1709.389Zm7.69,34.469v-49.151h-4.651v49.151Zm37.254-18.135a14.6,14.6,0,0,1-14.542,14.815c-8.5,0-14.882-6.244-14.882-14.748,0-8.566,6.244-15.01,14.882-15.01a14.708,14.708,0,0,1,14.542,14.943Zm4.389,18.135v-36.33h-4.651v6.371h-.134c-3.125-4.912-8.439-7.3-14.147-7.3-10.693,0-19.527,8.1-19.527,18.991,0,10.961,8.633,19.132,19.527,19.132a16.671,16.671,0,0,0,14.147-7.241h.134v6.377Zm34.889,0v-19.995c0-10.025-5.581-17.265-16.007-17.265-4.316,0-8.766,1.854-11.161,5.574H914.3v-4.644h-4.651v36.33H914.3v-20.323c0-3.325.863-7.24,3.386-9.636a11.573,11.573,0,0,1,15.806,0c2.59,2.462,3.453,6.511,3.453,9.964v19.995Zm35.023,0v-19.995c0-10.025-5.575-17.265-16.007-17.265-4.316,0-8.766,1.854-11.155,5.574h-.134v-4.644h-4.651v36.33h4.651v-20.323c0-3.325.863-7.24,3.386-9.636a11.581,11.581,0,0,1,15.812,0c2.59,2.462,3.453,6.511,3.453,9.964v19.995Zm36-20.658H984.257a14.367,14.367,0,0,1,14.146-12.42C1005.71,1710.781,1011.425,1716.094,1012.623,1723.2Zm4.778,2.857c0-10.493-8.432-19.459-19.059-19.459a19.062,19.062,0,1,0,17.934,25.369h-4.919c-1.994,5.38-7.441,8.571-13.016,8.571-7.106,0-13.751-5.982-14.085-13.155h33.077C1017.334,1726.921,1017.4,1726.52,1017.4,1726.058Z" transform="translate(-708.531 -1693.71)"/></g><path d="M818.75,1707.534v-12.286h-8.833v12.286h-4.322v7.836h4.322V1744.4h8.833V1715.37h3.581l10.323,25.576-6.778,15.739h9.5l21.186-49.151H846.532l-8.9,23.648-8.371-23.648Z" transform="translate(-405.631 -1391.704)" fill="#0da829"/></g></g></svg>