<svg xmlns="http://www.w3.org/2000/svg" xmlns:xlink="http://www.w3.org/1999/xlink" width="1000" height="660" viewBox="0 0 1000 660"><defs><clipPath id="a"><rect width="985.923" height="650" fill="none"/></clipPath><clipPath id="b"><rect width="985.923" height="640.684" fill="none"/></clipPath><clipPath id="d"><rect width="1000" height="660"/></clipPath></defs><g id="c" clip-path="url(#d)"><g transform="translate(7 4.5)" opacity="0.201"><g transform="translate(0 0.5)" clip-path="url(#a)"><g transform="translate(0 -0.5)"><path d="M0,0V660" transform="translate(6.5 0.5)" fill="none" stroke="rgba(6,35,43,0.5)" stroke-width="1"/></g><g transform="translate(21 -0.5)"><path d="M0,0V660" transform="translate(6.5 0.5)" fill="none" stroke="rgba(6,35,43,0.5)" stroke-width="1"/></g><g transform="translate(42 -0.5)"><path d="M0,0V660" transform="translate(6.5 0.5)" fill="none" stroke="rgba(6,35,43,0.5)" stroke-width="1"/></g><g transform="translate(63 -0.5)"><path d="M0,0V660" transform="translate(6.5 0.5)" fill="none" stroke="rgba(6,35,43,0.5)" stroke-width="1"/></g><g transform="translate(84 -0.5)"><path d="M0,0V660" transform="translate(6.5 0.5)" fill="none" stroke="rgba(6,35,43,0.5)" stroke-width="1"/></g><g transform="translate(105 -0.5)"><path d="M0,0V660" transform="translate(6.5 0.5)" fill="none" stroke="rgba(6,35,43,0.5)" stroke-width="1"/></g><g transform="translate(126 -0.5)"><path d="M0,0V660" transform="translate(6.5 0.5)" fill="none" stroke="rgba(6,35,43,0.5)" stroke-width="1"/></g><g transform="translate(147 -0.5)"><path d="M0,0V660" transform="translate(6.5 0.5)" fill="none" stroke="rgba(6,35,43,0.5)" stroke-width="1"/></g><g transform="translate(168 -0.5)"><path d="M0,0V660" transform="translate(6.5 0.5)" fill="none" stroke="rgba(6,35,43,0.5)" stroke-width="1"/></g><g transform="translate(189 -0.5)"><path d="M0,0V660" transform="translate(6.5 0.5)" fill="none" stroke="rgba(6,35,43,0.5)" stroke-width="1"/></g><g transform="translate(210 -0.5)"><path d="M0,0V660" transform="translate(6.5 0.5)" fill="none" stroke="rgba(6,35,43,0.5)" stroke-width="1"/></g><g transform="translate(231 -0.5)"><path d="M0,0V660" transform="translate(6.5 0.5)" fill="none" stroke="rgba(6,35,43,0.5)" stroke-width="1"/></g><g transform="translate(252 -0.5)"><path d="M0,0V660" transform="translate(6.5 0.5)" fill="none" stroke="rgba(6,35,43,0.5)" stroke-width="1"/></g><g transform="translate(273 -0.5)"><path d="M0,0V660" transform="translate(6.5 0.5)" fill="none" stroke="rgba(6,35,43,0.5)" stroke-width="1"/></g><g transform="translate(294 -0.5)"><path d="M0,0V660" transform="translate(6.5 0.5)" fill="none" stroke="rgba(6,35,43,0.5)" stroke-width="1"/></g><g transform="translate(315 -0.5)"><path d="M0,0V660" transform="translate(6.5 0.5)" fill="none" stroke="rgba(6,35,43,0.5)" stroke-width="1"/></g><g transform="translate(336 -0.5)"><path d="M0,0V660" transform="translate(6.5 0.5)" fill="none" stroke="rgba(6,35,43,0.5)" stroke-width="1"/></g><g transform="translate(357 -0.5)"><path d="M0,0V660" transform="translate(6.5 0.5)" fill="none" stroke="rgba(6,35,43,0.5)" stroke-width="1"/></g><g transform="translate(378 -0.5)"><path d="M0,0V660" transform="translate(6.5 0.5)" fill="none" stroke="rgba(6,35,43,0.5)" stroke-width="1"/></g><g transform="translate(399 -0.5)"><path d="M0,0V660" transform="translate(6.5 0.5)" fill="none" stroke="rgba(6,35,43,0.5)" stroke-width="1"/></g><g transform="translate(420 -0.5)"><path d="M0,0V660" transform="translate(6.5 0.5)" fill="none" stroke="rgba(6,35,43,0.5)" stroke-width="1"/></g><g transform="translate(441 -0.5)"><path d="M0,0V660" transform="translate(6.5 0.5)" fill="none" stroke="rgba(6,35,43,0.5)" stroke-width="1"/></g><g transform="translate(462 -0.5)"><path d="M0,0V660" transform="translate(6.5 0.5)" fill="none" stroke="rgba(6,35,43,0.5)" stroke-width="1"/></g><g transform="translate(483 -0.5)"><path d="M0,0V660" transform="translate(6.5 0.5)" fill="none" stroke="rgba(6,35,43,0.5)" stroke-width="1"/></g><g transform="translate(504 -0.5)"><path d="M0,0V660" transform="translate(6.5 0.5)" fill="none" stroke="rgba(6,35,43,0.5)" stroke-width="1"/></g><g transform="translate(525 -0.5)"><path d="M0,0V660" transform="translate(6.5 0.5)" fill="none" stroke="rgba(6,35,43,0.5)" stroke-width="1"/></g><g transform="translate(546 -0.5)"><path d="M0,0V660" transform="translate(6.5 0.5)" fill="none" stroke="rgba(6,35,43,0.5)" stroke-width="1"/></g><g transform="translate(567 -0.5)"><path d="M0,0V660" transform="translate(6.5 0.5)" fill="none" stroke="rgba(6,35,43,0.5)" stroke-width="1"/></g><g transform="translate(588 -0.5)"><path d="M0,0V660" transform="translate(6.5 0.5)" fill="none" stroke="rgba(6,35,43,0.5)" stroke-width="1"/></g><g transform="translate(609 -0.5)"><path d="M0,0V660" transform="translate(6.5 0.5)" fill="none" stroke="rgba(6,35,43,0.5)" stroke-width="1"/></g><g transform="translate(630 -0.5)"><path d="M0,0V660" transform="translate(6.5 0.5)" fill="none" stroke="rgba(6,35,43,0.5)" stroke-width="1"/></g><g transform="translate(651 -0.5)"><path d="M0,0V660" transform="translate(6.5 0.5)" fill="none" stroke="rgba(6,35,43,0.5)" stroke-width="1"/></g><g transform="translate(672 -0.5)"><path d="M0,0V660" transform="translate(6.5 0.5)" fill="none" stroke="rgba(6,35,43,0.5)" stroke-width="1"/></g><g transform="translate(693 -0.5)"><path d="M0,0V660" transform="translate(6.5 0.5)" fill="none" stroke="rgba(6,35,43,0.5)" stroke-width="1"/></g><g transform="translate(714 -0.5)"><path d="M0,0V660" transform="translate(6.5 0.5)" fill="none" stroke="rgba(6,35,43,0.5)" stroke-width="1"/></g><g transform="translate(735 -0.5)"><path d="M0,0V660" transform="translate(6.5 0.5)" fill="none" stroke="rgba(6,35,43,0.5)" stroke-width="1"/></g><g transform="translate(756 -0.5)"><path d="M0,0V660" transform="translate(6.5 0.5)" fill="none" stroke="rgba(6,35,43,0.5)" stroke-width="1"/></g><g transform="translate(777 -0.5)"><path d="M0,0V660" transform="translate(6.5 0.5)" fill="none" stroke="rgba(6,35,43,0.5)" stroke-width="1"/></g><g transform="translate(798 -0.5)"><path d="M0,0V660" transform="translate(6.5 0.5)" fill="none" stroke="rgba(6,35,43,0.5)" stroke-width="1"/></g><g transform="translate(819 -0.5)"><path d="M0,0V660" transform="translate(6.5 0.5)" fill="none" stroke="rgba(6,35,43,0.5)" stroke-width="1"/></g><g transform="translate(840 -0.5)"><path d="M0,0V660" transform="translate(6.5 0.5)" fill="none" stroke="rgba(6,35,43,0.5)" stroke-width="1"/></g><g transform="translate(861 -0.5)"><path d="M0,0V660" transform="translate(6.5 0.5)" fill="none" stroke="rgba(6,35,43,0.5)" stroke-width="1"/></g><g transform="translate(882 -0.5)"><path d="M0,0V660" transform="translate(6.5 0.5)" fill="none" stroke="rgba(6,35,43,0.5)" stroke-width="1"/></g><g transform="translate(903 -0.5)"><path d="M0,0V660" transform="translate(6.5 0.5)" fill="none" stroke="rgba(6,35,43,0.5)" stroke-width="1"/></g><g transform="translate(924 -0.5)"><path d="M0,0V660" transform="translate(6.5 0.5)" fill="none" stroke="rgba(6,35,43,0.5)" stroke-width="1"/></g><g transform="translate(945 -0.5)"><path d="M0,0V660" transform="translate(6.5 0.5)" fill="none" stroke="rgba(6,35,43,0.5)" stroke-width="1"/></g><g transform="translate(966 -0.5)"><path d="M0,0V660" transform="translate(6.5 0.5)" fill="none" stroke="rgba(6,35,43,0.5)" stroke-width="1"/></g></g><g transform="translate(0.932 5.624)" clip-path="url(#b)"><g transform="translate(-0.5)"><line x2="1000" transform="translate(0.5 9.5)" fill="none" stroke="rgba(6,35,43,0.5)" stroke-width="1"/></g><g transform="translate(-0.5 21)"><line x2="1000" transform="translate(0.5 9.5)" fill="none" stroke="rgba(6,35,43,0.5)" stroke-width="1"/></g><g transform="translate(-0.5 42)"><line x2="1000" transform="translate(0.5 9.5)" fill="none" stroke="rgba(6,35,43,0.5)" stroke-width="1"/></g><g transform="translate(-0.5 63)"><line x2="1000" transform="translate(0.5 9.5)" fill="none" stroke="rgba(6,35,43,0.5)" stroke-width="1"/></g><g transform="translate(-0.5 84)"><line x2="1000" transform="translate(0.5 9.5)" fill="none" stroke="rgba(6,35,43,0.5)" stroke-width="1"/></g><g transform="translate(-0.5 105)"><line x2="1000" transform="translate(0.5 9.5)" fill="none" stroke="rgba(6,35,43,0.5)" stroke-width="1"/></g><g transform="translate(-0.5 126)"><line x2="1000" transform="translate(0.5 9.5)" fill="none" stroke="rgba(6,35,43,0.5)" stroke-width="1"/></g><g transform="translate(-0.5 147)"><line x2="1000" transform="translate(0.5 9.5)" fill="none" stroke="rgba(6,35,43,0.5)" stroke-width="1"/></g><g transform="translate(-0.5 168)"><line x2="1000" transform="translate(0.5 9.5)" fill="none" stroke="rgba(6,35,43,0.5)" stroke-width="1"/></g><g transform="translate(-0.5 189)"><line x2="1000" transform="translate(0.5 9.5)" fill="none" stroke="rgba(6,35,43,0.5)" stroke-width="1"/></g><g transform="translate(-0.5 210)"><line x2="1000" transform="translate(0.5 9.5)" fill="none" stroke="rgba(6,35,43,0.5)" stroke-width="1"/></g><g transform="translate(-0.5 231)"><line x2="1000" transform="translate(0.5 9.5)" fill="none" stroke="rgba(6,35,43,0.5)" stroke-width="1"/></g><g transform="translate(-0.5 252)"><line x2="1000" transform="translate(0.5 9.5)" fill="none" stroke="rgba(6,35,43,0.5)" stroke-width="1"/></g><g transform="translate(-0.5 273)"><line x2="1000" transform="translate(0.5 9.5)" fill="none" stroke="rgba(6,35,43,0.5)" stroke-width="1"/></g><g transform="translate(-0.5 294)"><line x2="1000" transform="translate(0.5 9.5)" fill="none" stroke="rgba(6,35,43,0.5)" stroke-width="1"/></g><g transform="translate(-0.5 315)"><line x2="1000" transform="translate(0.5 9.5)" fill="none" stroke="rgba(6,35,43,0.5)" stroke-width="1"/></g><g transform="translate(-0.5 336)"><line x2="1000" transform="translate(0.5 9.5)" fill="none" stroke="rgba(6,35,43,0.5)" stroke-width="1"/></g><g transform="translate(-0.5 357)"><line x2="1000" transform="translate(0.5 9.5)" fill="none" stroke="rgba(6,35,43,0.5)" stroke-width="1"/></g><g transform="translate(-0.5 378)"><line x2="1000" transform="translate(0.5 9.5)" fill="none" stroke="rgba(6,35,43,0.5)" stroke-width="1"/></g><g transform="translate(-0.5 399)"><line x2="1000" transform="translate(0.5 9.5)" fill="none" stroke="rgba(6,35,43,0.5)" stroke-width="1"/></g><g transform="translate(-0.5 420)"><line x2="1000" transform="translate(0.5 9.5)" fill="none" stroke="rgba(6,35,43,0.5)" stroke-width="1"/></g><g transform="translate(-0.5 441)"><line x2="1000" transform="translate(0.5 9.5)" fill="none" stroke="rgba(6,35,43,0.5)" stroke-width="1"/></g><g transform="translate(-0.5 462)"><line x2="1000" transform="translate(0.5 9.5)" fill="none" stroke="rgba(6,35,43,0.5)" stroke-width="1"/></g><g transform="translate(-0.5 483)"><line x2="1000" transform="translate(0.5 9.5)" fill="none" stroke="rgba(6,35,43,0.5)" stroke-width="1"/></g><g transform="translate(-0.5 504)"><line x2="1000" transform="translate(0.5 9.5)" fill="none" stroke="rgba(6,35,43,0.5)" stroke-width="1"/></g><g transform="translate(-0.5 525)"><line x2="1000" transform="translate(0.5 9.5)" fill="none" stroke="rgba(6,35,43,0.5)" stroke-width="1"/></g><g transform="translate(-0.5 546)"><line x2="1000" transform="translate(0.5 9.5)" fill="none" stroke="rgba(6,35,43,0.5)" stroke-width="1"/></g><g transform="translate(-0.5 567)"><line x2="1000" transform="translate(0.5 9.5)" fill="none" stroke="rgba(6,35,43,0.5)" stroke-width="1"/></g><g transform="translate(-0.5 588)"><line x2="1000" transform="translate(0.5 9.5)" fill="none" stroke="rgba(6,35,43,0.5)" stroke-width="1"/></g><g transform="translate(-0.5 609)"><line x2="1000" transform="translate(0.5 9.5)" fill="none" stroke="rgba(6,35,43,0.5)" stroke-width="1"/></g><g transform="translate(-0.5 630)"><line x2="1000" transform="translate(0.5 9.5)" fill="none" stroke="rgba(6,35,43,0.5)" stroke-width="1"/></g></g></g><g transform="translate(127.126 226.752)"><g transform="translate(5 6)"><path d="M614.826,37.683V29.2c-8.138.567-14.218,2.636-17.662,10.669h-.231V30.8H588.9V93.557h8.033V56.846C596.933,45.6,603.821,38.607,614.826,37.683Zm-479.5-4.82A43.488,43.488,0,0,0,95.29,6.936c-23.973,0-43.935,19.846-43.935,43.83,0,24.2,19.962,44.513,44.282,44.513,16.518,0,32.7-9.986,39.231-25.359h-18.24c-5.964,6.542-12.16,10.669-21.338,10.669C79.57,80.589,67.063,66.255,67.063,51c0-15.037,12.044-29.371,27.649-29.371,9.409,0,16.759,4.242,22.724,11.236Zm20.235-10.207v-14H140.306v14Zm0,70.9V29.88H140.306V93.557Zm27.26-63.677V8.658H167.566V29.88H160.1V43.416h7.466V93.557h15.258V43.416h6.185l17.83,44.177-11.708,27.187h16.413l36.6-84.9H230.813L215.439,70.728,200.98,29.88Zm117.147,4.137A16.424,16.424,0,0,1,290.1,49.5c-4.82,2.3-9.293,2.184-14.575,2.184h-14.68V16.345h14.68c5.282,0,9.755-.116,14.575,2.184A16.429,16.429,0,0,1,299.971,34.018Zm8.485,0A24.174,24.174,0,0,0,297.9,13.594c-6.426-4.358-14.344-4.935-21.915-4.935H252.35v84.9h8.5V59.367h15.142c7.571,0,15.489-.578,21.915-4.935A24.169,24.169,0,0,0,308.455,34.018Zm13.283,59.539V8.658h-8.033v84.9Zm64.349-31.324c0,14-10.889,25.59-25.118,25.59-14.691,0-25.706-10.784-25.706-25.475,0-14.8,10.784-25.926,25.706-25.926,14.229,0,25.118,11.813,25.118,25.811Zm7.582,31.324V30.8h-8.033v11H385.4C380.008,33.325,370.83,29.2,360.97,29.2c-18.471,0-33.728,14-33.728,32.8,0,18.933,14.911,33.046,33.728,33.046,9.745,0,18.922-4.242,24.435-12.506h.231V93.557Zm60.264,0V59.02c0-17.316-9.64-29.822-27.648-29.822-7.456,0-15.142,3.2-19.279,9.629h-.221V30.8h-8.033V93.557h8.033v-35.1c0-5.744,1.491-12.506,5.849-16.644a19.99,19.99,0,0,1,27.3,0c4.473,4.253,5.964,11.246,5.964,17.211V93.557Zm60.495,0V59.02c0-17.316-9.629-29.822-27.649-29.822-7.456,0-15.142,3.2-19.269,9.629h-.231V30.8h-8.033V93.557h8.033v-35.1c0-5.744,1.491-12.506,5.849-16.644a20,20,0,0,1,27.313,0c4.473,4.253,5.964,11.246,5.964,17.211V93.557Zm62.186-35.682h-49c1.953-12.275,11.939-21.453,24.435-21.453C564.674,36.422,574.545,45.6,576.614,57.876Zm8.254,4.935c0-18.124-14.565-33.613-32.92-33.613-18.019,0-32.584,15.142-32.584,33.035a32.671,32.671,0,0,0,63.561,10.784h-8.5c-3.444,9.293-12.853,14.806-22.482,14.806-12.275,0-23.753-10.333-24.33-22.724h57.135C584.752,64.3,584.867,63.609,584.867,62.811Z" transform="translate(120.228 16.239)" fill-rule="evenodd"/><path d="M82.012,84.374A67.347,67.347,0,0,1,76.752,97.92l-1.428,2.6-53.974,94.16V96.523a29.821,29.821,0,0,0,0-59.046V0A67.2,67.2,0,0,1,82.012,84.374Z" transform="translate(49.982)" fill="#0da829" fill-rule="evenodd"/><path d="M61.839,133.868a67.13,67.13,0,0,1,0-133.843V37.6a29.824,29.824,0,0,0,0,58.7Z" transform="translate(0 0.059)" fill="#85d478" fill-rule="evenodd"/></g></g></g></svg>