<svg xmlns="http://www.w3.org/2000/svg" xmlns:xlink="http://www.w3.org/1999/xlink" width="1000" height="660" viewBox="0 0 1000 660"><defs><clipPath id="a"><rect width="985.923" height="650" fill="none"/></clipPath><clipPath id="b"><rect width="985.923" height="640.684" fill="none"/></clipPath><clipPath id="d"><rect width="1000" height="660"/></clipPath></defs><g id="c" clip-path="url(#d)"><g transform="translate(7 4.5)" opacity="0.201"><g transform="translate(0 0.5)" clip-path="url(#a)"><g transform="translate(0 -0.5)"><path d="M0,0V660" transform="translate(6.5 0.5)" fill="none" stroke="rgba(6,35,43,0.5)" stroke-width="1"/></g><g transform="translate(21 -0.5)"><path d="M0,0V660" transform="translate(6.5 0.5)" fill="none" stroke="rgba(6,35,43,0.5)" stroke-width="1"/></g><g transform="translate(42 -0.5)"><path d="M0,0V660" transform="translate(6.5 0.5)" fill="none" stroke="rgba(6,35,43,0.5)" stroke-width="1"/></g><g transform="translate(63 -0.5)"><path d="M0,0V660" transform="translate(6.5 0.5)" fill="none" stroke="rgba(6,35,43,0.5)" stroke-width="1"/></g><g transform="translate(84 -0.5)"><path d="M0,0V660" transform="translate(6.5 0.5)" fill="none" stroke="rgba(6,35,43,0.5)" stroke-width="1"/></g><g transform="translate(105 -0.5)"><path d="M0,0V660" transform="translate(6.5 0.5)" fill="none" stroke="rgba(6,35,43,0.5)" stroke-width="1"/></g><g transform="translate(126 -0.5)"><path d="M0,0V660" transform="translate(6.5 0.5)" fill="none" stroke="rgba(6,35,43,0.5)" stroke-width="1"/></g><g transform="translate(147 -0.5)"><path d="M0,0V660" transform="translate(6.5 0.5)" fill="none" stroke="rgba(6,35,43,0.5)" stroke-width="1"/></g><g transform="translate(168 -0.5)"><path d="M0,0V660" transform="translate(6.5 0.5)" fill="none" stroke="rgba(6,35,43,0.5)" stroke-width="1"/></g><g transform="translate(189 -0.5)"><path d="M0,0V660" transform="translate(6.5 0.5)" fill="none" stroke="rgba(6,35,43,0.5)" stroke-width="1"/></g><g transform="translate(210 -0.5)"><path d="M0,0V660" transform="translate(6.5 0.5)" fill="none" stroke="rgba(6,35,43,0.5)" stroke-width="1"/></g><g transform="translate(231 -0.5)"><path d="M0,0V660" transform="translate(6.5 0.5)" fill="none" stroke="rgba(6,35,43,0.5)" stroke-width="1"/></g><g transform="translate(252 -0.5)"><path d="M0,0V660" transform="translate(6.5 0.5)" fill="none" stroke="rgba(6,35,43,0.5)" stroke-width="1"/></g><g transform="translate(273 -0.5)"><path d="M0,0V660" transform="translate(6.5 0.5)" fill="none" stroke="rgba(6,35,43,0.5)" stroke-width="1"/></g><g transform="translate(294 -0.5)"><path d="M0,0V660" transform="translate(6.5 0.5)" fill="none" stroke="rgba(6,35,43,0.5)" stroke-width="1"/></g><g transform="translate(315 -0.5)"><path d="M0,0V660" transform="translate(6.5 0.5)" fill="none" stroke="rgba(6,35,43,0.5)" stroke-width="1"/></g><g transform="translate(336 -0.5)"><path d="M0,0V660" transform="translate(6.5 0.5)" fill="none" stroke="rgba(6,35,43,0.5)" stroke-width="1"/></g><g transform="translate(357 -0.5)"><path d="M0,0V660" transform="translate(6.5 0.5)" fill="none" stroke="rgba(6,35,43,0.5)" stroke-width="1"/></g><g transform="translate(378 -0.5)"><path d="M0,0V660" transform="translate(6.5 0.5)" fill="none" stroke="rgba(6,35,43,0.5)" stroke-width="1"/></g><g transform="translate(399 -0.5)"><path d="M0,0V660" transform="translate(6.5 0.5)" fill="none" stroke="rgba(6,35,43,0.5)" stroke-width="1"/></g><g transform="translate(420 -0.5)"><path d="M0,0V660" transform="translate(6.5 0.5)" fill="none" stroke="rgba(6,35,43,0.5)" stroke-width="1"/></g><g transform="translate(441 -0.5)"><path d="M0,0V660" transform="translate(6.5 0.5)" fill="none" stroke="rgba(6,35,43,0.5)" stroke-width="1"/></g><g transform="translate(462 -0.5)"><path d="M0,0V660" transform="translate(6.5 0.5)" fill="none" stroke="rgba(6,35,43,0.5)" stroke-width="1"/></g><g transform="translate(483 -0.5)"><path d="M0,0V660" transform="translate(6.5 0.5)" fill="none" stroke="rgba(6,35,43,0.5)" stroke-width="1"/></g><g transform="translate(504 -0.5)"><path d="M0,0V660" transform="translate(6.5 0.5)" fill="none" stroke="rgba(6,35,43,0.5)" stroke-width="1"/></g><g transform="translate(525 -0.5)"><path d="M0,0V660" transform="translate(6.5 0.5)" fill="none" stroke="rgba(6,35,43,0.5)" stroke-width="1"/></g><g transform="translate(546 -0.5)"><path d="M0,0V660" transform="translate(6.5 0.5)" fill="none" stroke="rgba(6,35,43,0.5)" stroke-width="1"/></g><g transform="translate(567 -0.5)"><path d="M0,0V660" transform="translate(6.5 0.5)" fill="none" stroke="rgba(6,35,43,0.5)" stroke-width="1"/></g><g transform="translate(588 -0.5)"><path d="M0,0V660" transform="translate(6.5 0.5)" fill="none" stroke="rgba(6,35,43,0.5)" stroke-width="1"/></g><g transform="translate(609 -0.5)"><path d="M0,0V660" transform="translate(6.5 0.5)" fill="none" stroke="rgba(6,35,43,0.5)" stroke-width="1"/></g><g transform="translate(630 -0.5)"><path d="M0,0V660" transform="translate(6.5 0.5)" fill="none" stroke="rgba(6,35,43,0.5)" stroke-width="1"/></g><g transform="translate(651 -0.5)"><path d="M0,0V660" transform="translate(6.5 0.5)" fill="none" stroke="rgba(6,35,43,0.5)" stroke-width="1"/></g><g transform="translate(672 -0.5)"><path d="M0,0V660" transform="translate(6.5 0.5)" fill="none" stroke="rgba(6,35,43,0.5)" stroke-width="1"/></g><g transform="translate(693 -0.5)"><path d="M0,0V660" transform="translate(6.5 0.5)" fill="none" stroke="rgba(6,35,43,0.5)" stroke-width="1"/></g><g transform="translate(714 -0.5)"><path d="M0,0V660" transform="translate(6.5 0.5)" fill="none" stroke="rgba(6,35,43,0.5)" stroke-width="1"/></g><g transform="translate(735 -0.5)"><path d="M0,0V660" transform="translate(6.5 0.5)" fill="none" stroke="rgba(6,35,43,0.5)" stroke-width="1"/></g><g transform="translate(756 -0.5)"><path d="M0,0V660" transform="translate(6.5 0.5)" fill="none" stroke="rgba(6,35,43,0.5)" stroke-width="1"/></g><g transform="translate(777 -0.5)"><path d="M0,0V660" transform="translate(6.5 0.5)" fill="none" stroke="rgba(6,35,43,0.5)" stroke-width="1"/></g><g transform="translate(798 -0.5)"><path d="M0,0V660" transform="translate(6.5 0.5)" fill="none" stroke="rgba(6,35,43,0.5)" stroke-width="1"/></g><g transform="translate(819 -0.5)"><path d="M0,0V660" transform="translate(6.5 0.5)" fill="none" stroke="rgba(6,35,43,0.5)" stroke-width="1"/></g><g transform="translate(840 -0.5)"><path d="M0,0V660" transform="translate(6.5 0.5)" fill="none" stroke="rgba(6,35,43,0.5)" stroke-width="1"/></g><g transform="translate(861 -0.5)"><path d="M0,0V660" transform="translate(6.5 0.5)" fill="none" stroke="rgba(6,35,43,0.5)" stroke-width="1"/></g><g transform="translate(882 -0.5)"><path d="M0,0V660" transform="translate(6.5 0.5)" fill="none" stroke="rgba(6,35,43,0.5)" stroke-width="1"/></g><g transform="translate(903 -0.5)"><path d="M0,0V660" transform="translate(6.5 0.5)" fill="none" stroke="rgba(6,35,43,0.5)" stroke-width="1"/></g><g transform="translate(924 -0.5)"><path d="M0,0V660" transform="translate(6.5 0.5)" fill="none" stroke="rgba(6,35,43,0.5)" stroke-width="1"/></g><g transform="translate(945 -0.5)"><path d="M0,0V660" transform="translate(6.5 0.5)" fill="none" stroke="rgba(6,35,43,0.5)" stroke-width="1"/></g><g transform="translate(966 -0.5)"><path d="M0,0V660" transform="translate(6.5 0.5)" fill="none" stroke="rgba(6,35,43,0.5)" stroke-width="1"/></g></g><g transform="translate(0.932 5.624)" clip-path="url(#b)"><g transform="translate(-0.5)"><line x2="1000" transform="translate(0.5 9.5)" fill="none" stroke="rgba(6,35,43,0.5)" stroke-width="1"/></g><g transform="translate(-0.5 21)"><line x2="1000" transform="translate(0.5 9.5)" fill="none" stroke="rgba(6,35,43,0.5)" stroke-width="1"/></g><g transform="translate(-0.5 42)"><line x2="1000" transform="translate(0.5 9.5)" fill="none" stroke="rgba(6,35,43,0.5)" stroke-width="1"/></g><g transform="translate(-0.5 63)"><line x2="1000" transform="translate(0.5 9.5)" fill="none" stroke="rgba(6,35,43,0.5)" stroke-width="1"/></g><g transform="translate(-0.5 84)"><line x2="1000" transform="translate(0.5 9.5)" fill="none" stroke="rgba(6,35,43,0.5)" stroke-width="1"/></g><g transform="translate(-0.5 105)"><line x2="1000" transform="translate(0.5 9.5)" fill="none" stroke="rgba(6,35,43,0.5)" stroke-width="1"/></g><g transform="translate(-0.5 126)"><line x2="1000" transform="translate(0.5 9.5)" fill="none" stroke="rgba(6,35,43,0.5)" stroke-width="1"/></g><g transform="translate(-0.5 147)"><line x2="1000" transform="translate(0.5 9.5)" fill="none" stroke="rgba(6,35,43,0.5)" stroke-width="1"/></g><g transform="translate(-0.5 168)"><line x2="1000" transform="translate(0.5 9.5)" fill="none" stroke="rgba(6,35,43,0.5)" stroke-width="1"/></g><g transform="translate(-0.5 189)"><line x2="1000" transform="translate(0.5 9.5)" fill="none" stroke="rgba(6,35,43,0.5)" stroke-width="1"/></g><g transform="translate(-0.5 210)"><line x2="1000" transform="translate(0.5 9.5)" fill="none" stroke="rgba(6,35,43,0.5)" stroke-width="1"/></g><g transform="translate(-0.5 231)"><line x2="1000" transform="translate(0.5 9.5)" fill="none" stroke="rgba(6,35,43,0.5)" stroke-width="1"/></g><g transform="translate(-0.5 252)"><line x2="1000" transform="translate(0.5 9.5)" fill="none" stroke="rgba(6,35,43,0.5)" stroke-width="1"/></g><g transform="translate(-0.5 273)"><line x2="1000" transform="translate(0.5 9.5)" fill="none" stroke="rgba(6,35,43,0.5)" stroke-width="1"/></g><g transform="translate(-0.5 294)"><line x2="1000" transform="translate(0.5 9.5)" fill="none" stroke="rgba(6,35,43,0.5)" stroke-width="1"/></g><g transform="translate(-0.5 315)"><line x2="1000" transform="translate(0.5 9.5)" fill="none" stroke="rgba(6,35,43,0.5)" stroke-width="1"/></g><g transform="translate(-0.5 336)"><line x2="1000" transform="translate(0.5 9.5)" fill="none" stroke="rgba(6,35,43,0.5)" stroke-width="1"/></g><g transform="translate(-0.5 357)"><line x2="1000" transform="translate(0.5 9.5)" fill="none" stroke="rgba(6,35,43,0.5)" stroke-width="1"/></g><g transform="translate(-0.5 378)"><line x2="1000" transform="translate(0.5 9.5)" fill="none" stroke="rgba(6,35,43,0.5)" stroke-width="1"/></g><g transform="translate(-0.5 399)"><line x2="1000" transform="translate(0.5 9.5)" fill="none" stroke="rgba(6,35,43,0.5)" stroke-width="1"/></g><g transform="translate(-0.5 420)"><line x2="1000" transform="translate(0.5 9.5)" fill="none" stroke="rgba(6,35,43,0.5)" stroke-width="1"/></g><g transform="translate(-0.5 441)"><line x2="1000" transform="translate(0.5 9.5)" fill="none" stroke="rgba(6,35,43,0.5)" stroke-width="1"/></g><g transform="translate(-0.5 462)"><line x2="1000" transform="translate(0.5 9.5)" fill="none" stroke="rgba(6,35,43,0.5)" stroke-width="1"/></g><g transform="translate(-0.5 483)"><line x2="1000" transform="translate(0.5 9.5)" fill="none" stroke="rgba(6,35,43,0.5)" stroke-width="1"/></g><g transform="translate(-0.5 504)"><line x2="1000" transform="translate(0.5 9.5)" fill="none" stroke="rgba(6,35,43,0.5)" stroke-width="1"/></g><g transform="translate(-0.5 525)"><line x2="1000" transform="translate(0.5 9.5)" fill="none" stroke="rgba(6,35,43,0.5)" stroke-width="1"/></g><g transform="translate(-0.5 546)"><line x2="1000" transform="translate(0.5 9.5)" fill="none" stroke="rgba(6,35,43,0.5)" stroke-width="1"/></g><g transform="translate(-0.5 567)"><line x2="1000" transform="translate(0.5 9.5)" fill="none" stroke="rgba(6,35,43,0.5)" stroke-width="1"/></g><g transform="translate(-0.5 588)"><line x2="1000" transform="translate(0.5 9.5)" fill="none" stroke="rgba(6,35,43,0.5)" stroke-width="1"/></g><g transform="translate(-0.5 609)"><line x2="1000" transform="translate(0.5 9.5)" fill="none" stroke="rgba(6,35,43,0.5)" stroke-width="1"/></g><g transform="translate(-0.5 630)"><line x2="1000" transform="translate(0.5 9.5)" fill="none" stroke="rgba(6,35,43,0.5)" stroke-width="1"/></g></g></g><g transform="translate(-112.375 -90.735)"><g transform="translate(234.208 201.857)"><g transform="translate(202.741 236.346)"><g opacity="0.8"><path d="M614.9,708.961a33.421,33.421,0,0,1-34.225-34.225V622.35A33.42,33.42,0,0,1,614.9,588.125h58.672a33.42,33.42,0,0,1,34.225,34.225v52.386a34.032,34.032,0,0,1-9.08,23.049,32.853,32.853,0,0,1-21.653,11.176h-3.492l-1.4,2.794L661,732.011l-11.874-20.256-1.4-2.794H614.9Zm58.672-132.012H614.9a45.31,45.31,0,0,0-45.4,45.4v52.386a45.311,45.311,0,0,0,45.4,45.4H640.74l15.366,25.844,4.89,8.382,4.191-8.382,15.366-26.542c10.477-1.4,19.557-6.985,26.542-13.969,6.985-8.382,11.874-18.859,11.874-30.733V622.35a45.309,45.309,0,0,0-45.4-45.4Z" transform="translate(-569.495 -576.949)" fill="#fff"/></g><g transform="translate(11.176 11.176)" opacity="0.8"><path d="M680.129,594.685H621.457a33.42,33.42,0,0,0-34.225,34.225V681.3a33.421,33.421,0,0,0,34.225,34.225h32.828l1.4,2.794,11.874,20.256,11.175-20.256,1.4-2.794h3.492a32.853,32.853,0,0,0,21.653-11.176,34.029,34.029,0,0,0,9.08-23.049V628.91a33.42,33.42,0,0,0-34.225-34.225Z" transform="translate(-587.232 -594.685)" fill="#126591"/></g></g><g opacity="0.8"><path d="M351.81,333.869H318.982l-1.4,2.794-11.874,20.256-11.175-20.256-1.4-2.794h-3.493a32.851,32.851,0,0,1-21.653-11.176,34.033,34.033,0,0,1-9.08-23.05V247.258a33.421,33.421,0,0,1,34.225-34.226H351.81a33.421,33.421,0,0,1,34.225,34.226v52.385a33.42,33.42,0,0,1-34.225,34.225ZM293.138,201.857a45.311,45.311,0,0,0-45.4,45.4v52.385c0,11.874,4.89,22.351,11.874,30.733,6.985,6.985,16.065,12.572,26.542,13.969l15.366,26.542,4.191,8.382,4.89-8.382,15.366-25.844H351.81a45.31,45.31,0,0,0,45.4-45.4V247.258a45.311,45.311,0,0,0-45.4-45.4Z" transform="translate(-247.737 -201.857)" fill="#fff"/></g><g transform="translate(11.176 11.176)" opacity="0.8"><path d="M299.7,219.593h58.672A33.421,33.421,0,0,1,392.6,253.819V306.2a33.42,33.42,0,0,1-34.225,34.225H325.543l-1.4,2.794-11.874,20.256L301.1,343.224l-1.4-2.794h-3.493a32.851,32.851,0,0,1-21.653-11.176,34.033,34.033,0,0,1-9.08-23.05V253.819A33.421,33.421,0,0,1,299.7,219.593Z" transform="translate(-265.474 -219.593)" fill="#552978"/></g><g transform="translate(608.222 236.346)"><g transform="translate(0)" opacity="0.8"><path d="M1317.085,708.961h-32.828l-1.4,2.794-11.874,20.256-11.176-20.256-1.4-2.794h-3.493a32.856,32.856,0,0,1-21.653-11.176,34.032,34.032,0,0,1-9.08-23.049V622.35a33.42,33.42,0,0,1,34.225-34.225h58.672a33.42,33.42,0,0,1,34.225,34.225v52.386a33.421,33.421,0,0,1-34.225,34.225Zm-58.672-132.012a45.309,45.309,0,0,0-45.4,45.4v52.386c0,11.874,4.889,22.351,11.874,30.733,6.985,6.985,16.065,12.572,26.542,13.969l15.366,26.542,4.191,8.382,4.89-8.382,15.366-25.844h25.844a45.31,45.31,0,0,0,45.4-45.4V622.35a45.309,45.309,0,0,0-45.4-45.4Z" transform="translate(-1213.012 -576.949)" fill="#fff"/></g><g transform="translate(11.176 11.176)" opacity="0.8"><path d="M1264.973,594.685h58.672a33.42,33.42,0,0,1,34.225,34.225V681.3a33.421,33.421,0,0,1-34.225,34.225h-32.828l-1.4,2.794-11.874,20.256-11.175-20.256-1.4-2.794h-3.493a32.856,32.856,0,0,1-21.653-11.176,34.032,34.032,0,0,1-9.08-23.049V628.91a33.42,33.42,0,0,1,34.225-34.225Z" transform="translate(-1230.748 -594.685)" fill="#478b38"/></g></g><g transform="translate(405.482)"><g opacity="0.8"><path d="M995.327,333.869H962.5l-1.4,2.794-11.874,20.256-11.175-20.256-1.4-2.794h-3.493a32.852,32.852,0,0,1-21.653-11.176,34.033,34.033,0,0,1-9.08-23.05V247.258a33.421,33.421,0,0,1,34.225-34.226h58.672a33.421,33.421,0,0,1,34.225,34.226v52.385a33.42,33.42,0,0,1-34.225,34.225ZM936.655,201.857a45.31,45.31,0,0,0-45.4,45.4v52.385c0,11.874,4.889,22.351,11.874,30.733,6.985,6.985,16.065,12.572,26.542,13.969l15.366,26.542,4.191,8.382,4.89-8.382,15.366-25.844h25.844a45.309,45.309,0,0,0,45.4-45.4V247.258a45.31,45.31,0,0,0-45.4-45.4Z" transform="translate(-891.254 -201.857)" fill="#fff"/></g><g transform="translate(11.175 11.176)" opacity="0.8"><path d="M943.215,219.593h58.672a33.421,33.421,0,0,1,34.225,34.226V306.2a33.42,33.42,0,0,1-34.225,34.225H969.059l-1.4,2.794-11.874,20.256-11.176-20.256-1.4-2.794h-3.493a32.85,32.85,0,0,1-21.653-11.176,34.033,34.033,0,0,1-9.08-23.05V253.819a33.421,33.421,0,0,1,34.225-34.226Z" transform="translate(-908.99 -219.593)" fill="#ae2225"/></g></g><g transform="translate(0 236.346)"><g opacity="0.8"><path d="M293.138,708.961a33.421,33.421,0,0,1-34.225-34.225V622.35a33.42,33.42,0,0,1,34.225-34.225H351.81a33.42,33.42,0,0,1,34.225,34.225v52.386a34.032,34.032,0,0,1-9.08,23.049A32.853,32.853,0,0,1,355.3,708.961H351.81l-1.4,2.794-11.176,20.256-11.874-20.256-1.4-2.794H293.138M351.81,576.949H293.138a45.31,45.31,0,0,0-45.4,45.4v52.386a45.311,45.311,0,0,0,45.4,45.4h25.844l15.366,25.844,4.89,8.382,4.191-8.382L358.8,719.438c10.477-1.4,19.557-6.985,26.542-13.969,6.985-8.382,11.874-18.859,11.874-30.733V622.35a45.31,45.31,0,0,0-45.4-45.4" transform="translate(-247.737 -576.949)" fill="#fff"/></g><g transform="translate(11.176 11.176)" opacity="0.8"><path d="M358.371,594.685H299.7a33.42,33.42,0,0,0-34.225,34.225V681.3A33.421,33.421,0,0,0,299.7,715.522h32.828l1.4,2.794L345.8,738.571l11.176-20.256,1.4-2.794h3.492a32.853,32.853,0,0,0,21.653-11.176A34.032,34.032,0,0,0,392.6,681.3V628.91a33.42,33.42,0,0,0-34.225-34.225" transform="translate(-265.474 -594.685)" fill="#b260a2"/></g></g><g transform="translate(202.741)"><g opacity="0.8"><path d="M614.9,333.869a33.42,33.42,0,0,1-34.225-34.225V247.258A33.421,33.421,0,0,1,614.9,213.033h58.672a33.421,33.421,0,0,1,34.225,34.226v52.385a34.034,34.034,0,0,1-9.08,23.05,32.849,32.849,0,0,1-21.653,11.176h-3.492l-1.4,2.794L661,356.919l-11.874-20.256-1.4-2.794H614.9m58.672-132.012H614.9a45.311,45.311,0,0,0-45.4,45.4v52.385a45.31,45.31,0,0,0,45.4,45.4H640.74l15.366,25.844,4.89,8.382,4.191-8.382,15.366-26.542c10.477-1.4,19.557-6.985,26.542-13.969,6.985-8.382,11.874-18.859,11.874-30.733V247.258a45.31,45.31,0,0,0-45.4-45.4" transform="translate(-569.495 -201.857)" fill="#fff"/></g><g transform="translate(11.176 11.176)" opacity="0.8"><path d="M680.129,219.593H621.457a33.421,33.421,0,0,0-34.225,34.226V306.2a33.42,33.42,0,0,0,34.225,34.225h32.828l1.4,2.794,11.874,20.256,11.175-20.256,1.4-2.794h3.492a32.849,32.849,0,0,0,21.653-11.176,34.031,34.031,0,0,0,9.08-23.05V253.819a33.421,33.421,0,0,0-34.225-34.226" transform="translate(-587.232 -219.593)" fill="#61afd7"/></g></g><g transform="translate(405.482 236.346)"><g opacity="0.8"><path d="M936.655,708.961a33.421,33.421,0,0,1-34.225-34.225V622.35a33.42,33.42,0,0,1,34.225-34.225h58.672a33.42,33.42,0,0,1,34.225,34.225v52.386a34.029,34.029,0,0,1-9.08,23.049,32.853,32.853,0,0,1-21.652,11.176h-3.493l-1.4,2.794-11.175,20.256L970.88,711.755l-1.4-2.794H936.655m58.672-132.012H936.655a45.309,45.309,0,0,0-45.4,45.4v52.386a45.31,45.31,0,0,0,45.4,45.4H962.5l15.366,25.844,4.89,8.382,4.191-8.382,15.366-26.542c10.477-1.4,19.557-6.985,26.542-13.969,6.985-8.382,11.874-18.859,11.874-30.733V622.35a45.309,45.309,0,0,0-45.4-45.4" transform="translate(-891.254 -576.949)" fill="#fff"/></g><g transform="translate(11.175 11.176)" opacity="0.8"><path d="M1001.887,594.685H943.215A33.42,33.42,0,0,0,908.99,628.91V681.3a33.421,33.421,0,0,0,34.225,34.225h32.828l1.4,2.794,11.874,20.256,11.176-20.256,1.4-2.794h3.493a32.853,32.853,0,0,0,21.652-11.176,34.029,34.029,0,0,0,9.08-23.049V628.91a33.42,33.42,0,0,0-34.225-34.225" transform="translate(-908.99 -594.685)" fill="#f48a34"/></g></g><g transform="translate(608.222)"><g transform="translate(0)" opacity="0.8"><path d="M1317.085,333.869h-32.828l-1.4,2.794-11.874,20.256-11.176-20.256-1.4-2.794h-3.493a32.852,32.852,0,0,1-21.653-11.176,34.034,34.034,0,0,1-9.08-23.05V247.258a33.421,33.421,0,0,1,34.225-34.226h58.672a33.421,33.421,0,0,1,34.225,34.226v52.385a33.42,33.42,0,0,1-34.225,34.225Zm-58.672-132.012a45.31,45.31,0,0,0-45.4,45.4v52.385c0,11.874,4.889,22.351,11.874,30.733,6.985,6.985,16.065,12.572,26.542,13.969l15.366,26.542,4.191,8.382,4.89-8.382,15.366-25.844h25.844a45.309,45.309,0,0,0,45.4-45.4V247.258a45.31,45.31,0,0,0-45.4-45.4Z" transform="translate(-1213.012 -201.857)" fill="#fff"/></g><g transform="translate(11.176 11.176)" opacity="0.8"><path d="M1264.973,219.593h58.672a33.421,33.421,0,0,1,34.225,34.226V306.2a33.42,33.42,0,0,1-34.225,34.225h-32.828l-1.4,2.794-11.874,20.256-11.175-20.256-1.4-2.794h-3.493a32.852,32.852,0,0,1-21.653-11.176,34.033,34.033,0,0,1-9.08-23.05V253.819a33.421,33.421,0,0,1,34.225-34.226Z" transform="translate(-1230.748 -219.593)" fill="#d7c314"/></g></g></g></g></g></svg>