<svg xmlns="http://www.w3.org/2000/svg" xmlns:xlink="http://www.w3.org/1999/xlink" width="189.116" height="189.202" viewBox="0 0 189.116 189.202"><defs><linearGradient id="a" x1="0.5" x2="0.5" y2="1" gradientUnits="objectBoundingBox"><stop offset="0" stop-color="#23b1c9"/><stop offset="1" stop-color="#1f90a3"/></linearGradient></defs><g transform="translate(0 0.025)"><path d="M94.558,189.177A94.262,94.262,0,0,1,0,94.619a94.558,94.558,0,0,1,161.508-66.95,94.981,94.981,0,0,1,0,133.9A95.414,95.414,0,0,1,94.558,189.177Zm0-179.453a84.91,84.91,0,1,0,60.048,144.943h0c15.875-16.22,24.847-37.271,24.847-60.048a84.834,84.834,0,0,0-84.9-84.9Z" transform="translate(0 0)" fill="#ab9989"/><g transform="translate(56.942 38.023)"><rect width="12.079" height="75.577" transform="translate(21.051 18.636)" fill="url(#a)"/><rect width="12.079" height="75.577" transform="translate(42.102 18.636)" fill="url(#a)"/><rect width="12.079" height="75.577" transform="translate(63.154 18.636)" fill="url(#a)"/><path d="M28.579,25.494V11.345c0-.345,0-.345-.345-.345A11.637,11.637,0,0,0,16.5,22.733v2.761Z" transform="translate(-16.5 -11)" fill="url(#a)"/><path d="M16.5,16.4v93.868c0,.345,0,.345.345.345h0A11.637,11.637,0,0,0,28.579,98.879V16.4Z" transform="translate(-16.5 2.236)" fill="url(#a)"/></g></g></svg>